<?xml version="1.0" encoding="utf-8"?>
<!-- Generator: Adobe Illustrator 24.2.0, SVG Export Plug-In . SVG Version: 6.00 Build 0)  -->
<svg version="1.1" id="Ebene_1" xmlns="http://www.w3.org/2000/svg" xmlns:xlink="http://www.w3.org/1999/xlink" x="0px" y="0px"
	 viewBox="0 0 443.2 443.1" style="enable-background:new 0 0 443.2 443.1;" xml:space="preserve">
<style type="text/css">
	.st0{fill:#E49BC4;}
	.st1{fill:#FCC145;}
	.st2{fill:#E52525;}
	.st3{fill:#55B791;}
	.st4{fill:#4B4697;}
	.st5{fill:#63BAE9;}
	.st6{fill:#818282;}
</style>
<g>
	<path d="M41.9,32.1l-5.7,50.1l-17.8-3.8c-4.9-1.1-8.7-2.9-11.5-5.3s-4.2-6-4.2-10.8V32.1H41.9z M2.7,341.8v-30.2
		c0-4.8,1.4-8.4,4.2-10.8s6.7-4.2,11.5-5.3l17.8-3.8l5.7,50.1L2.7,341.8L2.7,341.8z M33.8,341.8V32.1h68.7v125.4h10.9
		c5.1,0,9.5-0.9,13.1-2.5c3.6-1.7,6.5-4.1,8.7-7.2l66.3-101.1c3.8-5.7,7.9-9.5,12.5-11.5s10.2-3,17-3h59.4l-87.3,125.4
		c-3,4.5-6.1,8.3-9.5,11.3s-6.8,5.5-10.3,7.4c5.1,2,9.8,4.7,14,8.1c4.2,3.4,8,8.1,11.5,14l89,143.6h-61.1c-7.3,0-12.8-1.1-16.6-3.2
		s-7.1-5.5-10.1-10l-66.7-107.9c-2.4-4-5.5-6.7-9.1-8.3c-3.6-1.6-8.7-2.3-15.2-2.3h-16.5V342H33.8V341.8z M133.7,32.1v30.2
		c0,4.8-1.4,8.4-4.2,10.8s-6.7,4.2-11.5,5.3l-17.8,3.8l-5.7-50.1C94.5,32.1,133.7,32.1,133.7,32.1z M94.4,341.8l5.7-50.1l17.8,3.8
		c4.9,1.1,8.7,2.9,11.5,5.3s4.2,6,4.2,10.8v30.2L94.4,341.8L94.4,341.8z M204.8,32.1l-5.7,50.1l-17.8-3.8c-4.9-1.1-8.7-2.9-11.5-5.3
		s-4.2-6-4.2-10.8V32.1H204.8z M243.3,85.2l-44.1-35.7V32.1h69.1L259,81.8L243.3,85.2z M259,341.8l-22.6-55.7l30.3,5.9L259,341.8z
		 M290.6,32.1v30.2c0,4.8-1.4,8.4-4.2,10.8c-2.8,2.4-6.7,4.2-11.5,5.3L257,82.2l-5.7-50.1H290.6z M259,341.8l5.7-50.1l17.8,3.8
		c4.9,1.1,8.7,2.9,11.5,5.3s4.2,6,4.2,10.8v30.2L259,341.8L259,341.8z"/>
	<path d="M348.8,32.1l-5.7,50.1l-17.8-3.8c-4.9-1.1-8.7-2.9-11.5-5.3s-4.2-6-4.2-10.8V32.1H348.8z M309.6,341.8v-30.2
		c0-4.8,1.4-8.4,4.2-10.8c2.8-2.4,6.7-4.2,11.5-5.3l17.8-3.8l5.7,50.1L309.6,341.8L309.6,341.8z M340.7,341.8V32.1h68.7v309.8h-68.7
		V341.8z M440.6,32.1v30.2c0,4.8-1.4,8.4-4.2,10.8c-2.8,2.4-6.7,4.2-11.5,5.3L407,82.2l-5.7-50.1H440.6z M401.4,341.8l5.7-50.1
		l17.8,3.8c4.9,1.1,8.7,2.9,11.5,5.3s4.2,6,4.2,10.8v30.2L401.4,341.8L401.4,341.8z"/>
	<path d="M468.9,239v-53.1h109.2V239H468.9z"/>
	<path d="M649.6,341.8V89h-82.9V32.1h234.1V89H718v252.8H649.6z M610.8,79.7l-6.1,29.3c-1.1,5.1-2.8,9.1-5.1,12.1s-5.7,4.5-10.3,4.5
		h-22.6V89L610.8,79.7z M618.5,341.8v-30.2c0-4.8,1.4-8.4,4.2-10.8s6.7-4.2,11.5-5.3l17.8-3.8l5.7,50.1L618.5,341.8L618.5,341.8z
		 M709.9,341.8l5.7-50.1l17.8,3.8c4.9,1.1,8.7,2.9,11.5,5.3s4.2,6,4.2,10.8v30.2L709.9,341.8L709.9,341.8z M756.8,79.7l44.1,9.3
		v36.5h-22.6c-4.6,0-8-1.5-10.3-4.5s-4-7-5.1-12.1L756.8,79.7z"/>
	<path d="M908.9,117.9c21.6,0,40.3,4.6,56.2,13.8s28.3,22.3,37.2,39.3s13.3,37,13.3,59.9s-4.4,43-13.1,60.1
		c-8.8,17.1-21.2,30.5-37.2,39.9c-16,9.5-34.8,14.2-56.4,14.2c-21.3,0-40-4.7-56.2-14.2s-28.8-22.8-37.8-39.9s-13.5-37.2-13.5-60.1
		s4.5-42.9,13.5-59.9s21.6-30.1,37.8-39.3C868.8,122.5,887.6,117.9,908.9,117.9z M908.9,296.4c14.6,0,25.2-5.4,31.9-16.1
		c6.7-10.8,10.1-27,10.1-48.9c0-14.7-1.5-26.8-4.4-36.3c-3-9.5-7.6-16.6-13.7-21.2c-6.2-4.7-14.2-7-23.9-7s-17.7,2.3-24.1,7
		c-6.3,4.7-11.1,11.8-14.2,21.2c-3.1,9.5-4.7,21.6-4.7,36.3c0,21.8,3.4,38.1,10.3,48.9C883.2,291,894,296.4,908.9,296.4z"/>
	<path d="M1138.5,117.9c21.6,0,40.3,4.6,56.2,13.8c15.9,9.2,28.3,22.3,37.2,39.3c8.9,17,13.3,37,13.3,59.9s-4.4,43-13.1,60.1
		c-8.8,17.1-21.2,30.5-37.2,39.9c-16,9.5-34.8,14.2-56.4,14.2c-21.3,0-40-4.7-56.2-14.2s-28.8-22.8-37.8-39.9s-13.5-37.2-13.5-60.1
		s4.5-42.9,13.5-59.9s21.6-30.1,37.8-39.3C1098.5,122.5,1117.2,117.9,1138.5,117.9z M1138.5,296.4c14.6,0,25.2-5.4,31.9-16.1
		c6.7-10.8,10.1-27,10.1-48.9c0-14.7-1.5-26.8-4.4-36.3c-3-9.5-7.6-16.6-13.7-21.2c-6.2-4.7-14.2-7-23.9-7s-17.7,2.3-24.1,7
		c-6.3,4.7-11.1,11.8-14.2,21.2c-3.1,9.5-4.7,21.6-4.7,36.3c0,21.8,3.4,38.1,10.3,48.9C1112.9,291,1123.7,296.4,1138.5,296.4z"/>
	<path d="M1302.7,23.6l-5.7,50.1l-17.8-3.8c-4.9-1.1-8.7-2.9-11.5-5.3s-4.2-6-4.2-10.8V23.6H1302.7z M1263.5,341.8v-30.2
		c0-4.8,1.4-8.4,4.2-10.8c2.8-2.4,6.7-4.2,11.5-5.3l17.8-3.8l5.7,50.1L1263.5,341.8L1263.5,341.8z M1294.6,341.8V23.6h62.7v318.3
		h-62.7V341.8z M1349.2,341.8l5.7-50.1l17.8,3.8c4.9,1.1,8.7,2.9,11.5,5.3s4.2,6,4.2,10.8v30.2L1349.2,341.8L1349.2,341.8z"/>
	<path d="M1446.3,23.6l-5.7,50.1l-17.8-3.8c-4.9-1.1-8.7-2.9-11.5-5.3s-4.2-6-4.2-10.8V23.6H1446.3z M1407,341.8v-30.2
		c0-4.8,1.4-8.4,4.2-10.8c2.8-2.4,6.7-4.2,11.5-5.3l17.8-3.8l5.7,50.1L1407,341.8L1407,341.8z M1438.2,341.8V23.6h62.7V202h9.3
		c4,0,7.1-0.6,9.1-1.9c2-1.3,4-3.3,5.9-6.2l39.6-62c2.4-4,5.2-6.7,8.3-8.3c3.1-1.6,7.1-2.3,11.9-2.3h57.4l-54.2,78.6
		c-2.4,3.7-5.2,6.9-8.3,9.8c-3.1,2.8-6.4,5.4-9.9,7.6c6.2,4.5,11.5,10.9,15.8,19.1l59,105.4h-56.6c-4.6,0-8.6-0.8-12.1-2.5
		s-6.3-4.5-8.5-8.5l-39.6-78.2c-1.9-3.4-3.8-5.7-5.9-6.8c-2-1.1-5.1-1.7-9.1-1.7h-12.1v97.7L1438.2,341.8L1438.2,341.8z
		 M1492.8,341.8l5.7-50.1l17.8,3.8c4.9,1.1,8.7,2.9,11.5,5.3s4.2,6,4.2,10.8v30.2L1492.8,341.8L1492.8,341.8z M1565.6,121.3
		l-5.7,50.1l-17.8-3.8c-4.9-1.1-8.7-2.9-11.5-5.3c-2.8-2.4-4.2-6-4.2-10.8v-30.2L1565.6,121.3L1565.6,121.3z M1595.1,174.4
		l-44.1-35.7v-17.4h69.1l-9.3,49.7L1595.1,174.4z M1606.8,341.8l-22.6-55.7l30.3,5.9L1606.8,341.8z M1642.4,121.3v30.2
		c0,4.8-1.4,8.4-4.2,10.8c-2.8,2.4-6.7,4.2-11.5,5.3l-17.8,3.8l-5.7-50.1C1603.2,121.3,1642.4,121.3,1642.4,121.3z M1606.8,341.8
		l5.7-50.1l17.8,3.8c4.9,1.1,8.7,2.9,11.5,5.3s4.2,6,4.2,10.8v30.2L1606.8,341.8L1606.8,341.8z"/>
	<path d="M1703,121.3l-5.7,50.1l-17.8-3.8c-4.9-1.1-8.7-2.9-11.5-5.3c-2.8-2.4-4.2-6-4.2-10.8v-30.2L1703,121.3L1703,121.3z
		 M1663.8,341.8v-30.2c0-4.8,1.4-8.4,4.2-10.8c2.8-2.4,6.7-4.2,11.5-5.3l17.8-3.8l5.7,50.1L1663.8,341.8L1663.8,341.8z M1727.7,99.2
		c-10,0-18.7-3.8-26.1-11.3s-11.1-16.5-11.1-27c0-10.8,3.7-19.9,11.1-27.4s16.1-11.3,26.1-11.3c10.5,0,19.5,3.8,27.1,11.3
		c7.5,7.5,11.3,16.6,11.3,27.4c0,10.5-3.8,19.5-11.5,27C1746.9,95.5,1737.9,99.2,1727.7,99.2z M1694.9,341.8V121.3h62.7v220.5
		H1694.9z M1749.5,341.8l5.7-50.1l17.8,3.8c4.9,1.1,8.7,2.9,11.5,5.3s4.2,6,4.2,10.8v30.2L1749.5,341.8L1749.5,341.8z"/>
	<path d="M1891.5,345.2c-19.7,0-34.8-5.8-45.5-17.4s-16-27.3-16-47.2V166.8h-17.8c-3.2,0-6-1.1-8.3-3.2c-2.3-2.1-3.4-5.3-3.4-9.6
		v-25.9l33.6-6.8l12.1-53.5c1.6-6.8,6.2-10.2,13.7-10.2h32.8v64.2h51v45h-51v109.6c0,5.1,1.2,9.3,3.6,12.5c2.4,3.3,5.8,4.9,10.1,4.9
		c3,0,5.3-0.4,7.1-1.3c1.7-0.8,3.3-1.6,4.6-2.3c1.3-0.7,3-1.1,4.9-1.1c3,0,5.7,1.8,8.1,5.5l19,31.4c-8.1,6.2-17.2,11-27.3,14.2
		S1902.3,345.2,1891.5,345.2z"/>
</g>
<g>
	<path class="st0" d="M132.4,344.7c17.3,0,34.6,0,51.9,0c1,0,2,0,2.9,0.4c1.2,0.1,2,0.9,2.5,2.1c0.4,0.7,0.4,1.4,0.4,2.2
		c0,0.7,0,1.3,0,2c0,29.4,0,58.7,0,88.1c-0.2,2.3-1.1,3.3-3.1,3.5c-1.4,0-2.9,0.1-4.3,0.1c-17.6,0-35.3,0.1-52.9-0.1
		c-2-0.3-2.9-1.3-3-3.6c0-10.4,0-20.7,0-31.1c0-19.6,0-39.3,0-58.9c0-0.8,0-1.5,0.4-2.2c0.5-1.2,1.3-2,2.5-2.1
		C130.5,344.7,131.5,344.7,132.4,344.7z"/>
	<path class="st1" d="M253.5,351.2v85.4c0,0.8,0,1.7-0.1,2.5c-0.1,1.5-0.8,2.5-1.9,3.2c-0.5,0.2-1.1,0.1-1.7,0.1h-56.1
		c-0.6,0-1.1,0.1-1.7-0.1c-0.2-0.1-0.3-0.2-0.5-0.3c-1.5-1.3-1.5-3.1-1.5-5v-86.1c0-1.2,0-2.4,0.4-3.5c0.5-2.1,1.1-2.6,2.9-2.7h56.5
		c0.3,0,0.7,0,1,0c0.9,0,1.5,0.6,1.9,1.4c0.2,0.4,0.3,0.8,0.4,1.2C253.6,348.6,253.5,349.9,253.5,351.2z"/>
	<path class="st2" d="M2.9,442.5c-0.3,0-0.6,0-0.9-0.1c-1.8-0.7-1.9-2.3-1.9-4.1c0-29.7,0-59.4,0-89.1c0-0.9,0.1-1.7,0.4-2.6
		c0.3-0.8,0.9-1.5,1.6-1.8c0.4-0.2,0.8-0.1,1.1-0.1c19,0,38,0,57.1,0c0.4,0,0.8-0.1,1.1,0.1c0.7,0.4,1.3,1,1.6,1.8
		c0.2,0.7,0.3,1.3,0.3,2c0,30.4,0,60.7,0,91.1c0,0.2,0,0.3,0,0.5c-0.1,0.3-0.2,0.6-0.3,0.8c-0.2,0.4-0.5,0.7-0.9,1
		c-0.2,0.2-0.5,0.3-0.7,0.3c-0.1,0-0.3,0-0.4,0"/>
	<path class="st3" d="M126.6,348.2c0.1,2.2,0,4.4,0,6.5c0,23.6,0,47.2,0,70.8c0,4.6,0.1,9.2,0,13.9c0,0.2,0,0.3-0.1,0.5
		c-0.1,0.3-0.2,0.5-0.2,0.8c0,0.1-0.1,0.2-0.2,0.3c-0.1,0.2-0.2,0.4-0.4,0.6c-0.1,0.1-0.1,0.2-0.2,0.2c-0.1,0.1-0.3,0.2-0.4,0.3
		c-0.1,0.1-0.2,0.1-0.3,0.2c-0.2,0.1-0.5,0.2-0.7,0.2c-0.9,0-1.7,0.1-2.6,0.1H68.3c-1,0-2,0-2.9-0.1c-0.3-0.1-0.6-0.2-0.8-0.4
		c-1.1-0.9-1.3-2.3-1.3-3.7v-89.1c0-0.8,0-1.6,0.4-2.3c0.3-0.9,0.8-1.7,1.6-2.1c0.4-0.3,0.8-0.1,1.2-0.1c19,0,38.1,0,57.1,0
		c0.4,0,0.8-0.1,1.2,0.1c0.7,0.4,1.3,1.2,1.6,2.1C126.6,347.3,126.6,347.8,126.6,348.2z"/>
	<path class="st4" d="M256.6,344.7h57.1c0.4,0,0.8-0.1,1.1,0.1c0.5,0.3,0.9,0.6,1.3,1.1c0.3,0.3,0.5,0.6,0.6,1.1
		c0.1,2.3,0.1,4.5,0.1,6.8c0,26.8,0,53.7,0,80.5c0,1.8,0,3.6,0,5.4c0,0.2,0,0.3,0,0.5c0,0.3-0.1,0.5-0.3,0.7
		c-0.1,0.2-0.2,0.4-0.3,0.6c0,0-0.1,0.1-0.1,0.1c-0.1,0.1-0.1,0.2-0.2,0.2c0,0-0.1,0.1-0.1,0.1c-0.1,0.1-0.1,0.1-0.2,0.2
		s-0.2,0.1-0.3,0.2c-0.3,0.1-0.6,0.2-0.9,0.2c-19.4,0.1-38.9,0.1-58.3,0c-0.1,0-0.3,0-0.4-0.1c-0.3-0.1-0.5-0.2-0.7-0.3
		c-0.1-0.1-0.2-0.1-0.3-0.2s-0.2-0.2-0.3-0.3c-0.4-0.5-0.7-1.1-0.7-1.8c0-0.3,0-0.7,0-1c0-28.2,0-56.5,0-84.7c0-2.4,0-4.7,0.1-7.1
		c0.1-0.4,0.3-0.8,0.6-1.1c0.4-0.4,0.8-0.8,1.3-1.1C255.9,344.6,256.3,344.7,256.6,344.7z"/>
	<path class="st5" d="M443.2,349.1c0,18.8,0,37.6,0,56.4c0,11.4,0,22.8,0,34.2c0,0.2,0,0.3-0.1,0.5c0,0.2-0.1,0.4-0.2,0.6
		c0,0.1-0.1,0.2-0.2,0.3c-0.2,0.2-0.3,0.4-0.5,0.6l-0.1,0.1c-0.1,0.1-0.2,0.1-0.2,0.2c-0.1,0.1-0.2,0.1-0.3,0.1
		c-0.2,0.1-0.4,0.2-0.6,0.2c-0.1,0-0.2,0.1-0.3,0.1c-0.4,0.1-0.8,0.1-1.1,0.1c-4.6,0.1-9.2,0.1-13.8,0c-14.2,0-28.4,0.1-42.6-0.1
		c-1.5-0.1-2.5-0.8-3-2.5c0-0.4-0.1-0.8,0-1.2c0-30.1,0-60.1,0-90.2c0-0.7,0.1-1.5,0.3-2.2c0.7-1.4,1.8-1.8,3.1-1.8
		c18.7,0,37.5,0,56.2,0c1.4,0,2.4,0.4,3.1,1.8C443.2,347.4,443.2,348.2,443.2,349.1z"/>
	<path class="st6" d="M322.5,344.7c17.2,0,34.5,0,51.7,0c1,0,2.1,0,3.1,0.4c1,0.2,1.8,0.8,2.3,1.9c0.4,0.9,0.4,1.9,0.4,2.9v88.2
		c0,0.4,0,0.9,0,1.3c-0.1,2.2-0.9,3.3-2.9,3.6c-19.2,0.1-38.3,0.1-57.5,0c-2.1-0.3-2.8-1.4-2.8-4.2v-89.5c0-0.8,0-1.7,0.4-2.4
		c0.5-1,1.2-1.7,2.3-1.9C320.4,344.7,321.5,344.7,322.5,344.7z"/>
</g>
</svg>
