<svg id="Ebene_1" data-name="Ebene 1" xmlns="http://www.w3.org/2000/svg" viewBox="0 0 4542.46 2888.61"><path d="M4542.46,1910.07v607.66c-2.5,4.7-7.15,5.59-11.72,6.65-93.21,21.52-187.34,38-281.88,52.46-86.59,13.27-173.6,23.07-260.6,33.07-45.62,5.24-91.4,8.94-137.16,12.88q-57.18,4.92-114.41,9.06-38.78,2.8-77.67,5c-30.55,1.71-61.17,2.18-91.64,5.29a152,152,0,0,1-16,.41c-46.28-.11-92.41,3.84-138.69,4.5-41.55.6-83.12,2.58-124.7,3.68-83.91,2.2-167.83,2.5-251.74,1.58q-96.33-1.07-192.66-4.11c-48.53-1.49-97.07-3.58-145.57-6-50.83-2.52-101.69-4.65-152.47-7.93-59.09-3.81-118.11-8.57-177.13-13.34-64.06-5.17-127.83-12.9-191.71-19.69-92.75-9.85-185.13-22.44-277.27-36.84-76.36-11.93-152.32-26.17-227.66-43.54-11.64-2.68-13.17-5.43-9.48-16.9,6.32-19.65,13.57-39,15.51-59.82,1.08-11.67,1.78-23.37.68-34.9-5.48-57.68-.92-114.36,15.34-170,2.71-9.27,4.09-18.9,6.92-28.13,3.44-11.21,6.86-12,14.38-3.26,11.54,13.43,23.9,25.89,38.18,36.46,29.24,21.63,62.79,31.31,98.18,36.58,41.69,6.21,83.61,7.29,125.56,5.88,21.24-.71,42.49-2.61,63.66-5.15,14-1.69,24.06-8,31.62-19.88,8.38-13.14,9.54-13.33,24.62-9.36,133.37,35.06,266.64,70.52,400.26,104.66q96.81,24.74,193.64,49.45c63.24,16.23,126.56,32.14,189.78,48.41,17.1,4.4,34.25,8.61,51.19,13.58,6.8,2,13,.71,19.43-1.79,58.66-22.87,117.2-46,176.21-68,109-40.54,217.57-82,326.88-121.55,82.68-29.94,164.87-61.22,247.77-90.55,4.51-1.59,12.09-2.34,11.81-7.44-.34-6.21-8.18-5.27-13-6.36-128.38-28.82-257-56.69-385.59-84.47-119.49-25.8-238.91-52-358.54-77.14-35.21-7.41-70.05-16.49-105.47-22.84-7.28-1.3-12.76-5.51-17.61-10.71-11.41-12.24-25.56-17.41-41.64-13.17-20.87,5.49-40.82,1.68-61-2.94-33.12-7.58-66.59-13.55-99.52-22a33.74,33.74,0,0,0-18.66.52c-26.46,8-53,15.83-79.16,24.74-35.94,12.25-72.46,22.69-108.13,35.83-15.15,5.59-31.85,3.22-47.6,1.65-21.92-2.17-43.93-2.14-65.79-2.72-34.26-.91-68.6-1.32-102.79-3.1-30.57-1.6-61.26.09-91.75-3.52-6.37-.75-11.3-2.92-12.68-9.2-4.08-18.62-17.83-24-34.31-26.66-8-1.31-16.84-.5-23.6-6.62a5.37,5.37,0,0,1,.1-5.21,82.27,82.27,0,0,1,52-9.27c57.75,8.12,113.58,2.52,167.63-19.63,6.62-2.72,13.55-3.08,20.57-3.36,18.29-.74,26.12-6.82,30.4-24.31,1.57-6.45,4.33-10.72,10.91-12.75,9.3-2.88,15.33-9.37,17.43-18.9,1.58-7.23,6-10.5,12.91-12,12.91-2.71,21.56-10,23.67-23.67.88-5.71,4.18-9.65,9-12.5,2.88-1.68,5.83-3.23,8.74-4.86,12.82-7.19,19.32-17.48,17.93-32.77-1.13-12.39.6-14,13-14,40-.22,79.79-3.34,119.72-4.46,43.24-1.21,86.51-2.17,129.71-4.08,38.65-1.72,77.28.07,115.85-1.74,80.25-3.76,160.53-1.7,240.77-1.4,43.92.17,87.9.62,131.82,1.94,39.57,1.18,79.17,2.28,118.72,4,45.87,2,91.77,3.22,137.61,5.82,61.12,3.48,122.26,7,183.26,12.12,85.57,7.2,171.14,14.28,256.58,23q187.46,19.21,373.21,50.59c92.65,15.7,184.82,33.84,275.93,57C4524.09,1902.49,4534.35,1903.42,4542.46,1910.07Z" style="fill:#fff"/><path d="M1309.86,2891.52H230.33a9.58,9.58,0,0,1-1.48-3.13q-12.39-82-23.09-164.18c-7.68-58.43-16.33-116.72-24.17-175.12-12.32-91.74-25.44-183.36-38.05-275.05-14.89-108.19-29.29-216.45-45.17-324.5-9.14-62.16,32.44-112,95-113.44,16.34-.36,32.37,3.72,48.41,6.7q200.42,37.21,402.11,66.79,102.28,15.14,204.78,28.78c71.63,9.45,143.22,19.19,214.86,28.64,82.4,10.86,137.3,68.4,147.39,151.09q14.52,119,30.61,237.72c9.21,68.61,17.09,137.41,27.3,205.89,6.38,42.8,11.81,85.73,17,128.68,7.82,64.44,16.58,128.75,25.55,193a17.32,17.32,0,0,1,.1,5A8.78,8.78,0,0,1,1309.86,2891.52Z" style="fill:#fff"/><path d="M1310.16,2889.26c-4.17-12.09-4.33-24.86-6.13-37.33q-8.21-56.79-15.54-113.7c-3.69-28.37-6.65-56.83-10.37-85.2-5.45-41.56-11.36-83.07-16.93-124.62q-7.76-57.87-15.2-115.78-11.19-86.12-22.28-172.26c-5.34-41.24-10.61-82.49-16.07-123.71-4.45-33.62-15.6-64.42-37.86-90.73-24.42-28.86-55.54-46.26-92.14-53.63-19.2-3.86-38.84-5.57-58.28-8.21q-56.36-7.66-112.71-15.28c-28-3.73-56.09-7.13-84.11-10.9-26.7-3.59-53.36-7.44-80-11.2-25-3.53-50.06-7-75-10.67-37.83-5.61-75.61-11.55-113.44-17.11-38.82-5.69-77.52-12.08-116.19-18.74q-50.11-8.62-100.29-17c-41.63-7-83.06-15.06-124.59-22.58-24.33-4.4-48-.57-69.26,12.36-26.88,16.32-41.33,40.57-43.25,72.15-1,16.79,2.35,33.11,4.69,49.56,6.28,44.14,12.73,88.26,18.77,132.44,9.77,71.53,19.15,143.11,28.94,214.64,4.69,34.27,10.1,68.45,14.88,102.71,5,35.91,9.51,71.89,14.49,107.81,5.61,40.53,11.63,81,17.26,121.54,3.79,27.32,7.16,54.7,10.83,82q5.27,39.08,10.77,78.11c3.41,24.37,6.94,48.73,10.34,73.1.12.83-.58,1.77-.9,2.67-3.39,1.09-6.76,1.49-10.08-.28-4.29-26.58-7.16-53.35-11.42-79.95s-7-53.38-10.55-80.07q-9-66.75-18.26-133.48c-4.95-35.57-10.24-71.1-15.19-106.67-7-50.42-13.82-100.86-20.75-151.29-5-36.59-10.7-73.1-15-109.77-6.06-51.23-14.9-102.07-21-153.3-3-25.07-7.49-50-11-75-2.92-20.75-6.31-41.51-7.89-62.38-4-53,30-91,70.5-103.8,20.23-6.38,40.39-6.7,61.07-3,63.17,11.4,126.34,22.73,189.6,33.59q76.2,13.09,152.62,25c56.21,8.69,112.52,16.69,168.8,24.89,31.59,4.6,63.16,9.34,94.82,13.38,14.89,1.9,12.67,4.43,16.48-10.52,12.39-48.65,27.1-96.62,42.11-144.51a2932,2932,0,0,1,113.87-303.15c33.32-75.83,69.22-150.4,114.45-220.07,6-9.21,12.06-18.36,18.43-27.29,3.13-4.39,3.77-8.17,2.3-13.7-7.39-27.87-10.92-56.24-6.53-85,4.32-28.35,15.88-53.32,36.2-74a439.16,439.16,0,0,1,32.4-29.68c25-20.81,40.16-47.39,47.63-78.81,2.92-12.28,6.3-24.49,10.26-36.46,12.76-38.59,38.19-67.22,71.42-89.59,27.79-18.71,58.41-31.33,89.87-42.22,24.75-8.58,50-15.72,73.75-27.13,5.57-2.68,10.17-5.16,12.31-11.66,1.94-5.9,7.11-9.62,13-11.51,4.27-1.36,5.06-3.78,5.14-8.07.63-33.65,3.08-67.23,8.41-100.44,7.83-48.76,21-96.06,42.61-140.71C1606,400.73,1654.44,339.66,1721.29,294a361.1,361.1,0,0,1,145.91-58.34c50.62-8.42,100-1.27,148,16.34,60,22,112.05,56.29,158.07,100.2,30.24,28.86,57,60.69,78.83,96.35,11.7,19.09,20.77,39.39,23.74,61.93.34,2.64.88,5.3,2.9,7.29,16.74,16.58,25,37.52,29.55,59.94,12.57,62.2-1,118.13-41.81,167-9.93,11.88-22.19,21-35.56,28.74-2.86,1.64-5.65,3.64-9.26,3.09-2.77-1.37-4.87-3.26-5-6.62,5-8.75,14.83-11.69,22-17.81,21.24-18,37.8-39,47.39-65.25,20.32-59.35,20.71-116.08-21.86-167.19-4.72-45.52-31.09-80.14-58.88-113.42C2149.05,338.79,2081.23,287,1996.5,259.74c-57.23-18.44-114.69-18.13-171.93-.5-52.67,16.23-99.06,43.44-139.61,81-83.8,77.56-129.35,174.32-144.75,286.28-4.3,31.28-8.28,62.65-7.53,94.35a8.4,8.4,0,0,0,2.9,5.07c22.12,19.77,34.83,45.43,45.51,72.37,1.59,4.42,2.82,9,4.81,13.25,1.46,3.57,3.86,6.58,5.89,9.81,3.5,10.91,12.27,13.84,22.35,14.59a128.33,128.33,0,0,0,33.41-2.39,18,18,0,0,1,2.78-.71,39,39,0,0,0,6.83-1.47c.89-.33,1.79-.59,2.7-.83a157.86,157.86,0,0,0,35.93-13.81,396.91,396.91,0,0,0,36.59-22.31c5.35-3.76,7.24-7.9,4.8-14.42-9.1-24.3-10.35-49.56-5.27-74.6,4.71-23.22,16-43.59,34.11-59.58a28.2,28.2,0,0,1,3.67-3c13.55-9.21,28.21-14.49,44.87-12.68a35.28,35.28,0,0,1,7.32.71c1.77.42,3.47,1.07,5.2,1.64a20.18,20.18,0,0,1,2.47.88,29.36,29.36,0,0,1,3.51,1.74,16.35,16.35,0,0,1,2.2,1.49c.73.54,1.41,1.13,2.09,1.74.35.3.68.62,1,.93,10.69,9.25,19,20.13,23.37,33.8-.38,9.63,4.29,14.36,13.4,18,47.5,18.81,95.95,18.46,145.08,9.08a307.75,307.75,0,0,0,45.06-12.56c11.41-2.92,22.17-7.55,32.74-12.63a25.07,25.07,0,0,1,2.28-1.08c1.43-.62,2.9-1.18,4.32-1.85.65-.35,1.33-.64,2-.93,1-.49,2-1,2.92-1.51.65-.37,1.32-.7,2-1a52.21,52.21,0,0,0,5-2.73,22,22,0,0,1,2.13-1.17,39.4,39.4,0,0,0,7.52-4.61,20.81,20.81,0,0,1,2.28-1.44c38.37-22.12,71.28-50.64,99.53-84.63,3.85-4.77,7.48-9.7,10.94-14.77,3.67-3.87,7.25-8,13.45-4.82,5.93,8.81,5.15,19.1,5.55,28.84,1.86,45.43-7.91,88.87-23.12,129.72a184.35,184.35,0,0,0,16.22-24.39c15.46-27.8,21.76-57,14.35-88.48-.23-1-.46-2-.64-2.93-.83-4.35-1.8-9,3.34-11.3,5.84-2.56,9.47.61,11.85,5.77a30.11,30.11,0,0,1,1.12,2.91c.72,2.45,1.48,4.9,2.17,7.37,9,47.77-9.6,87.1-38,123.38-2.25,2.88-4.92,6.22-8.43,6.77-9.83,1.54-13.18,8.87-16.59,16.55a159.35,159.35,0,0,1-10.13,18.31c-2.52,3.59-4.36,7.77-8.49,10-7.92,10.35-14.14,21.74-19.75,33.43-6,12.54-8,26.06-7.95,39.81.18,22.64,1.16,45.24,4.45,67.71a196.79,196.79,0,0,1,2,22.86c.45,15.9-6.37,24-22,26.9-8.29,1.54-16.6.44-24.9,0-19.71-1.12-19.65-1.11-30.69,15.46-7.19,10.81-14.92,21.24-23.09,31.34-18.43,22.77-36.65,45.71-55.29,68.32-17.42,21.13-39.7,32-67.48,29.52a122.37,122.37,0,0,1-31.06-6.87c-21.1-7.65-39.93-19.56-59-30.95-5.42-3.23-10.84-6.47-16.35-9.55-10.9-6.08-21.55-5.28-32.17,1.06a90.3,90.3,0,0,0-20.08,16.3,447.8,447.8,0,0,0-65.56,92.63c-2,3.76-2.67,6.9,0,10.86,29.58,44,45.88,93.34,59,144.08,21.28,82,42.07,164.2,65.68,245.61,18.61,64.13,38.39,127.88,60.44,190.92.66,1.88,1.42,3.73,2.15,5.58,1.14,2.92,2.92,3.38,6.19,3,18.53-1.92,37-4.83,55.67-4.93,4.61,0,9.41-1.16,12.07,4.39,1,2.09,3.34,2,5.33,1.69,18.89-2.52,37-6.13,51.76-20.23a508.45,508.45,0,0,1,44-37.66c29.38-22.34,63.52-34.28,97.91-45.72,6.25-2.08,12.48-4.6,19.23-4.91,4.32-.2,6.19-2.83,7.25-6.78,9.79-36.22,21.66-71.81,32.44-107.73.28-1,.75-1.85,1-2.81,4.22-14.07,9.82-17,25.65-15.43a52.66,52.66,0,0,1,10.8,1.72c7.38,2.36,13.82,1.77,20.29-3,4.52-3.36,10.21-2.9,15.24-.44,23.57,11.51,49.6,14.38,74.42,21.51,6.69,1.92,13.53,3.36,19.85,6.45,5.91,2.9,9.58,7,8.45,14.15-.26,1.64-.07,3.35-.33,5-.9,5.67.87,9,6.7,11.27,6.44,2.49,12.44,6.32,18.29,10.08,8,5.13,9.31,9.56,6.48,18.7a19.36,19.36,0,0,1-1.8,4.63c-2.65,4.24-1.33,7.18,2.22,10.28,7.27,6.34,14.31,13,21.25,19.67a89.1,89.1,0,0,1,9.32,10.39c5.37,7.1,5.37,11.24-1,17.49-12.8,12.62-26,24.86-39.08,37.17-7.76,7.3-15.7,14.42-23.49,21.69-2.34,2.18-5.26,3.93-6.62,7.81,7.92,1.36,15.31-.7,22.73-1,57.24-2,114.48-4.36,171.73-6.32,121.85-4.15,243.73-6.46,365.65-5.38q120.9,1.06,241.79,4.07c49.94,1.19,99.85,3.59,149.75,6q70.84,3.35,141.63,7.82c39.21,2.49,78.36,5.79,117.54,8.76,30.54,2.32,61.11,4.41,91.62,7.08,31.82,2.79,63.59,6.11,95.38,9.27q30.8,3,61.57,6.31c33.09,3.55,66.19,7,99.25,10.93,28.74,3.39,57.47,7,86.13,11.08q56.3,8,112.46,16.85,57.61,9.21,115.07,19.51c62.45,11.24,124.63,23.88,186.34,38.67,19.69,4.72,39.27,9.89,58.91,14.81,1.95.49,3.91.83,5.42,2.3v10c-11.87-1.57-23.08-5.84-34.66-8.61-59.11-14.15-118.25-28.18-178.1-39-49.05-8.83-98.11-17.65-147.3-25.7-38.06-6.22-76.29-11.44-114.49-16.74-38.87-5.39-77.75-10.7-116.71-15.37-34-4.07-68.15-7.26-102.24-10.7-37.75-3.82-75.5-7.68-113.28-11.14-28.17-2.58-56.4-4.54-84.6-6.79-29.86-2.38-59.72-4.89-89.59-7.13-21.91-1.65-43.84-3-65.77-4.4-69.79-4.51-139.67-7.25-209.54-10-115.16-4.47-230.38-6.31-345.63-6.23-74.28.06-148.56.57-222.81,2.09-66.92,1.37-133.82,4-200.71,6.34-32.26,1.14-64.47,3.52-97.61,3.66a57.64,57.64,0,0,1,2.35,18.63c-.48,9.36-4.54,16.5-11.72,22.13a98.92,98.92,0,0,1-18.85,11.12c-3.63,1.73-5.19,4.22-5.47,8.53-.92,14.53-11.41,25.35-25.65,27.27-2.31.31-4.62.57-6.91,1-2.67.44-3.5,1.91-3.79,4.77-1.45,14.53-8.38,22.4-23,26.05-3.76.94-5.38,1.86-5.52,6.32-.48,15.82-7.5,24.19-22.81,28.59-.95.27-1.9,1-2.82.9-21.68-1.28-40.71,8.6-60.51,14.76-37.17,11.56-75.07,13.74-113.52,11.28a41.06,41.06,0,0,1-5.91-.94c-23.1-5-45.54-1.79-67.68,5.34-2.48,1.23-2.77,2.51-.09,3.84,10.43,2,20.8,4.44,31.31,5.9,15.27,2.13,24.56,10.09,28.33,25.19,2.27,9.13,2.82,8.93,11.83,9.22,82.23,2.69,164.48,5.22,246.7,8.25,15.31.57,30.61,1.27,45.93,1.7a32.26,32.26,0,0,0,12.69-1.88c41.9-15.89,85-28.34,127.52-42.29,22.06-7.23,44.35-13.73,66.5-20.68,2.23-.7,4-1.28,6.56-.63,38.6,9.79,77.75,17.1,116.56,25.89,15.27,3.46,29.77,5.06,44.94,1.31,4.47-1.11,9.25-1.1,13.9-1.4,13-.83,24.64,3,33.37,12.63,7.58,8.37,16.37,11.88,27.39,14,33.56,6.47,66.81,14.54,100.21,21.84,55.77,12.2,111.44,24.9,167.39,36.25,55.32,11.23,110.32,23.93,165.54,35.58,68.2,14.38,136.2,29.66,204.29,44.54q81.72,17.85,163.45,35.69c15.89,3.48,31.74,7.13,47.62,10.69a14.05,14.05,0,0,1,2,.32c3.29,1.22,7.85,1.13,8.33,5.78.54,5.13-3.82,6.53-7.55,7.87-25,9-50,17.8-75,27q-163.49,60.23-326.92,120.63-164.88,60.81-328.74,124.31-17.66,6.81-35.22,13.85a16.74,16.74,0,0,1-11.31.63c-109.94-28.29-220-56-329.91-84.43-106.37-27.48-212.94-54.16-319-82.81-65.69-17.74-131.65-34.42-197.41-51.9-5.28-1.4-7.91-.79-10.18,4.08-9.15,19.66-25.35,27.14-46.36,28.81-37.91,3-75.82,4.72-113.81,3.65-34.3-1-68.4-4.38-101.8-12.71-44.34-11.06-79.68-35.71-107.23-71.89-.59-.77-1.26-1.49-2.29-2.69-3.37,4-3.66,9-4.73,13.48-5.78,23.91-11.51,47.83-16.74,71.86a286.07,286.07,0,0,0-6.56,66.43c.34,17.31.6,34.62,2,51.91,2.42,31-1.69,61.09-13.14,90.11-1.58,4-2.94,8.12-4.14,12.27-2.19,7.5-2,7.77,5.08,9.32,12,2.62,24,5.4,36,7.79,40.08,7.94,80.12,16.12,120.31,23.49q65.24,12,131,21c36.23,5,72.38,10.53,108.65,15.23,36,4.65,72,8.6,108,12.74,32.72,3.77,65.44,7.51,98.19,11q34.26,3.67,68.59,6.65,69.66,5.94,139.37,11.38c25.24,1.93,50.52,3.28,75.79,4.67q68.84,3.81,137.68,7.32c17,.87,34,1.31,50.93,2.06q149.78,6.66,299.7,8.3c90.29,1,180.58,0,270.86-1.9,48.29-1,96.58-2.53,144.85-4.22,45.94-1.61,91.89-3.26,137.79-5.79,38.89-2.14,77.81-3.83,116.64-7,48.12-3.94,96.31-7,144.43-10.9,32.82-2.67,65.6-6,98.36-9.35,33.1-3.36,66.21-6.65,99.21-10.77,34.31-4.29,68.67-8.21,103-12.72,35.59-4.69,71.13-9.67,106.59-15.19,41.7-6.5,83.38-13.19,124.89-20.89q61.26-11.36,122.05-24.85c10.3-2.27,20.92-3.55,30.69-8v12c-2.33,4.35-6.67,5.28-10.9,6.18-69.72,14.88-139.6,28.77-210,40.41-47,7.77-94.1,14.51-141.18,21.56-64.25,9.61-128.85,16.23-193.42,23.18-60.58,6.51-121.26,11.91-182,17-42.1,3.55-84.29,6.19-126.47,8.94-45.16,2.95-90.37,4.65-135.55,7.12-20.57,1.12-41.18,2.4-61.84,2.65-64.9.78-129.75,4-194.68,4.52-25.58.2-51.25.84-76.87,1.37-23,.47-46,1.66-68.85,1.32-58.27-.87-116.56-.41-174.81-1.87-17.6-.45-35.24-1.42-52.88-1.39-51.94.07-103.79-3.32-155.7-4.54-41.88-1-83.8-3.2-125.62-5.85-58.77-3.72-117.6-6.33-176.33-11.11q-119-9.7-237.67-22c-114.7-11.71-228.82-27.61-342.67-45.53-65.18-10.26-129.87-23.17-194.41-36.84-1.63-.35-3.25-.76-4.89-1-2.89-.44-6.27-2.27-8.54.3-2.63,3-.21,6.34,1,9.28,6,14.49,14.63,27.66,21.9,41.52,3.72,7.08,7.53,14.24,9.79,21.86,3,10.05,9.6,14.05,19.36,16,55.23,10.9,110.38,22.22,165.94,31.41,73.64,12.17,147.41,23.44,221.59,31.62,86.38,9.52,172.69,19.66,259.3,27.1,62,5.32,124,10.3,186.17,14,49.49,2.94,99,5.82,148.5,8,51.54,2.26,103.08,4,154.61,6.08,138.85,5.6,277.74,3.46,416.6,3.18,49.54-.1,99.15-2.35,148.71-3.88,49.87-1.54,99.74-3.9,149.59-6.05,55.83-2.41,111.63-5.9,167.37-10q119.49-8.79,238.71-21c84.82-8.72,169.48-18.44,253.81-31,3.95-.59,7.88-1.44,11.91-.76,5.27,1.48,10.06,3.68,13,8.67-.13,2.79-1.78,4.44-4.19,5.53-27.66,6.11-55.81,9.11-83.83,12.86q-116.76,15.61-234.06,26.68c-58.61,5.59-117.29,10.41-176,15-45.07,3.52-90.21,6.53-135.38,8.74q-68.25,3.35-136.52,6c-41.54,1.59-83.13,2.2-124.62,4.18-46,2.19-91.84.66-137.74,1.52-14.2.27-14.65.52-14.68,14.53-.05,33.29,0,66.58-.05,99.86,0,4.93.69,10.07-2.54,14.47a14,14,0,0,1-11.14-.13c-3.33-4.75-2.5-10.22-2.52-15.47-.09-32.6,0-65.2-.07-97.8,0-12.58-.69-13.48-12.67-13.29-85.16,1.35-170.26-3.27-255.42-2.05-25.14.36-24.79-3.62-22.93,24.72,2,29.95,1,59.84,1.46,89.75.08,5.14,1.16,10.82-3.76,14.82-10.82.54-11.46.05-12-10.13a40.13,40.13,0,0,0-1.24-9.77c-2-29.59-.49-59.23-.9-88.85-.36-25.48,2.7-22.48-23.2-22.89-48.89-.77-97.72-3.23-146.56-5.52-18.6-.88-37.21-2-55.83-2.38-31.94-.61-63.73-3.7-95.59-5.6-30.88-1.84-61.73-3.91-92.56-6.39-37.14-3-74.26-6.22-111.39-9.17-37.5-3-74.86-7.13-112.27-10.91q-73-7.39-145.89-16.29c-60.83-7.45-121.57-15.44-182-25.31q-97.14-15.85-193.63-35.26c-1.63-.33-3.28-1.07-4.88-1-3.41.24-8.68-4.56-9.83,1.84-.94,5.24-1.19,11.69,5.4,14.74,5.19,2.4,10.93,2.86,16.39,4.29,99.27,26.07,197.76,54.66,293.55,91.77,37,14.33,73.22,30.44,106.42,52.52,27.31,18.15,50.46,40.27,65.33,70,2.05,4.1,4.77,8.21,2.61,13.2-4.88,2.25-9.56,2.58-13.75-1.49-7.62-11.27-14.24-23.14-23.12-33.7-18.86-22.44-42.84-37.89-68.12-51.44-57.24-30.67-118.67-50.88-180.19-70.73q-94.64-30.54-190.9-55.56c-16-4.16-15.72-4.46-26.44,8.87-36.33,45.16-81.07,80.66-129.51,111.8a654.94,654.94,0,0,1-163.45,76.06c-22,6.72-44.28,12.3-67.13,15.35C1328.62,2890.33,1319.48,2892.13,1310.16,2889.26Z" style="fill:#010101"/><path d="M4244.4,2674.16c-12.41-.34-24.38,2.93-36.57,4.45-28.68,3.57-57.23,8-85.94,11.52-16.14,1.94-32.31,3.82-48.45,5.85-22.75,2.87-45.58,5.2-68.39,7.58q-34.73,3.63-69.5,6.9c-25.83,2.47-51.67,4.92-77.53,7.18q-44.74,3.92-89.54,7.44c-21.91,1.69-43.84,3.09-65.77,4.41q-63.81,3.83-127.64,7.39c-19.62,1.07-39.27,1.69-58.9,2.44-25,.95-49.93,1.73-74.88,2.75q-94.35,3.87-188.78,5c-105.93,1.19-211.86,1.81-317.78-1-40.63-1.06-81.27-1.44-121.88-2.92-48.25-1.75-96.48-4.19-144.71-6.63-41.9-2.12-83.8-4.4-125.67-7.1-34.22-2.21-68.45-4.15-102.6-7.43-24.85-2.39-49.77-4-74.65-6.15q-49.72-4.21-99.33-9.86c-44.64-5.05-89.37-9.28-134-14.31-50.23-5.66-100.37-12.05-150.38-19.53-50.61-7.57-101.21-15.23-151.52-24.56-39.51-7.33-79-14.92-118.24-23.56-6.6-1.45-10.21-4.19-12.4-10.78-6.52-19.66-17.66-37.15-27.42-55.27-3.46-6.42-6.82-12.91-8.94-20-1-3.16-2.31-6.18-1-10.43q15.87,3.35,31.7,6.7,76.05,16.17,152.64,29.47c45.53,7.93,91.23,14.67,137,21.31,42.12,6.12,84.42,11,126.6,16.75,54.08,7.39,108.43,12.31,162.7,18,44,4.62,88.14,8.41,132.25,12.2q75.65,6.49,151.4,11.08c44.54,2.72,89.16,4.12,133.71,6.72,62.19,3.63,124.47,5.08,186.71,7.06,65.58,2.09,131.22,2.29,196.84,3.41,62.3,1.06,124.59,0,186.87-1.17q116.38-2.19,232.75-6c48.92-1.62,97.78-5.06,146.69-7.09,36.94-1.52,73.77-4.54,110.65-6.84,27.57-1.72,55.06-4.6,82.59-7,24.87-2.15,49.75-4.23,74.61-6.5,24.19-2.21,48.38-4.48,72.54-7q42.7-4.42,85.35-9.34c28.74-3.33,57.49-6.65,86.16-10.55,41.19-5.59,82.31-11.66,123.44-17.64,10.52-1.53,21-3.46,31.48-5.21,3.54-.6,7.4-.2,10-3.63.51-.67,1.94-1.38,2.56-1.13,10.4,4.19,20.26-.73,30-2.44q80.51-14.14,160.46-31.3c11-2.37,22.18-4.06,32.84-7.87v88c-10.15,6.37-21.95,7.63-33.22,10-41.38,8.62-82.86,16.79-124.33,25-42.7,8.38-85.69,15.06-128.65,21.95A30.55,30.55,0,0,1,4244.4,2674.16Z" style="fill:#fff"/><path d="M3204.74,2889.23l0-116.84c0-14.37,0-14.4,14-14.46,58.93-.26,117.87-.27,176.77-2.51s117.75-4.35,176.62-7.05c40.57-1.87,81.09-4.32,121.61-6.91,40.84-2.6,81.63-6.1,122.43-9.28,27.53-2.16,55.07-4.25,82.57-6.73q43.72-3.94,87.4-8.58c27.44-2.86,54.87-6,82.28-9.14,23.46-2.7,46.91-5.45,70.32-8.53,27.68-3.64,55.32-7.65,83-11.51,10.2-1.43,20.4-2.92,30.6-4.37,11.66-7.61,25.38-7.25,38.31-9.31,29.83-4.74,59.51-10.36,89.35-14.94,4.51.19,8.78-1.05,13-2.31a11.48,11.48,0,0,1,2.86-.29,13.73,13.73,0,0,0,5.7-1c42.09-9.08,84.5-16.55,126.28-27,4.74-1.18,9.58-3,14.57-.82v263.85H3205c-.68-.43-.94-.91-.81-1.44S3204.54,2889.23,3204.74,2889.23Z" style="fill:#fff"/><path d="M2199.15,2889.23c1.15-3.66-1.26-6.39-2.59-9.34-11.41-25.25-30-44.58-51.44-61.38-27.71-21.71-59.24-36.73-91.26-50.69-48.73-21.24-99.21-37.7-149.76-53.9-61.32-19.66-123.17-37.46-185.77-52.62-1.93-.47-3.81-1.22-5.77-1.52-3.22-.51-4.49-2.35-4.56-5.46a90,90,0,0,0-2.4-19.78c13.75,2.83,26.51,5.66,39.35,8.05,41.81,7.79,83.66,15.39,125.49,23.1,39.56,7.3,79.33,13.24,119.14,19,27,3.89,54,7.34,81.1,10.76,31.69,4,63.38,8.07,95.13,11.59,40.35,4.48,80.74,8.55,121.14,12.6q49.68,5,99.42,9.42c27.86,2.44,55.75,4.48,83.64,6.56q49.81,3.72,99.64,7.19c22.92,1.58,45.85,3.3,68.8,4.27q106.34,4.5,212.68,8.43c9.65.38,19.32.24,29,.51,7,.2,7.16.32,7.18,7.33q.18,53,.2,105.94c.87,7.42,1.45,14.84-.31,22.23h-687.7c-.68-.42-.95-.9-.82-1.44S2199,2889.23,2199.15,2889.23Z" style="fill:#fff"/><path d="M1338.19,2885.83c47.76-8,93.47-22.56,137.61-42.33,68.88-30.85,131.67-70.86,186.41-123.09,14.73-14.07,28.46-29,39.82-46,3.16-4.7,6.27-5.5,11.61-4.07,98.15,26.19,195.74,54.19,291.14,89.31,42.14,15.51,83.36,33.09,121.09,57.87,26.36,17.33,47.64,39.34,61.63,67.92a4.91,4.91,0,0,1,0,6H1337.85C1337.73,2889.61,1338.35,2887.74,1338.19,2885.83Z" style="fill:#fff"/><path d="M2897.34,2889.7c1.78-3.12.88-6.52.88-9.77q0-56.46-.18-112.91c-.05-10.89,0-9.78,9.57-9.7q123.9,1,247.81,1.91c10.66.07,21.32-.32,32-.41,7.65-.06,7.76,0,7.77,7.49,0,24.64-.07,49.29,0,73.94,0,16.31.18,32.63.28,48.94a1.43,1.43,0,0,1-.35,2.33H2897.18c-.68-.47-.88-.89-.61-1.28S2897.08,2889.7,2897.34,2889.7Z" style="fill:#fff"/><path d="M4542.46,2627.67c-16.7,4-33.33,8.28-50.11,11.9-28.15,6.08-56.39,11.76-84.61,17.51a79.72,79.72,0,0,1-8.91.82,2.54,2.54,0,0,1-2.58,0c-.54,0-1.08,0-1.62,0-4.83-.62-10.05-.75-9.86-7.76,33.47-6.78,67-13.47,100.41-20.38,16.22-3.34,32.38-7,48.53-10.71,2.91-.66,5.7-1.71,8.75-1.31Z" style="fill:#070607"/><path d="M1338.19,2885.83c2.84,2.07,2.31,4-.34,5.69h-28l.3-2.26c3.64.09,7.29.35,10.93.22,4-.14,8.32.93,11.41-3.39C1333.37,2884.87,1336.22,2885.14,1338.19,2885.83Z" style="fill:#959193"/><path d="M2897.34,2889.7a1.57,1.57,0,0,1-.16,1.82h-10c-.27-7.42-1.11-14.84.31-22.23,1.67,3.81.83,7.83.94,11.76C2888.68,2889.66,2888.26,2890.05,2897.34,2889.7Z" style="fill:#9b989d"/><path d="M2187.48,2891.52c0-2,0-4,0-6,2.53,5.46,7.31,3.91,11.65,3.75l.33,2.29Z" style="fill:#929094"/><path d="M2201.68,776.91c1-3.95,3.84-6.76,6.19-9.85,3.62.15,6.43,2.48,9.7,3.58,2.15,1.43,2.8,3.92,4.14,5.93A41.33,41.33,0,0,0,2212,778C2208.54,779,2204.93,779.21,2201.68,776.91Z" style="fill:#aaadac"/><path d="M3977.66,2059c0-7.32,0-14.64,0-22,0-5.22,1.52-8,7.48-9.53,19.31-5,38.9-8.55,58.36-12.75q64.21-13.85,128.45-27.61c16.24-3.45,32.64-6.18,48.84-9.79a19.57,19.57,0,0,1,13.49,1.29c35.44,17.48,71,34.73,105.12,54.74,9.29,5.45,9.66,7.1,4.68,16.6a13.51,13.51,0,0,0-1.37,8.61c1.11,8,.89,15.8-1.8,23.52-.74,2.13-.54,4.6-.73,6.91-.85,10.33-1.1,10.55-11.5,12.67q-67.33,13.73-134.66,27.5c-30.92,6.28-61.88,12.33-92.77,18.73a21.49,21.49,0,0,1-15.22-2.16c-33.47-17.68-66.94-35.38-100.58-52.75-6.56-3.39-9.09-7.83-8.5-15,.52-6.29.11-12.65.11-19Z" style="fill:#020202"/><path d="M3610.45,2591.72c-4.09.64-6.92-1.3-9.76-2.95-55.1-32.1-110.91-63-166.53-94.13a87.44,87.44,0,0,1-11.61-7.69c-5.32-4.22-4.78-9.5,1.45-12.29,4.8-2.16,10-3.39,15.11-4.9,41.94-12.47,84.09-24.2,126.14-36.27,53.26-15.29,107.31-27.14,161.13-40a19.59,19.59,0,0,1,14.17,1.66q87.25,42.45,174.64,84.66c3.59,1.74,7.22,3.39,10.74,5.24,3.94,2.07,9.13,2.86,8.85,9.24-.3,6.66-5.66,6.45-9.89,7.66-30.3,8.64-60.64,17.15-90.94,25.81-19.76,5.65-39.46,11.52-59.21,17.22-2.21.64-5.39,2-6.68,1.06-6.61-4.81-11.95-.25-17.69,1.58l-68.25,21.81c-21.16,6.77-42.31,13.59-63.5,20.26C3615.79,2590.54,3613.1,2592.17,3610.45,2591.72Z" style="fill:#020202"/><path d="M1905.25,2415.36c.31-13.73.27-13.85,12.17-17.26,59.28-17,118.32-34.87,177.32-52.85,19-5.8,38.31-10.84,57.42-16.4a22.06,22.06,0,0,1,16.43,1.19q56.17,26.79,112.4,53.47a23.41,23.41,0,0,1,4.32,2.43c4.45,3.47,5.39,7.32,1.4,10.87-4.29,3.81-5.63,7.77-4.81,13.15.85,5.57-2.16,8.61-7.29,10.19-10.14,3.12-20.19,6.59-30.37,9.59q-100.72,29.75-201.48,59.43c-6.21,1.84-11.52,1-17.17-1.74q-50.08-24.6-100.31-48.87c-3.88-1.89-7.74-3.85-11.74-5.46-6.3-2.54-9.74-6.58-8.32-13.75A21.23,21.23,0,0,0,1905.25,2415.36Z" style="fill:#020202"/><path d="M4188.1,2387.82c-3.9-.45-7.05-2.31-10.26-4-45.78-24.19-92.44-46.61-138.76-69.7-16.94-8.44-34.1-16.42-51-24.92-3.91-2-9.47-3.32-9.28-9.22.21-6.4,6-7.39,10.53-9,45.92-16.3,91.61-33.24,137.95-48.3,5.68-1.85,10.84-3.12,17.06-.06,59.53,29.27,119.26,58.15,178.9,87.18a95.93,95.93,0,0,1,11.37,6.18c7,4.65,6.72,9.65-.77,13.18-6.3,3-12.84,5.42-19.33,7.94-39.57,15.4-79.06,31-118.15,47.58C4193.62,2385.84,4190.79,2386.8,4188.1,2387.82Z" style="fill:#020202"/><path d="M3675.78,2107.87c-3.71.36-5.82-.74-8-1.44l-148-46.37c-5.05-1.58-11.29-2.48-11.36-9.23s6.18-7.66,11.22-9.27q91.4-29.11,182.75-58.34a18.28,18.28,0,0,1,11.58,0c45,13.67,90.1,27.16,135.12,40.81a93.73,93.73,0,0,1,15.71,6.09c5.39,2.79,5.4,7.85-.08,10.51a219.75,219.75,0,0,1-22.14,8.87Q3763.81,2077.34,3685,2105C3681.57,2106.24,3678,2107.18,3675.78,2107.87Z" style="fill:#030203"/><path d="M2802.38,1807.17c1.74.41,3.73.73,5.63,1.33q62.59,19.74,125.17,39.57c3.78,1.2,7.49,2.68,11.16,4.19,2.43,1,5.19,2,4.56,5.53-.54,3-1.39,5.78-4.88,6.82-5.41,1.62-10.73,3.52-16.14,5.13q-83.93,25.07-167.87,50c-5.42,1.61-10.6,2.52-16.49.53-44.92-15.21-90-30-134.95-45-2.2-.73-4.36-1.59-6.51-2.46-2.61-1-4.81-2.59-4.55-5.79s1.35-5.87,4.64-7c1.87-.67,3.75-1.35,5.67-1.86q93.78-24.74,187.57-49.42C2797.64,1808.13,2799.93,1807.71,2802.38,1807.17Z" style="fill:#030203"/><path d="M3267.94,1965.93c-9.62-2.06-19.69-4.14-29.73-6.39q-56.86-12.7-113.7-25.51c-2.59-.58-5.12-1.38-7.71-2-3.76-.82-5.59-3-5.94-6.9-.3-3.48.95-5.77,4-7.24,4.19-2,8.33-4.13,12.57-6q79.39-35.9,158.77-71.86a21.14,21.14,0,0,1,14.44-1.27c45.9,10.81,91.9,21.1,138.26,29.73a74.37,74.37,0,0,1,8.73,2.08c2.41.76,5.37,1.1,5.42,4.77,0,3.24-.72,6-3.85,7.49-3,1.46-6,2.9-9,4.29q-64.24,29.58-128.48,59.2c-11.45,5.3-22.66,11.13-34,16.73C3274.78,1964.51,3272,1966.4,3267.94,1965.93Z" style="fill:#020202"/><path d="M3221.23,2566.58c-31.27-.71-62.55-1.31-93.82-2.2-15.57-.44-17.14-2.53-12.24-17.4q19-57.69,38.6-115.19c3.32-9.78,3.63-9.8,14.4-9.69q83.86.89,167.74,1.9c1,0,2,0,3,.06,9.34.71,12.5,4.36,11.06,13.65-3.09,20-6.22,40.06-9.74,60-3.45,19.63-7.38,39.18-11.15,58.76-2,10.22-2.58,10.91-13,10.94-31.62.12-63.23,0-94.85,0Z" style="fill:#040404"/><path d="M3795.45,2226.25c14.62-.73,29.3-.9,43.84-2.42,8.1-.84,12,2.56,15.69,8.88,13.82,23.85,27.95,47.53,42,71.24,7.62,12.85,16,25.28,22.53,38.74,4.54,9.34,2.71,12.64-7.67,13.4q-42.81,3.12-85.64,5.9c-33.87,2.22-67.74,4.28-101.61,6.45-10.82.69-12.43-.07-16.51-10.16q-21.33-52.61-42.44-105.31a46.45,46.45,0,0,1-2.89-9.5c-1-6.07,1-8.73,7.13-9.43,5.95-.68,11.93-1.08,17.9-1.45q53.82-3.33,107.63-6.6C3795.44,2226.08,3795.44,2226.17,3795.45,2226.25Z" style="fill:#030303"/><path d="M2047.53,1950c-2.55.68-4.94,0-7.68-.56,2-3.25,4.75-3.65,7.76-3.28C2047.59,1947.44,2047.56,1948.72,2047.53,1950Z" style="fill:#dcdddd"/><path d="M1274,1282.51c2.85-2.77,3-6.63,3.48-10.1,7.11-57.46,36.84-101.68,80.38-137.86,16.15-13.42,33.44-25.27,50.95-36.81,24.49-16.12,48.71-32.57,69.36-53.65a197.16,197.16,0,0,0,19.87-23.7c1.66-2.34,2.9-3.52,6.38-2.38,45.48,14.89,88.79,33.93,125.8,65.09,34.86,29.35,64.33,63.34,89.63,101.36,28.59,43,46.67,90.15,59.53,139.64,17.65,67.87,34.52,135.94,53.42,203.47,24.1,86.08,49.73,171.7,79.87,255.9,11.41,31.9,23.17,63.67,34.85,95.48,6.5,17.7,15.54,33.71,29.91,46.48,6.41,5.69,12.42,11.93,12.63,21.73.11,5,4.27,7.11,9.15,7.33,18.32.83,36.25,4.61,54.29,7.52,8.19,1.32,16.33,3,24.45,4.75,10,2.12,15.93,8.23,19.27,18a257.44,257.44,0,0,1,13.82,75.32c2,62.74-9.57,123.07-35.66,180.37a114.15,114.15,0,0,1-11.7,20.83,30.09,30.09,0,0,1-22.77,12.62c-45.83,3.78-91.73,6.35-137.69,3.72-29.53-1.69-59-4.6-87.78-12.19-35.15-9.28-64.28-28.42-88-55.78-24.24-28-44.48-58.89-63-90.87-37.61-64.76-69.28-132.43-98.53-201.28-31.43-74-59.51-149.28-87.37-224.65-7.36-19.92-13.7-40.22-20.56-60.34-1.18-3.44-2.53-6.84-4-10.18-1-2.3-3.18-2.28-5.12-1.61s-3.78,1.9-3.38,4.3a61,61,0,0,0,2,7.66c11.78,38.09,25.49,75.52,38.45,113.22.66,2.16-.32,2.7-2.26,2.28q-24.16-29.23-48.32-58.49c-2.33-2.82-4.57-5.7-7.55-7.94-2.17-1.63-4.05-1.63-6.35-.16-4.54,2.91-5.08,5.24-1.29,9.37,10.14,11,20.34,22,29.94,33.52,11.28,13.58,22.25,27.39,33.16,41.26,2.47,3.14,4.54,6.79,7.56,9.27,11.39,9.36,15.81,22.5,20.76,35.6,31.24,82.75,65.61,164.17,105.26,243.28,22.82,45.55,47.91,89.8,77.67,131.25,3.15,4.37,3.33,8,2,12.88-9.42,34-18.44,68.07-23.83,102.94-4.07,26.32-6.56,52.73-3.93,79.57,2.07,21.15,4,42.45,1.3,63.81-2.43,19.31-8,37.75-15,55.71-8,20.4-6.47,39.59,4.52,58.32,5.89,10,11.89,20,17.29,30.33,10.4,19.81,18.63,40.38,21.26,62.91.8,6.86-.92,12.26-4.87,17.61-16.91,22.91-37,42.83-58.37,61.45-63.25,55-135.24,94.87-214.1,122.67-32.32,11.39-65.47,19.64-99.15,25.8a16,16,0,0,1-3.4-.24q-3-22.24-5.9-44.41-6.67-51-13.32-101.94c-3.68-28.38-7.23-56.78-10.93-85.16-3.66-28-7.46-56.08-11.16-84.12q-10.62-80.67-21.19-161.36-7.23-54.93-14.45-109.85c-5.2-39.93-10.23-79.88-15.52-119.8-3.8-28.69-6.82-57.53-13.34-85.76-7.79-33.75-25.51-61.84-51.2-84.87-28.47-25.52-62.67-38.38-100-43.43-52.1-7-104.26-13.56-156.4-20.3q-23.25-3-46.51-6c-7.67-1-8.24-1.75-6.05-9.62,19.25-69.15,40-137.84,62.88-205.88,27.4-81.32,58.55-161.15,92.83-239.76,30.45-69.82,63.63-138.29,103.35-203.42,9-14.72,18.14-29.33,27.9-45.09,2.42,10.17,6.22,18.87,5.29,28.59-.24,2.61-.62,5.38,1.68,7.48a35.76,35.76,0,0,1,19.64,12.13c6.15,7.32,14.65,10.22,24.08,9.47,10.41-.84,19.67,1.18,27.53,8.48,2.16,2,4.94,3.33,7.56,4.76,16.51,9,28,6,38.7-10.3a18.76,18.76,0,0,1,3.53-4.63C1269.34,1282.84,1272,1284.21,1274,1282.51Z" style="fill:#fff"/><path d="M1506.67,1008.45c7.47-14.07,14.92-27,19.62-41.21a260.15,260.15,0,0,0,9.77-41.67,21.78,21.78,0,0,1,5.12-11.57,543.07,543.07,0,0,0,48.08-64.93c2.94-4.61,5-6.26,10.83-3.88,17.74,7.2,36.08,4.67,54,.58,35.35-8.06,66.31-25.06,94.66-48.51a123.34,123.34,0,0,0,15.12,16.58,53.69,53.69,0,0,0,10.33,7.8,9.67,9.67,0,0,0,9.53.35c3.89-1.89,4.17-4.07.79-6.52a13.39,13.39,0,0,0-1.78-.88c-17.74-9.05-28.15-24.24-33.83-42.57-9.83-31.73-8.61-63.07,6.52-93.08,7.18-14.25,17.33-26,32.6-32.35,39.26-16.4,63.86,13.74,62.89,44.15-.45,14-2.51,27.77-4.71,41.55-.78,4.9-.55,10-.72,15-.27,7.66,5.44,11.74,10.1,16.32,2.07,2,4.29.6,6.24-.9s2.28-4,3.25-6.08c7.46-15.81,19.62-27.44,32.93-38.23,4.17-3.38,8.24-1.94,12.3-1.26a284.41,284.41,0,0,0,47.7,4c46.26,0,90.33-10.47,132.67-28.45,53.79-22.84,100.57-55.58,138.71-100.18,2.38-2.78,4.58-5.71,6.88-8.56,2.05-2.55,4.11-5.08,6.05-7.47,4,1.08,2.62,3.87,2.66,5.84,1,47.62-9.41,93-26.43,137.2-7.82,20.29-17.46,39.71-29.92,57.34-21.55,30.5-27.56,63.92-24.25,100.4,1.74,19.21,4.54,38.33,5.6,57.61a73.45,73.45,0,0,1,.26,8c-.46,9.28-5.08,13.94-14.42,14.08-9.66.15-19.33.12-29-.3-12.05-.54-21.13,3.83-27.82,14.08s-14,20.21-21.3,30.15c-4.31,5.89-4.47,5.72-11.31,2.69-17.94-8-33.81-18.51-44.72-35.39-1.8-2.79-3.72-6.11-7.78-3-3.42,2.63-2.51,5.53-.48,8.71a90.26,90.26,0,0,0,37.55,33.37c4.48,2.17,9,4.3,13.69,6.56.65,3.21-2.15,5.13-3.85,7.28-13.84,17.49-27.63,35-41.87,52.19-11.51,13.85-25.18,25-43.85,27.19a97.94,97.94,0,0,1-45.22-4.91c-18.26-6.61-34.83-16.36-51.35-26.29-7.4-4.45-14.87-8.79-22.36-13.11-13.93-8-27.79-7.27-41.74.16-10.47,5.59-18.79,13.68-26.75,22.22-22.57,24.23-41,51.48-57.91,79.84-2.21,3.71-4.37,7.45-7,11.89-26.82-38-57.18-72-93.28-100.72C1593.1,1040.49,1551.26,1022.36,1506.67,1008.45Z" style="fill:#fff"/><path d="M1530,722.67c-1.1-8-.39-16,.26-23.91,2.34-28.47,4.7-56.93,9.17-85.2,6.63-41.94,17.76-82.55,34.7-121.45A466,466,0,0,1,1642.23,381c25-30.28,53.41-56.8,85.89-78.55,38.43-25.74,80.09-44.68,126-53.28,21-3.93,42.07-6.53,63.42-5.75,39,1.43,76.3,10.3,112.16,25.51,42.65,18.1,80.84,43.25,116.18,73.05a475.5,475.5,0,0,1,97.29,111.71c9.9,15.81,18,32.61,21.48,51.24.88,4.64.74,9.28,1.06,13.91-6.47-.58-4.86-6.27-5.54-9.81-1.57-8.13-3.35-16-8-24.18-1.65,4.81-3.4,8.6-3.63,12.86-.47,8.52-7.11,11.39-13.45,14.1-3.78,1.62-6.65-.72-9.35-3.73-4.77-5.32-9.32-4.2-11.4,2.33-5.07,15.95-5.07,15.95-22.53,16.15-5.39,1.08-8.21,5.24-11.06,9.3-13,18.49-29.58,33.64-45.49,49.42-2.66,2.63-5.36,6.33-10.13,3.62-1.09-9.87,6-15,12.34-20.12,8.34-6.7,15.42-14.64,23.06-22,1.85-1.79,4.28-4.64,2.11-6.89-2.78-2.89-5.83-.11-7.42,2.18-6.77,9.75-17.84,14.73-25.44,23.67-5.32,6.26-12.13,11.53-20.35,13.94-14.72,4.31-24.06,17.25-37.74,23.14-11.89,5.11-22.62,12.63-34.92,16.88-4.47,1.54-9.5,2.9-13.18-.9-4-4.11-2.35-9.32-.53-14.09a22.57,22.57,0,0,1,9.32-11.38c6.53-4,10.13-10.5,13.54-16.94,2.36-4.44,3.09-9.12-4.68-7.21-5.72,1.41-8.89-.82-10.66-6,.44-4.39,4.34-5.52,7.27-7.41,4.09-2.64,7.35-5.63,7.23-10.92-8.28-10.12-21-13.27-31.12-7.7-5.71,3.15-12.27,3.43-18.4,3.72-15.32.73-30.89.56-45.91,2.29-9.21,1.06-19.58,2.09-28.58,6.32-3.64,1.71-6.15,5.06-9.41,7.35-2.17,1.53-4.56,4.06-7.1,2.61-7.17-4.11-10.35.64-13.49,5.49-5.06,7.81-12.46,10-21.31,10.41-19.68,1-40,1.15-58.45,7.31-14.82,5-32.28,9.4-40.57,26.24-2,3.95-6.8,5.2-10,8.12-4.18,3.85-6.46,7.27,1.59,9.18,3.38.81,7.6,1.21,7.29,6.45-2.87,2.89-6.88,3.33-10.4,4.82-7-3.34-11.73-.17-16.54,4.78-19.22,19.82-38.62,39.3-63.08,53.13-31.6,17.87-64.9,27-101.3,23.44-4-.39-8.15-1.6-10,3.69-1.8,6.62-5.74,8.19-11.86,5.24-4.83-2.32-9.59-4.85-12.88,2.6-1.19,2.69-3.87.94-5.79-.59C1535.1,727.51,1533.93,723.51,1530,722.67Z" style="fill:#6b6b6a"/><path d="M2892.21,2129.52c-15.9-30.34-39.66-54.06-63.08-78.05-1.39-1.43-2.73-2.94-4.25-4.22-3.63-3.06-6.41-2.83-9.28.5s-.75,5.35,1.59,7.49c10.84,9.89,21.09,20.36,30.9,31.25,12.47,13.85,24.86,27.75,33,44.83,3,6.38,3.8,11.75-.7,18.2a123.29,123.29,0,0,1-21.52,23.71c.31-6.05.42-10.53.82-15a22.22,22.22,0,0,0-4.47-15.91c-13.77-18.51-29.9-34.84-46.75-50.49-3.92-3.64-8.07-2.32-9.78,2.51-1.21,3.39,1.29,4.56,3.27,6.37,12.52,11.48,24.79,23.22,35.55,36.43a59.53,59.53,0,0,0,4.41,5.42c8.94,8.7,8.67,18.75,4.55,29.42-.6,1.55-1.24,3.09-1.89,4.62-7.77,18.29-20.06,29.48-41.46,26.71-12.53-1.63-25.32-.27-37.74-3.26-2-.48-3.93-.83-5.28-3.18,2.68-7.24,8-12.18,15.53-15a104.38,104.38,0,0,0,11.06-4.48c3.92-2,7.5-2.15,11.36,0a34.4,34.4,0,0,0,6.45,2.6c2.66.81,4.44-.57,5.73-2.8s1.22-4.4-1-6.15a6.48,6.48,0,0,0-.74-.66c-13.15-7-25.27-16.16-39.51-20.89-9.44-3.13-19.18-.43-28.53,1.76-30.81,7.24-61.88,12.76-93.57,13.72-21.46.64-42.4-3-62.79-9.76-3.79-1.24-7.78-2-11.39-3.62-14-6.25-28.28-5.74-43-3.06-46.4,8.44-92.48,18.44-138.64,28-44.19,9.2-88.44,18.12-132.62,27.39-34.76,7.29-69.47,14.78-104.46,20.9-21.19,3.71-42.48,6.91-64.8,10.51,4.76-12.46,9.56-23.64,13-35.33,13.55-45.63,20.86-92.07,19-139.77a305.88,305.88,0,0,0-7.16-53.29c-1.3-6-1.34-6.4,4.59-6.2,13.65.47,27.29,1.12,40.93,1.74,23.28,1.06,46.56,2.44,69.85,3.18q98.86,3.12,197.74,5.79,50.94,1.38,101.9,2c25.08.33,49.76-3.91,74.29-8.33,49.68-9,99.13-19.17,148.93-27.51,15.09-2.53,30.26-4.33,45.34-6.82,10.22-1.68,19.37.57,26.69,7.86,25.45,25.36,52.4,49.33,73.91,78.39,6.78,9.17,12.59,18.81,12.66,31.17-20.84-31.6-49.05-55.79-75.79-81.35a49.53,49.53,0,0,0-4.79-3.56c-2.83-2.1-5.08-.85-6.89,1.42s-2.07,4.87.26,7.13c1.43,1.39,2.94,2.7,4.5,3.95,21.65,17.36,40.38,37.69,59.05,58.06a73.32,73.32,0,0,1,8.4,11.13C2905.08,2100.33,2904,2114,2892.21,2129.52Z" style="fill:#fff"/><path d="M2253.6,2216.13c22.45-4.6,44.91-9.14,67.34-13.81,46.5-9.69,93-19.51,139.46-29.15,24.4-5.05,48.8-10.13,73.31-14.58,11.84-2.15,23.67-1.69,35.4,2.57,16.53,6,33.39,10.76,51,13.2,20.4,2.83,40.51,1.53,60.67-1,22.11-2.81,43.89-7.58,65.59-12.53,12.53-2.86,23.62-1.15,34,6.12-1.39,3.31-4.87,3.29-7.46,4.46a67.28,67.28,0,0,0-12.87,7.54,27.12,27.12,0,0,0-6.86,7.18c-7.95,12.71-2.57,24.18,12.21,25.88a364.43,364.43,0,0,0,47.87,2c3.17,0,6.35,0,11,0-2.81,4.19-5.92,5.11-8.83,6.34-9.16,3.87-18.34,7.72-27.47,11.69-3,1.32-6,2.77-6.69,6.69-.85,5.08.53,7.5,6.4,9.18,15.94,4.58,31.91,9.09,47.92,13.42,30.42,8.22,60.95,16.07,91.28,24.6,7,2,12.92,1.26,18.94-2.18,2.6-1.48,5.46-2.54,7.92-4.2,10.81-7.31,22.2-10.82,35.54-8.48,7.88,1.38,8.38.46,10.16-7,1.46-6.1,5.91-8.26,11-10.35,17.17-7.13,34.28-14.4,51.39-21.64,2.44-1,4.81-2.23,7.23-3.31,3.62-1.61,4.35-4.54,4.28-8.19-.08-3.81-2.61-5.36-5.48-6.21-8-2.33-16-4.39-24-6.46-17-4.39-34-8.9-51.13-12.94-5.18-1.22-7.93-3.56-9.15-8.82-7.35-31.71-14.93-63.38-22.45-95.06a69.18,69.18,0,0,0-2.08-7.69c-1.95-5.38-5.52-8.68-11.54-9.53-7.22-1-14.31-3-21.53-4-6.6-.94-11.19-3.65-12.62-12.11,116.52,27.61,233.07,52.5,349.32,78.32-.25,3.89-3,3.63-5,4.33q-60.18,20.76-120.37,41.51c-5,1.73-10,3.63-14.91,5.51-4.36,1.66-9,2.9-8.53,9.26.48,5.91,5.1,6.2,9.19,7.24,28.62,7.29,57.27,14.47,85.87,21.85,20.86,5.38,41.71,10.86,62.46,16.68a19.78,19.78,0,0,0,13.44-.4c45.8-17.68,92.18-33.75,138.74-49.32a46.72,46.72,0,0,1,4.76-1.47c7.47-1.68,11.86-5.7,10.25-14.87l33.65,7.29c-2.19,4.34-6.07,4.74-9.11,5.82-104,37.23-206.89,77.28-310.45,115.61-69,25.55-138.18,50.77-207,76.82a48.68,48.68,0,0,1-31.22,1.77c-59.83-15.11-119.92-29.17-179.82-44q-130.44-32.22-260.74-65-96.55-24.09-193.12-48.2c-9.65-2.4-19.37-4.54-29.07-6.8C2250.4,2217.48,2252.3,2217,2253.6,2216.13Z" style="fill:#fff"/><path d="M2865.51,1999.77c32.8,6.93,65.61,13.8,98.4,20.82q82.29,17.63,164.56,35.42,65.72,14.2,131.39,28.58,99.76,21.64,199.54,43.22,66.18,14.36,132.36,28.76c33.88,7.38,67.76,14.79,102.32,22.33-4.88,4.09-10.46,5.23-15.64,7.14q-141,51.89-282,103.76-131.56,48.7-262.85,98.15c-61.75,23.31-123.55,46.5-184.78,71.17a24.8,24.8,0,0,1-16.32.86c-120.19-30.82-240.47-61.28-360.64-92.17-88.69-22.79-177.23-46.1-265.85-69.15q-90.06-23.43-180.13-46.78c-7.9-2.06-15.71-4.47-24.82-7.08,8.49-3.47,16.29-3.26,23.74-4.43,24.94-3.93,49.79-8.36,74.47-13.61a81.39,81.39,0,0,1,38.22.53q123,31.38,246.28,61.67,119.36,29.6,238.81,58.81,100.56,24.74,201.13,49.4a23.07,23.07,0,0,0,14.62-.82c38.21-15.29,77-29.16,115.54-43.46q118.56-43.93,237-88.13,96.12-35.67,192.33-71.12c3.11-1.15,6.09-2.65,9.21-3.8s4.93-3.26,4.94-6.67c0-3.88-2.68-4.79-5.82-5.54-15.48-3.7-30.83-8.07-46.43-11.2-42.31-8.5-84.28-18.52-126.2-28.67-41-9.91-82.22-18.48-123.35-27.65q-60.73-13.53-121.49-27c-43.41-9.67-86.79-19.47-130.25-29-12.62-2.75-24.81-7.5-37.87-8.18-2.78-.15-3.92-2.25-5.42-3.92-7.14-7.91-14.51-15.64-21.23-23.88-5.48-6.72-12.3-11.94-18.27-18.07A3.7,3.7,0,0,1,2865.51,1999.77Z" style="fill:#fff"/><path d="M1266.26,1288.56c-7.47,17-21.61,22.78-37.93,15.28-6.91-3.18-13.62-7-19.17-12.27a11.46,11.46,0,0,0-9.84-3.26,77.75,77.75,0,0,1-13.89.34c-8.48-.7-16.55-3.12-21.45-10.68-4.41-6.8-12.64-8.19-17.76-13.79a19.9,19.9,0,0,0,7.59-17.77c-.5-6.33-2.42-12.36-4.19-18.42-7.76-26.54-13.57-53.46-13.38-81.25.26-40,15.54-73.2,45.69-100,18.32-16.26,37.55-31.81,51.7-52.29,2.22-2,5.08-3.46,6.32-6.23,1.74-3.89,3.61-7.41,8.63-6.4,2.74.55,2.93,2.93,1.41,10.55,12.32-5.12,20.42-16.22,20.85-29,.21-6.4,1.07-12.56,4.05-18.31,1.23-2.37,2.49-5,2.2-7.58-.82-7.36.26-14.27,4.35-20.62-4.12-3-9.58,1.72-12.31-3-2.37-4.1-2.39-8.75-1.3-13.35,4.72-16.64,14.27-30.38,25.49-43.23,13.86-15.87,29.71-29.16,48.33-39.1,3,.38,4.69-1.35,6.09-3.62v0c.67-.56,1.36-1.08,2.07-1.57l1.91-.71c1.33.37,1.84-.45,2.2-1.5a2.22,2.22,0,0,1,1.49-.46c16.83-7.22,34.27-13,50.3-22.09a467,467,0,0,1,57.68-19.77c10.32-3.49,19.42-1.94,27.36,6a14.37,14.37,0,0,0,10.87,4.21c7-.25,13.72-.64,12.94-10.57-.13-1.65.33-4.21,3.37-3.53,16.42,18.3,28,39.44,36.7,62.3.9,2.37,1.05,4.44-.58,6.53-14,18-17.5,39.86-22.35,61.23-5.21,23-8.16,46.39-15.66,68.88-10.7,32.08-29.3,58.51-54.37,81a376.85,376.85,0,0,1-44.37,33.83c-20.26,13.36-40.15,27.23-59.56,41.8-4.68-2.29-4-5.62-1.36-8.85a83.31,83.31,0,0,0,6.15-7.75c1.17-1.85,5.45-2.57,2.15-6.1-2.49-2.66-5-6.43-9-3.89-6,3.8-13.72,3.71-19.12,7.65-7.64,5.58-11.72,3.39-15.46-3.8-.59-1.15-1.58-2.11-1.93-3.42,4.26-10.72,13.6-17,21.75-24.11,17.58-15.3,36.69-28.77,54.33-44,46.52-40.2,80.64-88.37,95.32-149a82.81,82.81,0,0,0,1.74-8.82c.48-3.71,2.84-9.38-2.17-10.16-4.23-.65-3.62,5.47-4.3,8.78-10.88,52.71-35.07,98.33-73.72,135.77-23,22.25-49.37,40.57-73.73,61.27-38.95,33.1-69.18,71.92-80.57,123.08-.71,3.22-1.28,6.57-3.43,9.29-1.55,1.51-3.85.77-6.23,2.3,2.85,3.38,8.68,3.7,9.39,9,.64,4.85-3,7.91-4.41,11.89-4.11,11.82-6.23,23.27,1,35.24,4.05,6.7,8.47,14.2,5.32,23.18C1257.34,1283.72,1266.55,1283.29,1266.26,1288.56Z" style="fill:#6c6c6c"/><path d="M2213.73,1676.87c-.86,5.31-1.42,9.85-2.39,14.29-.65,3-3.47,2.4-5.71,2.79q-18.14,3.16-36.23,6.53a18.86,18.86,0,0,0-3.78,1.26c-2.26.94-5.8.44-5.74,4.24,0,3.32,4.92,7.1,8.58,6.4,5.86-1.11,11.6-2.89,17.44-4.11,32.6-6.78,65.59-10.77,98.69-14.1,6.59-.66,13.14-1.94,19.66-3.19a77.07,77.07,0,0,1,15.9-1.09c3.36,0,4.88,2.13,4.61,5.18-.63,7-2.09,13.6-7.53,18.94-11.34,11.15-25.51,16.32-40.38,20.35-13.45,3.64-27.39,5.12-40.64,9.69-14.76,5.09-26.44,13.64-34.11,27.44-5.33,9.58-10.11,19.46-16.15,28.65-13.69,20.84-32.6,34.68-56.12,42.48-3.78,1.25-7.62,2.37-11.32,3.82-2.21.86-4.22,2.25-3.34,5.25.81,2.78,2.3,4.93,5.57,4.6a35.86,35.86,0,0,0,6.81-1.35c28.4-8.67,51.15-25.07,67.65-49.84,4.4-6.61,8.43-13.46,12.87-20.6,18.85,15.72,36.83,31.85,55.87,46.24-.21,4.07-3.61,4.12-5.63,5.43-9,5.86-13.83,13.57-10.65,24.44,1.51,5.15,0,7.23-4.92,8.54-6.93,1.83-11.34,6.78-13.69,13.41-4.21,11.84,1,22.28,13.39,27.08,3.31,1.28,7,1.47,10.64,3.9-11,5.25-22.46,7.3-33.59,10.08a287.55,287.55,0,0,1-86.11,8.37c-7.63-.43-15.35-.82-22.84-2.23-18.47-3.49-36.34-.22-54.38,3.24-17.59,3.37-34.63,8.87-51.69,12.65-2.44-1.88-1.86-4-1.76-5.88,2.47-48.34,1.13-96.54-5.75-144.49-.71-5,.45-6.44,5-7.37,8.12-1.67,16.11-3.94,24.17-5.93a61.21,61.21,0,0,0,26.22-13.74c8.23-7.27,16.62-14.38,24.7-21.83,30.89-28.44,66.86-47.81,106.79-60.2C2193.5,1683.2,2203.18,1680.17,2213.73,1676.87Z" style="fill:#fff"/><path d="M2256.07,1685.65c3.06-4.16,5.38-7.72,8.1-11,25.52-30.3,50.1-61.35,74.7-92.39,4.12-5.2,8.93-9.85,13.26-14.9,2.79-3.26,5.38-3,8.35-.35,2,1.76,4.41,3.06,6.25,5,24.42,25.12,53.14,45.41,78.37,69.62,1.2,1.15,2.49,2.21,3.72,3.33,12.26,11.1,12.15,11,1.9,24.57-19.91,26.3-41,51.61-62.65,76.47-2.39,2.75-4.55,5.72-6.69,8.68-1.77,2.45-3.59,4.46-6.65,5.64-13,5-21,14.94-25,27.92-1.05,3.45-2.56,3.64-5.32,4.24-11,2.38-22.37,1.53-33.49,4.33-16.54,4.15-30.39,10.28-33.65,28.57-3.69,1-5-1.36-6.63-2.75q-26.44-22.09-52.77-44.3c-5.27-4.45-5.13-4.51-.69-10,9.43-11.67,22.76-15.61,36.61-18.22s27.43-5.06,40.58-9.91a90.91,90.91,0,0,0,29-17.23c5.71-5,9.17-11.42,11.35-18.46,4.84-15.66-5.27-27.41-21.45-25.21-15.46,2.11-30.92,4.31-46.4,6.31C2263.72,1686,2260.49,1685.65,2256.07,1685.65Z" style="fill:#fff"/><path d="M2031.57,562.94c2.84,3.2,5.31,6.08,10.52,3,1.33-.79,5.56-.86,9.14.25-1.43,12-6.76,21.71-16.66,28.44-6.56,4.45-10.44,10-10.94,17.78-.33,5.27,1.09,6.88,6.32,6.27,7.63-.89,14.58-4,21-8.2,8.77-5.71,18.65-9.23,28-13.87,1.17-.59,2.82-.91,3.4-1.87,7.5-12.34,21.59-13.78,32.69-20.17a59.58,59.58,0,0,0,17-14.77c2.5-3.17,5.16-6.07,9-7.69,4.12-1.75,7-4.68,9.39-8.5a31.2,31.2,0,0,1,7.67-7.71,5.77,5.77,0,0,1,7.4.42c2.54,2.12,2,4.67.63,7.19-4.07,7.42-11.52,11.73-16.68,18.16C2145.11,567,2139,570.38,2134,575a27.46,27.46,0,0,0-8.33,14.34c.09,2.92-1.72,4-4.25,4.44-6.19.4-11,2.44-11.25,9.71-2.82,5.55-8,7.93-13.4,10-1.43-.09-2.82,0-3.62,1.48a5.46,5.46,0,0,1-2.2,2.24,1.57,1.57,0,0,0-1.31,1.39c-1.06,1.33-2.53,1.47-4.07,1.42-1.89-.09-2.83,1.06-3.44,2.66-1.57,2.5-3.55,4-6.62,2.69-1.25-1.55-2.4-3.27-4.56-.91-3.74,4.08-10.36,5-12.26,11.12-1,2.45-2.58,4.25-5.49,4.25-3-1.36-1.08,2.68-2.89,2.74-26.41,14.92-55,23.28-84.61,28.66a260.89,260.89,0,0,1-84.34,1.69c-7.28-1.62-14.95.85-22.12-2-5.55-12.44-14-22.73-23.67-32.12,1.61-7.07-4.58-4.43-7.39-6.18-3.21-2-9.7,2.94-10-4.77,17.35-2.54,34.87-3.46,52.13-6.91,46.83-9.36,92.08-23.1,134.1-46.33a24.94,24.94,0,0,1,6.41-2.65c5.57-.17,11.39.21,14-6.42C2026.51,563.3,2028.34,561.3,2031.57,562.94Z" style="fill:#6a6969"/><path d="M3131.81,2195.12c5.49-4.75,11.76-5,17.35-6.62,31.48-9.36,61.82-22,93.06-32.08,7.26-2.34,14.86-4,21.69-7.23,7.92-3.79,15.29-2.49,23.08-.47q51,13.2,102.09,26.21c9.22,2.36,18.81,3.31,29.12,7-6.61,4.19-12.91,5.52-18.78,7.55-39.14,13.53-78.5,26.42-116.78,42.31a11.72,11.72,0,0,1-8.37.27c-43.73-12.21-87.79-23.2-131.84-34.17C3139.22,2197.06,3136,2196.21,3131.81,2195.12Z" style="fill:#fff"/><path d="M2921.52,2081.63c7.85-.72,14.82,1.8,22,2.6,4.52.51,5.28,4.11,6.2,7.88,5.4,21.94,11.3,43.76,16.49,65.75,7.64,32.33,14.82,64.77,22.18,97.17.29,1.29.4,2.62.57,3.81-1.9,2.67-4.34,1.55-6.47,1-32-7.89-64.48-12.74-97-17.81-13.12-2-26.23-4.2-39.37-6.08-3.14-.44-4.7-1.68-5.31-4.78-1.17-5.85-2.48-11.68-4-17.45-1.11-4.22,1.08-7.15,3.58-9.77a147.78,147.78,0,0,1,13-12.46c11.75-9.69,24.67-18.06,34.26-32.57,2.84,10.74,7.3,19,12.2,27a35.44,35.44,0,0,0,17.21,14.57c12.69,5.24,23.47-2.07,22-15.67-1.29-11.53-4.17-22.87-6-34.35-2.74-17.07-5.11-34.19-7.81-51.27C2924.25,2093.44,2922.8,2087.74,2921.52,2081.63Z" style="fill:#fff"/><path d="M1530,722.67c2-.53,4.29-3.1,5.58.59,1.12,3.22,2.54,5.92,6.13,6.84,2.1-8.71,3.81-9.66,11.8-6.45,2.11.85,4.13,2,6.16,3,4.62,2.34,5.79-.38,6.25-4.19,52.79,11.16,97.95-6.28,139.5-37.24,2.65-2,5.22-4.13,8.4-5.28,2.19-.66,4.51-.86,6.69-1.72,4-1.6,7,.19,9.67,3,2.82,3,3.34,6.35,1.26,10-7.54,13.18-7,27.88-8,42.28a7.69,7.69,0,0,0,.89,4.69c7.35,13,6.5,18.3-4.37,29.23-38.13,17.37-77,18.54-116.39,4.91-5.06-1.75-10-3.75-15.44-2.81-1.14.62-3.1-2.64-3.59.57-.55,3.68,2.24,5.4,5,6.53,12.88,5.22,25.68,10.64,38.67,15.59,3.29,1.25,7.86,1,7.35,6.14-.34,3.51-9,6.69-12.74,5.07-11.2-4.83-13.61-4.48-21,3.83-4.11,4.61-9.56,8-12.28,13.86a15.29,15.29,0,0,1-5.54-8.53c2.82-5.22,1.06-10.22-.84-15.16-.67-1.75-.8-1.7-3.6,1.65-5.53-8.63-8.28-18.57-13-27.64-8.47-16.33-18.91-30.94-32.39-43.42C1532.54,726.48,1530.59,725.07,1530,722.67Z" style="fill:#696968"/><path d="M1769.66,632.78c-1.24-2.7-3.41-3.64-6.31-4.06-5.12-.76-5.09-1-10.26-5,2.25-5.82,5.87-10.33,11.89-12.61,2.28-.87,4.21-2.38,4.81-4.75,1.91-7.45,10-9.44,13.44-15.61,1-1.83,3.39-1.92,5.44-1.89,6.71.1,11.91-3.46,16.64-7.51a8.83,8.83,0,0,1,6.16-2.5c8,0,15.72-1.87,23.5-3.45,2.25-.46,4.92-1.12,6.88-.35,6,2.35,11,1.24,15.65-2.79,2.44-2.08,4.94-.56,7.53,0a25.67,25.67,0,0,0,19.06-3.05c4.22-2.42,4.65-6.89,7.73-9.9,7.17-7,6.82-7.38,14.51-1.2,6.08-4.47,10.54-11.21,18.37-13.48,1.85-.53,3.8-2.42,5.53-1.54,5,2.53,9.35,3.92,11.7-3.08,4.08.47,8.3-2.56,12.33.55,1,.77,3.2,1.79,3.35,1.59,6.81-9.31,15.82.34,23.77-2.81,6.15-2.44,13.66-.2,20.64-1.94,5.34-1.34,10.54-.87,14.79-6,2.13-2.59,7.72-2.38,11.78-3.31.44-.1,1.18.51,1.6,1,5.43,5.85,5.41,5.84,16.1,9.82,2.77,1,.7,4.07,1.23,6.11-3,1.35-6.08.71-9.14.71a2.16,2.16,0,0,1-1.6-1.79c-.11.87-.24,1.74-.38,2.61-1.33,2.83-3.65,3.94-6.65,3.89-10.07-2.49-13.91,5.17-18.58,11.46a4.67,4.67,0,0,1-3.63,1.66c-13.2.35-22.87,7.73-32.06,16.07a5.28,5.28,0,0,1-3.39,2c-3-1.65-4.9-.88-5.57,2.58a4.17,4.17,0,0,1-4.75,1.65c-7.11-2-16.77,1.9-21.26,8.65-3.43,3.34-7.34,5-12.14,3.42-2.43.34,2.4-5.12-3.63-3.56-9.91,2.55-19.41,6.46-29.28,8.48-1.41-.55-.43,1.69-.33.36,0-.31.33-.26,1-.09,1.87.52,4.05.66,3.71,3.52-3,3.7-7.52,3.86-11.64,4.87-23,5.61-46.48,6.63-69.91,8.19-6.24.41-12.19.52-13.63,8.37-.8.72-1.22,2.46-2.83,1.08,1.26,1.91,2.47,0,3.71-.07,3.86-.14,8.43-2.37,10.06,3.64-17.12-2.42-31.66,4.44-45.82,12.67-2-3.71,2.45-7.44,0-11.15C1769.69,633.65,1769.68,633.22,1769.66,632.78Z" style="fill:#6a6969"/><path d="M2229.68,574.93a46.92,46.92,0,0,1-3.74,5.85,386.65,386.65,0,0,1-94.41,79,18.23,18.23,0,0,1-3.73,1.28c-6.13-4-11.13-3.14-16.82,1.9-13.95,12.36-36.83,13.15-51.36,2.63-4.62-3.34-4.2-7.62,1.84-11.83,8.93-6.22,18.55-11.39,27.38-17.81,2.87-2.08,5.68-3.24,4.18-7.39.62-4.23,4.33-5.68,7.21-7.75,32.62-23.43,62.26-50,86.52-82.21,2.3-3.07,4.27-7.07,9.33-6.14,7.09,5.66,6.19,13.29,5.07,20.92-.33,2.27-1.55,4.39-1.47,6.76.28,8.52,6,11.64,13.25,7.53,6.15-3.49,11-8.28,15.76-13.4,7.47-8,17.28-7.43,22.75.74-5.79-1.77-7.82,3.58-11.4,6C2236.07,565.26,2230.52,568.34,2229.68,574.93Z" style="fill:#6b6b6a"/><path d="M2251.44,555c-11.62-6.48-15.56-5.9-23.25,3.93-6.12,7.8-15.52,10.86-23.2,16.91-1.54-2.46-2.6-4.81-4.24-6.63-3.91-4.36-4.84-8.69-2.52-14.41,3.17-7.84,1.29-15.52-3.09-22.6a4.6,4.6,0,0,1-1.41-2.41c-.25-.56-.49-1.13-.78-1.69,0,0-.47-.8-.49-.79a6,6,0,0,1-.9-1.67s0-.95,0-.95c2.25-2.81,4.66-1,7.21-.45,8.65,1.78,12.53-1.22,12.64-10.21.06-5.66.5-9.62,7.1-12.28,5.51-2.22,6.88-.58,8.9,3.5,3,6.14,5.11,6.37,10.89,2.24,4.41-3.15,9.32-5,7.94-12.68-.76-4.22,4.35-8.74,3.11-14.65,5.11,1,6,4.67,7.52,7.73,4,8.13,4.91,17.05,6.54,25.78.37,2,.26,4,2.29,5.17,21.83,19.07,29.58,44.8,33.86,72.06,4.17,26.54,2.32,52.83-4.38,78.8-1.74,6.72-3.93,13.3-7.61,19.27-3.51-3.55-1.44-7.35-.63-11.18,4.53-21.39,10.35-42.57,9.9-64.73-.17-8.79-2.47-17.39-2.2-24.29.33,7.32-6.08,10.29-13.41,12.39-1.83-1.72-1.93-4-1.9-6.25v0a8.89,8.89,0,0,1-1.62-2.43c-1.13-4.89-4.2-7-8.79-5.22s-2.18,5.68-1.43,8.65c11.11,44.4-2.84,82.47-29.52,117.34-2.21,2.89-4.74,5.55-7.15,8.28-.17.2-.62.15-2,.43,3.36-9.59,6.82-18.61,9.69-27.81,11.45-36.72,18.93-74.1,16.66-112.8C2254.63,572.57,2255.14,563.43,2251.44,555Z" style="fill:#6d6d6c"/><path d="M2726.16,1971.3c-47.36,8.76-93.67,17.4-140,25.85-16.35,3-32.79,5.26-49.5,5.15-27.9-.18-55.8,0-84.28,0,.67-5.47,4.67-5,6.88-5.69,36.62-11.7,73.35-23.08,110-34.64,13.27-4.18,26.49-8.56,39.66-13.05a38.92,38.92,0,0,1,22.41-1.23c27.74,6.55,55.65,12.38,83.45,18.7C2718.49,1967.18,2722.7,1967.49,2726.16,1971.3Z" style="fill:#fff"/><path d="M2093.48,628.75c5.24,5.83,5.24,6.12-.94,8.09a19.65,19.65,0,0,0-9.09,5.62c-5.18,5.68-13.28,7.09-19.09,12.14-1.63,1.42-4.05,2.14-5.42,4.09s-.83,4.33,1.2,5c7.85,2.49,16.1,3.74,23.41,7.85,9.88-2.63,20.69-2.46,27.91-12.08,5.07-6.76,11.53-5.67,16.34,1.62l-.08-.1c-3.64,1.55-7.24,3.15-10.17,5.93h.06c-2.6.25-5,.87-6.11,3.6a2.24,2.24,0,0,1-1.56.42,8.66,8.66,0,0,0-2.36,1.61l-1.94.71c-2.71-2.47-2.72,1-4,1.79l0-.09a244,244,0,0,0-34.07,14.21c-17.36,8-36,11.66-54.5,15.37-22.62,4.53-45.55,5.27-68.58,4.5-22.52-.75-44.07-5.89-65.15-13.44-5.32-1.91-10.59-4-16-5.78-3-1-4.16-2.68-4-5.88.2-4.3-.1-8.63-.18-13,6.79-2.89,13.59-1.59,20.4-.08,3.77,6.33,9.72,8.45,16.7,9.16,51.28,5.24,99.46-6.35,146-26.72,8.5-3.72,16.43-8.68,25.13-12,1.28-.46,2.62-.81,3.91-1.2.75-.3,1.53-.55,2.29-.82a22.12,22.12,0,0,0,3-1.54,34,34,0,0,1,3.62-2.29c.88-.52,1.79-1,2.68-1.5.57-.34,1.17-.64,1.76-.93s1.12-.68,1.66-1c0,0,.79-.58.78-.6a10.89,10.89,0,0,1,1.58-1.19,7.47,7.47,0,0,1,1.77-.87,6.68,6.68,0,0,1,1.9-.55Z" style="fill:#6e6e6d"/><path d="M1319.33,1094.3c1.71,1,4.35,1.56,4.93,3,1,2.45,1.25,5.47,4.27,5.9s4-3,6.14-4.4c.82-.54,1.65-1.62,2.43-1.59,7.33.29,13.12-3.59,19.14-6.82,2.85-1.53,5.18-.51,7,1.6,2.61,3,5,6.09,8.22,10-8.09.39-9.17,8.48-14.72,11.86-2.18,1.33,0,4.21.94,6.27-8.16,7.22-16.4,14.37-24.49,21.67-16.32,14.74-29,32.41-40.94,50.74-1.65.8-1.31,2.81-2.4,4l0,0c-1.28,1-.9,2.89-2.07,4v0c-1.19,1-.81,2.9-2,4l0,0c-1.17,1.1-.83,2.91-1.94,4h0c-1.25,1.07-.93,2.9-2,4.09l0-.08c-1.45,1.19-1.13,3.09-1.88,4.56a1.64,1.64,0,0,1-.27,1.42c-2.84,2.75-2.65,6.68-3.93,10l0,0c-2.29,3.73-2.8,8-4,12.13l.07-.11c-2.53,2.24-.12,5.72-2,8.11l.07-.11c-2.79,3,.06,7.17-2,10.34a2,2,0,0,1-.11,1.59c-2.68,4.58.32,9.88-1.86,14.52,0,1,0,1.94,0,2.91.77,1.45.42,3.39,1.93,4.52l-.08-.06a1.36,1.36,0,0,1,0,2.43c-.17,1.47-.33,2.93-1.74,3.83a29.76,29.76,0,0,0-3-2.51c-2.1-1.32-6.14,2.1-6.7-1.74-.47-3.29-1.1-7.25,1-10.38,1.88-2.76,2.46-4.68-1.42-5.82a2.47,2.47,0,0,1-1.91-3c2.45-6.11-2.59-9.67-4.85-14-2.39-4.58-4.39-8.53-2.16-13.94,1.82-4.4-.88-9.49,2-14.36,1.71-2.92,2.18-6.53,4.56-9.54,3.73-4.69,2.71-7.58-2.6-10-2.09-1-4.32-1.62-6.45-2.49-1.32-.55-2.37-1.71-1.88-3a5.3,5.3,0,0,1,2.66-2.68c3-1.33,5.79.27,8.55,1.33l1.11.25c.71.28,1.39.6,2.07.91.36.11.71.24,1.06.34a6.8,6.8,0,0,0,3.23-.18,12.55,12.55,0,0,0,1.87-1.27,11.15,11.15,0,0,1,2.72-2.4,3.51,3.51,0,0,1,2.38.84c7.18,11.46,9.46-1.26,13.94-2.82.86-.13,1.25,1,2.15.93a3.35,3.35,0,0,1-1.41-2.34c1.07-6,2.49-11.36-7.48-9.31-6.27,1.29-5.79-4.76-6.17-9,2.3-15.09,10-27.91,17.59-40.69a166.62,166.62,0,0,1,21.75-29.49,23.18,23.18,0,0,1,2.11-1.58c.33-.24.7-.47,1-.72.62-.5,1.27-1,1.89-1.51.27-.28.57-.55.84-.83.49-.61,1-1.19,1.55-1.77A3.57,3.57,0,0,1,1319.33,1094.3Z" style="fill:#706f6f"/><path d="M1993.38,1925.57c-16.88-13.44-28.74-28.77-35.52-48.17-10.17-29.08-21-57.92-31.59-86.88a35.26,35.26,0,0,1-.88-3.46,5.21,5.21,0,0,1,4.53-2.39c15.61-.64,31-3,46.58-4.46,7.4-.69,7.64-.45,8.61,7,2.46,19.1,4.58,38.24,6.15,57.44A734,734,0,0,1,1993.38,1925.57Z" style="fill:#fff"/><path d="M1719.76,765.13c6.32-6.2,8.25-13.49,6-22.12-.67-2.58-1-3.37-3.67-2-1.94,1-1.75-.59-1.64-2,.51-6.45-.46-13.47.64-19.24,1.86-9.72,1-20.7,7.88-29.12,2.26-2.75,2.83-5,0-7.64-2.68-2.5-5-5.76-9-1.76a2.7,2.7,0,0,1-4.3-.1,7.47,7.47,0,0,1,3.33-5.88c14.86-11.34,26.58-26,40.51-38.3,1.21-6.55,6.48-3.4,10.09-4.22,4,5.35-.8,9.5-1.93,14.15a121.42,121.42,0,0,0-26.08,37.23c-9.3,20.68-10.83,42-8.66,64.22,1.22,12.37,3.7,24.28,8.58,35.61,1.74,4.07.19,6.24-2.58,8.45a182.81,182.81,0,0,1-26.48,17.69c-5.49,3-10.35,7.34-16.76,8.57-12.27,5.75-25.67,8.49-38,14.18h.09c-2,.72-4.55-.51-6.15,1.68l-.88.25-.92,0c-13.25,2-26.49,4.2-40.24,2.28,4.94-11.55,4.95-11.57,15.73-7.43.55.21,1.28,1.1,1.4.59,2.57-10.52,8.59-2.52,13-2.37,3.73.14,6.18-1.35,8.47-4.16a59.53,59.53,0,0,1,15.46-14c1.69-1,3.87-1.66,3.3-4.27-.48-2.22-2.34-3.2-4.32-3.65a109.74,109.74,0,0,0-14.74-2.56c-3.34-.31-6.64-.85-9.53-2.64-1.92-1.19-4.74-2.28-4.49-4.82.35-3.39,3.76-3,6.26-3.63,22.75.67,45.22-1,66.92-8.51,5.63-2,11.57-3.49,14.84-9.19a3.93,3.93,0,0,0-.13-3.1C1721.15,766.6,1720.44,765.88,1719.76,765.13Z" style="fill:#6f6e6d"/><path d="M2281.2,601.16c1-2.25,2.82-3.51,4.91-4.71,7.27-4.2,7.2-4.27,5.71-13.24a19.82,19.82,0,0,1-.06-3.93c0-.23.46-.44.73-.68,1.61.81,2.18,2.42,2.52,3.93,4.59,20.21,6.45,40.28,1.55,61-2.18,9.2-4.5,18.65-5.08,28.23-.37,6-5.61,10.82-3.94,17.24-8.41,25.23-24.25,45.2-44.25,62.15-7,6-13.74,12.46-22.56,16a5,5,0,0,0-3.16,3.57c-5.45,1.4-5.45,1.4-9.7-3.58,4.86-11.65,12.51-21.93,16.56-34,.77-2.28,2.44-3.11,4.69-2.26,5.56,2.1,8.79-1.57,12-4.94a155.41,155.41,0,0,0,29-45.06c8.26-19.08,14-38.77,13-59.85C2282.82,614.36,2281.86,607.77,2281.2,601.16Z" style="fill:#757473"/><path d="M2245.22,1675.79c12.91-28.36,27.7-55.76,42.07-83.38,6.73-12.94,13.41-25.92,20.22-38.82,1.7-3.21,3.85-6.19,5.78-9.28a4,4,0,0,1,5.17-1.83c9.93,4.27,20.7,6.78,29.76,13.55q-50.68,61.41-100.79,122.15C2245.48,1678.5,2244.32,1678.1,2245.22,1675.79Z" style="fill:#fff"/><path d="M2297,1548.94c-22.43,48.18-48.89,93-71.28,139.89-.47,1-2.17,1.37-4.36.71,4.73-16,9.33-32.14,14.23-48.15q12.66-41.42,25.67-82.74c4.32-13.67,4.53-13.72,18.47-12.39C2285.25,1546.79,2290.71,1548,2297,1548.94Z" style="fill:#fefefe"/><path d="M2316,1842.47c-5.64,0-11.34.48-16.92-.1-9.34-1-12.92-6.95-10.57-16,1.79-7,5.72-11.77,12.5-14.36,11.85-4.54,24-7.7,36.74-7.76,5.38,0,10.78-3.25,15.62-1.37,4.53,1.75,5.2,8.14,8.95,11.48,3,2.67,5.84,5.5,10.41,4.76,2.86-.47,3.28,1.31,3.14,3.58-.34,5.59-4,9-8.18,11.77a26.81,26.81,0,0,1-11.15,3.91c-6.9,1-13.72,2.5-20.63,3.26-6.6.72-13.27.75-19.9,1.09Z" style="fill:#fff"/><path d="M1640.16,790.47c-1.57.35-3.37-.23-5,1.49,3.92,2.67,7.81,4.58,12.69,4.83,5.59.28,11.15,1.23,16.7,2.07,3.61.55,6.44,2.76,6.74,6.34.27,3.3-1.08,5.22-5.47,6.39-6.71,1.79-10.5,8.69-15.54,13.38-1.6,1.48-.77,5.58-4.45,5.54-4.21,0-8.67,1.41-12.53-1.61-.93-.73-1.22-2.32-3.28-2.1-.14,1.52-.22,3.14-.47,4.73-.38,2.48-2.21,3.24-4.36,3-3.4-.35-.33-2.32-.75-3.36-1-2.42-3.43-3.15-5.64-3.62-3-.65-2.82,2-3.15,3.86-.38,2.16-2.07,3.12-3.89,4.44,8.61.34,16.87,1.67,25.27-.52,4.08-1.06,8.58-.46,12.89-.62-13.82,4.56-27.94,4.73-42.21,3-10-1.24-16.67-6.07-18.15-16.59.67-4.57,1.32-9.11,6.62-11,.79-.28,1.38-1.39,1.88-2.22,5.33-8.92,13.06-11.12,23.25-10.5,6.68.41.07,3.8,3.25,5.08,3.48.22,6.47-2.9,10.23-4.52-.65-1.15-.77-1.65-1-1.7-14.53-3.16-27.15-11.37-41.26-15.64a24.06,24.06,0,0,1-8.69-4.68c-3.32-2.8-3.56-6.91.11-9.62,1.32-1,1.58,1.32,1.84,2.48,12.8,11.16,29,13.2,44.65,16.75C1634,786.39,1638.75,785.25,1640.16,790.47Z" style="fill:#6c6b6a"/><path d="M1267.83,900.52a3.41,3.41,0,0,0,.15,1c1.94,3.88.26,9.49,3.54,12,3.54,2.75,7.82-2.7,13-1.2-.31,4.29.5,8.95-4.06,12-2.7,1.82-1.36,3.9-1,6.15,1,5.71.54,11.25-2.72,16.31s-3.57,10.67-3.46,16.26c.18,9.58-2.57,17.64-10.8,23.07a17.64,17.64,0,0,0-5.4,5.65,24.21,24.21,0,0,1-4,4.43c-2.66,2.52-5,.7-7-.94-2.33-1.91-.26-3.45,1-4.92,1.71-2,4.44-4.83,1.44-6.61-2.69-1.59-5.09.57-5.83,4.39-.87,4.52-4.73,6.06-9.06,6.3,12.39-20.78,18.53-43.81,24.61-66.94C1260.66,918.32,1262.84,908.88,1267.83,900.52Z" style="fill:#676867"/><path d="M2955.92,2264.83c-9.83,8.65-20.1,11.74-30.06,9.31-36.1-8.79-71.94-18.53-107.68-28.67-6-1.7-12-3.19-19.65-5.21,10-6.24,20.49-8.29,29.71-14.85,1.09,4,2.46,7.34,2.79,10.74.55,5.61,3.55,8,8.81,8.82,17,2.81,34,5.86,51,8.78C2912.31,2257.42,2933.76,2261.05,2955.92,2264.83Z" style="fill:#fdfdfd"/><path d="M2339.24,1852.84c-3.2,12.66-7.48,17.1-18.45,18.35-16.9,1.92-33.82,2.54-50.66-.92a20.72,20.72,0,0,1-8.27-3.22,12.35,12.35,0,0,1-1.7-18.41c3.31-3.57,7.83-4.77,12.18-6.42,6-2.26,8.29,2.45,11.39,5.65,3.93,4.05,8.81,5.8,14.29,6.05,10,.46,19.94.75,29.84-1.19C2331.42,1852,2335.07,1851.45,2339.24,1852.84Z" style="fill:#fefefe"/><path d="M2411.66,1774.89c1.17,7-2.15,11.57-6.38,15.54-8.67,8.14-19.48,12.39-30.45,16.27-4.3,1.52-6.8-.8-8.93-4.18-6.43-10.2-2.37-24.94,8.95-32a18.63,18.63,0,0,1,4.46-2.18c8-2.33,15.62-5.48,21.93-11.22,2.53-2.31,4.55-1.79,6.27,1.32C2410.46,1763.84,2412.28,1769.41,2411.66,1774.89Z" style="fill:#fefefe"/><path d="M2308.93,1884.57c.92,12.65-3.88,19.48-15.94,21-15.38,2-30.57-.29-45.19-5.24-8-2.72-11-8.5-8.64-14.26,2.87-7,13.26-12.3,19.3-9.32,11.66,5.75,24,7.36,36.77,7.28C2299.52,1884,2303.85,1883.29,2308.93,1884.57Z" style="fill:#fefefe"/><path d="M2912,2095c4.73,6.41,3.91,12.74,4.52,18.33,2.31,20.86,6.36,41.42,9.65,62.1.42,2.63.85,5.26,1,7.91.49,7.18-2.07,9.13-8.64,6.46-3.84-1.55-6.35-4.72-8.64-8-6.68-9.72-10.21-20.81-14-31.8-1.13-3.24.85-5.06,2.17-7.18a153,153,0,0,0,9.32-16.46C2911.78,2116.81,2911.63,2106.66,2912,2095Z" style="fill:#fefdfe"/><path d="M2987.43,2204c24.32,7.52,46.83,12.63,70.61,18.15-19.22,8-36.87,15.39-54.53,22.73-2.78,1.16-5.66,2.7-6.78-2.11C2993.89,2230.56,2990.91,2218.42,2987.43,2204Z" style="fill:#fefefe"/><path d="M1557.57,803.06c-4.35-7.4-8.53-14.9-13.08-22.17-8.32-13.32-19-24.57-30.65-35.06-5-4.5-5-5.85-1-10.51,4.21-4.94,6.56-5.25,11.58-1.41,17.92,13.71,29.19,32.14,37.39,52.75C1559.23,791.82,1563.05,798.65,1557.57,803.06Z" style="fill:#706f6d"/><path d="M4384.77,2650.07c1.56,4.78,6.81,4.87,9.86,7.76a16.25,16.25,0,0,1-12.11,3.5c-3.3-2.83-6.8-1.34-10.36-.63-37.55,7.51-75.47,12.81-113.17,19.42-1.65.29-3.22.79-4.73-.32a20.49,20.49,0,0,1-9.86-5.64c16.11-4.22,32.71-5.64,49.06-8.46,29.8-5.15,59.75-9.46,89.34-15.78A6.66,6.66,0,0,1,4384.77,2650.07Z" style="fill:#7f8384"/><path d="M2421.09,1725.59q1.39-1.69,2.78-3.4a4.47,4.47,0,0,1,1.55-1.87q17.74-23.31,35.49-46.63c3.21-4.21,6.36-8.46,8.33-12.72,1-.88,1.5-.72,2,0,3.29,4.48,10,8.06,9.71,13.07-.33,5.55-7,9.17-11.33,13.16-15.18,13.83-30.47,27.55-45.71,41.32C2421.54,1729,2420.56,1728,2421.09,1725.59Z" style="fill:#fdfdfd"/><path d="M1548.12,889.28a1.08,1.08,0,0,1-.66,1.23c-4.66-.9-2.1-4-2-6.43,2.12-14.25,7.41-27.46,13.49-40.38,3.53-7.49,11.57-9.66,17.37-14.47,1.68-1.39,3.76-.61,5.36,1,1.77,1.77,3,3.89,2,6.26a70.44,70.44,0,0,1-5.34,10.63A476.4,476.4,0,0,1,1550,886.75,3.21,3.21,0,0,0,1548.12,889.28Z" style="fill:#fdfdfd"/><path d="M1517.92,764.61a10,10,0,0,0-.77,9.19c1.06,2.72-.24,4.71-2.74,5.41-8.22,2.31-17.4,5.42-24.05-1.69-7.77-8.31-16.88-9.36-27-9,11.4-5,22.92-9.69,34.14-15,4.34-2.07,7.4-1.27,10.7,1.46C1511.75,757.86,1515.44,760.63,1517.92,764.61Z" style="fill:#686766"/><path d="M1881.75,719c-5.27,5.49-10.52,11-15.81,16.45s-8.25,12.46-13.71,18.11c4.93-16.48,8-33.07,7.4-50.88a83.86,83.86,0,0,1,24,8c1.52,1.66,3.08,3.3,1.71,5.81v.06C1884.56,718,1882.5,717.51,1881.75,719Z" style="fill:#656361"/><path d="M4254.26,2679.8c15.43-3.23,30.87-6.34,46.55-8.21,9.12-1.09,18.23-2.92,27.15-4.69,14.47-2.86,29.47-3.34,43.47-8.56,3.18-1.19,6.56-.76,9.84-.6,2.75.14,1.65,2.1,1.25,3.59L4261,2681.65c-2.89.49-5.77,1.11-8.66,1.67Z" style="fill:#707072"/><path d="M2407.91,1590c13.13,5.36,25.48,12.23,37.55,19.59,5.46,3.33,5.27,4.5,2.36,9.44s-5.55,3.06-8.68.54c-11.27-9.12-23.14-17.51-33.78-27.41C2405.18,1590.23,2405.57,1589,2407.91,1590Z" style="fill:#f9f9fa"/><path d="M1557.57,803.06c.28-2.81,1.51-5.43.52-8.5-1.09-3.4.22-6.34,3.74-7.9,4.24,6.41,5.87,14,9.23,20.79,3.26,6.6,2,12.09-4.51,17C1562.18,817.78,1560,810.39,1557.57,803.06Z" style="fill:#787776"/><path d="M2378.52,1559.68c9.78,2.87,19.6,5.59,29.32,8.65,9.27,2.93,9.22,3.09,6.83,13.19C2404.38,1578.34,2387,1568.51,2378.52,1559.68Z" style="fill:#f4f5f6"/><path d="M1405.7,788.29c-1.52,4.64-6,6.59-9.6,7.73-6.79,2.14-12.62,6.9-20.16,7.07-3,.07-4.92,2.95-7.3,4.65-3.84,2.75-7.92,6.41-13.24,2.64,1.83-2.53,4.63-3.7,7.3-4.92C1376.75,799,1390.65,792.23,1405.7,788.29Z" style="fill:#636464"/><path d="M1579.57,799.08c.87-3.12-1.24-6.15-.93-9.67,8.61,3.38,7.42,11.86,10.64,17.64,1.9,3.39-4.85,2.26-5.27,5.54A31.3,31.3,0,0,1,1579.57,799.08Z" style="fill:#6c6b6a"/><path d="M1657.77,832.88c4.09-6.86,12.09-6.18,18.2-8.6s12.78-5.23,19.78-5.58A101.38,101.38,0,0,1,1657.77,832.88Z" style="fill:#6c6b6a"/><path d="M1815.57,632.56c-4.7-4-10.82,0-15.89-2.62,1.29-1.77,3.17-1,4.66-1.55,4.6-2.88,9.06-3.21,13.3.7,3.38,2.95,7.47,1.3,11.24,1.67,2.57.26,5.26-.42,7.68.79,1.86.93,3,2.48,2.66,4.71-.34,2-2,2.27-3.64,2.56h0a6.1,6.1,0,0,0-2.2-1.93l.13.14c-1-1.65-3-1.24-4.48-2h-.75l-.7-.28c-1.27-1.27-3.12-1-4.59-1.72Z" style="fill:#6b6b6a"/><path d="M2067.63,689.12c2.53-6.21,9.24-5.64,13.94-8.07,6.16-3.19,12.26-8,20.13-6.15A111.27,111.27,0,0,1,2067.63,689.12Z" style="fill:#6b6b6a"/><path d="M2229.68,574.93c-1.43-1-2.79-2.64-1.62-3.93,3.49-3.87,5.87-9.23,12-10A50.91,50.91,0,0,1,2229.68,574.93Z" style="fill:#6d6d6c"/><path d="M2421.09,1725.59l2.85,2.91a47.85,47.85,0,0,1-10.44,9.75,2.3,2.3,0,0,1-3.14-.2A72.87,72.87,0,0,1,2421.09,1725.59Z" style="fill:#e3e4e5"/><path d="M1767.73,646.93c-.45-4.87,2.81-9.22,1.93-14.15,4.63,4.63,4.63,4.63.09,12.45Z" style="fill:#6b6b6a"/><path d="M1545.46,884.08c.82,2.1-.21,4.77,2,6.43-.75,2.85-2.3,5.09-5.84,7.32C1544.18,892.88,1542.31,887.92,1545.46,884.08Z" style="fill:#dad9d8"/><path d="M1347.74,814.57c.45,1.46,1.82,3-.32,4.23s-4.18,2.64-5.77-.61A7.73,7.73,0,0,1,1347.74,814.57Z" style="fill:#636464"/><path d="M2117.55,666.88c2-4.29,5.16-6.73,10.17-5.93C2125.22,664.45,2121.5,665.86,2117.55,666.88Z" style="fill:#6b6b6a"/><path d="M1266.07,1274.93c.38-4.87-2-10.09,1.86-14.52C1267.51,1265.28,1268.5,1270.32,1266.07,1274.93Z" style="fill:#6c6c6c"/><path d="M1272,1240.59c-.35-4.59-.07-9,4-12.13A22.59,22.59,0,0,1,1272,1240.59Z" style="fill:#6c6c6c"/><path d="M2245.22,1675.79c.74.8,1.47,1.6,2.21,2.39a11.81,11.81,0,0,1-5.94,6.47,1.84,1.84,0,0,1-.23-2.74C2242.35,1679.73,2243,1677.25,2245.22,1675.79Z" style="fill:#d7d6d6"/><path d="M1275.91,1228.5c0-3.87-.71-8,3.93-10A19.44,19.44,0,0,1,1275.91,1228.5Z" style="fill:#6c6c6c"/><path d="M1885.36,716.49l-1.71-5.81c2,.09,4.32.4,4.79,2.65C1888.81,715.14,1887.09,716.09,1885.36,716.49Z" style="fill:#4b4b49"/><path d="M2111.5,670.47c.63-5.74.75-5.81,6.11-3.61C2116.08,668.93,2113.87,669.83,2111.5,670.47Z" style="fill:#6b6b6a"/><path d="M2407.91,1590l-2.55,2.16-6-3.89c-.57-.53-.75-1-.54-1.54s.41-.74.6-.74A12.73,12.73,0,0,1,2407.91,1590Z" style="fill:#cbd2d7"/><path d="M1651.71,834.55c.72-5.4,3.64-2.79,6.15-1.68C1656.21,834.88,1654,834.71,1651.71,834.55Z" style="fill:#6c6b6a"/><path d="M1268,1258.82c.3-3.52-1.66-7.49,2-10.34C1269.92,1252,1270.45,1255.72,1268,1258.82Z" style="fill:#6c6c6c"/><path d="M2253.6,2216.13l-2.1,3.59a4.64,4.64,0,0,1-4.63-.89C2248.52,2216.42,2250.67,2215.32,2253.6,2216.13Z" style="fill:#bdbfc2"/><path d="M2101.68,675c0-2-.06-4.33,2.35-4.71,1.51-.24,1.4,1.72,1.6,2.92C2104.7,674.65,2103.24,675,2101.68,675Z" style="fill:#6b6b6a"/><path d="M2395.1,1584.25a5.85,5.85,0,0,1-5.64-4l-.06.07a11.14,11.14,0,0,1,8.08,3.84C2396.73,1585.2,2395.94,1585.23,2395.1,1584.25Z" style="fill:#424749"/><path d="M2410.36,1738.05l3.14.2c-1.46,2.21-2.93,4.39-6.1,3.91h0C2407.29,1740,2408.78,1739,2410.36,1738.05Z" style="fill:#b2afaf"/><path d="M1270,1248.59c.13-2.84-1.17-6,2-8.11C1271.93,1243.32,1272.34,1246.3,1270,1248.59Z" style="fill:#6c6c6c"/><path d="M1483.76,1748.2l2.26-2.28a3.37,3.37,0,0,1,.73.56c1.13,1.53,2.36,3.79.57,4.78S1484.27,1750.09,1483.76,1748.2Z" style="fill:#afacac"/><path d="M2389.46,1580.24a12.67,12.67,0,0,1-2.72-.44c-1.06-.43-2.65-1.19-1.83-2.46s2.18-.13,3,.68a12.39,12.39,0,0,1,1.5,2.29Z" style="fill:#333839"/><path d="M2865.51,1999.77l-4.46.3c-2-.92-1.23-1.67.26-1.92A4.62,4.62,0,0,1,2865.51,1999.77Z" style="fill:#7f98a3"/><path d="M1268,1284.73c0-.81,0-1.62,0-2.43l6.07.21C1272.82,1285.41,1270.1,1284.22,1268,1284.73Z" style="fill:#6c6c6c"/><path d="M1353.91,810.84c.18,1,1.51,2.26.29,3.06s-2-.51-2.49-1.56A2.31,2.31,0,0,1,1353.91,810.84Z" style="fill:#636464"/><path d="M2395.1,1584.25l2.38-.1c.92.33,1.81.68,1.92,1.85l-.06,2.28A6.33,6.33,0,0,1,2395.1,1584.25Z" style="fill:#7c7e80"/><path d="M1829.07,635c1.88-.17,3.62,0,4.48,2A5.51,5.51,0,0,1,1829.07,635Z" style="fill:#6a6969"/><path d="M1281.94,1212.56c0-1.7.3-3.21,2-4.09A4.42,4.42,0,0,1,1281.94,1212.56Z" style="fill:#6c6c6c"/><path d="M1268,1282.36c-2-.93-2.13-2.64-1.93-4.51C1266.75,1279.35,1267.39,1280.86,1268,1282.36Z" style="fill:#6c6c6c"/><path d="M2241.26,1681.91c.07.91.15,1.83.23,2.74-.22,1-1.12,1.7-1.68.93C2238.65,1684,2240.09,1682.88,2241.26,1681.91Z" style="fill:#9c9fa2"/><path d="M1280.11,1217c-.2-1.86-.06-3.58,1.88-4.56A5.37,5.37,0,0,1,1280.11,1217Z" style="fill:#6c6c6c"/><path d="M1283.89,1208.48c0-1.65.35-3.14,1.94-4A4.46,4.46,0,0,1,1283.89,1208.48Z" style="fill:#6c6c6c"/><path d="M1285.85,1204.41c0-1.63.41-3.1,2-4A4.34,4.34,0,0,1,1285.85,1204.41Z" style="fill:#6c6c6c"/><path d="M1287.86,1200.44c0-1.66.41-3.15,2.06-4A4.54,4.54,0,0,1,1287.86,1200.44Z" style="fill:#6c6c6c"/><path d="M1289.9,1196.52c0-1.79.39-3.37,2.4-4A5.3,5.3,0,0,1,1289.9,1196.52Z" style="fill:#6c6c6c"/><path d="M1881.75,719c.54-1.79,2-2.27,3.6-2.43C1884.76,718.26,1883.35,718.76,1881.75,719Z" style="fill:#4b4b49"/><path d="M1823,633c1.82-.2,3.53-.09,4.59,1.72A5.47,5.47,0,0,1,1823,633Z" style="fill:#6a6969"/><path d="M1833.42,636.9l2.2,1.93A2.73,2.73,0,0,1,1833.42,636.9Z" style="fill:#6a6969"/><path d="M2405.31,1744.07c-.15.52-.3,1-.44,1.56l-.95-.74,1.54-.66Z" style="fill:#929da1"/><path d="M2407.4,1742.16c.15,1.56-.6,2.14-2.09,1.91l.15.16a1.71,1.71,0,0,1,1.93-2.08Z" style="fill:#9fabb2"/><path d="M2425.42,1720.32a1.7,1.7,0,0,1-1.55,1.87C2423.78,1721.06,2424.39,1720.52,2425.42,1720.32Z" style="fill:#e3e4e5"/><path d="M2107.58,672.5l2.36-1.62Z" style="fill:#6b6b6a"/><path d="M1349.8,813.05l-2.07,1.57A2.17,2.17,0,0,1,1349.8,813.05Z" style="fill:#636464"/><path d="M1548.12,889.28a2.52,2.52,0,0,1,1.87-2.53A2.4,2.4,0,0,1,1548.12,889.28Z" style="fill:#dad9d8"/><path d="M4396.25,2657.87l2.58,0C4398,2659,4397.09,2659.25,4396.25,2657.87Z" style="fill:#7f8384"/><path d="M3996.74,2035.48c10.29-2.15,20.58-4.23,30.85-6.44,33.72-7.27,67.4-14.74,101.16-21.84,30.83-6.49,61.8-12.35,92.38-20a11.9,11.9,0,0,1,8.58.85c33.73,16.39,67.22,33.23,99.67,52,.25.14.33.56.71,1.29-3.28,3.75-8.37,3.32-12.48,4.2-58.37,12.42-116.83,24.5-175.26,36.66-13,2.7-26.05,5.06-38.92,8.22-5.08,1.25-9.05,0-13.13-2.29-7.24-4.05-14.48-8.11-21.66-12.27-21.82-12.64-44.39-23.9-66.71-35.61-1.73-.91-3.45-1.85-5.17-2.77C3996.75,2036.85,3996.75,2036.17,3996.74,2035.48Z" style="fill:#fff"/><path d="M3987.69,2046.49c31.65,15.28,62.9,30.69,93,48.15,10.9,6.32,21.2,7.54,33.24,5,65.55-14.13,131.19-27.8,196.8-41.64,6.17-1.3,12.3-2.75,18.48-4,1.57-.32,3.61-.49,4.16,1.57.59,2.23-.56,3.92-2.82,4.44-8.73,2-17.44,4.06-26.21,5.86q-96.59,19.83-193.18,39.56c-8.7,1.78-16.75,1.34-24.94-3.24-30.14-16.85-61.25-31.86-92-47.52C3991.2,2053.08,3985.87,2052.75,3987.69,2046.49Z" style="fill:#eef0f1"/><path d="M3988,2062.68c22.66,11.47,45.43,22.87,68.09,34.5,10.63,5.45,21.07,11.29,31.55,17,5.77,3.17,11.44,3.81,18.14,2.38,66.81-14.31,133.69-28.26,200.56-42.28,7.47-1.57,15-3,22.47-4.38,1.55-.29,3.59-.77,4.19,1.29.67,2.36-1,3.85-3.06,4.3-10.37,2.25-20.76,4.44-31.17,6.48-57,11.19-113.9,22.62-170.56,35.3-8.41,1.88-16.95,3.21-25.39,5a19.11,19.11,0,0,1-13.4-2.11c-33.11-17.58-66.18-35.22-99.91-51.57C3986.84,2067.29,3985.81,2066,3988,2062.68Z" style="fill:#eaedee"/><path d="M4116.65,2133.82l-.83.42-.92-.19c-1.83,1.51-4.39.2-6.24,1.62-9.36,3.64-17.66,1.68-26.42-3.09-28.77-15.68-57.91-30.68-86.91-45.94-1.76-.92-3.56-1.74-5.3-2.69s-3.9-2.36-2.68-4.49c1.47-2.54,3.57-.26,5.07.53q40,21,80,42.1c6.13,3.23,12.19,6.6,18.28,9.9a21.34,21.34,0,0,0,14,0,1.06,1.06,0,0,1,1.55-.23c2.58-1.73,5.93.28,8.44-1.75a1.08,1.08,0,0,1,1.5-.28c2-1.31,4.57-.07,6.48-1.62a1.48,1.48,0,0,1,1.78-.28c1.82-1.52,4.36-.21,6.21-1.59l3.18-.58c2.15-1.06,4.78-.05,6.83-1.57a1.58,1.58,0,0,1,1.79-.26c3.86-1.39,5.76-.64,4.19,3.87l-3.63.39c-2.53,1.78-5.87-.27-8.34,1.76l-.71.49-.83-.2c-2,1.29-4.53.12-6.45,1.57l-3.31.51C4121.25,2133.34,4118.64,2132.23,4116.65,2133.82Z" style="fill:#edeef0"/><path d="M4204.62,2115.8l-.84.44-.94-.19c-1.48,1-3.25,1.19-4.14-.32s.47-2.83,1.92-3.65a1.32,1.32,0,0,1,1.66-.27c1.87-1.45,4.46-.13,6.32-1.65,17.66-4.72,35.7-7.6,53.58-11.26,19.2-3.94,38.33-8.17,57.5-12.23,2.59-.55,5.26-.76,7.88-1.23,1.39-.25,2.67-.38,3.18,1.26.61,2-.35,3.09-2.25,3.6-1.6.44-3.17,1-4.79,1.39q-52.65,11-105.33,21.95a59.24,59.24,0,0,1-6.94.61C4209.27,2115.28,4206.66,2114.29,4204.62,2115.8Z" style="fill:#eaeced"/><path d="M4200.62,2112.08c-1.46,2.56-.75,3.9,2.22,4-10.93,4-22.58,4.89-33.81,7.64-7.36,1.81-14.93,2.71-22.41,4-.06-2.74-1.88-3.58-4.19-3.87,11.59-4,23.88-4.9,35.75-7.68C4185.57,2114.43,4193.13,2113.42,4200.62,2112.08Z" style="fill:#e1e3e4"/><path d="M4104.67,2132c-4.66,3-9.31,3.3-14,0Z" style="fill:#e1e3e4"/><path d="M4134.65,2129.86c2.3-2.82,5.41-1.84,8.34-1.76C4140.5,2130.09,4137.63,2130.24,4134.65,2129.86Z" style="fill:#e1e3e4"/><path d="M4114.66,2130c-2.35,2.82-5.47,1.92-8.44,1.75C4108.79,2130,4111.67,2129.74,4114.66,2130Z" style="fill:#e1e3e4"/><path d="M4204.62,2115.8c1.85-2.34,4.35-1.83,6.81-1.55C4209.46,2116.1,4207.08,2116.11,4204.62,2115.8Z" style="fill:#e1e3e4"/><path d="M4126.66,2131.72c1.74-2.21,4.1-1.88,6.45-1.57C4131.26,2131.91,4129,2132,4126.66,2131.72Z" style="fill:#e1e3e4"/><path d="M4208.6,2110.16c-1.68,2.19-4,1.87-6.32,1.65C4204.06,2110,4206.25,2109.78,4208.6,2110.16Z" style="fill:#e1e3e4"/><path d="M4130.63,2126.25c-1.66,2.11-3.94,1.85-6.21,1.59A7.05,7.05,0,0,1,4130.63,2126.25Z" style="fill:#e1e3e4"/><path d="M4122.64,2128.12c-1.73,2.25-4.11,1.91-6.48,1.62C4118,2127.8,4120.27,2127.81,4122.64,2128.12Z" style="fill:#e1e3e4"/><path d="M4116.65,2133.82c1.81-2.34,4.26-1.92,6.7-1.59C4121.44,2134.13,4119.07,2134.08,4116.65,2133.82Z" style="fill:#e1e3e4"/><path d="M4108.66,2135.67c1.67-2.1,4-1.86,6.24-1.62A6.88,6.88,0,0,1,4108.66,2135.67Z" style="fill:#e1e3e4"/><path d="M4140.64,2124.1c-1.86,2.33-4.35,1.92-6.83,1.57C4135.8,2123.9,4138.16,2123.75,4140.64,2124.1Z" style="fill:#e1e3e4"/><path d="M3918.41,2493.24c-22.19,6.15-42.68,11.66-63.06,17.53-26.13,7.52-52.57,14-78.33,22.73-6,2.06-10.86.24-15.94-2.37q-58-29.79-116.07-59.5c-19.21-9.83-38.47-19.56-57.7-29.34-1.38-.7-3.4-.52-3.82-3.15,4.33-2.89,9.65-3.08,14.57-4.29,38.68-9.49,77.45-18.59,116.06-28.35,11.84-3,22.26-2.23,33.36,3.44,54.71,27.9,110.12,54.36,166,79.93C3914.59,2490.39,3915.56,2491.29,3918.41,2493.24Z" style="fill:#fff"/><path d="M3435.69,2482.92c2.16-3.5,5.81-3.61,8.82-4.41,39.43-10.5,78.3-22.88,117.49-34.2,3.43-1,6.47-1.77,10.3.45,41.68,24.14,85.28,44.65,127.89,67,15.23,8,30.72,15.55,47,23.77-3.88,4-8.58,4.49-12.6,5.8-35.28,11.55-71,22-105.8,34.71-14.39,5.26-24.72,3.17-37.48-4.34-49.76-29.32-100.31-57.29-150.56-85.78C3439,2485,3437.37,2483.93,3435.69,2482.92Z" style="fill:#fff"/><path d="M2273.16,2391.45c-13.73,4.3-25.36,8-37,11.57q-96.39,29.91-192.77,59.89a16.5,16.5,0,0,1-13.34-1.11q-41.79-21-83.74-41.79c-8-3.94-16.08-7.5-25.28-11.77,8-2.33,15-4.28,21.87-6.33q104-30.93,207.86-61.94c5.67-1.7,10.48-1.83,16.1.89C2201.47,2357.62,2236.29,2374,2273.16,2391.45Z" style="fill:#fff"/><path d="M1915.42,2417.14c27,13,52.66,25.37,78.27,37.79,10.45,5.06,21,10,31.14,15.6,7,3.86,13.52,4.08,21,1.77,38.32-11.88,76.75-23.39,115.1-35.17q53.7-16.5,107.3-33.3c1.92-.6,3.78-1.71,4.78,1.19.89,2.59.45,4.62-2.31,5.61-3.11,1.12-6.24,2.22-9.41,3.15q-92,27.13-184,54.24c-10.8,3.19-21.63,6.34-32.21,10.16-6.48,2.33-12,1.7-18.07-1.33q-32.45-16.3-65.18-32.07c-12.56-6-25.51-11.24-37.66-18.12C1920.74,2424.76,1916.68,2423.46,1915.42,2417.14Z" style="fill:#f7f8fa"/><path d="M4324.11,2322.66c-41.24,15.33-80.3,31.1-119.3,47-5.81,2.37-11.34,7.64-17.27,6.82s-11.13-5.62-16.74-8.5c-57.88-29.73-116.32-58.33-174.8-86.94,1.66-3.62,5.38-3.71,8.28-4.75,41.24-14.75,82.56-29.26,123.77-44.09,4.73-1.7,8.42-1.73,13.07.55q88.13,43.09,176.46,85.77C4319.3,2319.38,4320.84,2320.58,4324.11,2322.66Z" style="fill:#fff"/><path d="M3847.64,2035.1c-8.7,5.08-17.37,7.39-25.68,10.34-45.6,16.22-91.34,32-137,48.2a30.26,30.26,0,0,1-20.31.46c-45.17-14.33-90.44-28.36-135.73-42.5,1.18-2.92,3.5-3.18,5.68-3.87,55-17.39,110.12-34.62,165-52.53,7-2.29,12.62-1.34,19,.61,40,12.15,80,24.08,120,36.12C3841.37,2032.74,3844,2033.81,3847.64,2035.1Z" style="fill:#fff"/><path d="M2928.43,1858.12c-58.84,17.6-115.56,33.67-171.6,52a18,18,0,0,1-12.45-.57c-36.4-13.38-73.58-24.49-110.2-37.22-4.66-1.62-9.46-2.86-15-4.52,3.52-3.33,7.44-3.28,11-4.22,52.88-14,105.8-28,158.61-42.29a42,42,0,0,1,25.05.32c35.4,11.18,70.55,23.19,106.38,33C2922.33,1855.18,2924.3,1856.33,2928.43,1858.12Z" style="fill:#fff"/><path d="M3432,1877c-2,4.3-5.53,4.89-8.39,6.18-49.84,22.53-99.89,44.6-148.62,69.49-3.39,1.73-6.35,2.51-10.26,1.63-43-9.76-86-19.29-129-28.92a59.53,59.53,0,0,1-5.77-1.88c1.06-2.93,3.91-3.13,6.15-4.13,50.81-22.81,101.67-45.5,152.39-68.51,4.67-2.12,8.55-1.9,13.24-.89,38.89,8.34,77.44,18.34,116.69,25C3422.69,1875.74,3427,1876.29,3432,1877Z" style="fill:#fff"/><path d="M3125.06,2553.28c-.87-4,1.19-7.27,2.31-10.66q17.07-51.52,34.43-102.94c2.58-7.68,2.64-7.75,10.32-7.41,49.24,2.16,98.53,1,147.78,2.23,2,.05,4,0,6,.05,17,.64,14.84-.82,12.4,14.79-5.25,33.48-11.58,66.78-17.46,100.16-1.22,6.91-1.23,7.18-9.23,7.09q-66.41-.78-132.81-1.81-21-.3-41.93-.78C3132.92,2553.91,3128.9,2554.57,3125.06,2553.28Z" style="fill:#fff"/><path d="M3674.3,2244.83c13.13-1,25.28-2.09,37.45-2.83,40.53-2.47,81.08-4.65,121.59-7.38,7.2-.49,11.33,1.25,15.1,7.73,18.7,32.19,38,64,57,96,1.13,1.9,3.22,3.44,2.71,7-11.28.74-22.72,1.44-34.15,2.24q-52.77,3.67-105.53,7.39-20.43,1.41-40.86,2.51c-8.42.44-8.57.34-11.67-7.51q-17.76-44.92-35.38-89.91C3678.65,2255.26,3676.61,2250.47,3674.3,2244.83Z" style="fill:#fff"/><path d="M1654.57,1175a6.08,6.08,0,0,1-7.5,6.09c-38.72-7.43-76.12-1.78-112.35,12.39-49.58,19.39-87.75,53-117.53,96.59-.38.55-.62,1.29-1.13,1.63-2.74,1.84-2.08,9.24-8.21,5.4-4.48-2.81-4.28-4.6.2-11.62a236.63,236.63,0,0,1,22-29.58c29.27-33.14,63.77-59,105.53-74.48,34.51-12.76,70.08-17.52,106.72-12.62a56,56,0,0,1,9.62,2.48A3.47,3.47,0,0,1,1654.57,1175Z" style="fill:#050505"/><path d="M1443.37,2631c-3.09-.55-4.35-3-5.82-5.12-1.29-1.87.2-3,1.41-4.05,2.27-1.95,4.6-3.83,7-5.68,37.25-29.22,72.75-60.35,104.13-95.94,20.28-23,38.89-47.23,54.07-74,1.54-2.71,2-7.58,7.6-4.55s2.62,6.44.88,9.91c-10.46,21-24.22,39.75-39.1,57.67-36.72,44.27-78.83,82.92-124.4,117.89C1447.26,2628.57,1445.24,2629.75,1443.37,2631Z" style="fill:#040405"/><path d="M1871.59,2089.21c7.75-.95,12.39-6,17-10.55,3.71-3.73,6.13-2.48,9.1.45,3.32,3.28,2.14,6.08-1,8.27-7.58,5.3-14.73,11.56-24.44,12.72-10.41,1.24-15.06-3.83-13.16-14a44,44,0,0,1,5.38-13.86,130.25,130.25,0,0,1,19.31-25.3c15.89-16.55,31.92-33,47.85-49.48,10.18-10.54,19.8-21.52,27.21-34.28,1.37-2.36,2.59-6.51,6.34-4.35,3.19,1.84,5,5.46,3,9.44a61.86,61.86,0,0,1-4.66,7.62c-10.39,14.74-22.93,27.61-35.51,40.43-13.73,14-28,27.46-40.5,42.67a128.81,128.81,0,0,0-13.53,19.67C1872.31,2081.57,1870.84,2084.51,1871.59,2089.21Z" style="fill:#060607"/><path d="M2005.47,2007.87c-.89,44.48-11.91,86.52-30.76,126.64-1.82,3.87-4.42,7.38-6.67,11.06-1.66,2.71-4,3.37-6.79,1.94-3.21-1.62-2.72-4.23-1.47-6.75,4.73-9.5,9-19.18,13-29a303.29,303.29,0,0,0,22.54-114.51c0-1.33,0-2.66,0-4,0-2.51.32-4.91,3.55-4.74,2.94.16,6.37.29,6.55,4.41C2005.63,1997.89,2005.47,2002.88,2005.47,2007.87Z" style="fill:#070708"/><path d="M2116.8,726.42c-5,.22-10,.49-14.94.65-2.71.09-5.53.12-5.87-3.65-.3-3.43,2-4.63,4.76-5.32,11.07-2.74,22.13-3.63,33.53-1.59,17,3,32.62,8.8,45.61,20.56a44,44,0,0,1,4.94,4.9c2.86,3.53.64,6.19-1.95,8.49s-4.15.18-5.74-1.57C2160.86,731.1,2140,725.58,2116.8,726.42Z" style="fill:#0f0e0f"/><path d="M1788.09,887.37c-.08,17.15,4.19,33.48,9.88,49.5,1,2.82,2.21,5.56,3.23,8.36.9,2.49.48,4.47-2.19,5.75s-5.21,1.11-6.9-1.6a31.54,31.54,0,0,1-2.5-5.4c-8.23-21.3-12.94-43.24-12-66.21,0-1,0-2,0-3-.11-3.47,1.08-5.91,5-5.95,4.42-.05,5.56,2.76,5.51,6.57C1788.05,879.39,1788.09,883.38,1788.09,887.37Z" style="fill:#0e0f10"/><path d="M1829.77,710.21c-.23,3.62.45,7.36-.92,10.86-.9,2.31-1.15,5.77-5,4.81-3-.77-5.42-2.68-5.49-6.22,0-1.3.56-2.59.64-3.9a137.92,137.92,0,0,0,.66-13.91c-.53-13.59-10.19-20.6-23.41-17.3-1.59.4-3.29,1-4.84.8-2.67-.39-5.4-1.69-6.25-4.31-1-3.17,1.9-4.62,4.09-6,8.64-5.33,23-3.1,30.14,4.91A39.36,39.36,0,0,1,1829.77,710.21Z" style="fill:#0f0f10"/><path d="M2115,809.28c.05-8,4.12-13.95,10.36-18.28,6.71-4.66,15.36-.45,16.18,7.69.74,7.35-1.83,13.74-6.88,19-4.62,4.85-8.82,5.94-13.24,3.89C2116.06,819.15,2114.68,814.67,2115,809.28Z" style="fill:#09090a"/><path d="M2084.91,634.59a1.78,1.78,0,0,0-1.42.37,15.33,15.33,0,0,1-2.31,1.71l-3.68,2.25a10.3,10.3,0,0,1-2.37,1.73,2.71,2.71,0,0,0-1.68.5c-.75.5-1.5,1-2.24,1.53-14.11,5.78-27.25,13.61-41.47,19.19a327.51,327.51,0,0,1-91.6,21.32c-17,1.5-33.73,1.64-50.41-1.9-8-1.7-8-1.82-8.08-10.44,9.68-1.3,19.12,1.4,28.71,1.64,36.47.9,71.94-4.47,106.25-17,12.71-4.65,25.54-9.09,36.93-16.69h0a9.47,9.47,0,0,0,6.6-3.59c4.67-5.37,10.38-8.93,17.51-10a10,10,0,0,0,6.46-4c.51-1.79,1.9-2.18,3.51-2.21a4.56,4.56,0,0,0,3.77-2.29l.07,0a2.32,2.32,0,0,0,2.18-1.54,4.49,4.49,0,0,1,3.83-2.53c4.82-3,9.83-5.66,13.77-9.85,2.37-5.45,6.71-8.44,12.31-9.85a7.67,7.67,0,0,0,4.13-3.53c3-.92,5.06-3.12,7.22-5.19,17.56-16.78,35-33.67,49-53.72,2.35-3.37,4.89-6.41,9.65-5.75l.13.11a6.49,6.49,0,0,0,1.87,1.82l.14.18a17.28,17.28,0,0,1,1.67,2.5c-.06,1-.13,1.94-.2,2.9-6.07,7.4-12.08,14.86-18.23,22.2-23.34,27.83-50.65,51.21-80.43,71.83-1.06.74-2,1.68-3,2.52h0a6.06,6.06,0,0,1-2.56,1.85,2.22,2.22,0,0,0-1.49.55,9.76,9.76,0,0,0-1.94,1.63h0A6.13,6.13,0,0,1,2084.91,634.59Z" style="fill:#020202"/><path d="M1817.64,629.09l-13.3-.7c-3.14-5.89-1.67-10,4.58-11.38,3.18-.72,6.59-.5,9.9-.59,26.2-.76,52.16-3.39,77.64-9.8A19.38,19.38,0,0,0,1900,605c8.5-5.11,17.81-7.41,27.63-7.92a24.33,24.33,0,0,0,12.08-4c6.25-5.54,14-7,21.9-8.25a4.31,4.31,0,0,0,4.07-1.79c1.48-1.95,3.2-3.34,5.87-2.43l2.2-1.16c10.53-7.07,21.64-12.94,33.85-16.59l2.16-1.31c5.71-5.68,11.89-10.6,20-12.27a8.64,8.64,0,0,0,5.92-3.9,1.32,1.32,0,0,1,1.74-.91c3.45-1.77,6.86-2.76,10.08.45.79,4.59-.57,7.9-4.78,10.53-3.78,2.37-8.12,4-11.17,7.51-2.31.84-4.57,1.79-6.19,3.78-1.46,2.25-3.67,3.61-5.9,4.95a19.46,19.46,0,0,1-3.42,1.62,2.58,2.58,0,0,1-2.37-.1c-19.06,10.06-38.41,19.51-58.68,27a520.21,520.21,0,0,1-90.94,24.67C1848.68,627.47,1833.29,629.54,1817.64,629.09Z" style="fill:#020202"/><path d="M1759.57,637c-.19,4.51-3.62,7-6.39,9.74-12,12-24.36,23.62-37.45,34.44-15.52,10.69-30.54,22.15-47.72,30.27-25.26,11.94-51.72,18.29-79.73,17.15-7.81-.32-16-.37-22.4-6.14,1.66-7.54,2.11-8.1,7.65-7.19,32,5.24,62.17-.82,90.88-14.88,22.54-11,43.11-25,60.45-43.39,6.62-7,13.5-13.79,20.44-20.49C1752,630,1752.79,630.13,1759.57,637Z" style="fill:#020202"/><path d="M1319.33,1094.3l-1.63,1.73a5.06,5.06,0,0,1-2,2.4l.09-.1a7.36,7.36,0,0,1-2,2.13l.07-.08c-.54.81-1.33,1.38-1.91,2.14-18.29,20.36-33.13,42.71-40.17,69.57-2.42,7.25-.54,15.69-6.07,22.08l.07.11c-1,1.24-.67,3.07-2,4.15l.1-.09a6.8,6.8,0,0,1-7.92-.06l.11.1a9.29,9.29,0,0,1-2.1-2.05h.09c1.73-17.78,7.69-34.27,15.11-50.34,15.27-33,39-59.41,66.12-82.91,22.64-19.6,47-37.1,69.38-57.07,19.83-17.7,35.75-38.42,49.22-61.21,15.09-25.5,24.34-53.1,30-82,.32-1.62.8-3.22,1.28-4.81.77-2.54,1.3-5.59,5-4.75,3,.67,5.82,2.08,5.83,5.8a36.85,36.85,0,0,1-.68,7.93c-11.38,51.93-34.9,97.34-72.12,135.62-20.74,21.33-43.92,39.7-67.22,58C1343,1070.89,1330.12,1081.5,1319.33,1094.3Z" style="fill:#020202"/><path d="M2075.65,625.19a64.37,64.37,0,0,1-17.52,10c-1.37-1-2.86-2.17-1.07-3.78,4.57-4.11,10.09-7,15.14-10.4C2076.34,618.18,2075,623.24,2075.65,625.19Z" style="fill:#6b6b6a"/><path d="M2121.55,592.88c-3.4,4.16-7.88,7-12.31,9.85-1.3-.18-3.33-.88-2.62-2,3-4.71,6.72-8.75,12.69-9.53C2120,591.12,2120.8,592.29,2121.55,592.88Z" style="fill:#6b6b6a"/><path d="M2013.69,573.19a1.85,1.85,0,0,1,1.47-.5,9.43,9.43,0,0,0,2.33-1.59c2.57-1.56,4.65-4,7.89-4.38C2023.85,573.09,2021,574.67,2013.69,573.19Z" style="fill:#6b6b6a"/><path d="M2034.74,642.58c-5.91,3.8-5.91,3.8-10.67,1.78C2027.23,642,2030.55,643.11,2034.74,642.58Z" style="fill:#6b6b6a"/><path d="M2095.47,612.58a5.16,5.16,0,0,1-3.83,2.53c0-.94-.07-1.88,0-2.82.09-1.31.57-2.72,2-2.6S2095.32,611.32,2095.47,612.58Z" style="fill:#6b6b6a"/><path d="M2085.62,619a4.54,4.54,0,0,1-3.51,2.2c-1.21-.92-2.94-2-1.1-3.52S2084.45,617.23,2085.62,619Z" style="fill:#6b6b6a"/><path d="M2051.54,638.78c-1.44-.27-3.16-.2-3-2.4a.88.88,0,0,1,.62-.62c2.2-.14,2.14,1.57,2.4,3Z" style="fill:#6b6b6a"/><path d="M2034.29,640.18c.25.16.74.39.72.48a4.28,4.28,0,0,1-.69,1.62c-.73.85-1.06.65-.71-.43C2033.79,641.28,2034.06,640.74,2034.29,640.18Z" style="fill:#6b6b6a"/><path d="M2089.39,616.68c-.85-.43-1.81-1.73-1.32-1.94,2.23-.94.92,1.22,1.39,1.91Z" style="fill:#6b6b6a"/><path d="M1640.16,790.47q-13-2.87-26.05-5.75a120.34,120.34,0,0,1-23.35-8.35c-3.38-1.54-5.53-3.55-5-7.53,4-5.26,8.68-3.35,13.32-1.32,11.31,4.94,23.12,7.79,35.32,9.64a144.31,144.31,0,0,0,67.64-5.7c6-2,11.79-4.21,17.68-6.33l3.35-.24a3.72,3.72,0,0,1,2.4,2.35c1.19,4.7-1.27,7.36-5,9.61-6.34,3.81-13.42,5.57-20.37,7.67C1680.53,790.42,1660.45,791.57,1640.16,790.47Z" style="fill:#030303"/><path d="M1927.6,597A87.09,87.09,0,0,1,1900,605h-12.69c-.11-.79-.23-1.59-.34-2.38l47.78-13.87C1934.42,594.41,1928.79,593.68,1927.6,597Z" style="fill:#6b6b6a"/><path d="M2007.57,562.84a149.52,149.52,0,0,1-33.85,16.58c.59-7.6,8.81-7.48,12.68-12,1.6-1.86,6.08-3.68,9.44-4.43,3.16-.71,5.7-1.4,8.34-3.59C2006,557.91,2007.26,560.76,2007.57,562.84Z" style="fill:#6b6b6a"/><path d="M1961.58,584.81a82.25,82.25,0,0,1-21.9,8.25c.22-1.6.11-3.36.77-4.75.49-1,2-2.3,3-2.27,5.31.14,9.11-3.31,13.62-5C1959.48,580.06,1961.41,582,1961.58,584.81Z" style="fill:#6b6b6a"/><path d="M2029.78,549.26a82,82,0,0,1-20,12.26c.62-4.86,4.44-8.1,7.13-11.45C2019.85,546.32,2025.26,546.75,2029.78,549.26Z" style="fill:#6b6b6a"/><path d="M1845.61,612.36H1817.2c6-3.88,10.83-2.39,15.07-3.32C1836.68,608.07,1841.94,606.94,1845.61,612.36Z" style="fill:#6b6b6a"/><path d="M1971.52,580.59a10.26,10.26,0,0,1-5.87,2.43,3.64,3.64,0,0,1,0-.93c.46-1.92-1.46-5,1.38-5.57C1969.17,576.05,1970.43,578.71,1971.52,580.59Z" style="fill:#6b6b6a"/><path d="M1796.41,623.33c.25-.56.37-1.42.78-1.58s1.07.4,1.62.64c-.24.56-.36,1.42-.76,1.58S1797,623.57,1796.41,623.33Z" style="fill:#6b6b6a"/><path d="M1863.15,609.59c-.55.24-1.23.8-1.6.63-.83-.36-.69-1,.23-1.21a14.21,14.21,0,0,1,1.84-.22C1863.46,609.06,1863.31,609.33,1863.15,609.59Z" style="fill:#6b6b6a"/><path d="M2037.44,544.45a3.64,3.64,0,0,1-1.74.9C2035.86,544.25,2036,543.16,2037.44,544.45Z" style="fill:#6b6b6a"/><polygon points="1863.62 608.79 1864.08 607.96 1864.46 608.34 1863.62 608.79" style="fill:#6b6b6a"/><path d="M2279.3,594.94c.5-.85,1.87-2,2-1.56.95,2.32-1.38.9-2,1.53Z" style="fill:#757473"/><path d="M2193.53,526.62l-1.87-1.82Z" style="fill:#6b6b6a"/><path d="M2195.34,529.3l-1.67-2.5Z" style="fill:#6b6b6a"/><path d="M2081.18,636.67l2.31-1.71Z" style="fill:#6b6b6a"/><path d="M2071.21,642.68l2.24-1.53Z" style="fill:#6b6b6a"/><path d="M2075.13,640.65l2.37-1.73Z" style="fill:#6b6b6a"/><path d="M2087.51,632.77a2.21,2.21,0,0,1,1.94-1.63Z" style="fill:#6b6b6a"/><path d="M2090.94,630.59l2.56-1.85A3.05,3.05,0,0,1,2090.94,630.59Z" style="fill:#6b6b6a"/><path d="M2084.91,634.59l2.61-1.82A3.07,3.07,0,0,1,2084.91,634.59Z" style="fill:#6b6b6a"/><path d="M1265.65,1194.17c-.17-8,2.66-15.1,6.07-22.08.9,8,.88,7.91,7.49,6.33,2.4-.57,4.89-2.77,7.28.1,2.14,2.55.74,5-.21,7.43-.84,2.16-1.61,4.35-2.4,6.52-1.5.7-3.43,1.67-3.26,3.25.46,4.34-.67,6.6-5.46,6.81s-7.49-1-7.76-6.14C1267.36,1195.63,1266.26,1194.91,1265.65,1194.17Z" style="fill:#6c6c6c"/><path d="M1255.94,1198.28l7.92.06C1261.2,1201.39,1258.56,1201.41,1255.94,1198.28Z" style="fill:#6c6c6c"/><path d="M1263.76,1198.43c.16-1.62.39-3.2,2-4.15C1265.86,1196,1265.53,1197.58,1263.76,1198.43Z" style="fill:#6c6c6c"/><path d="M1285.25,1193.62c.37.79.16,1.3-.64,1.4-.15,0-.45-.43-.52-.71a16.19,16.19,0,0,1-.21-1.84Z" style="fill:#6c6c6c"/><path d="M1315.67,1098.43l2-2.4A2.88,2.88,0,0,1,1315.67,1098.43Z" style="fill:#6c6c6c"/><path d="M1313.73,1100.46a2.68,2.68,0,0,1,2-2.13Z" style="fill:#6c6c6c"/><path d="M1311.89,1102.52l1.91-2.14Z" style="fill:#6c6c6c"/><path d="M1254,1196.33l2.1,2.05Z" style="fill:#6c6c6c"/><path d="M1725.51,767.24l-2.39-2.35A2.76,2.76,0,0,1,1725.51,767.24Z" style="fill:#696968"/><path d="M1271.08,928.63a1.54,1.54,0,0,1-2.09,1.19,2.88,2.88,0,0,1-2.31-2.68c0-1.22,1-1.36,1.93-1C1269.74,926.64,1271,927,1271.08,928.63Z" style="fill:#6c6c6c"/><path d="M2017.49,571.1l-2.33,1.59A2.68,2.68,0,0,1,2017.49,571.1Z" style="fill:#6a6969"/></svg>