<?xml version="1.0" encoding="utf-8"?>
<!-- Generator: Adobe Illustrator 24.2.0, SVG Export Plug-In . SVG Version: 6.00 Build 0)  -->
<svg version="1.1" id="Ebene_1" xmlns="http://www.w3.org/2000/svg" xmlns:xlink="http://www.w3.org/1999/xlink" x="0px" y="0px"
	 viewBox="0 0 1142.5 815.4" style="enable-background:new 0 0 1142.5 815.4;" xml:space="preserve">
<style type="text/css">
	.st0{fill:#010101;}
	.st1{fill:#040404;}
	.st2{fill:#FFFFFF;}
	.st3{fill:#060607;}
	.st4{fill:#050506;}
	.st5{fill:#020303;}
	.st6{fill:#030404;}
	.st7{fill:#050606;}
	.st8{fill:#FBFCFB;}
	.st9{fill:#040405;}
	.st10{fill:#090909;}
	.st11{fill:#FCFDFC;}
	.st12{fill:#FAFBFA;}
	.st13{fill:#FFFEFF;}
	.st14{fill:#FEFCFF;}
	.st15{fill:#050505;}
	.st16{fill:#0A0A0B;}
	.st17{fill:#08090A;}
	.st18{fill:#FCFCFC;}
	.st19{fill:#F8F9F8;}
	.st20{fill:#0D0E0E;}
	.st21{fill:#151616;}
	.st22{fill:#FDFCFF;}
	.st23{fill:#060606;}
	.st24{fill:#060707;}
	.st25{fill:#0F0F10;}
	.st26{fill:#FEFDFF;}
	.st27{fill:#FEFEFF;}
	.st28{fill:#131313;}
	.st29{fill:#070707;}
	.st30{fill:#0D0D0E;}
	.st31{fill:#F9FAF9;}
</style>
<path class="st0" d="M98.7,185.2c-2.3,40.8-18.7,76.7-39,111.1c-3.2,5.8-7.3,11.1-12.2,15.7c-5.8,5.6-13.7,8.5-21.8,8
	c-0.9-1-1.8-1.9-1.2-3.4c1.3-1.9,3.4-1.8,5.4-2.1c7.4-1.1,13.5-4.5,17.9-10.6c13.8-19,23.5-40.1,32.5-61.5c1.9-4.3,3.4-8.7,4.5-13.2
	C91.1,211,92.4,192,94,173c0.6-7.3,2.7-14.3,4.4-21.4c1.7-4.4,3-9,3.9-13.6c2.3-7.3,1.3-14.9,2.5-22.3c0.2-0.7-1,0-0.4-0.2
	c0.2,0,0.2,0.1,0.2,0.4c-0.9,6.1-4,11.4-6.1,17.1c-1.6,3.2-2.9,6.4-4,9.8c-2.5,7.4-4.5,15-6.8,22.4c-1,3.2-2.4,5.9-6.3,6
	c-2.7,0-3.5,2-4.4,4.1c-4.7,10.7-5.6,22.2-6.2,33.7c-0.6,2.7-1,5.5-2.5,7.9c-1.9,3-4.3,5.4-8.3,5.2s-6.7-2.5-8.2-6.1
	c-0.6-1.3-1-2.8-1.3-4.2c0-2.8-0.9-5.5-2.7-7.7c-2.8-3.3-3.8-7.6-5.2-12.1c-3,5.1-5.8,9.9-9,14.4c-10.3,15-21,29.7-32.9,43.5
	c-2.3,2.7-4.3,6.5-8.9,6V32.4C-5.4,28.5-1,27,2.9,25.2C17.3,18.4,26.1,6.3,34.2-6.6c1.2-1.7,1.9-3.6,3.5-4.9h47
	c4.7,4.1,9.4,8.1,14,12.3c8.8,8.1,16.8,16.9,22.4,27.7c7.6,14.6,7.4,29.2,0.4,43.9c-0.2,2.3-1.1,4.6-2.7,6.3
	c-6.4,6.8-7.4,15.3-7.8,24.1c-0.4,10,0.6,19.9-0.9,29.9c-1.3,7.4-3,14.7-5.2,21.8c-2.5,7.1-3.6,14.4-4.3,21.9
	C99.3,179.1,101,182.6,98.7,185.2z"/>
<path class="st1" d="M24.7,316.8c0.3,1.1,0.7,2.1,1,3.2c-2.6,0.8-5.3-0.1-7.9,0.1c-1.7,0.1-4.4-1.6-4.8,1.6
	c-0.4,2.6-1.5,5.1,1.6,7.5c12.3,9.5,23.2,20.6,32.4,33c1.2,1.5,2.9,2.7,4.7,3.4c16,6.8,31.7,14.4,47.1,22.5c1.7,1,3.7,1.2,5.6,0.7
	c32.7-7.3,65.6-13.6,98.8-18.7c22.3-3.4,44.8-5.9,67.1-9.6c12.3-2,24.6-2.3,36.9-4c3.5,0.5,6.6,1.8,8.4,5.1
	c-2.4,2.1-4.3,4.6-5.5,7.5c-14.5,31.7-29.5,63.3-44,95c-1.4,3.1-1.6,5.6,0.7,8.2c0.2,1.9-0.9,2.9-2.4,3.7c-3.9,0.1-6.1-1.7-6.4-5.6
	c0-1.8-0.1-3.7,0.9-5.4c3.3-10.7,8.6-20.5,13.3-30.6c9.5-20.5,19-41,28.6-61.5c1.9-4.1,1.6-4.8-2.9-5.5s-9.1-1.8-13.7-2.6
	c-5.2-0.9-6.1-0.4-7.1,4.9c-3.3,16.3-6.2,32.7-9.2,49c-2.8,15.2-4.8,30.6-8.7,45.6c-1,1.8-1.4,3.9-1.2,5.9c-0.3,2.2-0.1,4.5-1.3,6.6
	c-2,2,1.3,6.5-3.4,7.3c-1.3-0.3-2.4-1.3-2.7-2.6c-0.4-2.1-0.4-4.3,0-6.4c0.4-1.5,0.7-3,0.8-4.6c0.5-2.3,0.9-4.6,1.3-6.9
	c0.4-1.6,0.6-3.2,0.7-4.8c5.1-26,9.4-52,14.3-78c0.6-3.2-0.3-4.6-3.8-4.6c-6.3,0-12.6,1.4-18.9,1.2c-2.7-0.1-3.8,1.7-3.9,4.2
	c-0.2,3.2-0.1,6.3,0.1,9.5c1.2,15.1,2,30.2,2.8,45.2c0.2,3.2,1,6.3,1,9.4c-0.4,8.8,1.3,17.5,1.4,26.2c0.3,1.1,0.5,2.3,0.5,3.5
	c0,0.6,0.1,1.1,0,1.7c0,3.4,0,6.9,0,10.3c-0.5,5.9-1,6.3-4.9,3.6c-1.2-2.2-1.9-4.6-1.9-7.1c-1.4-24.7-3.2-49.4-4.8-74
	c-0.6-9.8-1.7-19.5-1.3-29.4c0.3-6.7,1.9-9.2,8.7-9.7c6.6-0.5,13.2-1.4,19.9-1.4c2.2,0,4.7,0.3,7.4-2.7
	c-53.5,6.9-105.7,14.8-158.5,26.5c11.5,6.7,22.1,12.6,32.3,19.2c18.3,11.7,35.8,24.3,47.4,43.4c7.6,12.4,13.4,25.6,18.6,39.2
	c10.7,28.1,20.3,56.7,29.8,85.2c4.2,12.8,9.2,25.3,13,38.5c1-1.9,1.8-3.9,2.4-6c2.6-9,7.6-15.8,16.5-19.4c3.6-1.5,4.7-4.4,4.4-8.1
	c-0.3-3.9-1.8-7.4-3-11c-2.3-7.2-4.4-14.3-3.9-22c0.3-5.2-0.1-9.9-5-13c-0.4-1.3,0-2.6,0.9-3.6c4.5,1,6.3-2.6,8.9-4.9
	c1.3-0.3,2.6,0.3,3.2,1.5c1.1,3-0.1,6-0.6,8.8c-1.5,9.4-0.9,19,1.8,28.2c1.5,5.4,3.8,10.7,4.4,16.3c0.2,1.8,1,2.8,3,2.3
	c19.1-5,34.4,3,49,14c4.4,3.3,4.3,3.3,6.4-2c4.9-12.4,11.6-23.9,17.8-35.7c5.2-10,10.8-19.8,15.3-30.3c2.2-5.1,3.8-10.3,1.5-15.9
	c-0.4-1.1-0.5-2.3-0.3-3.5c2.2-10.3-1-19.7-5-29c-2.4-5.5-4.5-11.1-7.3-16.4c-2-3.7-2.4-3.8-4.9-0.1c-5.8,8.5-11.5,17.1-17.5,26.2
	c2.4,0,5.1-0.3,5.3,2.7c0.2,2.7-2.2,3.5-4.1,4.4c-1.8,0.8-3.7,1.4-5.6,2c-2.8,1-6.8,1.2-4.2,6.1c0.4,1,0,2.1-1,2.6
	c-1,0.6-2.3,0.5-3.3-0.2c-2.8-1.8-4.3-4.6-5.9-7.3c-7-11.7-9.8-24.6-10.8-38c-0.5-7-1.7-13.9-4.8-20.3c-1.9-3.9-4.5-7-9.5-6.9
	c-4.3,0.7-5.7,4-6.7,7.6c-0.5,1.9-0.4,3.9-0.9,5.8c-0.6,5.3-0.1,10.7-0.3,16c-0.2,2.5,0.1,5-0.3,7.5c-0.2,1.1-0.4,2.5-1.8,2.5
	s-1.9-1.1-2.3-2.3c-0.5-1.6-0.3-3.3-0.9-4.9c-2.3-8.7-1.8-17.4,0.1-26.1c1.5-7.1,6.4-12.1,12.3-12.8c7.3-0.8,12.9,2.5,16.1,9.9
	c4.3,9.9,5.9,20.4,6.7,31c0.5,7,1.9,13.8,5.1,20.1c0.6,1.2,1,2.7,2.5,2.9c1.7,0.2,2-1.5,2.5-2.7c10.5-22.3,21.1-44.4,31.5-66.7
	c4.6-9.8,9.1-19.6,13.9-29.3c2.8-5.7,2.5-6.4-3.1-9.1c-14.7-7.1-29.4-13.9-44.3-20.7c-2.7-1.2-5.6-2.2-7.4-4.8
	c-0.7-1.9-2-3.9,0.4-5.6c7.5,2.8,14.6,6.4,21.8,9.7c11.9,5.5,23.8,11.1,35.6,16.6c6.7,3.1,8,6.5,4.6,13.1c-2,4.1-1.7,6.8,2.3,9.1
	c1.6,1,3,2.1,4.4,3.3c4.3,3.6,4.8,6.5,1.9,11.3c-2.3,3.7-4.7,7.2-7.1,10.8c-1.1,1.5-2.1,3-3.2,4.4c-0.8,0.9-1.6,2-2.2,3.1
	c-0.7,1.3,0.2,1.7,1.2,2.1c25.4,7,50.8,13.6,76.2,20.7c2.6,0.7,6.2,0.7,6.5,4.4s-3.1,4.7-5.8,5.9c-14,6.2-28.1,12.1-42.1,18.4
	c-3.1,1.4-6.5,1.6-9.7,0.5c-8.5-2.4-16.8-5.2-26.5-7.1c6.8,16.1,5.6,32.2,4.9,48.5c1,0.7,2.3-0.3,3.4-0.6
	c53.3-15.7,106.6-31.6,159.9-47.3c47.4-14,94.7-28.3,142.2-42.2c16.6-4.8,33.1-10.1,49.8-14.7c2.1-0.1,4.1-0.8,5.8-2
	c2-0.3,3.7-1.2,5.5-1.8c1.4-0.2,2.7-0.5,4-0.9c1.4-0.3,2.8-0.7,4.2-1.2c28.7-8.9,57.5-17.5,86.2-26.4c2.2-0.8,4.5-1.1,6.9-1.1
	c2.3,0.6,3.3,1.9,2.1,4.2c-1.8,2.5-4.7,3-7.4,3.8c-26.8,8.1-53.5,16.3-80.3,24.4c-39.5,11.8-79.1,23.5-118.7,35.3
	c-74.3,22.3-148.7,44-223,66.2c-12.8,3.8-25.5,7.8-38.3,11.2c-4.4,0.9-8.2,3.9-10.1,8c-2.4,4.9-5.2,9.7-7.6,14.6
	c-2.1,4.4-1.8,5.2,3,6.8c19.2,6.7,38.3,13.5,57.4,20.5c37.1,13.5,74.2,27,111.3,40.4c37.1,13.4,74.2,26.9,111.3,40.2
	c33.1,11.8,66,23.9,99.1,35.8c3.4,1.4,7.2,1.3,10.5-0.2c53.9-22.1,107.7-44.3,161.5-66.6c32.3-13.4,64.6-26.7,96.9-40
	c39.1-16.1,78.1-32.3,117.1-48.6c2.3-1,4.7-2.8,7.5-1.6c0.3,1.6,0.3,3.1,0.1,4.7c-1.8,2.7-4.9,3.4-7.6,4.5
	c-58.3,24.1-116.6,48.2-174.8,72.4c-65.8,27.2-131.7,54.4-197.5,81.6c-6,2.5-11.1,2.5-17.2,0.2c-39.2-14.5-78.5-28.7-117.8-42.8
	c-10-3.6-20-7.2-30.1-10.8c-24.7-9-49.4-17.9-74.1-26.8c-37.7-13.6-75.4-27.2-113.1-40.9c-14.6-5.2-29.2-10.4-43.7-15.7
	c-5.5-2-5.9-1.7-8.5,3.4c-4.4,8.8-9.4,17.3-12.4,26.7c-1,3.1-0.8,5.6,1.4,8.3c4.2,5.3,8.5,10.7,10.1,17.6c0.7,3.1,2.7,1.1,3.8,0.4
	c6.6-3.9,13.7-6.9,20.3-10.7c7.6-4.4,15.8-7.8,23.3-12.5c2.4-1.5,5.5-1.8,8.1-0.8c18,6.4,35.9,13.2,53.9,19.8c2.4,0.9,4.8,2,4.1,5.3
	c-0.4,1.6-1.7,2.4-3,3.2c-0.4,0.3-0.8,0.5-1.3,0.8c-19.4,10.3-38.8,20.8-58,31.6c-6.3,3.3-12.4,7-18.7,10.1
	c-1.7,0.8-3.4,1.8-4.9,2.9c-0.9,0.6-1.8,1.1-2.7,1.6c-3.1,1.9-6.3,1.6-9.5,0.2s-6.5-2.6-9.7-3.9c-5.9-2.3-6.3-2-6.4,4.5
	c0,6.8,0.2,13.6,0,20.4c-1.4,34.3-2.3,68.7-7.9,102.7c-2.9,18.9-8.7,37.3-17,54.5c-2.4,5-2,5.6,3.3,6.2c32.5,3.5,65.2,6,97.8,8.7
	c12.1,1,24.2,2.1,36.3,2.3c2.7-0.1,5.3,0.4,7.8,1.3c1,0.4,2.8,0.7,1.7,2.6c-29.5,0.3-59.1,0.4-88.6-2.2c-2.5-0.7-5.1-1-7.8-0.9
	c-1.4,0-2.8-0.1-4.3-0.4c-11.9-1.2-23.8-2.3-35.7-3.5c-4.1-0.4-8.3-0.8-12.4-1.3c-3.6-0.5-6.1,0.5-8,3.6c-1.1,1.8-2.4,3.6-4.6,4.4
	c-0.5,0.2-0.9,0.3-1.4,0.3c-1.6-0.2-3.7,0.8-4.6-0.6c-1.1-1.9,1-3.1,2-4.6c13.5-18.2,21.9-38.7,26.4-60.8
	c4.2-20.6,6.3-41.4,7.3-62.3c0.1-0.5,0.2-1.1,0.3-1.6c1-4.3,0.1-8.7,0.4-13c1.5-19.9,2.2-39.8,2-59.7c-0.2-14.1,1.6-28.2,1.1-42.3
	c-0.1-3.4-0.3-6.7-2-9.6c-11-18.4-26.1-31.6-47.7-35.3c-13-2.2-24.5,3.2-34.6,11.1c-3.6,2.8-3.8,8-5.9,12
	c-4.2,8.2-3.3,15.8-0.3,24.4c11.5,32,25.1,63,40,93.5c6,14.4,13,28.5,17.1,43.6c1.1,4.3,2,8.7,2.6,13.2c0.3,2.2,0.4,4.7-2.4,5.2
	s-3.4-2.1-4-4.1c-1.2-4.2-1.7-8.5-2.8-12.6c-4.2-16-11.3-30.9-18.3-45.8c-13.2-28-26.2-56-36.4-85.2c-1.6-4.7-3-9.4-4.1-14.2
	c0.2-0.8-0.1-1.6-0.8-2.1c-1.3-1.7-2.1-3.8-2.1-5.9c0.1-0.8-0.3-1.7-0.9-2.2c-1-1-1.5-2.4-1.1-3.8c-0.9-3.8-2.2-7.5-3.9-11
	c-2.4-4.7-4.2-9.7-5.1-14.9c-0.5-2.9-1.5-5.6-2.9-8.2c-1-1-1.5-2.4-1.2-3.8c0.2-0.8-0.1-1.7-0.8-2.2c-1-1-1.4-2.4-1.2-3.8
	c0.2-0.8-0.1-1.7-0.8-2.2c-1-1-1.4-2.4-1.2-3.8c0.2-0.8-0.1-1.6-0.8-2.1c-2.7-4.6-3.9-9.8-5.1-14.9c-10.4-31.2-19.8-62.9-36.1-91.8
	c-4.6-8.3-10.1-16-17.5-22.1c-6-6.7-13.6-11.6-21-16.6C114,399.5,75.8,379.5,36,363.6c-0.8-0.3-1.6-0.5-2.3-0.6
	c-1.4,1-2.9,0.6-4.3,0c-11.3-5.3-23.4-8.4-35.1-12.5c-0.9-0.3-1.8-0.8-2.6-1.5v-5c1.9-0.9,3.6,0.2,5.3,0.6
	c13.8,3.8,27.1,8.9,41.1,14.2C26.8,347.3,16.3,336,3.3,327.5c-4-2.6-8.4-4.8-11.6-8.5v-5c4.5-0.5,7.2,2.9,10.6,4.8
	c5,2.9,5.2,2.9,6.2-2.6c1.9-10.7,4.2-21.2,7-31.6c0.7-2.6,1.1-6.6,4.8-5.8c3.9,0.9,2.2,4.6,1.6,7.2c-1.6,7.3-3.4,14.6-4.8,21.9
	c-1.1,5.8-1.1,5.8,4.6,7.4C22.7,315.5,23.8,316,24.7,316.8z"/>
<path class="st2" d="M-8.3,883V735.3c1.8-0.9,3.6-0.5,5.4,0c20.2,5,34.2,17.1,41.5,36.7c4.2,11.2,4.8,23.1,6.3,34.8
	c3,22.7,6,45.5,8.7,68.2c0.3,2.8,1.2,5.6-1.2,8c-1.1,0.5-2.2,0.7-3.4,0.6H-5.9C-6.7,883.7-7.6,883.5-8.3,883z"/>
<path class="st2" d="M-8.3,348.9c12.5,2.6,24.4,7.2,36.2,11.8c1.9,0.7,4.1,0.8,5.7,2.2c0.7,1.7-3,5.8,2.6,4.8
	c-1.2,3.2,2.5,4.2,3,6.6c0,0.5-0.2,0.9-0.5,1.2c-1,0.4-2.1,0-2.5-1c-1.5-2.9-3.2-3.2-5.1-0.4c-0.9,1.4-2.2,1.3-2.8,0.2
	c-2.2-4.6-3.7-1.2-4.5,0.6c-0.5,1.2-2.5,2-1.3,4.3c3-3.7,5.2-1,7.2,1c1.6,1.5,3.3,3.5-0.7,4.4c-2.3,0.5-0.7,1.9-0.2,2.3
	c2.3,2.2,1.8,3.4-0.6,5.4c-3.1,2.5-2.7,6.9,0,9.9c0.8,0.9,1.3,2,2.8,1.4c0.4-0.2,0.9-0.6,1-1c0.2-1.2-0.6-2.3-1.8-2.6
	c-0.9-0.2-1.7-0.8-2-1.7c1.4-1.1,3.2-2.1,3.7-4.3c0.2-1.1,1.6-1,2.5-0.5c0.6,0.4,1,1.2,0.4,1.7c-4.8,4.2,0.7,6.4,1.9,9.3
	c0.5,1.3,3.2,2.3,0.2,3.5c-1.8,0.8-2.3,6.7-5.7,1.2c-1.5-2.6-3.7-4.7-6.3-6.1c-0.9-0.4-1.6-1.4-2.5-0.5s-0.4,1.9,0.2,2.7
	c1.3,1.6,2.6,3.2,3.9,4.7c-1.2,1.1-1.7,0.3-2.4-0.2c-0.9-0.6-1.6-2.1-2.8-0.6c-0.9,1.2-0.5,2.2,0.9,2.7c1.1,0.4,1.8,1.1,1.1,2.2
	s-1.7,0.4-2.7,0.2c-1.5-0.2-2.4-2.9-4.3-1.3c-1.6,1.5,0.8,2.9,0.6,4.5c-0.5,0-1,0-1.5,0c-2-0.3-2.8-4.7-4.9-2.4
	c-1.8,1.9,2.2,2.6,2.8,4.5c0.5,1.4,3.2,2.5,1.2,4c-1.6,1.2-2-1.3-2.8-2.3c-2.2-2.8-3.8-1.7-4.9,1.1c-0.3,0.9-0.3,2.1-1.6,2.1
	c-0.7,0-1.3-0.5-1.4-1.2c-0.3-1.4-0.3-3.7-2.3-2.9c-1.8,0.7,0.3,2.6,0.2,4c0,0.3,0,0.6-0.1,1.6c-2.3-2.1-4.4-3.5-6.7-0.2
	c-1.3,1.8-2.1-0.6-3.1-1v-2c1.4-1.7,3.5-2.5,5.5-4.4c-4.6-1.4-4-5.6-5.6-8.6L-8.3,348.9L-8.3,348.9z"/>
<path class="st2" d="M-8.3,883h54.7c2.2,0,4.3,0.2,6.3-1c2-0.7,4.1-0.2,6.1-0.5c20.5-0.1,40.9-0.1,61.4,0c3.1,1.2,4.7-2.2,7.3-2.5
	c1.9,1.4,3.8,2.6,6.3,2.5c15-0.2,30.1,0.4,45.1-0.3c2.6-0.1,5.2,0.8,7.9,0.2c9.1,0.2,18.2,0,27.3,0.2c24.8,0.2,49.5-0.1,74.3-0.2
	c4.3,0,8.6,0,12.9,0.2c1.2-0.1,2.3-0.1,3.5,0c2.3,0.5,4.6-0.3,6.2-2c0.9-1,2.3-3,3.6-0.3l-3.3,3.7h6.2c2.2-1.4,4.7-1.5,7.2-1.5
	c9.4,0,18.9-0.2,28.3,0c10.8,0.2,21.4-0.8,32.1-1.9c1.6-0.3,3.3-0.2,4.9,0.3c10.3,0,20.5,1.2,30.7,2.1c19.5,1.8,39.1,0.6,58.6,0.9
	c1.5-2,3.8-1.9,5.9-1.9c57.9,0.8,115.8,0,173.7,0.4c13.8,0.1,27.6,0.2,41.4-0.1c63.8-0.1,127.6-0.1,191.4,0
	c16.5,0.6,32.9-0.1,49.4,0c26.6,0.1,53.2,0,79.8,0c7.8,0,15.6,0.1,23.4-0.2c15.7,0.9,31.5,0.8,47.2-0.1c13.4-0.8,26.7-2.3,40.1-3.5
	c2.1-0.2,4.3-0.5,6.4-0.9c2.3-0.5,3.5-1.7,3.1-4.2c-0.2-1.7-0.2-3.3-0.2-5c0-63.6,0-127.1,0-190.7c0-2.8-0.1-5.7,0.2-8.5
	c-0.2-1.5,0-3.1-0.1-4.7c-0.1-9.2,0-18.5,0.1-27.8c-0.1-1.5-0.1-2.9,0-4.4c0-2.1-0.1-4.1,0-6.2c0-1.8-0.1-3.6,0-5.4
	c-0.3-12.2-0.1-24.5-0.1-36.7c0.3-1.5-0.1-3.1,0-4.6c-0.2-6.5,0.1-13,0.1-19.5c-0.1-1.7,0.4-3.3,1.4-4.7l-0.1-4.6
	c-1.8-2.1-1.3-4.6-1.4-7c-0.1-4.9,0.3-9.8-0.9-14.6c0.8-3.3,1.1-6.6,1-10c-0.1-4-0.2-7.9,0-11.9c0.3-5.5-3.8-3.9-6.7-4.2
	c-2.7-0.3-5.7,0.8-7.9-1.9c1.6-2.5,4.1-2.1,6.3-2.2c8.1-0.3,8.1-0.3,8.1-8.5c0-32.2,0-64.4,0-96.7c-0.1-1.8,0-3.7,0.1-5.5
	c-0.1-1.6-0.1-3.1,0-4.7c-0.2-7.1-0.2-14.2,0-21.3c0.1-1.9-0.2-3.8,1.3-5.3c0-1.8,0.1-3.7,0.1-5.5c0-118.5,0-236.9,0-355.4
	c0-2.3,0.3-4.7-1-6.8c0.6,0.4,2.1-1,2,1c-0.1,1.2,0,2.3,0,3.5c0,295.5,0,591,0.1,886.6c0,3.7-0.8,4.6-4.6,4.6
	c-380.8-0.2-761.7-0.3-1142.6-0.3C-5.3,884-7.2,885.1-8.3,883z"/>
<path class="st3" d="M57.4,882.9c-1.6-0.1-3.4,0.7-4.7-0.9c-2.1-17.9-4.2-35.9-6.4-53.8c-2-15.5-3.8-31-6.5-46.3
	c-4.3-24.3-21.1-40.9-45.2-45.8c-1-0.2-1.9-0.5-2.8-0.9v-4c14,1.8,26.9,8.3,36.8,18.3c1.7,0,2.2,1.5,3.2,2.4c1,0.9,1.8,1.8,2.6,2.8
	c9.3,12.5,11.9,27.1,13.8,42c3.2,26,6.5,52,9.8,78C58.2,877.5,59.5,880.4,57.4,882.9z"/>
<path class="st2" d="M-8.3,319c10.6,5.3,19.8,12.6,28.7,20.3c7.4,6.4,14.2,13.6,20.1,21.4C24.4,354.3,8,349.4-8.3,343.9
	C-8.3,343.9-8.3,319-8.3,319z"/>
<path class="st2" d="M-8.3,409.8c1.2,1.3,2.5,2.5,2.5,4.5c0.1,0.8,0.5,1.5,1.1,2c4.2,2.6,4.3,2.6-0.1,5.1c-1.2,0.6-2.4,1-3.6,1.4
	v-13H-8.3z"/>
<path class="st4" d="M748.8,425.8c-1.6,0.6-3,2.2-5,1c-1,1.8-2.9,1.5-4.5,1.9c-5.6-0.1-10.7-2.5-15.9-4.2
	c-17.2-5.4-34.4-10.6-51.4-16.3c-7-2.4-7.6-3.1-7.6-10.3c0-12.7,0-25.3,0-37.9c0-2-0.1-4,0.8-5.9c1.9-1.6,2.8-4,2.3-6.5
	c-0.3-1.9-0.2-3.9,0.3-5.8c0.4-1.6,1-3.4,3.3-1.6c0.9,2.8-0.9,6,1,8.6c10.6,3.9,21.5,6.6,32.3,9.9c10.3,3.1,20.6,6.2,30.9,9.4
	c3.3,1.1,6.9,1,10.1-0.4c7.5-3.1,15.1-6,22.5-9.2c6.7-2.2,13-5.1,19.5-7.6c14.7-5.8,29.3-11.7,44-17.5c1.4-0.5,2.7-1.1,4-1.9
	c1.6-1,2.3-3.1,1.6-4.8c-1-2.4-2.9-0.7-4.2-0.1c-17.1,7.4-34.3,14.5-51.5,21.6c-5.2,2.4-10.7,4-15.7,6.8c-6.3,2.5-12.8,4.8-19,7.5
	c-3.8,1.7-8.2,1.8-12.1,0.4c-16.8-5.4-33.5-10.8-50.4-15.9c-1.4-0.5-2.9-0.9-3.6-2.4c0.9-1.8,2.5-2.9,4-4.2c5,0.4,9.7,2.3,14.4,3.8
	c12.5,3.9,25,7.9,37.6,11.8c2.7,1,5.6,0.9,8.2-0.1c27.6-11.5,55.3-22.9,82.8-34.7c0.4-0.2,1-0.1,1-0.9c-20.2-6-40.6-11.4-60.9-16.9
	c-2.4-0.6-5-0.3-7.3,0.8c-6.6,2.7-13.3,5.3-19.9,8c-1.8,0.7-3.7,1.6-5.7,1.5c-1.8-0.5-2.1-2.3-3-3.6c10.1-4.1,20.2-8.2,30.2-12.4
	c1.2-0.5,2.6-0.7,3.9-0.3l75.8,20.7c1.3,2-0.1,4.5,1,6.5c-0.6,3.4-0.6,7,0,10.4c4.5,1.1,9.1,0.2,13.7,0.5c1.8,0.1,3.6-0.4,5.3,0.4
	l8.3,0.9c-2.1,2.2-4.9,1.4-7.4,1.5c-3.7,0.2-7.5,0.1-11.2-0.1c-3.3-0.3,1.1,1.6-0.5,1.8c-6.7,2.8-6.7,2.8-6.7,10.8
	c0,10.1,0,20.3,0,30.4c0,5.1-2.1,8.6-6.9,10.4c-27.2,10.4-53.8,21.9-81.1,31.8c-1.1,0.4-2.3,0.8-3.5,1.1
	C751.4,425.1,750,425,748.8,425.8z"/>
<path class="st5" d="M683.9,341.1c1.9,4-1.5,2.5-3,2.9c-4.1,1.4-7.3,0.2-9.9-3.1c-1.8-1.3-1.9,0.1-2,1.3c-0.1,2.7-0.4,5.4,0.1,8
	c0.5,2.9-0.9,3.5-3.1,3.8c-2.3-2.5-1.5-5.7-1.6-8.6c0-3.4-1.4-4.9-4.8-4.8c-9,0.2-17.9-0.2-26.9,0.6c-12.9,1.1-25.9,0.5-38.9,1.2
	c-23.4,1.2-46.8,2-70.2,3c-21.1,0.9-42.1,2.1-63.2,3.4c-19.7,1.2-39.4,2.8-59.1,4.5c-24.8,2.1-49.7,4.2-74.5,7.1
	c-2.2,0.3-4.4-0.2-6.3-1.2c-2.6,1.6,0.3,3.5-0.3,5.2c-2.4,0.7-3.9-0.2-4.9-2.3l-8.2-5.1h0.1c2-0.9,4.2,0.3,6.1-0.8
	c15.1-2.5,30.4-3.5,45.6-5c35.9-3.7,71.9-6.4,107.9-8.6c27.9-1.7,55.8-3.1,83.7-4.3c36.6-1.6,73.2-2.8,109.8-3.3
	c6.6-0.2,13.1-1.6,19.2-4.2c17.3-7.1,34.8-13.7,52.3-20.5c2.1,0.1,2.9,1.1,2,3.1c-0.5,2.6-3,2.8-4.9,3.6
	c-17.4,6.9-34.6,14.1-52.2,20.6C679.4,338.4,682.6,337.8,683.9,341.1z"/>
<path class="st6" d="M850.7,339.9c-1.4-1.9-4-0.1-6.6-3.1H870c23.4,0,46.8,1.3,70.2,2.6c28,1.5,56,3.5,84,5.5
	c31.5,2.3,62.9,5.1,94.3,8.7c7.9,0.9,15.8,1.7,23.8,2.6l0.1,4.5c-1.7,1.8-3.7,1.1-5.6,0.9c-17.5-1.9-34.9-4.1-52.5-5.6
	c-13.7-1.2-27.4-2.8-41.1-3.5c-1.4-0.2-2.9-0.1-4.3-0.5c-2.9-1.1-6-0.5-9-0.7c-1.1,0-2.2-0.2-3.3-0.4c-3.2-1.1-6.5-0.4-9.7-0.6
	c-1.1,0-2.2-0.2-3.3-0.4c-3.2-1-6.5-0.5-9.8-0.5c-1.4,0-2.8-0.2-4.2-0.4c-3.5-1.1-7.2-0.4-10.8-0.5c-1.4,0-2.8-0.2-4.2-0.4
	c-3.6-1.1-7.3-0.5-10.9-0.5c-1.7,0-3.5-0.2-5.2-0.5c-4-1.2-8.1-0.4-12.2-0.6c-7.4-1.8-15.1-0.5-22.6-1.3c-5.1-1.4-10.3-0.4-15.4-0.6
	c-17.9-1.3-35.8-1.6-53.7-2C860,342.3,855.1,342.5,850.7,339.9z"/>
<path class="st2" d="M861.7,335.9c-6.3-0.2-12.8,1-19-1C849,335.5,855.5,333.8,861.7,335.9z"/>
<path class="st2" d="M842.7,324.5c-0.3-2.2-0.7-4.4-1-6.5C843.7,319.9,842.4,322.3,842.7,324.5z"/>
<path class="st1" d="M313.3,356c-1.9,1.7-4.1,0.7-6.1,0.8C309.1,355.8,311.2,355.9,313.3,356z"/>
<path class="st2" d="M57.4,882.9c-3.6-28.3-7.3-56.7-10.7-85.1c-1.8-15.5-4.7-30.5-14.1-43.5c0.5-1.7-0.9-1.8-2-2.2
	c-1.3-0.4-1.5-1.7-2.1-2.7c0.6-0.8,1.8-1.9,1.7-2.3c-2.9-5.4,3.2-3.3,4.3-5.3c2.4,1.7,5.5,2.4,8.4,1.8c0.3,0,0.9,1.8,1.7,3.5
	c2.5-6.3,10.4-6.1,12.2-12.7c0.6-2.2,2-0.5,3,0.2c2.9,2,6.8,1.2,8.8-1.7c0.7-1,1.1-2.2,1.1-3.4c0.2-3.7-0.7-7.3-2.6-10.4
	c-0.9-1.5-1.4-2.5,0-3.9c1.8-1.7,2.8-0.1,3.7,0.8c1.6,1.7,4.9,1.5,5.2,4.8c0.1,1,0.7,1,2.6-1.8c2.2,1.4,2.9,3.8,3.7,6
	c-3.5,4.6-2.6,8.2,2,11.8c2.3,1.8,2.6,5.3,4.2,7.1c-1.2-1.9-2.3-3.8-3.1-5.9c-0.6-1.8-0.7-3.3,2-3c2.6,2,3.8,5,5.2,7.8
	c10.4,21,21.9,41.4,34.4,61.2c3.7,5.8,3.3,12.1,2.7,18.3c-1.6,18.3-4.6,36.5-5.8,54.9c0,2-0.7,4-2,5.5L57.4,882.9z"/>
<path class="st3" d="M81.6,725.7c-1.4-1.9-2.4-4.1-3.1-6.3c-0.2-2.3-1.7-4.1-2.5-6.2c-0.6-1.5-1.7-3.3,0.4-4.2s2.5,1.2,3.3,2.5
	c0.3,0.4,0.6,0.7,0.9,1.1c3.1,3.8,4.5,8.3,6.1,12.8c-0.1,0.8,0.3,1.6,1,2c1.4,1.8,2.9,3.6,3,6c-0.1,0.8,0.3,1.5,1,1.9
	c10.3,21.6,22.1,42.3,34.4,62.7c9.9,16.5,20,32.9,31.3,48.5c1.8,0.5,2.5,2.1,3.4,3.4c7.2,9.9,14.2,20.1,23.2,28.6
	c1.2,1.2,3.1,2.2,2.3,4.5c-2.3,0-4.7,0.6-6.8-0.9c-3.8-1.4-6-4.6-8.4-7.5c-4.8-5.7-9.2-11.7-13.4-17.8c-1.6-2.6-4.3-4.2-7.3-4.5
	c-4.9-0.6-9.8-1.8-14.6-2.8c-3.3-0.7-4.9,0.3-5.3,3.8c-1,7.4-1.5,14.8-2.5,22.2c-0.2,1.3-0.2,2.7-1.3,3.7c-0.1,3.1-1.4,4.8-4.8,3.9
	c2-19.3,3.9-38.6,6.2-57.9c1.1-9.2,0.1-17.1-5.3-25.3c-12.6-18.9-22.9-39.2-33.3-59.3c-0.9-1.8-2-3.4-2.9-5.2
	C83,733,82.5,729.3,81.6,725.7z"/>
<path class="st7" d="M75.7,610.7c1-1.6,0.9-3.5,0.8-5.3c-0.4-0.6-0.6-1.2,0.2-1.7c1-1.3,0.9-2.8,0.8-4.3c-0.4-0.6-0.6-1.2,0.2-1.7
	c3.8-16.4,6.9-33,11.9-49.1c8.5-27.5,18.7-54.1,35.7-77.7c5.1-7,10.7-13.5,17-19.5c0.9-0.9,1.9-2.2,3.4-1.3s1.1,2.2,0.8,3.5
	c-14.8,12.9-25.3,28.9-33.6,46.4c-17.8,37.1-28,76.4-33.3,117.1c-1.6,12-2.6,24.1-3,36.2c-0.1,2.5-0.2,5.2-3.9,3
	c0-3.7-0.1-7.3-0.1-11c-0.6-1.6-0.9-3.2,0.2-4.7c1-3.4,0.8-6.8,0.8-10.3c-0.5-0.9-0.8-1.9,0.2-2.7c1-2,0.8-4.2,0.7-6.3
	c-0.4-1-0.7-1.9,0.2-2.8c1-2,0.9-4.1,0.8-6.2C75.1,611.8,75,611.2,75.7,610.7z"/>
<path class="st2" d="M224.4,553.6c2.2,4.8,3.9,9.7,5.1,14.9l-0.4,0.3C225.5,564.4,224.2,559.2,224.4,553.6z"/>
<path class="st2" d="M86.6,725.3c-2.6-4-4.6-8.3-6.1-12.8l0.5-1.3C83.8,715.6,86.6,719.9,86.6,725.3z"/>
<path class="st2" d="M238.4,594.5c2.2,4.8,3.9,9.8,5.1,14.9C239.4,605.3,238.1,600.2,238.4,594.5z"/>
<path class="st2" d="M90.6,733.3c-1.4-1.8-2.4-3.8-3-6C90.2,728.5,92.4,729.9,90.6,733.3z"/>
<path class="st2" d="M249.4,626.5c1.3,1.7,2,3.8,2.1,5.9C249.4,630.9,247.4,629.4,249.4,626.5z"/>
<path class="st2" d="M162.4,447.7c2.8,0.1,4.3,0.8,3.8,3.7C164,450.8,163.6,449,162.4,447.7z"/>
<path class="st2" d="M247.4,620.5c0.9,1.1,1.3,2.4,1.1,3.8c-0.3,0.5-1.3,0.8-1.3,0.7C247.9,623.5,244.1,621.8,247.4,620.5z"/>
<path class="st2" d="M226.3,585c-0.6,0.5-1.1,1-1.6,1.1c-0.9,0.2-1.1-0.6-0.8-1.2c0.4-0.5,0.9-0.8,1.4-1
	C225.6,583.9,225.9,584.5,226.3,585z"/>
<path class="st2" d="M234.3,582.5c0.8,1.1,1.3,2.4,1.2,3.8C233.1,585.7,233,584.3,234.3,582.5z"/>
<path class="st2" d="M232.3,576.5c0.8,1.1,1.3,2.4,1.2,3.8C231.2,579.7,231,578.4,232.3,576.5z"/>
<path class="st2" d="M230.3,570.6c0.8,1.1,1.2,2.4,1.2,3.8C229.2,573.7,229,572.4,230.3,570.6z"/>
<path class="st2" d="M72.8,640.7l-0.2,4.7c-1.9-3.9-0.7-7.9-0.2-11.9L72.8,640.7z"/>
<path class="st2" d="M69.5,626c-0.9-0.4-1.5-1.3-1.5-2.3c-0.1-1,0.8-1.2,1.7-1.2s1.7,0.3,1.5,1.4C71,624.8,70.8,625.8,69.5,626z"/>
<path class="st2" d="M60.9,646.3c0-0.9,0.2-1.5,1-1.6c1.3-0.2,1.6,0.7,1.8,1.8c0.2,0.9-0.1,1.1-1,1S61.1,647.1,60.9,646.3z"/>
<path class="st2" d="M73.8,627.8l-0.2,2.7c-1.6-2.2-0.8-4.6-0.2-7L73.8,627.8z"/>
<path class="st2" d="M74.7,618.7l-0.2,2.8c-1.7-2.2-0.5-4.6-0.1-7L74.7,618.7z"/>
<path class="st2" d="M75.7,610.7l-0.2,1.8c-1.4-1.6-1.1-3.3-0.2-6C75.5,608.5,75.6,609.6,75.7,610.7z"/>
<path class="st2" d="M-2.2,598.1c0.1-0.6,0.3-1.2,0.9-0.8c0.4,0.3,0.6,0.6,0.7,1.1c0.1,0.3-0.1,0.6-0.4,0.7c-0.2,0-0.3,0-0.4-0.1
	C-1.9,598.9-2,598.4-2.2,598.1z"/>
<path class="st2" d="M77.7,597.8l-0.2,1.7c-1.3-1.1-0.8-2.5-0.2-4L77.7,597.8z"/>
<path class="st2" d="M76.7,603.8l-0.2,1.7c-1.2-1.1-1-2.5-0.4-4.7C76.4,602.3,76.6,603,76.7,603.8z"/>
<path class="st8" d="M85.6,230.2c0-0.2,0-0.3-0.1-0.5c-0.2-0.4-0.6-1.1-0.8-0.3c-2.3,5.8-4.3,11.7-6.7,17.4c-1,2.3-1.2,5.1-4.2,7.8
	l1.3-7.5c-1.1-0.9-1.9,1.5-2.9,0.4c-0.8-0.8,0.1-1.5,0.6-2.1c1.1-1.6,2.1-3.1-0.3-4.5c-0.4-0.3-0.8-1.4-0.7-1.6
	c2.8-3.3,3.5-6.3,0.3-10c-0.7-0.9,2.1-1.4,3-1c2.2,0.8,4.6,0.7,6.7-0.5c1.9-0.9,1.8-2.2,0.7-4.1c-2.3-4.2-8.8-5.3-8.4-11.5
	c-2.1,0.1-3.9-1.2-4.6-3.1c0.1-12.5,1.9-24.7,6.9-36.3c0.8-1.8,1.3-3.9,4.1-3.1c3.4,1,4.7-1,5.6-3.9c2.4-7.9,4.2-16,7.4-23.6
	c0.5-0.1,1,0.1,1.3,0.5c1.3,3.1,1.9,6.6,4.8,8.9c-6.1,20.2-4.5,41.6-9.2,62C89.3,219.2,88.1,224.9,85.6,230.2z"/>
<path class="st2" d="M66.6,143.3c4.1-1.2,7.7-3.8,10.2-7.2c1.5-2,3.8-3.2,6.6-1.9s3.4,4,3,6.7c-0.9,6.1-3.1,11.9-6.4,17.1
	c-9.3,14.9-14.3,32-14.5,49.5c-0.1,2-0.5,4-1.2,5.8c-0.6,1.9-1.7,3.9-4.1,3.7s-3.3-1.9-3.9-4c-1.2-4.2-0.7-8.6-1.1-12.9
	c-0.1-1.1-0.1-2.6-1.7-2.6s-1.1,1.8-1.5,2.8c-8.5-9.9-7.4-34.9,3.7-47.1c3.1,0.1,6,0.4,7.4,3.8c0.3,4.9-3.2,8.7-3.6,13.4
	c2.6-7.6,7.4-14.3,9.1-22.3C68.1,146.5,65,145.9,66.6,143.3z"/>
<path class="st2" d="M35.7,217.1l-3.2,0.6l-0.8-1l10.4-8.9l-1-1c-3.4,1.9-5.5,5.6-9.9,6.5l9.4-10c-3.1,0.2-4.4,4.7-8.1,2.6L43,189.2
	c2.2,6.4,3.4,12.9,8.4,17.5c0.8,0.7,0.2,2.8,0.2,4.3c-1.9,2.2-4.1,4.3-5.5,6.8s-4,0.3-5.2,2.3c-1.2-1.5,1.2-2.2,0.1-3.5
	c-1.8-0.2-2,1.8-3.3,2.5C34.2,221,35.7,218.4,35.7,217.1c2.1-1.3,3.6-3.3,5.4-4.9C39.3,213.8,37.7,215.8,35.7,217.1z"/>
<path class="st2" d="M99.8,151.6c-4.6-1.5-4.9-5.7-6-9.4c0.7-3.3,2-6.4,3.8-9.2c4.3-1.5,5.4-0.6,6,5.2
	C102.9,142.9,101.6,147.4,99.8,151.6z"/>
<path class="st2" d="M103.5,138.2c-1.4-2.4-1.8-6-6-5.2l7.3-19.2C105.8,122.2,106.1,130.3,103.5,138.2z"/>
<path class="st2" d="M103.7,154.2c4.7,6.7,3.3,12.8-1.7,18.6c-2.4,2.8-0.8,6.3-2.2,9.4l-0.4-6.3C99.6,168.5,101,161.1,103.7,154.2z"
	/>
<path class="st2" d="M62.7,157.5c-1.2-3.1-5.2-1.7-6.9-4.2c3.1-3.9,6.1-7.8,10.8-10c-0.3,2.9,3,2.4,3.9,4.1
	c-2.1,1.5-3.1,3.7-4.2,5.9C65.5,155,65.2,157.2,62.7,157.5z"/>
<path class="st2" d="M320.6,359c19.4-1.8,38.7-3.8,58.1-5.4c27.8-2.3,55.7-4.6,83.5-6.6c46.1-3.2,92.3-4.9,138.5-6.6
	c20.5-0.7,40.9-1,61.4-1.6c2.9-0.1,3.7,0.9,3.6,3.6c-0.1,3.8,0.1,7.6,0.2,11.4c-0.1,15.9-0.1,31.9-0.3,47.8c-0.2,1.9,1,3.6,2.9,3.9
	c23.7,7.4,47.4,14.8,71.1,22.3c0.9,1.2-0.3,1.3-0.9,1.7l-82.9,24.6l-273.1,81c-0.9,0.3-1.9,0.8-2.4,0.5c1.7-18,3.2-35.7-5.9-53.4
	c7.7,2.1,14.8,3.3,21.2,5.9c9.3,3.8,17.5,3,26.4-1.6c11-5.7,22.7-10,34.1-15.1c2-0.9,5.2-1.1,4.8-4.1c-0.3-2.7-3.2-2.4-5.2-3
	c-25.6-6.9-51.2-13.8-76.8-20.7c-0.6-0.3-1.2-0.6-1.7-1c-0.6-1-0.6-2.1-0.1-3.1c-0.1-1.5,0.8-2.3,1.9-2.9c2-1.2,4,0.6,6.1,0
	c11.8,2.9,23.3,6.7,35,10.1c17.3,5,34.5,10.1,51.7,15.3c3.2,1,6.6,0.8,9.7-0.6c13.4-5.6,26.6-11.4,40-17c1.5-0.6,3.7-1,3.6-2.9
	s-2.4-1.9-4-2.4c-27-7.3-53.8-15.2-80.7-22.7c-4.5-1.4-9.3-1.2-13.6,0.6c-12.6,5.2-25.4,10-38.1,14.9c-1.8,0.7-3.6,1.7-5.8,1.2
	l-0.6-0.5c1.5-4.6,4.9-8.2,7.4-12.2c2.3-3.6,1.9-6.5-1.7-8.9c-0.5-0.4-1-0.8-1.6-1.2c-2.6-2-6.3-3.5-7.6-6.1
	c-1.5-2.9,2.1-5.9,3.1-8.9c1.5-4.6-0.2-7.1-4.4-9c-17.6-8-35.1-16.3-52.6-24.5C323.3,361.2,321.3,361,320.6,359z"/>
<path class="st2" d="M1140.4,527.7c1.5,1.1,2.2,2.9,2,4.7c-0.2,5.8-0.1,11.6-0.2,17.4c-70.9,29.3-141.9,58.7-212.8,88
	c-56.8,23.5-113.7,46.9-170.5,70.4c-3,1.3-6.4,1.3-9.3,0C641.1,668.9,532.5,629.7,424,590.5c-18.6-6.7-37.2-13.3-55.7-19.9
	c-5.6-2-5.6-2-2.8-7.5c3-5.7,6.3-11.3,8.9-17.3c1.5-3.4,3.8-5,7.2-6c58.9-17.3,117.7-34.7,176.5-52.2
	c96.6-28.7,193.4-57.1,289.7-86.7c1.4-0.4,2.7-1.1,4.1-1.6c2-2.6,4.7-3.1,7.5-2.3c7.7,2.1,15.3,4.5,23,6.9c1.4,0.4,3.2,0.8,3.3,2.6
	c0.1,1.5-1.4,2.2-2.6,2.8c-3.5,1.7-6.1,4.6-8.7,7.4c-2.5,2.6-5.2,3.6-8.5,1.9c-9-4.6-17.6-3.1-27-0.3
	c-58.3,17.6-116.7,34.8-175.1,52.3c-56,16.8-111.9,33.6-167.8,50.4c-30.3,9.1-60.5,18.5-90.9,27.2c-2,0.6-5.3,0.5-5.4,2.7
	c-0.1,2.7,3.3,2.8,5.3,3.6c18.3,6.6,36.7,13,55,19.5c43,15.3,85.9,30.6,128.9,45.9c27.1,9.6,54.2,19.3,81.4,28.9
	c25.6,9,51.2,18,76.7,27.3c5.7,2.3,12,2.3,17.7-0.2c67.1-26.8,134.3-53.5,201.5-79.9c54-21.3,107.9-43.1,161.8-64.7
	C1131.8,529.5,1135.5,526.2,1140.4,527.7z"/>
<path class="st9" d="M1140.4,527.7c-30.2,12-60.3,24.1-90.5,36.2c-96.6,38.4-193.3,76.7-289.9,115c-2.6,1.1-5.4,1.1-8,0
	c-90-32-180-64-270-95.9c-26.3-9.3-52.6-18.5-78.8-27.8c-2.5-0.9-6.6-1-6.5-4.4c0.1-3.2,4-2.8,6.4-3.5
	c130.7-39.2,261.5-78.4,392.2-117.5c15.1-4.5,30.4-8.4,45.2-13.7c8.4-3.2,17.7-2.9,25.8,1c2.7,1.2,4.5,1,6.5-1.2
	c3.5-3.9,6.8-8.1,12.3-9.9c-8.5-2.5-17.1-4.9-25.6-7.7c-3-1-5.1,1.1-7.7,0.9c0.6-1.5,0-2.5-1.2-3.4c0.7-2,2.5-2.2,4.2-2.4
	c2-0.1,4,0,6,0.2c11.9,3.6,23.9,7,36.1,9.8c7.2,1.6,14.5,1.6,21.8,2.4c20.8,2.1,41.7,3.8,62.7,4.5c4.7,0.2,9.3,0.6,12-4.8
	c1-2,3.7-2,5.8-2.4c8.9-1.3,17.9-1.6,26.8-2.4c5.1-0.4,9-1.6,11.2-6.5c3.4-2.8,7.7-2.5,11.7-3.4c0.5-0.2,1-0.3,1.6-0.3
	c2.6-0.3,5.2,0.1,7.7-0.7c1-0.2,2-0.4,3.1-0.4c2,0.1,4-0.1,6-0.6c1-0.2,2-0.4,3-0.4c2,0.1,4-0.1,6-0.6c1-0.2,2-0.4,3.1-0.4
	c2.1,0.1,4.2-0.1,6.2-0.7c1.1-0.2,2.2-0.4,3.4-0.5c15.1-1.3,30.1-3,45.2-4.6c2.8-0.3,5.6-1,8.1,1.1c0,1.2-0.1,2.4-0.1,3.6
	c-1.3,1.9-3.5,1.8-5.4,2c-21.6,2.8-43.3,4.5-65,6.8c-8.6,0.9-17.2,1.8-25.8,2.9c-3.9,0.5-4.7,2.2-3.5,5.7c7.1,20.3,9.2,41.5,10,62.8
	c0.3,9-0.6,18.2-1.6,27.3c-0.8,6.9-0.6,6.9,6.3,7.1c20.4,0.7,40.9-1,61.3-1.1c5.8,0,11.4,2.3,17.3,0.7c0.8,0.2,1.6,0.3,2.3,0.3
	c3.5-0.6,4.8,0.7,3.9,4.2c-0.3,0.5-0.7,1-1.2,1.3c-3.2,1-6.5,0.3-9.8,0.7c-5.1,0-10.3,0-15.4,0c-1.5,0-2.9-0.2-4.4-0.4
	c-0.4-0.1-0.7-0.1-1.1,0c9.7,2.6,19.1,6.2,28.6,9.2c1.4,0.4,2.7,1.4,3.4,2.7C1141.7,521.7,1144.2,525.4,1140.4,527.7z"/>
<path class="st2" d="M264.3,538.8c5.5,1.9,6.5,5.8,6,11.3c-0.8,8.9,1.6,17.5,4.6,25.8c0.6,1.7,1.3,3.4,1.8,5.2
	c2.1,7,0.6,10.8-5.8,14c-6.7,3.3-11.6,8.1-13.7,15.5c-1.1,3.8-2.8,7.4-4.6,12.1c-4-11.5-7.7-22.1-11.4-32.8
	c-11.2-32.4-22.3-64.9-33.9-97.2c-12.6-35.4-34.4-62.5-67.3-80.7c-10.7-5.9-21-12.4-31.6-18.8c12.9-5.3,136.7-26.4,163-27.8
	c1.1,4-1.1,5.1-4.6,5.3c-8.6,0.5-17.3,1.3-25.9,1.9c-4.6,0.3-6.4,3-6.2,7.3c2.3,36,4.5,72,6.9,108.1c0.1,1,0.3,2,0.6,2.9
	c1.4,4.2,3.8,8,4.8,12.4c0.7,2.9,2.5,5.5,4.9,7.3c2.1,1.7,3.4,3.7,2,6.4c-3.3,7-1,12.4,4.7,17C260.8,535.3,263.1,536.4,264.3,538.8z
	"/>
<path class="st2" d="M296.4,438.9c5.6-0.5,8.8,2.6,10.9,7.2c4.3,9.2,5,19.2,6,29.1c1.2,12.5,5.7,23.8,12.7,34.1
	c0.7,1,1.4,1.8,2.3,2.6c0.6,0.8,1.7,0.9,2.4,0.3c0.1-0.1,0.1-0.1,0.2-0.2c0.7-0.6,0.9-1.6,0.3-2.3c-0.1-0.1-0.2-0.2-0.3-0.3
	c-4.8-4.1-1.2-4.6,2.2-5.6c3.5-1,6.9-2.4,10.3-3.8c1.3-0.5,3-1.5,1.9-3.4c-0.9-1.6-2.3-0.5-3.5-0.2s-2.3,1.6-3.9,0.6l23.3-34.8
	c6.9,13.1,13.1,26,16.3,40.1c0.6,2.9,0.5,6-0.1,8.9c-0.6,2.7-0.5,5.6,0.3,8.2c1.8,5.8-0.5,11.1-2.8,16.3
	c-6.8,15.1-15.3,29.4-22.8,44.2c-4.5,8.8-9.1,17.6-12,27.6c-17-14.4-34.8-25.3-58.6-17.3c1.2-8.9-3.1-16.6-5.1-24.7
	c-2.8-11.1-1.6-22.1,0.4-33.1c-0.5-5.7,2.1-10.7,3.9-15.8c4-10.7,7-21.4,6.7-33c-0.1-4.9,1.5-9.8,0.4-14.8
	c0.6-5.5-0.9-11.1,0.7-16.5c2-1,4.8,0.4,6.5-1.8s4.3-3.4,5.1-6C300.8,441.8,296,441.8,296.4,438.9z"/>
<path class="st2" d="M349.2,740.3c-2-4.4-0.3-9.2-1-13.7c-0.2-1.2,1.3-3.4-1.3-3.3c-1.5,0-2.7,1.2-2.6,2.7c0,0.3,0.1,0.6,0.2,0.9
	c1,3.1-3.3,5.7-0.8,8.8c0.1,0.1-0.4,0.9-0.8,1.1c-0.5,0.2-1.1,0.1-1.3-0.4c-0.1-0.1-0.1-0.3-0.1-0.4c-0.3-2.8-0.9-5.6-0.6-8.3
	c0.4-3.4-2-6.8-5.1-5.7c-2.1,0.8-2.6-0.3-4-1c-2.6-1.3-5.5-5.1-8.8-0.5c-1.5,2-2.6-0.2-3.3-1.3c-3-4.7-6.9-1.3-10.3-0.9
	c-1.3,0.2-1,2.1-0.2,3.4c0.9,1.5,1.6,3.3,2.5,4.8c2.2,4.2,1.8,4.9-3.2,5c3.7,4,7,8.4,9.8,13c2.1,3.3,4.4,6.6,6.8,9.6
	c1.6,2-1.2,3.4-1.6,5.2c-2.2-0.5-2.4-2.6-3.1-4.2c-4.3-8.8-9.4-17-16.6-24.4c-0.3,2.8,3.1,3.9,1.6,6.4c-2.4,1.6-2-1.1-2.7-1.9
	c-1.3-1.5-2.2-1.5-3.3,0.1c-16.9-33.4-31.4-68-43.5-103.4c-0.4-1.2-1.1-2.8-0.7-3.8c2.7-7.6,5.6-15.2,8.6-22.8
	c0.6-1,1.4-1.9,2.4-2.5c16.5-11.5,33.7-15.1,52.3-5.1c10.3,5.6,19.3,13.2,26.4,22.4c5.1,6.2,7.7,14,7.2,22
	c-1.1,29.2-1.5,58.5-2.2,87.8C350,733.3,349.5,736.8,349.2,740.3z"/>
<path class="st2" d="M1070.5,389.7l-2.6,0.2c-2,0.9-4.3-0.2-6.4,0.8l-2.6,0.2c-2.7,1.1-5.7-0.4-8.4,0.9l-0.3,0.3l-0.4-0.2
	c-3.8,0.9-8.2-1.3-11.3,2.7c-1.8,6.9-6.9,7.5-12.9,7.8c-9.1,0.4-18.2,1.6-27.3,2.3c-2.8,0.2-5.1,1.1-5.2,4.2s-2,2.8-4,2.8
	c-19.7,0.1-39.2-1.5-58.8-3.2c-8.6-0.8-17.2-1.5-25.8-2.4c-10.2-1.1-20-4.1-29.8-6.9c-4.7-1.3-9.3-2.9-13.9-4.3
	c-2-0.7-4.2-0.7-6.2,0c-1.4-0.3-2.9,0.1-3.9,1.1l-93.8,28c-1,0.5-2.1,0.9-2.1-0.9c27.5-11,54.9-22.1,82.5-32.9
	c3.6-1.4,5.1-3.1,5-7.1c-0.3-13.3,0-26.5-0.2-39.8c0-2.4,0.6-3.3,3-3.1c1.8,0.1,3.6,0,5.5-0.1l65,2.8c1,0,2,0.2,3,0.3
	c-0.2,2.6-2.3,2-3.8,2.1c-3.7,0.3-7.3,0.2-11-0.2c1.8,0.2,3.5,0.9,4.9,1.9c1,0.7,2.1,2.4,1.3,2.8c-2.5,1.5-4.3,3.9-5.2,6.7
	c-3.3-1.4-2.3,3.6-4.1,3.4c1.3,0,2.6-1.7,4.3-2.6c1.5-0.8,3.2-1.8,4.5-0.2c1.5,1.9,0.1,3.4-1.5,4.5c-0.7,0.5-1.3,1-1.6,1.3
	c3.8-2.7,8.5-2.1,12.9-1c3.8,1,7.1,2.2,11,0.3c3-1.4,6.2,0.2,9.3,0.4c6.1,0.4,12.2,1,17.9,3.7c0.7,0.5,1.6,0.5,2.4,0.1
	c4-2.8,7.3-0.6,11.1,1s7.7,4.3,12.2,1.6c1.3-0.8,3-0.3,4.4,0.1c6.8,1.9,13.8,1.6,20.8,1.6c3.5,0,6.5,1,8.8,3.8
	c0.4,0.5-0.2,0.1,0.3,0.4c6.6,3.4,14,9.8,20.6,5.8c6.8-4.1,11.7-1.2,17.5-0.6c0.6,0.2,1.2,0.2,1.8,0.1c5-1.9,10-2.9,15.2-0.5
	c0.9,0.4,1.9-1.1,3.1-1.2c2.2-0.2,5.2-2.2,5.5,2.2c0,0.4,0,0.8,0.3,0.7c7.7-3.2,5,3.8,6.5,6.6l-2.5,0.2c-2.1,0.9-4.4-0.2-6.5,0.8
	l-2.5,0.2C1074.9,389.8,1072.6,388.8,1070.5,389.7z"/>
<path class="st2" d="M315.3,361.9c1.4,1.2,3.1,2,4.9,2.3c17.7,8.3,35.3,16.7,53,24.8c4.4,2,5.4,3.6,3.2,8.4
	c-15.9,33.1-31.4,66.5-47.1,99.7c-0.6,1.3-0.8,3.1-2.7,3.1c-1.7-0.1-2.4-1.5-3.2-2.9c-5.4-9.6-5.9-20.3-7-30.8
	c-0.7-7.4-2.4-14.7-5.3-21.7c-3.3-7.8-8.4-11.1-15.2-10.2c-6,0.8-10.3,5.9-11.5,13.8c-1.3,7.7-1.3,15.6,0,23.3
	c0.8,1.5,0.4,3.2,0.4,4.9c0.1,5.1-0.8,5.9-5.2,3.7s-9.6-3.7-13.3-7.4c-3.9-1.7-4-4-2.2-7.7c15.5-33.1,30.9-66.3,46.2-99.6
	C311.4,363.3,312.3,361.2,315.3,361.9z"/>
<path class="st2" d="M598,658.4c-3.3,1.6-7.2,1.1-10-1.3c-2.4-1.8-4.7-1.6-7.4-1.7c3.3,2.8,3.6,8.8,9.8,8.3c1.9-0.2,1.1,2.2,0.2,2.3
	c-4.4,0.6-3.2,4.1-3.8,6.7c-2.2,1.4-4.2,0.3-6.1-0.5c-6.3-2.4-12.9-4.2-19.1-6.8c-5.2-2.2-10-3-15.1-0.3c-2-0.5-5.2-0.2-2.7-3.8
	c0.2-0.3,0.1-0.4-2.1-2.1c-7.3-4-15.4-6.1-23.2-9.1c-10.2-4-20.6-7.5-30.8-11.4c-4.7-1.8-8.9-2-13.2,1c-2,1.5-4.4,2.5-6.9,2.7
	c-2.2-0.7-5.4,2.2-6.4-0.1c-1.2-2.9,3.4-2.7,4.6-4.7c0.3-0.4,0.6-0.7,1-1.1l0,0c1.3-0.2,2.7-0.3,3-2.1c0.7-2.4-0.4-3.6-2.6-4.5
	c-18.5-6.8-37-13.6-55.5-20.5c-2.6-1-4.5,0.1-6.5,1.2l-48.9,25.8c-0.1-9.6-6.1-15.8-11.2-22.3c-1.7-1.8-2.2-4.4-1.2-6.7
	c3.7-11.5,9.7-21.8,15.1-32.4c1.5-3,3.2-2,5.2-1.3c21.2,7.7,42.4,15.3,63.6,23l167.9,60.7C596.6,657.6,597.3,658,598,658.4z"/>
<path class="st2" d="M463.5,633c-13.5,7.3-26,14.1-38.5,20.9c-14.4,7.9-28.9,15.6-43.1,23.7c-2.5,1.7-5.6,1.9-8.3,0.5
	c-4.9-2.1-9.8-4-14.8-5.8c-2.4-0.9-3.3-2.1-3.1-4.8c0.4-7.6,0.6-15.3,0.6-22.9c0-2.5,0.7-3.8,3-5c15.9-8.2,31.7-16.6,47.6-25
	c1.8-1,3.4-1.5,5.6-0.7C429.1,620.3,445.9,626.5,463.5,633z"/>
<path class="st2" d="M453.3,468.1c-14.8,6.5-28.7,12.5-42.6,18.7c-1.7,0.8-3.2,0.3-4.8-0.1c-9.7-2.7-19.5-5.5-29.2-8.2
	c-2.9-0.8-5.1-2-6-5.2c-0.4-1.8-1.1-3.5-2.3-4.9c-7.5-8-2.1-14.2,2.7-20.5c0.6-1.2,2-1.7,3.3-1.1
	C400.3,453.7,426.4,460.8,453.3,468.1z"/>
<path class="st2" d="M243.5,445.8c-2.2-21.8-2.9-43.8-4.4-65.6c-0.2-2.4,0.6-3.8,3.2-4c9.1-0.5,18.2-1.1,27.9-1.7
	c-2.3,12.8-4.5,25-6.8,37.3c-3,16-5.2,32.1-9,47.9c-1.8,0.3-2.6-0.8-2.3-2.3c0.8-3.4-0.4-6.8-0.2-8.9c0.3,2.4,0.4,4.7,0.4,7.1
	c-0.1,3.2-1.8,3.7-4.6,2s-4.2-3.7-3.7-7C244.1,449.1,244.3,447.3,243.5,445.8z"/>
<path class="st2" d="M258.3,464.6c2.8-16.2,5.6-32.3,8.5-48.5c2.8-15.5,5.8-31,8.6-46.5c1.4-7.6,1.4-7.6,8.9-6
	c5.4,1.1,10.7,2.4,16.1,3c4,0.5,4,1.7,2.5,4.9c-11.8,25-23.4,50.1-35,75.2c-2.9,6.3-5.8,12.6-8.8,18.9
	C258.4,465.8,257.8,465.7,258.3,464.6z"/>
<path class="st10" d="M266.4,472.8l18,8.1v-9.2c2.2,1.9-0.4,5.3,3,7.8v-10.3c2,13.1,1.8,26.1-2.5,38.8c-2.8,8.3-5.7,16.5-8.6,24.8
	c-0.9-1.3-2.3-1.1-3.5-1.3c-0.7-1.1-0.8-2.6-0.2-3.8c1.9-4.4-0.4-6-4.2-6.9c-2.2-0.6-4.4-1.4-6.5-2.3c-3.2-1.2-4.6,0.4-5.2,3.3
	c-0.6,3.4,1.4,5.5,3.4,7.8c1.8,1.9,4.7,2.7,5.3,5.6c-0.4,1.2-0.8,2.4-1.2,3.6c-4.3-1.8-8-4.8-10.7-8.6c-3.1-4.3-3.6-9-0.7-13.5
	c1.6-2.5,1-3.5-1-5c-3.7-2.5-6.2-6.6-6.6-11.1c-0.4-3.3-4.2-5.9-2.9-10c5.7,3.3,1.7-2.5,3.1-3.3c0.5-0.1,1.1,0.1,1.4,0.6
	c2.1,6.5,2.3,6.9,9,6.1c8.2-0.9,16.5-0.5,25.7-2.5c-8.2-1.8-15.4-2.8-22.5-4.3c-2.3-0.5-5.2-0.3-5.9-3.6c3.7-1.5-0.7-5.3,2.1-7.1
	c1.8,2.4,4.5,4,7.5,4.2c5.1,0.6,10.2,1.5,15.2,2.8c0.3,0.1,0.5,0.2,0.8,0.3c0.6,0.2-0.3,0,0.4,0.2c0.3,0.1,0.3-0.1-0.1-0.1
	c-4-1.3-8-2.9-11.7-4.9c-1.3-0.7-3.2-1.1-3.1-3.3L266.4,472.8z"/>
<path class="st2" d="M356.2,450.6c6.2-13.3,12.4-26.7,18.6-40.1c0.3-0.7,1.1-1.9,1.3-1.8c3.9,1.5,7,4.4,10,7.1
	c1.8,1.7-0.6,3.3-1.5,4.6c-8.5,12.4-17.1,24.8-25.6,37.1C357.1,456.1,356.8,455.4,356.2,450.6z"/>
<path class="st2" d="M253.2,483.8c6.4,3.5,13.7,3,20.5,4.8c2.5,0.7,5.2,0.8,7.8,1.3c1.2,0.2,2.9,0,2.8,2s-1.7,1.6-2.9,1.7
	c-9.3,0.6-18.5,1.4-27.8,1.9c-7.4,0.4-7.4,0.3-7.4-7.3c-1-3.8,0.4-7.7-0.8-11.4v-1c1.7-3.5,0.7-7.1,0.5-10.6c0.1-0.7-1,0-0.4-0.1
	c0,0,0,0,0,0.2c0.3,2.6,1.9,5.3-0.3,7.8c-1.1-9-1.7-18.1-1.8-27.2c0.9,0.8,1.3,2.1,0.9,3.2c-1.9,4.8,2.7,6.2,4.8,8.6
	c1.4,1.6,2.1-0.5,2.1-1.8c0.1-3.7,0-7.4,0.3-11.2c1.3,3.8,1.7,7.9,1.3,11.9c-0.1,1.6,0.1,2.5,1.4,3.2c0.3,1.4,0,2.9-0.9,4.1
	c-1,2.2-2.4,4.3-1.2,6.9c0.1,1.4,0.2,2.8-0.8,4.1c-0.3,0.2-0.6,0.3-0.9,0.3c-0.9-0.1-1.7,0-1.9,1c0,0.2,1.3-1,1.8-0.1
	c1,1.8-0.2,3.9,0.8,5.7L253.2,483.8z"/>
<path class="st11" d="M389.8,880c-24,4.8-48.3,2.7-72.5,3.1c0.6-0.6,1.1-1.3,1.5-2c2.9-7.2,8-8.2,15.3-7.1c13.9,2,28,2.9,42,4.3
	c0.8,0.1,1.6,0.4,2.4,0.6c-0.5,0.6-1.3,0.9-2,0.5c1.9,0.4,3.8,0.3,5.7-0.3C384.8,879.1,387.3,878.8,389.8,880z"/>
<path class="st2" d="M467.2,636.4c0,3.5-4,3.1-5.4,5.2c1.9,1.5,3.9-2.8,5.6,0.2c-0.2,2-1.8,2.7-3.2,3.4
	c-16.3,8.8-32.4,17.9-48.7,26.7c-0.8,0.5-1.8,0.8-2.8,0.8c-2-0.9-3.5-2.4-4.4-4.4C427.6,657.2,447.1,646.4,467.2,636.4z"/>
<path class="st2" d="M265.6,535.2c-3-2.3-6.4-4.1-8.7-7.3c-1.8-2.3-2.2-5.3-1.1-8c1.2-2.9,2.9-4.7,6.3-2.7c1.2,0.6,2.4,1.1,3.7,1.5
	c3.1,1.1,7.4,1.4,9,3.5c1.7,2.4-1.7,6-1.9,9.3c-0.2,0.4-0.4,0.8-0.5,1.3C271.3,538.9,270.9,539,265.6,535.2z"/>
<path class="st2" d="M408.2,668.4c1.8,0.6,3.3,2,4,3.8c-0.3,2-2,2.5-3.3,3.3c-6.5,4-13.5,7.4-20.7,9.9c-2.5,0.3-3.6-1.7-5-3.2l2-1.1
	c1.8,0.2,3.4-0.8,4.2-2.4C395.5,674.9,401.8,671.4,408.2,668.4z"/>
<path class="st2" d="M264.4,475.8c5.3,3.3,11.1,5.6,16.8,8.1c0.1,1.9-1.1,1-2,1c-6.9-1.1-13.9-2.4-20.8-3.2c-3.5-0.5-3-2.7-3-5
	c0.6-2,1.2-4,1.8-6.1c0.4-0.4,0.7-0.4,1,0.1C259.2,473.4,261.6,475.3,264.4,475.8z"/>
<path class="st12" d="M296.4,438.9c6.4,4.8,6.1,4.5,0.8,11c-2.7,3.3-5,5.1-9,2.8C288.5,444.2,290.6,440.7,296.4,438.9z"/>
<path class="st2" d="M356.2,450.6c2.9,1.6,0.8,5.1,2.8,7.1L341.6,484l-1.3-0.7C345.6,472.4,350.9,461.5,356.2,450.6z"/>
<path class="st2" d="M251.3,481.7c-1.7-1.3-0.2-3.5-1.4-5c-1.1,0.9,0.1,2.7-1.7,3.6c-1.2-1.6-1.2-3.7-0.1-5.4
	c0.9-1.7,2.3-0.6,3.5-0.1C251.5,477.1,251.4,479.4,251.3,481.7z"/>
<path class="st2" d="M245.3,473v-9.2c1.2,4,4,8,0.2,11.9L245.3,473z"/>
<path class="st13" d="M300.2,362.4c2.4-1.2,4.6-2.2,7-1c0.1,0.5,0,0.9-0.2,1.3C304.6,364.9,302.5,361.8,300.2,362.4z"/>
<path class="st2" d="M252.3,470.7c-0.6,0-1.4,1.2-1.7-0.5c-0.3-2.5,1.2-4.5,2-6.6c0-0.1,0.3-0.1,0.5,0s0.2,0.2,0.4,0.3
	C253.6,466.2,253.2,468.5,252.3,470.7z"/>
<path class="st2" d="M384.3,437.7c-2.1,1.6-3.4-1.4-5.3-1c0.6-1.6,1.7-2.9,3.2-3.9l-0.1-0.1C383.5,434.2,384.6,435.7,384.3,437.7z"
	/>
<path class="st2" d="M389.3,678.7c0.2,3.6-1.4,4-4.2,2.4L389.3,678.7z"/>
<path class="st2" d="M245.5,476.7c1.8,3.7,0.7,7.6,0.8,11.4l-0.7-0.7C245.5,483.9,245.5,480.3,245.5,476.7z"/>
<path class="st14" d="M738.7,429.7c0.3-0.6,0.6-1.2,0.9-1.7l4.2-1.2C743.2,429.6,740.8,429.3,738.7,429.7z"/>
<path class="st13" d="M258.2,470.7l-1-0.1c0.1-2.1-0.1-4.2,1.2-6l0.9,1.1C258.9,467.4,258.6,469,258.2,470.7z"/>
<path class="st2" d="M470.1,634.4c1.3,4-0.8,3-3,2.1L470.1,634.4z"/>
<path class="st13" d="M754.9,422.9l2.1,0.9c-1,1-2.3,1-3.7,1.1c-0.9,0.3-1.5,0.1-1.4-1L754.9,422.9z"/>
<path class="st2" d="M377.2,439.6c0.7,0.9,0.7,2.2,0.1,3.1C375,442.1,375,441.8,377.2,439.6z"/>
<path class="st13" d="M751.9,424l1.4,1c-1.3,1.2-2.9,1-4.5,0.8C749.2,424.2,750.9,424.6,751.9,424z"/>
<path class="st2" d="M860.5,835c4.8,1.8,9.5,3.5,14.3,5.4c0.7,0.3,1,1.5,2,0.9c1.4-0.9,0.4-1.3-0.5-2s-0.2-1.8,0.9-2.1
	c4.8-1.3,9.8-1.3,14.7-1.6c1.4-0.1,1.9,1.1,2.6,2c0.5,0.7,1.5,1.6,1.9,0.8c3.3-5.8,10.6-0.8,14.8-5.5c1.5-1.7,6.8,0.8,10.4,0.3
	c0.6-0.1,1.7,0.7,1.8,0.5c4.4-5,7.2,0,10.5,1.7c2.6,1.3,4.8,2.7,4.2,6.5c1.7-2.3,3.6-4,3.5-7.7c1.3,1.9,1.9,3.4,3,4.1
	c1.3,0.9,3.4,2.1,4.2-0.6c1.3-4.2,5.5-5.6,9-2.5c1.8,1.6,3,2.5,3.7-0.4c0.7-2.7,2.9-3,4.6-2.7c2.2,0.4,0.5,3.1,1.8,4.7
	s-1.1,2.1-2.5,2.6c-1,0.4-2,0.9-2.9,1.5c6.9,3.4,13.4,2.5,19.8,2c2-0.2,1-2.8,1.3-4.3c0.2-1.4,0.3-2.9,2.1-2.8s1.8,1.7,1.9,3
	c0.1,2.2-0.6,4.3-2,6c-1.1,1.4-1.5,3.5,0.2,3.8c3.8,0.7,6.8,4.4,11.1,3.1c1.1-0.5,2.3,0,2.8,1c0,0,0,0.1,0.1,0.1
	c0.4,0.8,0.8,1.6,0.2,2.3c-1.4,1.6-1.8-0.5-2.6-0.8c-1.9-0.6-3,0.4-2.5,2.3c0.6,1.7,0.7,3.6,0.3,5.3c-0.9,3.4-3.1,4.6-5.8,2.4
	c-3.5-2.8-7.8-2.9-11.6-3.5s-5.6,4.1-7.9,7c-0.5,0.7-0.5,1.8-0.8,3.2c-4.4-5.5-10-0.3-14.7-2.5c-0.7-0.3-1.5,1.1-1.7,2.2
	c-0.3,1.1,0.4,2.2,1.5,2.4c0.1,0,0.2,0,0.3,0c2.7,0.5,4.6,2.3,7.3,4.1c-4.5,2.3-8.9,1.6-12.9,1.8c-8,0.4-16.2-1.2-23.8,0.4
	c-9.6,2-19,1.2-28.5,1.7c-1.8-0.1-3.6,0.6-4.9,2H699.9c-2.6-3.4-6.7-2.6-10-2.8c-6.8-0.4-13.7,0.6-20.5,0.4
	c-5.5-0.3-11-0.9-16.5-1.9c-1.5-0.3-3-1.4-1.6-3.6c1.5-2.5,0.1-4-2.3-3.9c-2.7,0.1-4.5-1.1-4.6-3.3c-0.3-4.5-3.5-7.9-4-12.4
	c-0.3-2.8-3-6.2,0.7-7.2s8.1-3.2,11.8-0.9c6,3.6,10.8-0.1,16-1.6c1.1-0.3,2-2,3.5-1c4.2,2.8,9.4,1.1,13.8,3c1.5,0.7,3.6-0.2,4.5-1.4
	c2.6-3.2,7-4.5,8.7-8.6c0.6-1.6,1.8-1.5,3.1-0.2c2.5,2.6,4.3,1.3,5.5-1.4c1.5,1.1,1.9,2.7,2.2,4.3c0.8,4.2,3.5,5,7.3,4.7
	c18.5-1.1,37-2.6,55.5-3.7c9.6-0.6,19.2-1.5,28.8-1.9c3.9-0.2,4.9-2.1,4-5.5c-0.7-2.7-1.6-5.4-2.1-8.2c-0.4-1.9-1.2-3.9,0.3-5.7
	c2.5,1.2,2.4,3.8,3,5.9c0.8,2.5,1.1,5.2,2,7.7s-0.3,6,2.9,7.2c2.7,1.1,4.7-2.2,8-1.6c1.9,0.4-1.1-2-0.4-3.7c4.2,0.4,8.6,0.8,12.5-2
	c0.9-0.5,2-0.4,2.8,0.3c2.8,2.1,4,0.1,5.3-1.9c4.4,4.3,9.5,3,14.6,2C856.5,833.7,858.7,833.3,860.5,835z"/>
<path class="st2" d="M186.3,883c-9.5-9.8-18.1-20.3-25.8-31.5c-1.1-1.6-2.1-3.3-3.1-5c1.6-2.3,1-4.3-0.5-6.4s-2.6-4-4.1-6.2
	c7.7,2,14.8,4.2,22.2,0.4c1.2-0.6,2.9-2.6,4.3,0.3c0.4,0.9,1.9-0.3,2.4-1c2.7-3.6,8.3-2.9,10.5-7.7c1.4-3,11-0.5,12.3,2.9
	c0.3,0.8,1,2,1.4,1.7c3.5-3.2,8,1.2,11.5-1.7c0.5-0.3,1.2-0.5,1.8-0.4c2.5,5.6,8.2,0.8,11.6,3.6c1.1,0.9,3.1,1.6,4.3-0.5
	c0.1-0.1,0.2-0.3,0.3-0.4c3.1,2.4,5.8,1.8,7.9-1.3c0.6,0.3,1.1,0.7,1.6,1.1c3,3.7,6.5,4.3,9.6,0.7c1.6-1.9,4-3,6.4-3.1
	c2.3-0.3,5.3-0.1,4.7,3.8c-0.3,2.1,1.2,3.7,2.6,3.3c3.6-1.1,4,1.1,5.2,3.5c1.5,2.8,3.2,6.2,7.7,4.2c0.6-0.3,2.2,0.1,2.2,0.3
	c1,6.2,9.4,7.7,9.2,14.7c0,1.2,1.7,2.8,2.8,2.4c4.1-1.4,7.9,1.6,11.8,0.4c1.5-0.4,2.9,0.1,4.4,0.4c3.6,0.8,5.4,1.9,1.2,4.6
	c-1.5,1-1.6,2.3-1.5,3.9c0.6,4.7,0.8,9.3-5,11.3c-0.5,0.2-0.8,1-1.2,1.6h-3c-6.4-3-6.6-3.8-1.8-9.1c0.8-0.9,1.6-1.7,2.4-2.6
	c1-1.3,0.6-2.3-0.9-2.5c-3-0.6-5.9-1.9-9.2-0.4c-3.6,1.7-7.3,3.3-11.4,3.1c-2-0.1-2,1.2-2.1,2.6c-0.2,2.9-2.1,4.2-4.6,5.3
	c-6.6,3-13.7,2.4-20.6,2.6c-11.3,0.3-22.6,0-33.9,0.1c-2.3,0-4.6-0.2-6.8,1L186.3,883z"/>
<path class="st2" d="M1088.5,387.8c-2-1.1-2-3.3-2.5-5.2c-0.2-0.8-0.2-1.7-1.3-1.7s-2,0.2-1.8,1.7c0.1,1.3-0.8,1.4-1.6,1
	c-0.5-0.3-1-0.8-1.1-1.4c-0.3-1.2,2.1-3.6-0.2-3.5c-1.9,0.1-5.7-0.6-6.2,3.2c0,0.2-0.6,0.3-0.8,0.4c-1.9-5-6.3-2.4-9.3-2.5
	c-1.4,0-5.4-1.7-5.8,2.5c-0.3,0.1-0.6,0.1-0.9,0c-4.8-4.3-10.8-2.2-16.4-3.2c-0.6,1.5,2.3,3,0.2,4.2c-1.7,1-2.1-1-3-1.7
	c-0.6-0.6-1.6-0.7-2.3-0.1c-4.2,2.9-7.4,1.5-10-2.4c-0.2-0.3-0.3-0.7-0.6-0.8c-9.6-2.8-18.2-9.7-29.2-6.7c-1.4,0.4-3.2-0.5-4.8-0.9
	c-3.2-0.8-6.5-1.9-9.4,0.8c-0.7,0.6-1.5,1.1-2.2,0.4c-3.2-3.2-8.2-1.8-11.5-5c-1.6-1.5-4.6-2.3-6.5,0.6c-0.7,1-2,1.7-3,0.9
	c-7.3-5.6-16.3-3.5-24.3-5.5c-1.1-0.3-2.8-0.3-3.4,0.3c-3,3.4-6.6,2-9,0.4c-3.5-2.3-7.2,0.1-10.6-1.5c-1.1-0.5-3.2,0.8-3.9,2.5
	c-0.5,1-0.6,2.6-2.3,1.3c-1.3-1-0.5-2.1,0.4-3c0.6-0.5,1.2-1.1,1.7-1.8c0.8-1.2,3.8-1.6,2.4-3.6s-2.7,0.4-4.1,1.2
	c-1.3,0.8-2.6,1.4-4.1,1.7c-2,0.3-3.9-0.1-4.2-2.9c4.7,1.5,4.7,1.5,3.5-4.1c1.3-0.6,1.7,0.5,2.3,1.2s1.5,1.5,2.5,0.6
	c0.7-0.7,0.4-1.5,0-2.3c-0.5-1.1-2.7-1.7-1.5-3.2s2.3,0.1,3.4,0.6c0.8,0.4,1.7,0.6,2.2-0.3c0.7-1.1,0.1-1.9-0.9-2.4
	c-1.6-0.8-3-2.1-5.1-1.6c-1.2,0.3-3,1.5-3.2-0.6c-0.2-2.3,2.1-1.6,3.4-1.6c4.2-0.1,8.3,0,12.5,0c1,0.1,2-0.2,2.7-0.9
	c5.1-0.1,10.2-0.3,15.3,0.8c-4,1.2-8,0.5-12,0.6c11.6-0.3,23.1,1,34.7,0.6c4.1-0.1,8.3-0.3,12.3,0.8c-2.8,1.4-5.7,0.2-7.7,0.6
	c3.6-0.1,8,0.5,12.4-0.4c3.8-0.1,7.6-0.3,11.3,0.8c-2.5,1.2-5,0.6-7.5,0.6c3.7-0.1,7.4,0.6,11.1-0.3c3.8-0.1,7.6-0.3,11.3,0.8
	c-1.8,1.1-3.7,0.7-5.6,0.5c3.1-0.2,6.2,0.6,9.3-0.3c3.5-0.1,6.9-0.3,10.3,0.8c-2.1,1.2-4.3,0.5-6.5,0.6c3-0.2,6.1,0.6,9.2-0.4
	c3.4-0.1,6.9-0.3,10.2,0.8c-1.1,0.7-2.4,0.9-3.6,0.6c1.4-0.2,3.9,0.6,6.4-0.4c3.1-0.1,6.3-0.3,9.3,0.8c-1,0.8-2.3,1-3.5,0.6
	c1.6-0.2,4.4,0.5,7.2-0.4c13.4,0.3,26.8,2,40.1,3.2c19.9,1.9,39.8,4.3,59.7,6.5l0.1,22.2c-15.5,1.5-31,3-46.5,4.4
	C1093.4,387.6,1090.9,387.6,1088.5,387.8z"/>
<path class="st2" d="M1142.4,635.5c0,9.3,0,18.6,0,27.9c-7.4,5.3-14.5,8.9-24.5,4.7c-28.2-11.9-56.8-22.7-85.2-34
	c-1.6-0.7-4-1-4-3.1s2.3-2.7,3.9-3.4c12.3-5.6,24.5-11.2,36.8-16.6c3-1.4,6.5-1.4,9.6-0.1c19.1,7.2,38.3,14.4,57.4,21.5
	C1138.5,633,1140.8,633.7,1142.4,635.5z"/>
<path class="st15" d="M1142.4,635.5c-13.6-4.2-26.7-9.7-40.1-14.5c-8.6-3.1-17.1-6.3-25.6-9.5c-1.7-0.6-3.2-1.2-5.2-0.2
	c-14.1,6.5-28.3,12.8-43.3,19.6l42.4,16.8c17.4,6.9,34.8,13.7,52.2,20.8c3,1.4,6.5,1.3,9.3-0.5c3.2-1.8,6.5-4,10.3-4.5v4
	c-4.2,2-8.2,5.4-12.5,5.9c-6.8,0.7-11.1,5.3-16.7,7.8c-13.4,5.8-26.4,12.4-39.5,18.8c-2.2,1.2-4.8,1.2-7,0.2
	c-32.2-14-64.5-27.9-96.8-41.8c-1.6-0.7-3.9-1.1-4-3.3s2.2-2.7,3.8-3.4c13.6-6,27.1-12.4,41-18c19.8-7.9,39-17.1,58.4-25.8
	c2.7-1.2,5.1-1.7,8.1-0.5c21.7,8.2,43.5,16.3,65.2,24.4L1142.4,635.5z"/>
<path class="st2" d="M126.6,879.1c0.1-10,1.9-19.8,2.9-29.7c0.2-2.1,1.1-2.3,2.9-1.9c7,1.4,14,2.7,21,3.8c1.6,0.3,3,1.3,3.8,2.8
	c6.6,9.9,14.1,19.3,22.2,28c-1.8,1.1-3.8,1-5.8,1c-13.5,0-27.1-0.1-40.6,0.1C129.7,883.2,127.6,882.4,126.6,879.1z"/>
<path class="st2" d="M1142.3,582.3v38.3c-1.9,1.1-3.6,0-5.2-0.7c-13-5.3-26.1-10.1-39-15.3c-1.5-0.6-3.6-0.8-3.6-2.9
	c0-1.9,1.8-2.7,3.3-3.3c12.5-5.5,24.7-11.6,37.3-16.8C1137.6,580.7,1140.2,579.3,1142.3,582.3z"/>
<path class="st2" d="M213.5,883c1.7-2,4-2,6.4-2c11.1,0,22.3,0.3,33.4-0.1c7.1-0.3,14.4,0.1,21.3-2.8c2.6-1.1,4.3-2.1,3.3-5.4
	c-0.9-2.8-0.5-4,3.1-2.8c4.3,1.5,8.2-1.5,12-3.1c1.7-0.7,11.7,0.4,12.8,1.8c0.7,0.7,0.6,1.9-0.1,2.5l-0.1,0.1c-1,0.9-2.1,1.6-3,2.6
	c-4.6,4.8-4.6,4.9-0.1,9.2H213.5z"/>
<path class="st16" d="M1142.3,582.3c-1.7-0.2-3.2-1.4-5.2-0.4c-14,6.5-28.2,12.9-43,19.7l48.3,19c0,1.5,0,3.1,0,4.7
	c-16.9-6.7-33.8-13.3-50.7-20.1c-1.7-0.7-4.3-0.8-4.2-3.5c0-2.3,2.2-2.6,3.8-3.3c14.6-6.7,29.2-13.3,43.8-20.1
	c2.7-1.3,5-1.5,7.4,0.2C1142.4,579.8,1142.4,581,1142.3,582.3z"/>
<path class="st17" d="M1044.6,882.1c32.6-2.2,65.1-5.6,97.6-8.7c1.2,4.3-1.3,4.6-4.7,4.9c-29.8,3.3-59.6,5.6-89.5,4.6
	C1046.9,882.9,1045.4,883.9,1044.6,882.1z"/>
<path class="st2" d="M1141.4,505.6c0.2-0.2,0.5-0.4,0.8-0.3l0.2,13.4l-32.9-11.1c0.8-3.1,3.6-0.4,5-1.7l16.9-0.1
	C1134.7,506.5,1138.2,506.5,1141.4,505.6z"/>
<path class="st2" d="M30.6,752.3c1.9-1,3.2-0.1,4.5,1.1c-0.7,1.2-2.1-0.4-2.5,1L30.6,752.3z"/>
<path class="st2" d="M683.9,341.1l-10.3-3.7c17.5-6.9,34.4-13.6,51.3-20.3c3-1.2,6-2.6,9-3.9l27.3-10.7c1.8-0.7,3.5-1.3,5.7-0.7
	c21,5.9,42.1,11.6,63.2,17.5c1,0.4,1.9,0.8,2.8,1.3c-18.7,7.9-37,15.6-55.3,23.2c-11,4.6-22.1,9-33,13.7c-2.2,1-4.8,1.1-7.1,0.2
	C719.6,352.1,701.8,346.6,683.9,341.1z"/>
<path class="st2" d="M670.3,393.3c17.1,5.4,34.5,9.9,51.1,16.3c13.1,5,24.5,4.3,37.4-1.4c24.4-10.7,49.5-19.8,74.4-29.5
	c1.5-0.6,3-1.1,4.6-1.7c1.4,7.5,1.4,7.5-5.3,10.2c-29.7,11.9-59.3,23.8-89,35.8c-2,0.8-4.2,0.8-6.2,0c-20-6.4-40.1-12.7-60.2-19
	C669.5,401.5,669.5,401.6,670.3,393.3z"/>
<path class="st2" d="M802.8,385.7c-20.3,8.1-40.6,16.2-60.9,24.3c-1.2,0.5-2.6,0.4-3.8-0.1c-21.7-6.8-43.3-13.6-65-20.2
	c-6-1.8-1.7-6.4-4-10.1l51,15.5c1.9,0.6,4,0.8,5.7,1.7c10.7,5.3,20.7,3.3,31.2-1.4c13.3-5.9,26.8-11.2,40.6-15.8
	C802.8,381,804,382.4,802.8,385.7z"/>
<path class="st2" d="M758.8,389.7c-5.5,2.3-11,4.5-16.5,6.8c-1.4,0.6-2.5,0.2-3.8-0.2c-21.9-6.6-43.8-13.2-65.7-19.8
	c-5.5-1.7-1.8-6-3-9.4c19.5,5.8,38.7,11.1,57.5,17.4c9.2,3.1,17.8,4.1,26.6-0.5C758.9,385,760.1,386.4,758.8,389.7z"/>
<path class="st2" d="M768.8,359.7c-8.4,3.4-16.8,6.8-25.1,10.2c-1.6,0.6-3,1.2-4.7,0.7c-22.7-6.9-45.4-13.7-68.1-20.5
	c-0.7-1.4-0.5-2.8,0.1-4.7c4.6,3.3,9,0,13.5,0.3c16.9,5.2,33.8,10.4,50.7,15.8c3.9,1.4,8.2,1.3,11.9-0.5c6.1-2.8,12.5-5,18.7-7.5
	c0.1,0.1,0.3,0.1,0.4,0.2c1.6,1.4,1,2.5-0.5,3.4C767.4,357.1,768.9,357.4,768.8,359.7z"/>
<path class="st2" d="M729.8,380.1c-19.2-5.6-38.4-11.2-57.6-16.9c-4.5-1.3-2.3-5.1-2-7.5s2.7-0.5,4-0.1c17,5,33.9,10.2,50.8,15.2
	c2,0.6,3.5,2.4,5.8,2.1C733,375.4,732.6,378,729.8,380.1z"/>
<path class="st18" d="M780.9,347.1l45.2-19.1l11.8-5c1.2,8.9,1.2,8.9-6.6,12l-43.5,16.9C785.2,350.8,782.8,349.2,780.9,347.1z"/>
<path class="st2" d="M804.7,363.7c9.6-3.9,19.2-7.8,28.8-11.5c1.3-0.5,3.8-2.8,4.4-0.4s2.3,6.4-2,8.1c-7,2.7-14.1,5.3-21.2,8
	c-1.9,0.2-3.8,0.6-5.6,1.3c-0.8,0.2-1.7,0.4-2.2-0.4s0-1.5,0.8-2c0.4-0.2,0.8-0.5,1.2,0.1c0-0.9-0.6-0.5-1-0.4
	C805.9,366.7,803.7,367.1,804.7,363.7z"/>
<path class="st2" d="M791.8,376.8c-8.5,3.8-17.1,7.1-25.9,10c-1.2,0.5-2.9-0.2-2.8-0.9c0.3-1.9-0.3-1.4-1.6-1.5
	c-3.1-0.3-1-2.1-0.6-3.4c7.8-3.4,15.8-6.5,23.9-9.2C787.8,372.5,790.9,373.2,791.8,376.8z"/>
<path class="st2" d="M781.8,367.8c-7.8,3.3-15.6,6.7-23.8,9.2c-2.1-0.5-6.3-3.5-7.2-5c7.5-3.4,15.1-6.5,22.9-9.1
	c2.6-0.1,4.7,1.6,7.4,1.5C784.1,364.3,782.7,366.4,781.8,367.8z"/>
<path class="st2" d="M750.9,372l7.2,5c-5.3,2.2-10.3,5-15.8,6.3c-4.2,1-8.4-1.6-12.5-3.1c1.7-2.2,0.8-4.8,1.1-7.2
	C737.7,375.7,744.4,375.6,750.9,372z"/>
<path class="st2" d="M781.8,367.8c-0.8-0.7,1.3-4.2-2.3-2.3c-3,1.7-3.8-1.8-5.7-2.6c7.2-3.3,14.5-6.3,22-8.9c3.6,0.4,4.9,2.8,5.2,6
	C794.8,363,788.4,365.6,781.8,367.8z"/>
<path class="st2" d="M801,360c-2.2-1.6-2.5-4.8-5.2-6c5.7-2.8,11.7-5.2,17.8-7.1c5.3,0.1,7.5,1.4,8.2,5C815,355,808.1,357.7,801,360
	z"/>
<path class="st2" d="M791.8,376.8c-1.8-2.5-5.4-2.3-7.1-5l20-8.1c0.4,3.9,3.7,1,5.3,2.2c-0.1,1.6-2.6,0.7-2.5,2.5
	c2.4,0.4,4.7-2.4,7.3-0.5C807.3,371.4,799.7,374.3,791.8,376.8z"/>
<path class="st2" d="M821.8,351.9c-1.9-3-5.4-3.5-8.2-5l23.8-9.9c1.9,8.1,1.9,8.2-5.5,11.1C828.6,349.4,825.2,350.6,821.8,351.9z"/>
<path class="st19" d="M802.8,385.7c-0.2-3.3-2.7-4.6-5.1-5.9c6.5-3.1,13.2-5.7,20.1-7.9c1.3,1.1,5.6-0.2,3.2,3.9c0,0,0.2,0,0.3-0.1
	c1.6-0.8,2.8-0.6,3.6,1.2C817.7,380.2,810.3,383.2,802.8,385.7z"/>
<path class="st2" d="M824.9,376.9c-3.6,0-5-3-7.1-5l19.7-8.1c2.1,7,1.8,7.7-4.6,10.3C830.2,375.2,827.8,376.6,824.9,376.9z"/>
<path class="st2" d="M780.9,347.1l7,4.8c-6.2,3-12.5,5.6-19,7.8c-2.6-1.3-3.2-3.5-3.1-6.1L780.9,347.1z"/>
<path class="st2" d="M684.4,345.7c-4.2,1.7-8.3,5-13.3,1.1c-0.1,1.1-0.2,2.2-0.3,3.3c-1.6-2.9-1.6-6.4,0.1-9.3
	c3.2,1.5,6.5,2.5,9.9,3.1L684.4,345.7z"/>
<path class="st2" d="M760.9,381c-0.3,5.5,3.8,0.3,5.1,2.4c-0.6,0.9-4.4,2.2-0.1,3.5c-2.2,1.4-4.6,2.3-7.1,2.9c0.1-3.5-2.8-4.4-5-5.9
	C756,382.6,758.4,381.6,760.9,381z"/>
<path class="st2" d="M127.4,171.4c-1.4,0.7-2.6,1.7-4.4,0.6C124.5,170.6,126.1,171.5,127.4,171.4z"/>
<path class="st2" d="M129.3,137.2c0.4,0.6,1,1,0.9,1.2c-0.3,0.5-0.7,0.9-1.1,1.3c-0.3-0.3-0.9-0.7-0.9-0.9
	C128.5,138.2,128.8,137.7,129.3,137.2z"/>
<path class="st2" d="M956.6,345c-3.8,2-7.8,1-11.7,0.8c-7.7-0.3-15.4-1.3-23.2-2h12.2C941.5,343.8,949.1,343.8,956.6,345z"/>
<path class="st2" d="M973.6,346c-4.6,1.9-9.3,0.5-13.9-0.3h9.3L973.6,346z"/>
<path class="st2" d="M988.6,347c-3.9,1.9-7.9,0.6-11.9-0.2h8.3L988.6,347z"/>
<path class="st2" d="M1016.5,349c-3.2,2-6.6,0.4-10,0.1l7.3-0.3L1016.5,349z"/>
<path class="st2" d="M1003.6,348c-3.2,1.8-6.6,0.7-10,0.1l6.3-0.4L1003.6,348z"/>
<path class="st2" d="M1042.5,351c-2.9,1.6-5.9,0.8-9,0.1l5.3-0.4L1042.5,351z"/>
<path class="st2" d="M1029.5,350c-2.6,1.9-5.3,0.4-8,0.1l5.2-0.3L1029.5,350z"/>
<path class="st20" d="M305.5,737c-1.1-1.6-2.2-3.3-3.4-4.8c-0.7-0.9-1.2-1.8-0.4-2.7c1-1.1,2.1-0.7,3.1,0.1c1,0.9,1.9,1.9,2.7,2.9
	c6.9,8,11.9,17.1,16.1,26.7c0,0.3,0.1,0.7,0.1,1c0.5,1.8,2.1,4.2-0.4,5.1c-2.8,1.1-2.8-2.1-3.4-3.7
	C316.3,752.7,311.9,744.3,305.5,737z"/>
<path class="st2" d="M151.9,529.3c-0.5,1.2-1.7,2.1-3,2.2c-0.9,0-1.9-0.5-1.7-1.4c0.3-1.5,1.8-1.8,3.1-2.1
	C151.2,527.7,151.8,528.3,151.9,529.3z"/>
<path class="st2" d="M157.8,519.8c1.1,0.2,1.7,0.6,1.5,1.6c-0.3,1.3-1.4,1.7-2.6,1.8c-0.9,0.1-1.1-0.7-1-1.3
	C155.8,520.8,156.7,519.9,157.8,519.8z"/>
<path class="st2" d="M170.9,559.5c-0.9-0.1-1.7-0.5-1.8-1.3c0.1-1,0.8-1.9,1.8-2.1c1.3-0.5,0.9,0.8,1.1,1.4
	C172.4,558.6,172.3,559.4,170.9,559.5z"/>
<path class="st2" d="M179.2,557.7c-0.2,0.8-0.7,1.5-1.6,1.4c-1.1-0.1-1-1.1-0.9-1.9s0.4-1.3,1.2-1.2
	C178.6,556.1,179.2,556.8,179.2,557.7z"/>
<path class="st2" d="M159.5,511.7c0,0.8-0.1,1.6-0.3,2.3c-0.2,0.8-0.9,1.4-1.8,1.2l0,0c-0.6-0.3-1-0.8-1.1-1.4
	c-0.3-1.2,0.9-1,1.5-1.3L159.5,511.7L159.5,511.7z"/>
<path class="st2" d="M157.1,531.4c-0.7,0-1.3-0.3-1.4-1.1c-0.2-0.7,0.2-1.3,0.9-1.5c0.2,0,0.3-0.1,0.5,0c0.7,0,1.2,0.5,1.2,1.2v0.1
	C158.3,530.8,157.8,531.4,157.1,531.4L157.1,531.4z"/>
<path class="st2" d="M204.8,551.9c-2-0.8-3.5-0.8-3.8-2.4c0-0.2,0.4-0.6,0.6-0.6C203.7,548.5,203.6,550.5,204.8,551.9z"/>
<path class="st2" d="M348.4,754.4c-2-1.9-0.8-4,0-6.1V754.4z"/>
<path class="st2" d="M183.1,546c-0.3,0.1-0.8,0.3-1.1,0.2c-0.6-0.2-1.2-0.7-0.8-1.4c0.4-0.5,1.1-0.6,1.6-0.2
	C183.2,544.9,183.4,545.5,183.1,546L183.1,546z"/>
<path class="st2" d="M316.4,736.4c0.4,0.6,0.8,0.9,0.8,1.3s-0.4,0.6-0.6,0.9c-0.3-0.3-0.7-0.6-0.8-1S316,736.9,316.4,736.4z"/>
<path class="st2" d="M81.6,725.7c2.3,2.9,3.6,6.3,4.9,9.6c-1.8,1.7-0.1,2.9,0.6,4.3c1.3,2.7,2.5,5.5,3.8,8.2
	c-1.6,0.7-1.8-0.4-2.4-1.2c-2.7-3.8-4.1-8.4-8.1-11.5S76.9,730,81.6,725.7z"/>
<path class="st11" d="M152.1,846.7c-7.4-1.3-13.4-2.6-19.5-3.4c-3.2-0.4-2.1-2.5-1.9-4c0.6-7.1,1.4-14.2,2.2-22.1
	C139.2,826.9,145.3,836.2,152.1,846.7z"/>
<path class="st21" d="M62.7,157.5c1.3-2.6,2.6-5.1,3.9-7.7c0.8-1.7,1.7-3.2,4-2.4c0.6,2.7-1.3,4.6-2.3,6.9c-2.4,5.8-5,11.4-7.5,17.2
	c-0.5,1-0.7,2.4-2.2,2c-1.9-0.5-1.3-2.1-0.9-3.3C59.3,166,61.1,161.7,62.7,157.5z"/>
<path class="st22" d="M58.3,184c-0.7,1.2,0.3,3.8-1.9,3.8s-1.9-2.2-1.8-3.9c0.1-1.5,0.3-3.4,2-3.5C58.6,180.4,58.6,182.3,58.3,184z"
	/>
<path class="st2" d="M35.7,217.1c2.1-3,4.9-5.6,8-7.5C41.5,212.6,39.6,216,35.7,217.1L35.7,217.1z"/>
<path class="st23" d="M972.8,726.4c2.7-0.5,3.9,0.8,5.2,1.8c25,19,50,38,75,57.1c1.3,1,3.1,1.8,2.9,3.7s-2.4,2.1-3.9,2.6
	c-22.6,7.8-45.2,15.4-67.7,23.3c-3.5,1.2-5.6,0-8-2c-22-18.2-44-36.5-66.1-54.7c-2.7-2.2-5.5-4.3-8.1-6.6c-3.3-2.9-3.1-4.3,1.2-5.6
	c12.1-3.6,24.2-7.2,36.3-10.6c10.4-2.9,20.8-5.7,31.2-8.5C971.7,726.7,972.6,726.4,972.8,726.4z"/>
<path class="st1" d="M803.7,820.2c1.3,5.3,2.6,10.6,4,15.9c0.9,3.4,0,4.8-3.7,5c-29.6,1.8-59.1,3.8-88.7,5.7
	c-5.4,0.3-6.3-0.8-7.4-8.7c-0.1-0.7-0.1-1.3-0.2-2c-3.4-17.9-6.9-35.8-10.3-53.7c-1.1-5.7-2.2-11.4-3.4-17.1
	c-0.7-3.3,0.2-4.9,3.9-5.1c27.2-1.5,54.5-3.2,81.7-5c4.6-0.3,6.2,1.3,7.4,5.6C792.4,780.7,798.1,800.4,803.7,820.2z"/>
<path class="st7" d="M860.5,835c-3.7,0.4-7.6,0.3-11.1,1.3c-4.8,1.5-7.7,0.2-9.6-4.2c-1.2-3.2-2.8-6.3-4.9-9c-2.3-3-5.1-5.8-5.3-9.9
	c-9.1-17.1-18.1-34.3-27.2-51.4c-3-5.8-2.9-6.3,3.5-7.1c25.9-3.2,51.8-6.2,77.7-9.4c3-0.4,4.9,0.5,6.5,3.2
	c14.1,22.9,28.3,45.7,42.4,68.6c3.7,6,3.3,6.5-3.4,7.7c-2.3,0.4-4.7-0.1-6.8,1.2c-0.5,0.8-1.1,0.6-1.7,0.2c-1.8-0.1-3.6-0.2-5.2,0.8
	c-0.5,0.7-1.1,0.6-1.8,0.2c-1.8-0.1-3.6-0.2-5.2,0.8c-2.8,1.7-5.8,1.2-8.8,1.2c-1.8-0.3-3.6,0-5.2,0.8c-0.4,0.6-1.2,0.7-1.8,0.3
	c0,0-0.1,0-0.1-0.1l-11.3,1.7c-2.7,1.2-5.7,1.6-8.7,1.2c-1.8-0.1-3.6-0.2-5.3,0.8c-0.5,0.8-1.1,0.6-1.7,0.2
	C863.9,834.1,862.1,834,860.5,835z"/>
<path class="st24" d="M546,664.3c4.7-3.6,9.5-3,14.8-0.9c8.6,3.4,17.5,6.1,26.2,9.2c8.7,3.2,17.4,6.4,26,9.6
	c1.6,0.6,3.5,0.9,3.8,2.8s-1.6,2.7-3,3.5c-27.3,17.3-54.7,34.5-82,51.8c-1.7,1.1-3.2,2-5.5,1.1c-21-8.1-42-16.1-63.1-24.1
	c-1.6-3.6,1-5.1,3.4-6.6c13.7-8.3,27.7-16.3,41.4-24.7c7.1-4.3,14.2-8.5,21.2-12.9C535,670.7,539.7,666,546,664.3z"/>
<path class="st24" d="M388.2,685.4c1.9-2.9,5.4-3,8.1-4.4c5.4-2.8,10.6-5.9,15.9-8.8l55.1-30.3c0.3-0.1,0.6-0.2,0.9-0.3
	c8.8-7.4,17.6-5.8,27.5-1.6c14,6,28.5,10.6,42.8,15.8c1.7,0.6,3.5,1.1,4.7,2.7c1.1,3.3-1.5,4.3-3.5,5.5c-4,2.4-8.2,4.6-12.3,7.2
	c-19.1,10.7-37.9,22-56.8,33.1c-3.4,2-6.6,4.5-10.7,5c-5.8,4.3-11.2,2.9-17.4,0.3c-16.1-6.8-32.6-12.8-48.9-19.2
	C391.2,689.4,388.5,688.7,388.2,685.4z"/>
<path class="st2" d="M1086.6,851.1c-4.4-11.8-11.8-19.8-25.3-23.9c13.2-4.2,21.2-11.9,25.2-25.2c4.3,12.7,11.6,20.7,24.9,24.9
	C1099,831.7,1090.4,838.8,1086.6,851.1z"/>
<path class="st12" d="M460,709.2c22-13.4,44.2-26.7,66.8-39c3.1-0.4,4.2,0.9,3.3,3.8c-21.4,12.8-42.8,25.6-64.3,38.4
	c-1.8,1.1-3.2,2.4-2.6,4.8C460.8,715.1,461.2,711.9,460,709.2z"/>
<path class="st2" d="M829.6,813.2c2.2,3.1,3.9,6.4,5.3,9.9C831.3,820.8,827.7,818.4,829.6,813.2z"/>
<path class="st2" d="M899.7,829.2c2.8-0.9,5.8-1.3,8.8-1.2l3.1,0.3C906.9,829.9,903.5,831.2,899.7,829.2z"/>
<path class="st2" d="M872.7,833.2c2.8-0.9,5.7-1.4,8.7-1.2l1.3,0.5C879.3,832.9,876.2,836.1,872.7,833.2z"/>
<path class="st2" d="M935.9,833.5c-0.8,0.3-1.7-0.2-2-1c-0.1-0.2-0.1-0.4-0.1-0.5c-0.1-1.3,0.4-2.3,1.8-2.4c1.2-0.1,2.3,0.8,2.4,2
	C938.2,832.9,936.6,832.9,935.9,833.5z"/>
<path class="st2" d="M892.7,830.3l1.8-0.2c1,0.3,2.2-0.3,3.3,0.7C896,831.3,894.3,831.6,892.7,830.3z"/>
<path class="st2" d="M920.7,826.2l1.7-0.2l3.4,0.4C923.2,827.3,921.9,827.5,920.7,826.2z"/>
<path class="st2" d="M913.7,827.2l1.8-0.2l2.9,0.4C916.3,828.4,914.9,828.4,913.7,827.2z"/>
<path class="st2" d="M865.7,834.2l1.7-0.2l3.4,0.4C868.3,835.3,867,835.5,865.7,834.2z"/>
<path class="st7" d="M384.3,437.7c-1.8-1.2-2.9-2.7-2.1-5c12.9-4.1,25.6-9,37.9-14.5c9.1-3.9,17.3-4.3,26.7-1.4
	c25.5,7.8,51.2,14.7,76.8,21.9c1.7,0.5,4.1,0.4,4.3,2.6c0.3,2.6-2.3,2.9-4,3.6c-14,6-28.1,11.8-42,18c-3.3,1.5-7,1.7-10.5,0.6
	c-28.2-8.5-56.5-16.9-84.8-25.2C386,438,385.2,437.9,384.3,437.7z"/>
<path class="st7" d="M538.7,440.1c-2.4-0.6-4.7-1.2-6.9-1.8c-21.2-6.2-42.2-12.6-63.5-18.5c-6.4-1.8-12.7-4.1-19.1-5.6
	c-1.6-0.4-3.6-0.5-3.8-2.6c-0.3-2.4,2-2.9,3.6-3.5c14.3-5.7,28.7-11.3,43-17c2.1-0.9,4.5-1,6.7-0.4c28.9,8,57.9,15.9,86.8,23.8
	c1.5,0.4,3.5,0.4,3.6,2.7s-1.8,2.5-3.3,3.2c-14.5,6.2-29,12.3-43.5,18.5C541.2,439.3,539.9,439.7,538.7,440.1z"/>
<path class="st2" d="M500.1,584.6c-16.6-5.7-33.2-11.5-49.8-17.2c-13.3-4.6-26.6-9.3-39.9-14c-1.5-0.5-3.3-0.7-4.5-2.2
	c25.5-7.7,51-15.4,76.5-23.1c108.7-32.5,217.3-65.1,326-97.6c11.8-3.5,23.7-6.5,35.2-10.7c8-2.9,14.8-1.2,22.4,2.6
	c-6,5.7-11.6,11.6-17.8,16.6c-8.8,7.1-11.8,15.8-8.6,26.5c0.8,2.6-0.3,3.5-2.6,4.2c-3.7,1.1-7.3,2.4-10.8,3.6
	c-1.1,0.4-2.2,0.8-2.4,2.2c-0.2,1.6,0.8,2.4,2.1,3c3.1,1.6,6.2,3.2,9.3,4.8c0.8,0.5,2.2,0.6,2.2,1.8c0,1.4-1.4,1.5-2.5,1.8
	c-16.3,5.6-32.6,11.2-48.9,16.8c-22.3,7.6-45.7,10.8-68.3,17c-2.7,0.7-6.8,0-7.6,3.5c-0.8,3.1,2.8,4.6,4.7,6.5c2.9,3.2,6.2,6,9.3,9
	c5.4,3,9.9,7.5,12.8,12.9c-0.4,2-1.2,3.8-3.4,4.3c-0.6,0.1-0.4-0.2-0.5,0.5c-0.3,4.9-2.5,7.1-7.7,8.3c-3.5-4-4.8-9-6.9-13.7
	c-3.3-7.4-3.2-7.7-11-7c-16.4,1.4-32.8,2.8-49.1,4.5c-3.3,0.4-6.6,0.3-9.9,0.8c-6.5,1-6.9,1.6-4.8,7.6c4.8,14,10,27.8,15,41.7
	c2.1,5.8,4.4,11.5,6.5,17.3c1.4,3.9,3.9,5.5,8,5c17.3-2,34.7-3.5,52-5.4c5.3-0.6,10.6-0.8,15.9-1.5c4.2-0.5,4.7-1.2,3-5.1
	c-3.3-7.8-6.7-15.5-10.2-23.3c-1-2.3-2.2-4.5-2.3-7c2.7-2.4,0.8-4.7-0.2-7c-2.1-4.7-1.8-5.1,3.1-4.6c0.8,0,1.7-0.1,2.4-0.4
	c3.5-0.9,4,1.1,2.7,3.5s-0.8,4,1,5.3c-0.7-1.3-2.8-2.4-1.1-4.3c1.5-1.7,2.7-0.2,4.1,0.7c-1.7-1.4-2.8-2.9-1.2-4.6
	c2.4-2.4,4.2,0.5,6.3,1c0.5-1.3-1.9-3.1,0.6-4.2c0.8-0.1,1.7,0.1,2.3,0.7c4.8,4.9,10.5,8.9,15.2,13.9c0.8,0.9,1.3,1.9,1.5,3
	c1.5,2.8,3.7,2.5,6.4,1.9c21.3-5.2,42.6-10.2,63.8-15.5c1.7-0.4,4.4,0,4.8-2.7c0.3-2.2-1.8-3-3.1-4.2c-0.9-0.9-1.9-1.8-2.8-2.7
	c-1.4-3.4,0.3-5.5,3.2-6.6c1.8-0.7,3.3-2.1,5.2-2.5c0.5,0.1,0.9,0.3,1.4,0.5c8.7,8.1,17.5,8,28.2,3c13.8-6.6,28.6-11.1,43-16.6
	c1.6-0.6,3.9-0.7,4.2-3c0.3-2.6-2-3.1-3.6-4.1c-3.8-2.3-7.7-4.5-11.5-6.7c-1.1-1.9-3-2.5-5-2.9l0,0c-1.1-1.1-1.1-3,0-4.1
	c0.4-0.3,0.9-0.4,1.3-0.4c1.2,1.3,2.9,1.9,4.6,1.8c6.3,3.6,12.2,1.9,18.3-0.9c8.6-3.9,17.4-7.3,26.1-10.8c2.1-0.9,4.3-1.5,6.6-1.7
	c3.7-1.4,7.4-2.7,11.1-4.2c1.2-0.5,2.6-1,2.7-2.6c0.1-1.8-1.2-2.6-2.6-3.3c-3.5-1.8-7.1-3.5-11.1-5.5c9-3.3,16.4-8.4,23.9-13.2
	c4-2.5,9.3-1.3,11.8,2.7c0.6,1,1,2,1.2,3.1c0,0.3,0.1,0.7,0.1,1c2.1,11.1,2.9,11.8,14.3,12c10.6,0.2,21.3,0.4,31.9,0.4
	c2.5,0,3.5,0.4,3.4,3.2c-0.2,6.4,1.4,8.1,8.3,8.2c10.8,0.2,21.6,0.1,32.4-0.1c4-0.1,7.9,0.5,11.7,1.8c14,4.7,28,9.2,42.2,13.9
	c-0.8,2-2.8,2-4.4,2.7c-66.3,26.6-132.6,53.1-199,79.6c-56,22.3-112.1,44.5-168.3,66.5c-1.7,0.7-3.4,1.1-5.2,1.7
	c-5.2,1-10.3-0.5-15.5-0.1c-9.1-3-18.2-6-27.2-9.2c-67.1-23.8-134.2-47.6-201.3-71.5c-3.1-1.1-6.4-1.5-9.1-3.5c-1.6-1.8-1-3.6,0-5.4
	c0.9-1.1,2.5-1.5,3.8-1c1.5,0.9,1.8,2,0.8,3.5c3.2-0.6,0.2-3.3,1.5-4.6c3.9-3.5,9-4.2,13.6-5.9c11.7-4.3,23.5-8.3,35.2-12.5
	c2.3-0.8,4.7-1.7,7.3-1.5c6.2,2.1,8,0.9,8.5-5.6c0.1-1.3,0.4-2.2,1.8-2.5c5.2,2,9.9,0.3,14.9-1.5c18.2-6.5,36.3-13.1,54.5-19.6
	c0.6-0.2,1.3-0.4,1.9-0.7c1.8-1,5-0.9,5.2-3.2s-3-2.6-4.8-3.7c-12-6.9-24.5-12.7-36.8-19c-2.7-1.4-5.4-2.3-8.6-1.3
	c-23.8,8-47.5,16.2-71.2,24.8c-2.5,1.8-5.2,3.4-8.1,4.7c-4.1-0.8-7.8,0.2-11.7,1.6c-14.5,5.3-29.3,9.9-44,14.8
	c-4.3,1.4-8.5,2.8-12.8,4.3c-1.6,0.6-4.1,0.6-4.1,2.9c0,2,2.3,2.1,3.7,2.9c11.4,5.8,23.1,11,34.8,16.3c2.1,1,4.3,1.8,5.8,3.7
	C501.6,581.7,503.1,583.8,500.1,584.6z"/>
<path class="st2" d="M891.5,509.5c-3.5,1.5-6.8,3.6-9.8,6c-2.4,4-6.4,5.7-10.6,6.8s-7.7-2.8-7.4-7.7c0.1-1.8,0.8-3.6,2.1-4.9
	c3.8-8.7,10.5-14.8,18.5-19.6s14.8-10.7,19.8-18.6c3.9-6.2,3.7-9.2-0.8-14.9c-9.2-11.5-10.7-11.3-22.1-2.4
	c-11.1,8.7-19.9,18.4-22.6,32.9c-1.5,7.9-5.6,15.2-10.3,21.9c-2,2.9-4.3,5.5-8,6.4c-3.8,0.9-5.6-0.7-4.7-4.3
	c4-15.1,6.5-30.5,9.1-45.9c1-5.4,3.3-10.5,6.9-14.6c8.1-9.7,15.7-19.8,22.6-30.4c5.4-8.3,12.8-11.7,22.4-10.9
	c14.9,1.3,29.8,2.3,44.8,3.7c16.1,1.5,32.2,2.3,48.3,2.3c3.6,0,4.7,0.9,5.2,4.5c1.9,14.3,2.8,28.8,2.9,43.3c0,3.1-0.4,4.8-4.1,4.8
	c-4.9,0.1-9.5,1.8-13.4,4.8c-14.1,10.3-30.1,15.8-47.1,19c-9.6,1.8-18.9,4.7-27.4,9.9C901.7,505.7,896.8,508,891.5,509.5z"/>
<path class="st2" d="M726.9,537.5L715,527.1l0.9-1.7c6.2-1.5,12.3-3.2,18.4-4.6c12.4-3,24.8-5.8,37.2-8.8c2.6-0.6,4.5-0.6,6.8,1.4
	c13.7,12.3,27.5,24.4,41.3,36.7c1.1,1.1,2.2,2.3,3.2,3.6c-0.7,4,1.8,7.4,2.4,11.2c0.2,0.9,1.1,1.6,0.6,2.7
	c-17.4,4.3-34.8,8.6-52.2,12.9c-1.3,0.3-3,0.8-4.1-0.8c-4.7-3.4-9.1-7.2-13.1-11.3c-8.5-8.6-17.1-17.1-25.6-25.6
	C729.2,541.1,727.5,539.7,726.9,537.5z"/>
<path class="st2" d="M1001.5,465.7c0.4-18.3-1-36.6-4.4-54.5c-0.4-2.2,0.2-2.6,2-2.7c12.1-1,24.2-2,36.3-3.1
	c2.8-0.3,2.8,1.6,3.3,3.4c5.9,21.2,8.6,43.1,8.2,65c-0.1,4.6-0.4,9.3-0.5,14c-0.1,2.6-1.1,3.8-3.9,3.8c-12.3,0.1-24.6-0.1-36.9-0.7
	c-3.3-0.1-4.2-1.5-4-4.7C1001.7,479.3,1001.5,472.5,1001.5,465.7z"/>
<path class="st2" d="M795.8,504.8l40.2-14c-0.7,6.6-2.6,12-3.9,17.6c-0.8,3.6-2.1,7.4,1.7,10c4,2.8,8,1.4,11.6-1
	c4.6-3,7.3-7.6,10.1-12.2c0.7-1.2,0.5-4.7,3.8-2.7c2.2,1.3,5.3,1.9,3.4,5.6c-0.1,0.5-0.2,1-0.2,1.5c1,2.5,0.4,5.2,0.6,7.8
	c0.6,5.3,3.9,7.5,9,5.8c1.9-0.6,3.6-1.7,5.4-2.4c4.1-1.7,6.4-0.6,8.4,3.8c-1.4,1.9-3.6,2.3-5.6,3c-10.5,3.5-21.1,7-31.6,10.6
	c-1.8,0.6-3.9,0.9-5.3,2.5c-0.2,0.9-0.8,1.7-1.7,2c-15.7-9.5-31.3-19.1-47-28.6c-0.7-0.5-1.3-1-1.8-1.7c-0.5-2.2-0.9-4.4,0-6.6
	l0.9-0.3C794.6,505.8,795.4,505.5,795.8,504.8z"/>
<path class="st18" d="M909,503.8c12.9-5.7,26.7-8.6,40.3-12c3.5-0.9,6,0.1,8.8,1.6c2.4,1.3,4.9,2.4,7.9,3.9l-9.4,4.3
	c-3.8,3.5-8.9,4.4-13.4,6.5c-7,3.1-14.2,5.7-21.2,8.8c-4.5,2-8.6,2.1-12.8-0.5c-1.1-0.7-2.4-1.2-3.5-1.8c-2.4-1.4-6.4-2.2-5.9-5.3
	c0.5-3.4,4.4-4.5,7.7-5.3C908,504,908.5,503.9,909,503.8z"/>
<path class="st2" d="M884.8,517.7c1.8-0.5,3.2,0.6,4.6,1.3c8.5,4.7,16.9,9.4,26.1,14.5c-8,3.2-15.3,6.1-22.7,8.9
	c-7.9,3-16,5.5-23.6,9.2c-6.7,3.3-12.2,2.8-17.4-2.3c-0.1-1.5,1.1-2,2.1-2.7c11.1-4.3,22.6-7.7,33.9-11.6c2.3-0.8,4.8-1.5,7.1-2.4
	c1.3-0.5,3.4-0.5,3.5-2.3s-2-1.9-3.2-2.7c-2.1-1.3-4.2-2.7-6.2-4.2C887.5,521.6,883.2,521.8,884.8,517.7z"/>
<path class="st2" d="M845.2,550.4c-0.9,1-0.1,3.2-3.1,3c-3.4-0.2-5,2.8-5.3,6.1c-16.7-14.7-33.3-29.4-50-44.1
	c-0.2-0.1-0.1-0.6-0.1-1.8C806.4,526.1,826.3,537.5,845.2,550.4z"/>
<path class="st8" d="M881.5,459.5c-0.6,6.7-0.8,12.5-4.4,17.5c-1.3,1.8-0.3,3.4,1,4.9c3.1,3.5,3.4,6.5-1.4,8.9
	c-1.3,0.7-2.5,1.6-3.5,2.8c-2.7,3.6-4.5,3-6.5-0.8c-3.9-7.3-1.7-19.7,4.7-24.9C874.7,465.2,877.8,462.6,881.5,459.5z"/>
<path class="st20" d="M909,503.8l-9.9,5.8c5.4,2.8,10.3,5.4,15.3,8c1.8,0.9,3.2-0.2,4.7-0.8c12.5-5.1,24.8-10.7,37.6-15.1
	c-0.1,1.3,0.8,2.5,2,3c-13.8,5.7-27.6,11.6-41.5,17.1c-3.8,1.5-6.7-2.3-10.2-3.2c-1.2-0.3-2.6-0.3-3.3-1.7c-0.1-0.3-0.5-0.4-0.7-0.3
	c-3.7-0.5-7.2-1.9-10.2-4.1c2.6-2.3-0.3-2.2-1.2-3c4.4-3.1,9.2-5.8,14.2-7.8L909,503.8z"/>
<path class="st2" d="M896.5,456.5c-1.3,2.2-2,5-4.3,6.5c-3.7,2.4-3.2,4.9-0.3,7.5c0.4,0.3,0.6,0.8,1,1.1c3.3,3.1,3,5.9-0.9,8.3
	c-1,0.6-1.8,1.5-2.8,2.1c-1.5,0.8-3.1,3.8-4.7,1.8s-4.7-4.2-2.4-8.1c2.7-4.7,3-10.1,2.6-15.5c-0.3-4.4,2.6-6.2,5.4-8.2
	C891.7,450.9,896.7,454.5,896.5,456.5z"/>
<path class="st25" d="M726.9,537.5c14.4,13.8,28.8,27.6,42.6,42.1l-1.8,3.2l-18.6-17.3c-5.7-3-9.8-7.6-13.2-13l-12.2-12.8
	L726.9,537.5z"/>
<path class="st20" d="M884.8,517.7c-0.5,3.8,3.5,3,4.9,5c-1.2,1.2-2.2,2.7-4.2,1.9c-2.3-2.8-4.4-4.4-8.3-2s-8.2,5.1-12.4,1.4
	c-4.4-3.9-3.9-9.1-2.3-14.3l3.2,0.1c0,2.6-1.3,5.1-0.5,7.8c1,3.3,2.8,5.3,6.5,3.4c3.3-1.7,6.6-3.5,9.9-5.3
	C881.2,518.4,882.4,518.9,884.8,517.7z"/>
<path class="st12" d="M825.8,567.5c-0.7-2.4-5.5-3.3-2.5-7.1c0.2-0.2-0.6-1.5-1.2-1.9c-3.1-2.1-1.4-3.5,0.6-4.8
	c5,2.9,8.7,7.3,13.5,11.3C832.4,566.2,829.2,567.3,825.8,567.5z"/>
<path class="st2" d="M841.9,458.2c0.3-12,9.6-16,15.6-22.3C853.4,443.5,846.7,449.4,841.9,458.2z"/>
<path class="st2" d="M892.7,512.5c4.1-0.4,7.1,2.1,10.2,4c-1.7,1-1.1,2.7-1.3,4.1c-3-1.2-6.1-2.2-8.9-3.7
	C890.3,515.8,889.4,514,892.7,512.5z"/>
<path class="st2" d="M510.1,583.6c0,1.6,0,3.1,0,4.7l-10.1-3.8c1.8-0.9-0.2-2.9,1.1-3.9C504.8,579.7,507.5,581.5,510.1,583.6z"/>
<path class="st2" d="M747.7,672.4c5.2-2.8,10.3-0.5,15.5,0.1C758,676.6,752.9,675.5,747.7,672.4z"/>
<path class="st2" d="M830.4,476c3.4-0.4,5.7-3.4,8.6-1.4c0.6,0.4,0.1,4.3-0.6,4.5C835.4,480.1,833.3,477.7,830.4,476z"/>
<path class="st2" d="M895.5,464.4c2.2,1.9,4.2,3.5,4.9,5.9c0.2,0.8-1.2,3.1-2.3,2.4c-2.2-1.3-3.6-3.4-4-5.9
	C894,466.1,894.9,465.3,895.5,464.4z"/>
<path class="st13" d="M853.7,547.7l-1.9,1.6c-3.6-1.8-7-4.1-10.1-6.7l1-1.8C847.3,541.6,851.2,543.6,853.7,547.7z"/>
<path class="st2" d="M792.8,505.8c1.8,2.2,1.2,4.4,0,6.6c-2.4-1-4.6-2.5-6.5-4.3C788.3,506.9,790.5,506.2,792.8,505.8z"/>
<path class="st2" d="M865.8,501c-2.2-1-4.1-1.8-5.9-2.7c-1.2-0.6-0.8-1.6-0.3-2.5c0.4-0.8,0.8-1.7,1.8-1
	C863.2,496.3,866.3,496.9,865.8,501z"/>
<path class="st2" d="M1038.5,394.6c2.6-5.8,7.3-2.6,11.3-2.7C1046.1,393.3,1042,392.7,1038.5,394.6z"/>
<path class="st26" d="M1114.5,505.8c-1.4,1.4-3.9-0.4-5,1.7c-1.4,0.2-2.3-0.5-3.4-1.7C1108.9,505.4,1111.7,505.4,1114.5,505.8z"/>
<path class="st2" d="M1141.4,505.6c-3.3,1.8-6.6,1.5-10,0.2L1141.4,505.6z"/>
<path class="st2" d="M901.6,520.7c2.8-1,4.4,0,5,2.9C904.8,523,903.1,522,901.6,520.7z"/>
<path class="st2" d="M1050.5,391.9c2.6-2,5.6-0.7,8.4-0.9C1056.2,392.1,1053.3,391.9,1050.5,391.9z"/>
<path class="st27" d="M901.4,460.9c0.1,0.9-0.3,1.4-1,1.3c-0.6-0.2-1.1-0.6-1.4-1.1c-0.3-0.4-0.2-1,0.2-1.3c0.1-0.1,0.3-0.2,0.5-0.2
	C900.8,459.4,900.8,460.6,901.4,460.9z"/>
<path class="st2" d="M1061.5,390.7c2-1.6,4.2-0.6,6.4-0.8C1065.9,391,1063.7,390.8,1061.5,390.7z"/>
<path class="st28" d="M854.7,394.8c1.8-1.5,4.4-1.5,6.2,0H854.7z"/>
<path class="st2" d="M795.8,504.8c0.2,0.7,0.4,1.3,0.5,2c-1.2,0.5-1.9-0.3-2.6-1.2C794.2,504.8,795,504.5,795.8,504.8z"/>
<path class="st2" d="M1070.5,389.7c2-1.6,4.3-0.6,6.5-0.8C1074.9,390,1072.7,389.8,1070.5,389.7z"/>
<path class="st2" d="M1079.5,388.7c2-1.6,4.3-0.6,6.5-0.8C1083.9,389,1081.7,388.8,1079.5,388.7z"/>
<path class="st2" d="M1054.9,389.2l4.8-3.7C1060.4,389.7,1060,390,1054.9,389.2z"/>
<path class="st2" d="M1070.2,384.4c-0.3,0.4-0.8,0.7-1.2,1c-0.2,0.1-0.7-0.4-1-0.6c0.4-0.4,0.8-0.8,1.2-1.2
	C1069.6,383.4,1070,383.5,1070.2,384.4z"/>
<path class="st2" d="M1063.2,381.8c0.4-0.2,0.8-0.6,1.2-0.6c0.3,0,0.6,0.2,0.7,0.5c0,0.2,0,0.4-0.2,0.5c-0.2,0.3-0.8,0.4-1.3,0.4
	C1063.5,382.7,1063.4,382.2,1063.2,381.8z"/>
<path class="st2" d="M530,674.1c-0.1-1.9-1.5-3.4-3.3-3.8c4.3-2.5,8.5-5.1,12.8-7.6c1.7-1,3.6-1.8,3.7-4.3c-0.3,1.4,5.2,1.4,0.8,4
	c-1.1,0.7,1.3,1.3,2,2C540.9,668,535.6,671.3,530,674.1z"/>
<path class="st2" d="M264.2,498.9c6.1-0.5,10.6,3.9,16.1,5.4c0.7,0.2,1.2,0.9,1,1.6c0,0.1-0.1,0.3-0.2,0.4
	c-1.2,3.4-2.5,6.8-3.7,10.3c-0.5,1.6-1.5,1.5-2.7,1.1c-6.9-2.6-14.2-4.5-20.4-8.9c-1.2-0.9-2.3-1.9-3.2-3.1
	c-1.1-1.4-2.4-3.1-1.5-4.9s3-1,4.5-1.1C257.6,499.2,260.9,499.1,264.2,498.9z"/>
<path class="st13" d="M277.2,497.6c2.5,0.5,4.6-0.9,6,1c0.3,0.3-0.2,1.7-0.4,1.7C281.1,500.2,279.1,500.1,277.2,497.6z"/>
<path class="st26" d="M279.2,484.9l2-1c0.7,0.3,2.1,0.8,1.8,1.2C281.9,486.4,280.4,485.8,279.2,484.9z"/>
<path class="st2" d="M669.5,877c-4.5-0.3-8.8-3-13.5-1.3c-0.6,0.1-1.2-0.2-1.3-0.8c0-0.1,0-0.2,0-0.3c0-0.5,0.5-1.5,0.9-1.5
	c5.2-0.5,9.7-4.7,15.4-2.2c1.6,0.7,3.3,1.2,2.7,3.3C673.1,876,671.4,877.2,669.5,877z"/>
<path class="st2" d="M172.5,843.4c-1,0.1-1-0.7-1-1.3c0-0.9,0.3-1.7,1.3-1.7c0.7-0.1,1.3,0.3,1.4,1c0,0.2,0,0.4,0,0.5
	C174.2,842.8,173.4,843.1,172.5,843.4z"/>
<path class="st2" d="M928,354.7c0.2-3.3,1.9-4.5,4.1-5.5c2.8-1.3,3.7,3.6,6.5,1.7c0,1-0.1,2-0.3,2.9c-0.4,0.9-1.4,1.3-2.3,1
	c-0.1,0-0.1-0.1-0.2-0.1C931.7,353,931.2,353,928,354.7z"/>
<path class="st2" d="M940.5,348.1c1.2,0.1,2,1.1,2,2.3c0.1,0.7-0.4,1.3-1.1,1.4c-0.2,0-0.3,0-0.5,0c-0.9-0.2-2.5,0-2.2-1.8
	C938.8,348.9,939.1,348,940.5,348.1z"/>
<path class="st2" d="M950.5,352.7c-1.9-0.3-3.2-0.3-4-1.5c-0.1-0.2,0.6-1.3,1.1-1.4C949.5,349.2,950,350.6,950.5,352.7z"/>
<path class="st2" d="M1117.2,673.9l-45.8,22.2c-1.3,0.7-2.5,0.2-3.8-0.4c-31.3-13.6-62.7-27.1-94-40.7c0.2-1.4,1.5-1.4,2.5-1.8
	l40.6-17.7c1.8-0.8,3.5-1.3,5.6-0.5c31,12.6,62,25.1,93,37.6C1116,673,1116.6,673.4,1117.2,673.9z"/>
<path class="st2" d="M289.1,876.3c0.2,0.6-0.2,1.3-0.8,1.4c0,0,0,0-0.1,0c-0.6,0.2-1.3-0.1-1.6-0.7c-0.1-0.2-0.1-0.4-0.1-0.5
	c-0.1-0.6,0.4-1.2,1-1.3h0.1C288.4,875.2,289,875.6,289.1,876.3L289.1,876.3z"/>
<path class="st2" d="M906,749.4c22.6-6.3,44.3-12.4,65.9-18.6c1.2-0.4,2.6-0.2,3.6,0.7c24.5,18.7,49.1,37.4,74,56.4
	c-15,5.1-29.5,10.1-44,15.1c-7.2,2.5-14.4,4.9-21.6,7.5c-1.8,0.6-3,0.7-4.5-0.5C955.2,790,931,770.1,906,749.4z"/>
<path class="st2" d="M778.6,759.4c3.1-1,4,1.1,4.8,4c6.3,23.2,12.8,46.3,19.3,69.4c0.9,3.3,0.2,4.1-3.3,4.3
	c-27.6,1.7-55.1,3.5-82.6,5.5c-2.8,0.2-3.4-0.7-3.9-3c-4.6-23.6-9.3-47.2-13.9-70.8c-0.4-1.9-2-4.4,2.4-4.7
	C727,762.7,752.5,761,778.6,759.4z"/>
<path class="st2" d="M929.3,820.5l-31.5,4.6c-15.1,2.2-30.3,4.3-45.3,6.8c-5.1,0.8-8.1,0.2-10.8-5.1c-11.6-22.5-23.8-44.8-36.2-67.7
	c7.6-0.9,14.8-1.9,22-2.7c18.2-2.2,36.3-4.3,54.5-6.5c2.4-0.3,3.9-0.3,5.3,2.1c13.8,22.5,27.7,44.9,41.7,67.3
	C929.2,819.6,929.3,820.1,929.3,820.5z"/>
<path class="st2" d="M610.3,685.6c-9.5,6-18.5,11.6-27.4,17.3c-17.2,10.9-34.5,21.9-51.7,32.8c-1.7,1.1-3.1,1.8-5.4,0.9
	c-17.8-6.9-35.7-13.5-53.5-20.2c-0.6-0.2-1.1-0.5-2.5-1.1c5.9-3.5,11.2-6.6,16.5-9.8c21.4-12.8,42.8-25.6,64.1-38.3
	c1.3-0.8,2.4-2,4.5-1.2C573.1,672.5,591.4,678.9,610.3,685.6z"/>
<path class="st2" d="M395.6,686.4l43.5-23.8c13.1-7.2,26.2-14.4,39.2-21.6c1.8-1,3.3-1.6,5.5-0.8c16.6,6.3,33.3,12.3,49.9,18.4
	c0.7,0.4,1.4,0.8,2.1,1.2c-9.3,5.3-18.3,10.4-27.2,15.7c-17.6,10.3-35.2,20.5-52.8,31c-2.3,1.6-5.3,1.8-7.8,0.6
	C430.9,700.2,413.8,693.5,395.6,686.4z"/>
<path class="st2" d="M519.3,442.3c-13.6,5.8-26.9,11.4-40.2,17.1c-1.5,0.7-3.2,0.7-4.8,0.2c-27.4-8-54.7-16.1-82.1-24.1
	c-0.4-0.1-0.7-0.6-1.4-1.2c14-5.5,27.6-10.8,41.3-16.2c1.1-0.4,2.3-0.4,3.4,0l82.3,23.2C518.3,441.7,518.8,442,519.3,442.3z"/>
<path class="st2" d="M453.6,410.8c14.5-5.7,27.9-10.9,41.2-16c1.1-0.3,2.3-0.3,3.4,0.1c27.2,7.3,54.3,14.7,81.5,22.2
	c-0.4,2-2,2-3.1,2.5c-10.9,4.8-22,9.3-32.9,14.2c-3.1,1.5-6.7,1.7-9.9,0.6C507.5,426.6,481.2,418.9,453.6,410.8z"/>
<path class="st15" d="M731.8,578.8c4.5,10.5,9,21,13.5,31.5c2.2,5,1.8,5.7-3.5,6.2c-22.7,2.2-45.3,4.5-68,6.8
	c-8,0.8-8.1,0.9-10.8-6.5c-7.4-20.2-14.8-40.5-22.1-60.7c-2.1-5.7-1.8-6.1,4.2-6.7c22-2,44-4,66.1-6.1c3.2-0.3,4.8,0.5,6,3.6
	c2.5,6.4,5.6,12.5,8.5,18.8C729.6,569.2,730.7,574,731.8,578.8z"/>
<path class="st24" d="M510.1,583.6c-3.4,0.1-5.9-2.3-9-3c-14-6.7-28-13.3-42.1-19.9c-1.9-0.9-4.7-1.3-4.5-3.9s3-2.6,5-3.3
	c20.8-7.1,41.7-14,62.4-21.3c3-1,5.4-0.3,8.1,0.4c7.9,1,14.3,5.9,21.4,8.9c7.9,3.3,15.6,7.2,23.5,10.7c2.4,1.1,5.4,2.2,4.7,5.5
	s-3.5,4.1-6.6,3.7c-17.7,6.1-35.3,12.1-53,18.2c-1.3,0.6-2.7,1.2-3.9,2c-0.5,0.7-1.3,0.9-2.1,0.7
	C512.6,582.4,511.2,582.4,510.1,583.6z"/>
<path class="st29" d="M536.3,527.7c24-8.3,47.9-16.6,71.8-25c3-1.1,6.2-0.8,8.9,0.8c13.8,7.2,27.7,14.2,41.6,21.3
	c1.4,0.7,3.5,1.2,3.2,3.3c-0.2,1.7-1.9,2-3.3,2.5c-22.3,8-44.6,15.9-66.8,24.2c-3.8,1.4-6.3-0.8-9.4-1.4c-1.6-0.4-3.2-0.4-4.8-1.2
	c-12.5-6.4-25.3-11.8-37.7-18.4C537.5,532.6,534.3,531.5,536.3,527.7z"/>
<path class="st8" d="M731.8,578.8c-2-4.4-4-8.8-6.1-13.2c4.9-3.2,6.1-9.3,10.2-13.2l13.2,13c-2.2,2.6,3,3.9,1,6.7
	c-1.8-1.1-3.6-2.1-5.3-3.2c-0.9-0.6-1.7-1.3-2.5-0.1s-0.3,2.2,0.9,2.8c0.7,0.4,1.5,0.8,2.2,1.2c0.6,0.4,1.1,0.9,0.7,1.6
	c-0.3,0.7-1.2,1-1.9,0.6c-0.1,0-0.2-0.1-0.3-0.2c-0.7-0.5-1.2-1.1-1.9-1.7s-1.3-1.6-2.3-0.6c-1.3,1.2-0.2,2.1,0.6,2.9
	c1,1.1,2,2.1,3.2,3.4c-2.2-0.1-5.3-1.7-6.3-3.4c-1.5-2.6,2.1-4.2,1.4-7.1c-2.4-0.4-5.5,4.4-7.7-1c-0.3,4,2.1,6.6,3.1,9.6
	C735.1,580.4,731.9,577.6,731.8,578.8z"/>
<path class="st2" d="M536.3,527.7c-1.1,3.2,1.4,3.9,3.5,4.9c13.6,6.6,27.3,13.2,41,19.8c0.6,0.3,1.1,0.7,1.6,1
	c-0.7,2.5,0.5,5.2-1.4,7.6c-2.7,3.4-5.2,2.6-7.8,0.3c1.7-1.8,6-1,5.7-4.4c-0.3-3-3.9-3.2-6.2-4.3c-14.2-6.7-28.3-13.3-42.5-20
	C531.5,530.2,534.7,530,536.3,527.7z"/>
<path class="st2" d="M514,582.3c0.5-0.6,1.3-0.9,2.1-0.7c0.7,1,2.3,2.5,2.1,2.8c-1.1,1.8-3,2.2-5.4,2.1
	C513.7,585,515.4,584,514,582.3z"/>
<path class="st2" d="M903.7,516.8c1.2,0.2,2.4,0.8,3.2,1.7C905.1,519.3,903.3,520,903.7,516.8z"/>
<path class="st30" d="M853.7,547.7l-11-6.8c0.1-3.2,3-2.9,4.9-3.6c12.6-4.4,25.2-8.5,37.9-12.8c1.4-0.7,2.3-2.4,4.2-1.9l9.2,5.7
	c1,0.6,2.4,1,2.4,2.2c-0.1,1.6-1.7,1.8-2.9,2.2c-13.8,4.6-27.5,9.2-41.3,13.8C855.9,546.9,854.8,547.3,853.7,547.7z"/>
<path class="st2" d="M656,552.7c17.7-1.7,35.4-3.3,53.1-5.1c2.7-0.3,4.1,0.5,5.2,3.1c8.5,19.3,17,38.5,25.7,57.6
	c1.3,3,1.5,4-2.5,4.4c-21.7,1.9-43.3,4.3-65,6.4c-1.8,0.2-3.7,1-4.8-1.9c-6.4-17.4-13.2-34.6-18.9-52.3
	C651.7,561.2,653.2,556.6,656,552.7z"/>
<path class="st31" d="M656,552.7c1,2.1,1.9,4.1-1.6,4.5c-0.7,0.1-1.6,0.3-1.3,0.9c3.1,5.2-3.3,4.3-4.3,6.8
	c-1.8-3.6-3.2-7.3-4.2-11.2C648.5,553.3,652.2,552.4,656,552.7z"/>
<path class="st11" d="M461.2,557.2c21.2-7.2,41.5-13.9,61.7-20.8c2.4-0.8,4.2-0.2,6.1,0.7c12.2,5.9,24.8,10.7,36.4,17.6
	c1.4,0.8,3.5,0.1,4.3,2.7c-8.9,3.3-17.9,6.6-26.9,9.8c-10.3,3.7-20.5,7.4-30.8,11.1c-1.5,0.5-2.9,1.1-4.7,0.3
	C492.3,571.6,477.3,564.7,461.2,557.2z"/>
<path class="st2" d="M654.9,527.5l-44,16c-2.3,0.8-4.9,1.3-7,2.5c-10.3,5.7-19.8,4.9-30-1.3c-9.4-5.7-19.8-9.8-30.5-15
	c11.9-4.2,23.1-8.2,34.3-12.1c10-3.5,20.1-6.8,30.1-10.4c2.7-1.2,5.8-1,8.4,0.4C628.6,514.2,641.2,520.5,654.9,527.5z"/>
<path class="st2" d="M892.2,530.4c-11.8,4-23.3,7.8-34.7,11.7c-2.4,0.8-4.5,1.3-6.4-0.8C856.7,536.9,888.4,528.1,892.2,530.4z"/>
<rect x="-51.3" y="-20.8" class="st0" width="93.6" height="60.3"/>
</svg>
