<?xml version="1.0" encoding="utf-8"?>
<!-- Generator: Adobe Illustrator 24.2.0, SVG Export Plug-In . SVG Version: 6.00 Build 0)  -->
<svg version="1.1" id="Ebene_1" xmlns="http://www.w3.org/2000/svg" xmlns:xlink="http://www.w3.org/1999/xlink" x="0px" y="0px"
	 viewBox="0 0 1141.9 889.9" style="enable-background:new 0 0 1141.9 889.9;" xml:space="preserve">
<style type="text/css">
	.st0{fill:#010101;}
	.st1{fill:#040404;}
	.st2{fill:#FCFCFC;}
	.st3{fill:#FAFAFA;}
	.st4{fill:#FFFFFF;}
	.st5{fill:#060607;}
	.st6{fill:#FAF9F9;}
	.st7{fill:#F9F9F9;}
	.st8{fill:#050506;}
	.st9{fill:#020303;}
	.st10{fill:#030404;}
	.st11{fill:#F8F8F8;}
	.st12{fill:#FBFBFB;}
	.st13{fill:#050606;}
	.st14{fill:#F9F9F8;}
	.st15{fill:#F9F8F7;}
	.st16{fill:#F4F1EE;}
	.st17{fill:#FAF9FA;}
	.st18{fill:#F0EFEE;}
	.st19{fill:#040405;}
	.st20{fill:#FCFCFB;}
	.st21{fill:#FBFAFA;}
	.st22{fill:#090909;}
	.st23{fill:#FAF9F8;}
	.st24{fill:#FCFBF9;}
	.st25{fill:#F7F6F6;}
	.st26{fill:#F7F7F6;}
	.st27{fill:#F1F0F1;}
	.st28{fill:#F1EFEF;}
	.st29{fill:#D7D7DB;}
	.st30{fill:#EBEAE9;}
	.st31{fill:#F2EFED;}
	.st32{fill:#5B595A;}
	.st33{fill:#E1DEE2;}
	.st34{fill:#D2D1D3;}
	.st35{fill:#C6C5C7;}
	.st36{fill:#050505;}
	.st37{fill:#0A0A0B;}
	.st38{fill:#08090A;}
	.st39{fill:#F8F8F9;}
	.st40{fill:#FBFAF9;}
	.st41{fill:#FAFAF9;}
	.st42{fill:#F5F3F0;}
	.st43{fill:#F6F4F1;}
	.st44{fill:#FDFCFC;}
	.st45{fill:#F6F4F2;}
	.st46{fill:#FAF8F7;}
	.st47{fill:#F5F4F1;}
	.st48{fill:#F6F5F4;}
	.st49{fill:#F3F2F3;}
	.st50{fill:#F4F2F1;}
	.st51{fill:#0D0E0E;}
	.st52{fill:#FBFBFA;}
	.st53{fill:#151616;}
	.st54{fill:#333333;}
	.st55{fill:#060606;}
	.st56{fill:#060707;}
	.st57{fill:#FDFDFD;}
	.st58{fill:#F9F8F8;}
	.st59{fill:#F8F7F7;}
	.st60{fill:#0F0F10;}
	.st61{fill:#F6F7F7;}
	.st62{fill:#E5E5E7;}
	.st63{fill:#F0EFEF;}
	.st64{fill:#F5F5F5;}
	.st65{fill:#F3F3F3;}
	.st66{fill:#E7E5E7;}
	.st67{fill:#EAE8EA;}
	.st68{fill:#DBD9DA;}
	.st69{fill:#F0F0F0;}
	.st70{fill:#E7E7E9;}
	.st71{fill:#9C9B9D;}
	.st72{fill:#C0C0C1;}
	.st73{fill:#131313;}
	.st74{fill:#D5D5D8;}
	.st75{fill:#9B9A9F;}
	.st76{fill:#070707;}
	.st77{fill:#F8F9F8;}
	.st78{fill:#0D0D0E;}
	.st79{fill:#070708;}
	.st80{fill:#F6F6F5;}
	.st81{fill:#F5F4F4;}
</style>
<path class="st0" d="M103,196.7c-2.3,40.8-18.7,76.7-39,111.1c-3.2,5.8-7.3,11.1-12.2,15.7c-5.8,5.6-13.7,8.5-21.8,8
	c-0.9-1-1.8-1.9-1.2-3.4c1.3-1.9,3.4-1.8,5.4-2.1c7.4-1.1,13.5-4.5,17.9-10.6c13.8-19,23.5-40.1,32.5-61.5c1.9-4.3,3.4-8.7,4.5-13.2
	c6.3-18.2,7.6-37.2,9.2-56.2c0.6-7.3,2.7-14.3,4.4-21.4c1.7-4.4,3-9,3.9-13.6c2.3-7.3,1.3-14.9,2.5-22.3c0.2-0.7-1,0-0.4-0.2
	c0.2,0,0.2,0.1,0.2,0.4c-0.9,6.1-4,11.4-6.1,17.1c-1.6,3.2-2.9,6.4-4,9.8c-2.5,7.4-4.5,15-6.8,22.4c-1,3.2-2.4,5.9-6.3,6
	c-2.7,0-3.5,2-4.4,4.1c-4.7,10.7-5.6,22.2-6.2,33.7c-0.6,2.7-1,5.5-2.5,7.9c-1.9,3-4.3,5.4-8.3,5.2s-6.7-2.5-8.2-6.1
	c-0.6-1.3-1-2.8-1.3-4.2c0-2.8-0.9-5.5-2.7-7.7c-2.8-3.3-3.8-7.6-5.2-12.1c-3,5.1-5.8,9.9-9,14.4c-10.3,15-21,29.7-32.9,43.5
	c-2.3,2.7-4.3,6.5-8.9,6V43.9c2.8-3.9,7.2-5.4,11.1-7.2c14.4-6.8,23.2-18.9,31.3-31.8C39.7,3.2,40.4,1.3,42,0h47
	c4.7,4.1,9.4,8.1,14,12.3c8.8,8.1,16.8,16.9,22.4,27.7c7.6,14.6,7.4,29.2,0.4,43.9c-0.2,2.3-1.1,4.6-2.7,6.3
	c-6.4,6.8-7.4,15.3-7.8,24.1c-0.4,10,0.6,19.9-0.9,29.9c-1.3,7.4-3,14.7-5.2,21.8c-2.5,7.1-3.6,14.4-4.3,21.9
	C103.6,190.6,105.3,194.1,103,196.7z"/>
<path class="st1" d="M29,328.3c0.3,1.1,0.7,2.1,1,3.2c-2.6,0.8-5.3-0.1-7.9,0.1c-1.7,0.1-4.4-1.6-4.8,1.6c-0.4,2.6-1.5,5.1,1.6,7.5
	c12.3,9.5,23.2,20.6,32.4,33c1.2,1.5,2.9,2.7,4.7,3.4c16,6.8,31.7,14.4,47.1,22.5c1.7,1,3.7,1.2,5.6,0.7
	c32.7-7.3,65.6-13.6,98.8-18.7c22.3-3.4,44.8-5.9,67.1-9.6c12.3-2,24.6-2.3,36.9-4c3.5,0.5,6.6,1.8,8.4,5.1
	c-2.4,2.1-4.3,4.6-5.5,7.5c-14.5,31.7-29.5,63.3-44,95c-1.4,3.1-1.6,5.6,0.7,8.2c0.2,1.9-0.9,2.9-2.4,3.7c-3.9,0.1-6.1-1.7-6.4-5.6
	c0-1.8-0.1-3.7,0.9-5.4c3.3-10.7,8.6-20.5,13.3-30.6c9.5-20.5,19-41,28.6-61.5c1.9-4.1,1.6-4.8-2.9-5.5s-9.1-1.8-13.7-2.6
	c-5.2-0.9-6.1-0.4-7.1,4.9c-3.3,16.3-6.2,32.7-9.2,49c-2.8,15.2-4.8,30.6-8.7,45.6c-1,1.8-1.4,3.9-1.2,5.9c-0.3,2.2-0.1,4.5-1.3,6.6
	c-2,2,1.3,6.5-3.4,7.3c-1.3-0.3-2.4-1.3-2.7-2.6c-0.4-2.1-0.4-4.3,0-6.4c0.4-1.5,0.7-3,0.8-4.6c0.5-2.3,0.9-4.6,1.3-6.9
	c0.4-1.6,0.6-3.2,0.7-4.8c5.1-26,9.4-52,14.3-78c0.6-3.2-0.3-4.6-3.8-4.6c-6.3,0-12.6,1.4-18.9,1.2c-2.7-0.1-3.8,1.7-3.9,4.2
	c-0.2,3.2-0.1,6.3,0.1,9.5c1.2,15.1,2,30.2,2.8,45.2c0.2,3.2,1,6.3,1,9.4c-0.4,8.8,1.3,17.5,1.4,26.2c0.3,1.1,0.5,2.3,0.5,3.5
	c0,0.6,0.1,1.1,0,1.7c0,3.4,0,6.9,0,10.3c-0.5,5.9-1,6.3-4.9,3.6c-1.2-2.2-1.9-4.6-1.9-7.1c-1.4-24.7-3.2-49.4-4.8-74
	c-0.6-9.8-1.7-19.5-1.3-29.4c0.3-6.7,1.9-9.2,8.7-9.7c6.6-0.5,13.2-1.4,19.9-1.4c2.2,0,4.7,0.3,7.4-2.7
	c-53.5,6.9-105.7,14.8-158.5,26.5c11.5,6.7,22.1,12.6,32.3,19.2c18.3,11.7,35.8,24.3,47.4,43.4c7.6,12.4,13.4,25.6,18.6,39.2
	c10.7,28.1,20.3,56.7,29.8,85.2c4.2,12.8,9.2,25.3,13,38.5c1-1.9,1.8-3.9,2.4-6c2.6-9,7.6-15.8,16.5-19.4c3.6-1.5,4.7-4.4,4.4-8.1
	c-0.3-3.9-1.8-7.4-3-11c-2.3-7.2-4.4-14.3-3.9-22c0.3-5.2-0.1-9.9-5-13c-0.4-1.3,0-2.6,0.9-3.6c4.5,1,6.3-2.6,8.9-4.9
	c1.3-0.3,2.6,0.3,3.2,1.5c1.1,3-0.1,6-0.6,8.8c-1.5,9.4-0.9,19,1.8,28.2c1.5,5.4,3.8,10.7,4.4,16.3c0.2,1.8,1,2.8,3,2.3
	c19.1-5,34.4,3,49,14c4.4,3.3,4.3,3.3,6.4-2c4.9-12.4,11.6-23.9,17.8-35.7c5.2-10,10.8-19.8,15.3-30.3c2.2-5.1,3.8-10.3,1.5-15.9
	c-0.4-1.1-0.5-2.3-0.3-3.5c2.2-10.3-1-19.7-5-29c-2.4-5.5-4.5-11.1-7.3-16.4c-2-3.7-2.4-3.8-4.9-0.1c-5.8,8.5-11.5,17.1-17.5,26.2
	c2.4,0,5.1-0.3,5.3,2.7c0.2,2.7-2.2,3.5-4.1,4.4c-1.8,0.8-3.7,1.4-5.6,2c-2.8,1-6.8,1.2-4.2,6.1c0.4,1,0,2.1-1,2.6
	c-1,0.6-2.3,0.5-3.3-0.2c-2.8-1.8-4.3-4.6-5.9-7.3c-7-11.7-9.8-24.6-10.8-38c-0.5-7-1.7-13.9-4.8-20.3c-1.9-3.9-4.5-7-9.5-6.9
	c-4.3,0.7-5.7,4-6.7,7.6c-0.5,1.9-0.4,3.9-0.9,5.8c-0.6,5.3-0.1,10.7-0.3,16c-0.2,2.5,0.1,5-0.3,7.5c-0.2,1.1-0.4,2.5-1.8,2.5
	s-1.9-1.1-2.3-2.3c-0.5-1.6-0.3-3.3-0.9-4.9c-2.3-8.7-1.8-17.4,0.1-26.1c1.5-7.1,6.4-12.1,12.3-12.8c7.3-0.8,12.9,2.5,16.1,9.9
	c4.3,9.9,5.9,20.4,6.7,31c0.5,7,1.9,13.8,5.1,20.1c0.6,1.2,1,2.7,2.5,2.9c1.7,0.2,2-1.5,2.5-2.7c10.5-22.3,21.1-44.4,31.5-66.7
	c4.6-9.8,9.1-19.6,13.9-29.3c2.8-5.7,2.5-6.4-3.1-9.1c-14.7-7.1-29.4-13.9-44.3-20.7c-2.7-1.2-5.6-2.2-7.4-4.8
	c-0.7-1.9-2-3.9,0.4-5.6c7.5,2.8,14.6,6.4,21.8,9.7c11.9,5.5,23.8,11.1,35.6,16.6c6.7,3.1,8,6.5,4.6,13.1c-2,4.1-1.7,6.8,2.3,9.1
	c1.6,1,3,2.1,4.4,3.3c4.3,3.6,4.8,6.5,1.9,11.3c-2.3,3.7-4.7,7.2-7.1,10.8c-1.1,1.5-2.1,3-3.2,4.4c-0.8,0.9-1.6,2-2.2,3.1
	c-0.7,1.3,0.2,1.7,1.2,2.1c25.4,7,50.8,13.6,76.2,20.7c2.6,0.7,6.2,0.7,6.5,4.4s-3.1,4.7-5.8,5.9c-14,6.2-28.1,12.1-42.1,18.4
	c-3.1,1.4-6.5,1.6-9.7,0.5c-8.5-2.4-16.8-5.2-26.5-7.1c6.8,16.1,5.6,32.2,4.9,48.5c1,0.7,2.3-0.3,3.4-0.6
	c53.3-15.7,106.6-31.6,159.9-47.3c47.4-14,94.7-28.3,142.2-42.2c16.6-4.8,33.1-10.1,49.8-14.7c2.1-0.1,4.1-0.8,5.8-2
	c2-0.3,3.7-1.2,5.5-1.8c1.4-0.2,2.7-0.5,4-0.9c1.4-0.3,2.8-0.7,4.2-1.2c28.7-8.9,57.5-17.5,86.2-26.4c2.2-0.8,4.5-1.1,6.9-1.1
	c2.3,0.6,3.3,1.9,2.1,4.2c-1.8,2.5-4.7,3-7.4,3.8c-26.8,8.1-53.5,16.3-80.3,24.4c-39.5,11.8-79.1,23.5-118.7,35.3
	c-74.3,22.3-148.7,44-223,66.2c-12.8,3.8-25.5,7.8-38.3,11.2c-4.4,0.9-8.2,3.9-10.1,8c-2.4,4.9-5.2,9.7-7.6,14.6
	c-2.1,4.4-1.8,5.2,3,6.8c19.2,6.7,38.3,13.5,57.4,20.5c37.1,13.5,74.2,27,111.3,40.4c37.1,13.4,74.2,26.9,111.3,40.2
	c33.1,11.8,66,23.9,99.1,35.8c3.4,1.4,7.2,1.3,10.5-0.2c53.9-22.1,107.7-44.3,161.5-66.6c32.3-13.4,64.6-26.7,96.9-40
	c39.1-16.1,78.1-32.3,117.1-48.6c2.3-1,4.7-2.8,7.5-1.6c0.3,1.6,0.3,3.1,0.1,4.7c-1.8,2.7-4.9,3.4-7.6,4.5
	c-58.3,24.1-116.6,48.2-174.8,72.4C899,669.8,833.1,697,767.3,724.2c-6,2.5-11.1,2.5-17.2,0.2c-39.2-14.5-78.5-28.7-117.8-42.8
	c-10-3.6-20-7.2-30.1-10.8c-24.7-9-49.4-17.9-74.1-26.8c-37.7-13.6-75.4-27.2-113.1-40.9c-14.6-5.2-29.2-10.4-43.7-15.7
	c-5.5-2-5.9-1.7-8.5,3.4c-4.4,8.8-9.4,17.3-12.4,26.7c-1,3.1-0.8,5.6,1.4,8.3c4.2,5.3,8.5,10.7,10.1,17.6c0.7,3.1,2.7,1.1,3.8,0.4
	c6.6-3.9,13.7-6.9,20.3-10.7c7.6-4.4,15.8-7.8,23.3-12.5c2.4-1.5,5.5-1.8,8.1-0.8c18,6.4,35.9,13.2,53.9,19.8c2.4,0.9,4.8,2,4.1,5.3
	c-0.4,1.6-1.7,2.4-3,3.2c-0.4,0.3-0.8,0.5-1.3,0.8c-19.4,10.3-38.8,20.8-58,31.6c-6.3,3.3-12.4,7-18.7,10.1
	c-1.7,0.8-3.4,1.8-4.9,2.9c-0.9,0.6-1.8,1.1-2.7,1.6c-3.1,1.9-6.3,1.6-9.5,0.2s-6.5-2.6-9.7-3.9c-5.9-2.3-6.3-2-6.4,4.5
	c0,6.8,0.2,13.6,0,20.4c-1.4,34.3-2.3,68.7-7.9,102.7c-2.9,18.9-8.7,37.3-17,54.5c-2.4,5-2,5.6,3.3,6.2c32.5,3.5,65.2,6,97.8,8.7
	c12.1,1,24.2,2.1,36.3,2.3c2.7-0.1,5.3,0.4,7.8,1.3c1,0.4,2.8,0.7,1.7,2.6c-29.5,0.3-59.1,0.4-88.6-2.2c-2.5-0.7-5.1-1-7.8-0.9
	c-1.4,0-2.8-0.1-4.3-0.4c-11.9-1.2-23.8-2.3-35.7-3.5c-4.1-0.4-8.3-0.8-12.4-1.3c-3.6-0.5-6.1,0.5-8,3.6c-1.1,1.8-2.4,3.6-4.6,4.4
	c-0.5,0.2-0.9,0.3-1.4,0.3c-1.6-0.2-3.7,0.8-4.6-0.6c-1.1-1.9,1-3.1,2-4.6c13.5-18.2,21.9-38.7,26.4-60.8
	c4.2-20.6,6.3-41.4,7.3-62.3c0.1-0.5,0.2-1.1,0.3-1.6c1-4.3,0.1-8.7,0.4-13c1.5-19.9,2.2-39.8,2-59.7c-0.2-14.1,1.6-28.2,1.1-42.3
	c-0.1-3.4-0.3-6.7-2-9.6c-11-18.4-26.1-31.6-47.7-35.3c-13-2.2-24.5,3.2-34.6,11.1c-3.6,2.8-3.8,8-5.9,12
	c-4.2,8.2-3.3,15.8-0.3,24.4c11.5,32,25.1,63,40,93.5c6,14.4,13,28.5,17.1,43.6c1.1,4.3,2,8.7,2.6,13.2c0.3,2.2,0.4,4.7-2.4,5.2
	s-3.4-2.1-4-4.1c-1.2-4.2-1.7-8.5-2.8-12.6c-4.2-16-11.3-30.9-18.3-45.8c-13.2-28-26.2-56-36.4-85.2c-1.6-4.7-3-9.4-4.1-14.2
	c0.2-0.8-0.1-1.6-0.8-2.1c-1.3-1.7-2.1-3.8-2.1-5.9c0.1-0.8-0.3-1.7-0.9-2.2c-1-1-1.5-2.4-1.1-3.8c-0.9-3.8-2.2-7.5-3.9-11
	c-2.4-4.7-4.2-9.7-5.1-14.9c-0.5-2.9-1.5-5.6-2.9-8.2c-1-1-1.5-2.4-1.2-3.8c0.2-0.8-0.1-1.7-0.8-2.2c-1-1-1.4-2.4-1.2-3.8
	c0.2-0.8-0.1-1.7-0.8-2.2c-1-1-1.4-2.4-1.2-3.8c0.2-0.8-0.1-1.6-0.8-2.1c-2.7-4.6-3.9-9.8-5.1-14.9c-10.4-31.2-19.8-62.9-36.1-91.8
	c-4.6-8.3-10.1-16-17.5-22.1c-6-6.7-13.6-11.6-21-16.6C118.3,411,80.1,391,40.3,375.1c-0.8-0.3-1.6-0.5-2.3-0.6
	c-1.4,1-2.9,0.6-4.3,0c-11.3-5.3-23.4-8.4-35.1-12.5c-0.9-0.3-1.8-0.8-2.6-1.5v-5c1.9-0.9,3.6,0.2,5.3,0.6
	c13.8,3.8,27.1,8.9,41.1,14.2C31.1,358.8,20.6,347.5,7.6,339c-4-2.6-8.4-4.8-11.6-8.5v-5c4.5-0.5,7.2,2.9,10.6,4.8
	c5,2.9,5.2,2.9,6.2-2.6c1.9-10.7,4.2-21.2,7-31.6c0.7-2.6,1.1-6.6,4.8-5.8c3.9,0.9,2.2,4.6,1.6,7.2c-1.6,7.3-3.4,14.6-4.8,21.9
	c-1.1,5.8-1.1,5.8,4.6,7.4C27,327,28.1,327.5,29,328.3z"/>
<path class="st2" d="M-4,894.5V746.8c1.8-0.9,3.6-0.5,5.4,0c20.2,5,34.2,17.1,41.5,36.7c4.2,11.2,4.8,23.1,6.3,34.8
	c3,22.7,6,45.5,8.7,68.2c0.3,2.8,1.2,5.6-1.2,8c-1.1,0.5-2.2,0.7-3.4,0.6H-1.6C-2.4,895.2-3.3,895-4,894.5z"/>
<path class="st3" d="M29,328.3c-10.9-1.1-10.9-1.1-8.6-11.7c1.6-7.3,3.3-14.5,5-21.8c0.3-1.4,1.4-3.2-0.5-3.9
	c-2.3-0.8-2.6,1.3-3,2.9c-3.7,13.1-6.6,26.3-8.7,39.7c-0.1,0.6-0.3,1.2-0.5,2.1L-4,325.5v-57.9c4.2-1.7,6.6-5.4,9.4-8.5
	c11.5-13,21.3-27.4,31.4-41.4c1.9-0.6,3.6-1.6,5.1-2.9c0.8-0.7,1.9-1.8,3-0.7s0.3,2.2-0.5,3.1c-1.9,2.2-4.1,4.1-5.7,6
	c1.2-0.7,2-2.6,3.5-3.7c1.1-0.8,2.3-2.7,3.7-1.2s-0.3,2.7-1.2,3.9c-1.5,2.2-4.5,3.2-5,6.2c0.3,0.2,0.6,0.5,0.8,0.8
	c2.1,0.9,4.5-4.3,6.6,0.4c0.3,0.6,2.4-1,3.3-2.2c1.4-1.9,2.5-4.4,5.4-4.4c2.4,8,4.4,10.3,9,10c6.4-0.5,7.4-5.7,8.6-10.6
	c0.1-0.5,0.3-0.9,0.5-1.4c2.9,0.8,5.3,1.7,6.2,5.3c0.8,3.3,5,4.3,6.7,7.6c2.3,4.6,1.7,7-3.4,7.8c-1.3,0.2-2.6-0.2-4.5,0.1
	c2.3,3.7-0.8,7-0.4,10.7c0.3,3.3,2.2,6.3,1.7,8.9c1.4-6.4,4.9-12.8,7.4-19.6c0.3-0.9,0.8-2.5,2.4-1.5c0.6,0.4,0.3,1.2-0.1,1.8
	c-1.6,7.7-4.9,14.8-8,21.9c-6.4,14.8-13.7,29.1-21.9,42.9C52.8,318.5,44.1,327.9,29,328.3z"/>
<path class="st3" d="M-4,360.4c12.5,2.6,24.4,7.2,36.2,11.8c1.9,0.7,4.1,0.8,5.7,2.2c0.7,1.7-3,5.8,2.6,4.8c-1.2,3.2,2.5,4.2,3,6.6
	c0,0.5-0.2,0.9-0.5,1.2c-1,0.4-2.1,0-2.5-1c-1.5-2.9-3.2-3.2-5.1-0.4c-0.9,1.4-2.2,1.3-2.8,0.2c-2.2-4.6-3.7-1.2-4.5,0.6
	c-0.5,1.2-2.5,2-1.3,4.3c3-3.7,5.2-1,7.2,1c1.6,1.5,3.3,3.5-0.7,4.4c-2.3,0.5-0.7,1.9-0.2,2.3c2.3,2.2,1.8,3.4-0.6,5.4
	c-3.1,2.5-2.7,6.9,0,9.9c0.8,0.9,1.3,2,2.8,1.4c0.4-0.2,0.9-0.6,1-1c0.2-1.2-0.6-2.3-1.8-2.6c-0.9-0.2-1.7-0.8-2-1.7
	c1.4-1.1,3.2-2.1,3.7-4.3c0.2-1.1,1.6-1,2.5-0.5c0.6,0.4,1,1.2,0.4,1.7c-4.8,4.2,0.7,6.4,1.9,9.3c0.5,1.3,3.2,2.3,0.2,3.5
	c-1.8,0.8-2.3,6.7-5.7,1.2c-1.5-2.6-3.7-4.7-6.3-6.1c-0.9-0.4-1.6-1.4-2.5-0.5s-0.4,1.9,0.2,2.7c1.3,1.6,2.6,3.2,3.9,4.7
	c-1.2,1.1-1.7,0.3-2.4-0.2c-0.9-0.6-1.6-2.1-2.8-0.6c-0.9,1.2-0.5,2.2,0.9,2.7c1.1,0.4,1.8,1.1,1.1,2.2s-1.7,0.4-2.7,0.2
	c-1.5-0.2-2.4-2.9-4.3-1.3c-1.6,1.5,0.8,2.9,0.6,4.5c-0.5,0-1,0-1.5,0c-2-0.3-2.8-4.7-4.9-2.4c-1.8,1.9,2.2,2.6,2.8,4.5
	c0.5,1.4,3.2,2.5,1.2,4c-1.6,1.2-2-1.3-2.8-2.3c-2.2-2.8-3.8-1.7-4.9,1.1c-0.3,0.9-0.3,2.1-1.6,2.1c-0.7,0-1.3-0.5-1.4-1.2
	c-0.3-1.4-0.3-3.7-2.3-2.9c-1.8,0.7,0.3,2.6,0.2,4c0,0.3,0,0.6-0.1,1.6c-2.3-2.1-4.4-3.5-6.7-0.2c-1.3,1.8-2.1-0.6-3.1-1v-2
	c1.4-1.7,3.5-2.5,5.5-4.4c-4.6-1.4-4-5.6-5.6-8.6L-4,360.4L-4,360.4z"/>
<path class="st4" d="M-4,894.5h54.7c2.2,0,4.3,0.2,6.3-1c2-0.7,4.1-0.2,6.1-0.5c20.5-0.1,40.9-0.1,61.4,0c3.1,1.2,4.7-2.2,7.3-2.5
	c1.9,1.4,3.8,2.6,6.3,2.5c15-0.2,30.1,0.4,45.1-0.3c2.6-0.1,5.2,0.8,7.9,0.2c9.1,0.2,18.2,0,27.3,0.2c24.8,0.2,49.5-0.1,74.3-0.2
	c4.3,0,8.6,0,12.9,0.2c1.2-0.1,2.3-0.1,3.5,0c2.3,0.5,4.6-0.3,6.2-2c0.9-1,2.3-3,3.6-0.3l-3.3,3.7h6.2c2.2-1.4,4.7-1.5,7.2-1.5
	c9.4,0,18.9-0.2,28.3,0c10.8,0.2,21.4-0.8,32.1-1.9c1.6-0.3,3.3-0.2,4.9,0.3c10.3,0,20.5,1.2,30.7,2.1c19.5,1.8,39.1,0.6,58.6,0.9
	c1.5-2,3.8-1.9,5.9-1.9c57.9,0.8,115.8,0,173.7,0.4c13.8,0.1,27.6,0.2,41.4-0.1c63.8-0.1,127.6-0.1,191.4,0
	c16.5,0.6,32.9-0.1,49.4,0c26.6,0.1,53.2,0,79.8,0c7.8,0,15.6,0.1,23.4-0.2c15.7,0.9,31.5,0.8,47.2-0.1c13.4-0.8,26.7-2.3,40.1-3.5
	c2.1-0.2,4.3-0.5,6.4-0.9c2.3-0.5,3.5-1.7,3.1-4.2c-0.2-1.7-0.2-3.3-0.2-5c0-63.6,0-127.1,0-190.7c0-2.8-0.1-5.7,0.2-8.5
	c-0.2-1.5,0-3.1-0.1-4.7c-0.1-9.2,0-18.5,0.1-27.8c-0.1-1.5-0.1-2.9,0-4.4c0-2.1-0.1-4.1,0-6.2c0-1.8-0.1-3.6,0-5.4
	c-0.3-12.2-0.1-24.5-0.1-36.7c0.3-1.5-0.1-3.1,0-4.6c-0.2-6.5,0.1-13,0.1-19.5c-0.1-1.7,0.4-3.3,1.4-4.7l-0.1-4.6
	c-1.8-2.1-1.3-4.6-1.4-7c-0.1-4.9,0.3-9.8-0.9-14.6c0.8-3.3,1.1-6.6,1-10c-0.1-4-0.2-7.9,0-11.9c0.3-5.5-3.8-3.9-6.7-4.2
	c-2.7-0.3-5.7,0.8-7.9-1.9c1.6-2.5,4.1-2.1,6.3-2.2c8.1-0.3,8.1-0.3,8.1-8.5c0-32.2,0-64.4,0-96.7c-0.1-1.8,0-3.7,0.1-5.5
	c-0.1-1.6-0.1-3.1,0-4.7c-0.2-7.1-0.2-14.2,0-21.3c0.1-1.9-0.2-3.8,1.3-5.3c0-1.8,0.1-3.7,0.1-5.5c0-118.5,0-236.9,0-355.4
	c0-2.3,0.3-4.7-1-6.8c0.6,0.4,2.1-1,2,1c-0.1,1.2,0,2.3,0,3.5c0,295.5,0,591,0.1,886.6c0,3.7-0.8,4.6-4.6,4.6
	C762.4,895.1,381.5,895,0.6,895C-1,895.5-2.9,896.6-4,894.5z"/>
<path class="st5" d="M61.7,894.4c-1.6-0.1-3.4,0.7-4.7-0.9c-2.1-17.9-4.2-35.9-6.4-53.8c-2-15.5-3.8-31-6.5-46.3
	c-4.3-24.3-21.1-40.9-45.2-45.8c-1-0.2-1.9-0.5-2.8-0.9v-4c14,1.8,26.9,8.3,36.8,18.3c1.7,0,2.2,1.5,3.2,2.4s1.8,1.8,2.6,2.8
	c9.3,12.5,11.9,27.1,13.8,42c3.2,26,6.5,52,9.8,78C62.5,889,63.8,891.9,61.7,894.4z"/>
<path class="st6" d="M-4,330.5c10.6,5.3,19.8,12.6,28.7,20.3c7.4,6.4,14.2,13.6,20.1,21.4c-16.1-6.4-32.5-11.3-48.8-16.8
	C-4,355.4-4,330.5-4,330.5z"/>
<path class="st7" d="M-4,421.3c1.2,1.3,2.5,2.5,2.5,4.5c0.1,0.8,0.5,1.5,1.1,2c4.2,2.6,4.3,2.6-0.1,5.1c-1.2,0.6-2.4,1-3.6,1.4
	L-4,421.3L-4,421.3z"/>
<path class="st8" d="M753.1,437.3c-1.6,0.6-3,2.2-5,1c-1,1.8-2.9,1.5-4.5,1.9c-5.6-0.1-10.7-2.5-15.9-4.2
	c-17.2-5.4-34.4-10.6-51.4-16.3c-7-2.4-7.6-3.1-7.6-10.3c0-12.7,0-25.3,0-37.9c0-2-0.1-4,0.8-5.9c1.9-1.6,2.8-4,2.3-6.5
	c-0.3-1.9-0.2-3.9,0.3-5.8c0.4-1.6,1-3.4,3.3-1.6c0.9,2.8-0.9,6,1,8.6c10.6,3.9,21.5,6.6,32.3,9.9c10.3,3.1,20.6,6.2,30.9,9.4
	c3.3,1.1,6.9,1,10.1-0.4c7.5-3.1,15.1-6,22.5-9.2c6.7-2.2,13-5.1,19.5-7.6c14.7-5.8,29.3-11.7,44-17.5c1.4-0.5,2.7-1.1,4-1.9
	c1.6-1,2.3-3.1,1.6-4.8c-1-2.4-2.9-0.7-4.2-0.1c-17.1,7.4-34.3,14.5-51.5,21.6c-5.2,2.4-10.7,4-15.7,6.8c-6.3,2.5-12.8,4.8-19,7.5
	c-3.8,1.7-8.2,1.8-12.1,0.4c-16.8-5.4-33.5-10.8-50.4-15.9c-1.4-0.5-2.9-0.9-3.6-2.4c0.9-1.8,2.5-2.9,4-4.2c5,0.4,9.7,2.3,14.4,3.8
	c12.5,3.9,25,7.9,37.6,11.8c2.7,1,5.6,0.9,8.2-0.1c27.6-11.5,55.3-22.9,82.8-34.7c0.4-0.2,1-0.1,1-0.9c-20.2-6-40.6-11.4-60.9-16.9
	c-2.4-0.6-5-0.3-7.3,0.8c-6.6,2.7-13.3,5.3-19.9,8c-1.8,0.7-3.7,1.6-5.7,1.5c-1.8-0.5-2.1-2.3-3-3.6c10.1-4.1,20.2-8.2,30.2-12.4
	c1.2-0.5,2.6-0.7,3.9-0.3l75.8,20.7c1.3,2-0.1,4.5,1,6.5c-0.6,3.4-0.6,7,0,10.4c4.5,1.1,9.1,0.2,13.7,0.5c1.8,0.1,3.6-0.4,5.3,0.4
	l8.3,0.9c-2.1,2.2-4.9,1.4-7.4,1.5c-3.7,0.2-7.5,0.1-11.2-0.1c-3.3-0.3,1.1,1.6-0.5,1.8c-6.7,2.8-6.7,2.8-6.7,10.8
	c0,10.1,0,20.3,0,30.4c0,5.1-2.1,8.6-6.9,10.4c-27.2,10.4-53.8,21.9-81.1,31.8c-1.1,0.4-2.3,0.8-3.5,1.1
	C755.7,436.6,754.3,436.5,753.1,437.3z"/>
<path class="st9" d="M688.2,352.6c1.9,4-1.5,2.5-3,2.9c-4.1,1.4-7.3,0.2-9.9-3.1c-1.8-1.3-1.9,0.1-2,1.3c-0.1,2.7-0.4,5.4,0.1,8
	c0.5,2.9-0.9,3.5-3.1,3.8c-2.3-2.5-1.5-5.7-1.6-8.6c0-3.4-1.4-4.9-4.8-4.8c-9,0.2-17.9-0.2-26.9,0.6c-12.9,1.1-25.9,0.5-38.9,1.2
	c-23.4,1.2-46.8,2-70.2,3c-21.1,0.9-42.1,2.1-63.2,3.4c-19.7,1.2-39.4,2.8-59.1,4.5c-24.8,2.1-49.7,4.2-74.5,7.1
	c-2.2,0.3-4.4-0.2-6.3-1.2c-2.6,1.6,0.3,3.5-0.3,5.2c-2.4,0.7-3.9-0.2-4.9-2.3l-8.2-5.1h0.1c2-0.9,4.2,0.3,6.1-0.8
	c15.1-2.5,30.4-3.5,45.6-5c35.9-3.7,71.9-6.4,107.9-8.6c27.9-1.7,55.8-3.1,83.7-4.3c36.6-1.6,73.2-2.8,109.8-3.3
	c6.6-0.2,13.1-1.6,19.2-4.2c17.3-7.1,34.8-13.7,52.3-20.5c2.1,0.1,2.9,1.1,2,3.1c-0.5,2.6-3,2.8-4.9,3.6
	c-17.4,6.9-34.6,14.1-52.2,20.6C683.7,349.9,686.9,349.3,688.2,352.6z"/>
<path class="st10" d="M855,351.4c-1.4-1.9-4-0.1-6.6-3.1h25.9c23.4,0,46.8,1.3,70.2,2.6c28,1.5,56,3.5,84,5.5
	c31.5,2.3,62.9,5.1,94.3,8.7c7.9,0.9,15.8,1.7,23.8,2.6l0.1,4.5c-1.7,1.8-3.7,1.1-5.6,0.9c-17.5-1.9-34.9-4.1-52.5-5.6
	c-13.7-1.2-27.4-2.8-41.1-3.5c-1.4-0.2-2.9-0.1-4.3-0.5c-2.9-1.1-6-0.5-9-0.7c-1.1,0-2.2-0.2-3.3-0.4c-3.2-1.1-6.5-0.4-9.7-0.6
	c-1.1,0-2.2-0.2-3.3-0.4c-3.2-1-6.5-0.5-9.8-0.5c-1.4,0-2.8-0.2-4.2-0.4c-3.5-1.1-7.2-0.4-10.8-0.5c-1.4,0-2.8-0.2-4.2-0.4
	c-3.6-1.1-7.3-0.5-10.9-0.5c-1.7,0-3.5-0.2-5.2-0.5c-4-1.2-8.1-0.4-12.2-0.6c-7.4-1.8-15.1-0.5-22.6-1.3c-5.1-1.4-10.3-0.4-15.4-0.6
	c-17.9-1.3-35.8-1.6-53.7-2C864.3,353.8,859.4,354,855,351.4z"/>
<path class="st11" d="M866,347.4c-6.3-0.2-12.8,1-19-1C853.3,347,859.8,345.3,866,347.4z"/>
<path class="st11" d="M847,336c-0.3-2.2-0.7-4.4-1-6.5C848,331.4,846.7,333.8,847,336z"/>
<path class="st1" d="M317.6,367.5c-1.9,1.7-4.1,0.7-6.1,0.8C313.4,367.3,315.5,367.4,317.6,367.5z"/>
<path class="st12" d="M61.7,894.4c-3.6-28.3-7.3-56.7-10.7-85.1c-1.8-15.5-4.7-30.5-14.1-43.5c0.5-1.7-0.9-1.8-2-2.2
	c-1.3-0.4-1.5-1.7-2.1-2.7c0.6-0.8,1.8-1.9,1.7-2.3c-2.9-5.4,3.2-3.3,4.3-5.3c2.4,1.7,5.5,2.4,8.4,1.8c0.3,0,0.9,1.8,1.7,3.5
	c2.5-6.3,10.4-6.1,12.2-12.7c0.6-2.2,2-0.5,3,0.2c2.9,2,6.8,1.2,8.8-1.7c0.7-1,1.1-2.2,1.1-3.4c0.2-3.7-0.7-7.3-2.6-10.4
	c-0.9-1.5-1.4-2.5,0-3.9c1.8-1.7,2.8-0.1,3.7,0.8c1.6,1.7,4.9,1.5,5.2,4.8c0.1,1,0.7,1,2.6-1.8c2.2,1.4,2.9,3.8,3.7,6
	c-3.5,4.6-2.6,8.2,2,11.8c2.3,1.8,2.6,5.3,4.2,7.1c-1.2-1.9-2.3-3.8-3.1-5.9c-0.6-1.8-0.7-3.3,2-3c2.6,2,3.8,5,5.2,7.8
	c10.4,21,21.9,41.4,34.4,61.2c3.7,5.8,3.3,12.1,2.7,18.3c-1.6,18.3-4.6,36.5-5.8,54.9c0,2-0.7,4-2,5.5L61.7,894.4z"/>
<path class="st5" d="M85.9,737.2c-1.4-1.9-2.4-4.1-3.1-6.3c-0.2-2.3-1.7-4.1-2.5-6.2c-0.6-1.5-1.7-3.3,0.4-4.2s2.5,1.2,3.3,2.5
	c0.3,0.4,0.6,0.7,0.9,1.1c3.1,3.8,4.5,8.3,6.1,12.8c-0.1,0.8,0.3,1.6,1,2c1.4,1.8,2.9,3.6,3,6c-0.1,0.8,0.3,1.5,1,1.9
	c10.3,21.6,22.1,42.3,34.4,62.7c9.9,16.5,20,32.9,31.3,48.5c1.8,0.5,2.5,2.1,3.4,3.4c7.2,9.9,14.2,20.1,23.2,28.6
	c1.2,1.2,3.1,2.2,2.3,4.5c-2.3,0-4.7,0.6-6.8-0.9c-3.8-1.4-6-4.6-8.4-7.5c-4.8-5.7-9.2-11.7-13.4-17.8c-1.6-2.6-4.3-4.2-7.3-4.5
	c-4.9-0.6-9.8-1.8-14.6-2.8c-3.3-0.7-4.9,0.3-5.3,3.8c-1,7.4-1.5,14.8-2.5,22.2c-0.2,1.3-0.2,2.7-1.3,3.7c-0.1,3.1-1.4,4.8-4.8,3.9
	c2-19.3,3.9-38.6,6.2-57.9c1.1-9.2,0.1-17.1-5.3-25.3c-12.6-18.9-22.9-39.2-33.3-59.3c-0.9-1.8-2-3.4-2.9-5.2
	C87.3,744.5,86.8,740.8,85.9,737.2z"/>
<path class="st13" d="M80,622.2c1-1.6,0.9-3.5,0.8-5.3c-0.4-0.6-0.6-1.2,0.2-1.7c1-1.3,0.9-2.8,0.8-4.3c-0.4-0.6-0.6-1.2,0.2-1.7
	c3.8-16.4,6.9-33,11.9-49.1c8.5-27.5,18.7-54.1,35.7-77.7c5.1-7,10.7-13.5,17-19.5c0.9-0.9,1.9-2.2,3.4-1.3s1.1,2.2,0.8,3.5
	C136,478,125.5,494,117.2,511.5c-17.8,37.1-28,76.4-33.3,117.1c-1.6,12-2.6,24.1-3,36.2c-0.1,2.5-0.2,5.2-3.9,3
	c0-3.7-0.1-7.3-0.1-11c-0.6-1.6-0.9-3.2,0.2-4.7c1-3.4,0.8-6.8,0.8-10.3c-0.5-0.9-0.8-1.9,0.2-2.7c1-2,0.8-4.2,0.7-6.3
	c-0.4-1-0.7-1.9,0.2-2.8c1-2,0.9-4.1,0.8-6.2C79.4,623.3,79.3,622.7,80,622.2z"/>
<path class="st12" d="M228.7,565.1c2.2,4.8,3.9,9.7,5.1,14.9l-0.4,0.3C229.8,575.9,228.5,570.7,228.7,565.1z"/>
<path class="st12" d="M90.9,736.8c-2.6-4-4.6-8.3-6.1-12.8l0.5-1.3C88.1,727.1,90.9,731.4,90.9,736.8z"/>
<path class="st12" d="M242.7,606c2.2,4.8,3.9,9.8,5.1,14.9C243.7,616.8,242.4,611.7,242.7,606z"/>
<path class="st12" d="M94.9,744.8c-1.4-1.8-2.4-3.8-3-6C94.5,740,96.7,741.4,94.9,744.8z"/>
<path class="st12" d="M253.7,638c1.3,1.7,2,3.8,2.1,5.9C253.7,642.4,251.7,640.9,253.7,638z"/>
<path class="st7" d="M166.7,459.2c2.8,0.1,4.3,0.8,3.8,3.7C168.3,462.3,167.9,460.5,166.7,459.2z"/>
<path class="st12" d="M251.7,632c0.9,1.1,1.3,2.4,1.1,3.8c-0.3,0.5-1.3,0.8-1.3,0.7C252.2,635,248.4,633.3,251.7,632z"/>
<path class="st12" d="M230.6,596.5c-0.6,0.5-1.1,1-1.6,1.1c-0.9,0.2-1.1-0.6-0.8-1.2c0.4-0.5,0.9-0.8,1.4-1
	C229.9,595.4,230.2,596,230.6,596.5z"/>
<path class="st12" d="M238.6,594c0.8,1.1,1.3,2.4,1.2,3.8C237.4,597.2,237.3,595.8,238.6,594z"/>
<path class="st12" d="M236.6,588c0.8,1.1,1.3,2.4,1.2,3.8C235.5,591.2,235.3,589.9,236.6,588z"/>
<path class="st12" d="M234.6,582.1c0.8,1.1,1.2,2.4,1.2,3.8C233.5,585.2,233.3,583.9,234.6,582.1z"/>
<path class="st3" d="M77.1,652.2l-0.2,4.7C75,653,76.2,649,76.7,645L77.1,652.2z"/>
<path class="st3" d="M73.8,637.5c-0.9-0.4-1.5-1.3-1.5-2.3c-0.1-1,0.8-1.2,1.7-1.2s1.7,0.3,1.5,1.4
	C75.3,636.3,75.1,637.3,73.8,637.5z"/>
<path class="st3" d="M65.2,657.8c0-0.9,0.2-1.5,1-1.6c1.3-0.2,1.6,0.7,1.8,1.8c0.2,0.9-0.1,1.1-1,1S65.4,658.6,65.2,657.8z"/>
<path class="st3" d="M78.1,639.3l-0.2,2.7c-1.6-2.2-0.8-4.6-0.2-7L78.1,639.3z"/>
<path class="st3" d="M79,630.2l-0.2,2.8c-1.7-2.2-0.5-4.6-0.1-7L79,630.2z"/>
<path class="st3" d="M80,622.2l-0.2,1.8c-1.4-1.6-1.1-3.3-0.2-6C79.8,620,79.9,621.1,80,622.2z"/>
<path class="st3" d="M2.1,609.6c0.1-0.6,0.3-1.2,0.9-0.8c0.4,0.3,0.6,0.6,0.7,1.1c0.1,0.3-0.1,0.6-0.4,0.7c-0.2,0-0.3,0-0.4-0.1
	C2.4,610.4,2.3,609.9,2.1,609.6z"/>
<path class="st3" d="M82,609.3l-0.2,1.7c-1.3-1.1-0.8-2.5-0.2-4L82,609.3z"/>
<path class="st3" d="M81,615.3l-0.2,1.7c-1.2-1.1-1-2.5-0.4-4.7C80.7,613.8,80.9,614.5,81,615.3z"/>
<path class="st14" d="M89.9,241.7c0-0.2,0-0.3-0.1-0.5c-0.2-0.4-0.6-1.1-0.8-0.3c-2.3,5.8-4.3,11.7-6.7,17.4c-1,2.3-1.2,5.1-4.2,7.8
	l1.3-7.5c-1.1-0.9-1.9,1.5-2.9,0.4c-0.8-0.8,0.1-1.5,0.6-2.1c1.1-1.6,2.1-3.1-0.3-4.5c-0.4-0.3-0.8-1.4-0.7-1.6
	c2.8-3.3,3.5-6.3,0.3-10c-0.7-0.9,2.1-1.4,3-1c2.2,0.8,4.6,0.7,6.7-0.5c1.9-0.9,1.8-2.2,0.7-4.1c-2.3-4.2-8.8-5.3-8.4-11.5
	c-2.1,0.1-3.9-1.2-4.6-3.1c0.1-12.5,1.9-24.7,6.9-36.3c0.8-1.8,1.3-3.9,4.1-3.1c3.4,1,4.7-1,5.6-3.9c2.4-7.9,4.2-16,7.4-23.6
	c0.5-0.1,1,0.1,1.3,0.5c1.3,3.1,1.9,6.6,4.8,8.9c-6.1,20.2-4.5,41.6-9.2,62C93.6,230.7,92.4,236.4,89.9,241.7z"/>
<path class="st15" d="M70.9,154.8c4.1-1.2,7.7-3.8,10.2-7.2c1.5-2,3.8-3.2,6.6-1.9s3.4,4,3,6.7c-0.9,6.1-3.1,11.9-6.4,17.1
	C75,184.4,70,201.5,69.8,219c-0.1,2-0.5,4-1.2,5.8c-0.6,1.9-1.7,3.9-4.1,3.7s-3.3-1.9-3.9-4c-1.2-4.2-0.7-8.6-1.1-12.9
	c-0.1-1.1-0.1-2.6-1.7-2.6s-1.1,1.8-1.5,2.8c-8.5-9.9-7.4-34.9,3.7-47.1c3.1,0.1,6,0.4,7.4,3.8c0.3,4.9-3.2,8.7-3.6,13.4
	c2.6-7.6,7.4-14.3,9.1-22.3C72.4,158,69.3,157.4,70.9,154.8z"/>
<path class="st15" d="M40,228.6l-3.2,0.6l-0.8-1l10.4-8.9l-1-1c-3.4,1.9-5.5,5.6-9.9,6.5l9.4-10c-3.1,0.2-4.4,4.7-8.1,2.6l10.5-16.7
	c2.2,6.4,3.4,12.9,8.4,17.5c0.8,0.7,0.2,2.8,0.2,4.3c-1.9,2.2-4.1,4.3-5.5,6.8s-4,0.3-5.2,2.3c-1.2-1.5,1.2-2.2,0.1-3.5
	c-1.8-0.2-2,1.8-3.3,2.5C38.5,232.5,40,229.9,40,228.6c2.1-1.3,3.6-3.3,5.4-4.9C43.6,225.3,42,227.3,40,228.6z"/>
<path class="st16" d="M104.1,163.1c-4.6-1.5-4.9-5.7-6-9.4c0.7-3.3,2-6.4,3.8-9.2c4.3-1.5,5.4-0.6,6,5.2
	C107.2,154.4,105.9,158.9,104.1,163.1z"/>
<path class="st6" d="M107.8,149.7c-1.4-2.4-1.8-6-6-5.2l7.3-19.2C110.1,133.7,110.4,141.8,107.8,149.7z"/>
<path class="st17" d="M108,165.7c4.7,6.7,3.3,12.8-1.7,18.6c-2.4,2.8-0.8,6.3-2.2,9.4l-0.4-6.3C103.9,180,105.3,172.6,108,165.7z"/>
<path class="st18" d="M67,169c-1.2-3.1-5.2-1.7-6.9-4.2c3.1-3.9,6.1-7.8,10.8-10c-0.3,2.9,3,2.4,3.9,4.1c-2.1,1.5-3.1,3.7-4.2,5.9
	C69.8,166.5,69.5,168.7,67,169z"/>
<path class="st12" d="M1146.7,566l0.1,24c-9.5,0.7-17.4,6-25.8,9.6c-7.9,3.4-15.7,7.1-23.5,10.8c-1.3,0.6-3.1,1.1-3.1,2.8
	s1.9,2.1,3.2,2.7c14.6,6,29.4,11.4,43.9,17.4c2,0.8,4.1,1.4,5.2,3.5v6.3c-2.1,1.3-3.9-0.1-5.7-0.8c-18.7-7.1-37.5-13.7-56.1-21
	c-4.4-2-9.5-1.8-13.8,0.4c-14.5,7-29.1,14-44.1,19.9c-16.5,6.6-32.6,14.3-49.1,21c-1.9,0.8-4.9,1.1-5,3.5s2.9,2.8,4.8,3.6
	c31,13.3,62,26.7,92.9,40.3c2.2,1.1,4.9,1.1,7.1,0c14.6-7.2,29.7-13.5,44-21.3c7-3.9,15-4.9,21.6-9.3c1-0.7,2.2-0.9,3.3-0.3
	c0,66.3,0,132.7,0,199c0,2.3-0.1,4.7-0.2,7c-4.3,3.5-9.6,2.5-14.3,2.9c-25.6,2.4-51.2,5.4-76.9,6.2c-2.1,0.1-4.3,0.5-6.4-0.4
	c-2.9,0.7-5.9,1.1-8.8,1c-48,0-96,0-144.1,0c0.3-3,2.7-2.9,4.7-3.2c2.8-0.3,5.7-0.1,8.5-0.1c6.3-0.1,12.5,0.3,18.8-1.7
	c6.8-2.2,13.8,0.3,20.8-0.2c4.4-0.3,8.9-0.5,13.5-1c-0.8-1.8-2.4-2-3.7-2.6c-1.9-0.9-2.9-2.3-2.3-4.4c0.4-1.7,2-2.9,3.8-2.6
	c2.7,0.3,5.5-0.6,7.9-0.1c3.7,0.7,5.5-0.6,7.7-3.3c4.5-5.5,7.4-5.8,15.9-2.3c6.3,2.5,6.7,2.3,6.6-4.4c-0.1-2.6,0.7-4.2,3.5-4.4
	c-4.5,1-8-1.7-11.7-3.3c-2.2-0.9-2.2-3.1-1.2-5.2c0.8-1.8,1.9-3.4,1.1-5.8c-0.5,5.6-4.1,6.2-8.5,6c-3.8-0.2-7.7,0.3-11.4-1
	s-4-2.5-1.3-4.9c1.7-1.5,1.8-3,1.3-4.9c-1.2-0.5-1.9,0.4-2.4,1.1c-2,2.8-4,3.7-7,1.2c-1.6-1.4-4.1-1.3-5.5,0.3
	c-0.1,0.1-0.2,0.2-0.3,0.4c-3.6,4.4-4,4.5-8.2,1c-0.4,1.1-0.9,2.1-1.5,3.1c-1.5,2.2-2.7,2.7-4.3-0.1c-3-5.3-6.8-6.8-12.8-5.8
	c-0.7,0.1-1.3,0.1-2,0c-8.8-1.2-16.8,1.4-24.8,4.5c-0.9,0.5-2,0.4-2.8-0.2c-4.4-3.7-9.2-1.2-13.9-1.1c-0.5,0-1.2,0.1-1.4,0.4
	c-3.9,8.3-8.6,0.5-12.8,0.4c-1.8,0-4.1-2-5.6-3.8c0.8-2.3,2.8-1.8,4.5-1.7c1.5,0.3,2.5,1.8,4.1,1.5c-0.1-0.6-1.6,0.2-1.7-1
	c1-2.1,2.8-1.7,4.5-1.6c3.2,1.9,6.5-0.1,9.8,0.2c0,0-0.5-0.6-0.2-1c3.4-1.9,7.2-1.9,10.9-2c1.4,0.6,2.7,1.8,4.8,1.1
	c-1.3,0.2-2.4,0.6-2.8-0.8c1.1-2,2.9-1.7,4.7-1.5c3.3,1.2,6.7,0.3,10,0.5c0.1,0,0.3,0.2,0.3-0.1c-0.5,0-0.9-0.4-1.1-0.8
	c1-2.2,2.8-1.7,4.6-1.6c1.5,0.6,2.9,1.6,4.5,1.8c-0.3-0.7-1.9,0-2.1-1.2c1-2.1,2.9-1.7,4.6-1.5c1.5,0.4,2.7,1.7,4.2,1.6
	c-0.1-0.7-1.7,0.2-1.8-1c1.2-2.5,3.7-1.8,5.7-2.2c5-1,5.5-1.9,3-6.2c-6.1-10.1-12.3-20.2-18.5-30.2c-7.4-11.8-14.8-23.7-22.1-35.6
	c-2.5-4-5.3-5.1-9.9-4.5c-23.4,3-46.8,5.7-70.3,8.5c-0.3,0-0.7,0-1,0.1c-7.4,0.8-7.8,1.3-4.3,8.1c7.6,15,15.8,29.6,23.7,44.5
	c0.8,1.3,1.3,2.7,1.7,4.1c-0.8,4.7,1.8,7.7,5.3,10.2c2.3,2.9,4.7,5.7,4.9,9.7c-0.6,3-2.3,4.3-5.4,3.4c-4.6-1.3-8.5,2.9-13,1.6
	c-0.5,4-4,3.6-6.7,4.3c-4.8,1.2-5.8,0.6-7-4.1c-1-3.7-1.9-7.4-2.8-11.1c-0.4-2.3-1.5-4.4-3.1-6.1c-3.9-10.5-6.3-21.4-9.3-32.1
	c-2.4-8.3-4.6-16.7-7-25c-1.8-6.3-2.5-6.9-9.2-6.5c-11.9,0.9-23.9,1.2-35.8,2.1c-13.3,1.1-26.5,1.3-39.8,2.7c-5.8,0.6-6.3,1-5.2,6.8
	c3.9,20.3,8.3,40.4,11.9,60.7c0.5,1.9,0.7,3.9,0.7,5.9c-0.6,3.3-1.9,5.8-6,4.2c-1.4-0.7-3.1-0.2-3.9,1.2l0,0
	c-0.2,0.3-0.4,0.5-0.6,0.8c-5.2,5.7-11.5,9.7-19.2,6.7c-6.5-2.5-12,0-17.7,1.4c-3.2,0.8-5.9,1.1-9-0.6c-3.3-1.8-6.8-0.1-10.2,0.7
	c-1.5,0.3-1.8,1.6-1.5,3.2c1.1,4.9,3.6,9.2,4.5,14.1c0.2,1.2,1,2.2,2.2,2.5c3.4,0.9,5.8,2.3,5.4,6.4c-0.2,1.9,2,1.9,3.4,2.2
	c7.7,1.2,15.5,1.6,23.3,1.1c5.7-0.3,11.3-0.4,16.9,0.8c1.7,0.4,3.8,0.5,3.5,3.2H501.5c-6,0-12.1-1-18.2,0c-0.8-2.3-2.9-1.2-4.3-1.3
	c-20.9-1.7-41.8-3-62.7-4.8c-26.9-2.3-53.7-4.8-80.5-7.3c-1.5-0.1-2.9-0.5-4.3-0.8c-0.3-1.7,0.7-2.7,1.3-3.8
	c12-21.9,17.6-45.7,20.7-70.2c4.7-38,5.7-76.3,6-114.5c0-4.2,1-4.8,4.6-3.1c3.9,1.9,8.1,3.1,12,4.9s7.5,2.4,11.2,0
	c2.2,0.4,3.8,1.8,5.6,3c1.4,1.7,3.1,3,5.1,3.8c18.3,6.9,36.4,14.2,54.6,21.2c2.1,1,4.6,0.9,6.7-0.3c1.4-0.9,3-1.4,4.7-1.4
	c1.9,0.3,2,1.8,2.3,3.2c0.2,1.8,1.1,3.4,2.4,4.5c6.7,3.5,13.9,5.5,20.9,8.2c13,5.1,26.1,9.9,39.2,14.8c2.6,1.1,5.7,0.8,8-0.9
	c25.7-16.6,51.6-32.8,77.6-49c0.3-0.2,0.6-0.4,0.8-0.5c1.3-1,3.4-1.6,3.3-3.5s-2.3-2.1-3.8-2.7c-5.4-2.3-11-3.9-16.4-5.9
	c-2.6-1-5.5-1.5-7.4-3.9c-0.4-2.8-1.8-5.9,3.3-7.8c-5-0.8-6.8-4.3-9.1-7.2c-0.6-0.8-1.2-1.7-0.7-2.7c0.6-1.1,1.9-1.6,3-1.2
	c1.4,0.3,3,0.2,4.2,1.2c3.2,2.4,6.9,2.8,10.7,3.1c17.8,6.3,35.6,12.6,53.4,19c32.9,11.9,65.8,23.8,98.6,35.9c2.9,1.1,6.2,1,9-0.3
	C885.6,674,1007.9,623.5,1130.1,573C1135.6,570.6,1141.2,568.2,1146.7,566z"/>
<path class="st12" d="M324.9,370.5c19.4-1.8,38.7-3.8,58.1-5.4c27.8-2.3,55.7-4.6,83.5-6.6c46.1-3.2,92.3-4.9,138.5-6.6
	c20.5-0.7,40.9-1,61.4-1.6c2.9-0.1,3.7,0.9,3.6,3.6c-0.1,3.8,0.1,7.6,0.2,11.4c-0.1,15.9-0.1,31.9-0.3,47.8c-0.2,1.9,1,3.6,2.9,3.9
	c23.7,7.4,47.4,14.8,71.1,22.3c0.9,1.2-0.3,1.3-0.9,1.7l-82.9,24.6l-273.1,81c-0.9,0.3-1.9,0.8-2.4,0.5c1.7-18,3.2-35.7-5.9-53.4
	c7.7,2.1,14.8,3.3,21.2,5.9c9.3,3.8,17.5,3,26.4-1.6c11-5.7,22.7-10,34.1-15.1c2-0.9,5.2-1.1,4.8-4.1c-0.3-2.7-3.2-2.4-5.2-3
	c-25.6-6.9-51.2-13.8-76.8-20.7c-0.6-0.3-1.2-0.6-1.7-1c-0.6-1-0.6-2.1-0.1-3.1c-0.1-1.5,0.8-2.3,1.9-2.9c2-1.2,4,0.6,6.1,0
	c11.8,2.9,23.3,6.7,35,10.1c17.3,5,34.5,10.1,51.7,15.3c3.2,1,6.6,0.8,9.7-0.6c13.4-5.6,26.6-11.4,40-17c1.5-0.6,3.7-1,3.6-2.9
	s-2.4-1.9-4-2.4c-27-7.3-53.8-15.2-80.7-22.7c-4.5-1.4-9.3-1.2-13.6,0.6c-12.6,5.2-25.4,10-38.1,14.9c-1.8,0.7-3.6,1.7-5.8,1.2
	l-0.6-0.5c1.5-4.6,4.9-8.2,7.4-12.2c2.3-3.6,1.9-6.5-1.7-8.9c-0.5-0.4-1-0.8-1.6-1.2c-2.6-2-6.3-3.5-7.6-6.1
	c-1.5-2.9,2.1-5.9,3.1-8.9c1.5-4.6-0.2-7.1-4.4-9c-17.6-8-35.1-16.3-52.6-24.5C327.6,372.7,325.6,372.5,324.9,370.5z"/>
<path class="st12" d="M1144.7,539.2c1.5,1.1,2.2,2.9,2,4.7c-0.2,5.8-0.1,11.6-0.2,17.4c-70.9,29.3-141.9,58.7-212.8,88
	c-56.8,23.5-113.7,46.9-170.5,70.4c-3,1.3-6.4,1.3-9.3,0C645.4,680.4,536.8,641.2,428.3,602c-18.6-6.7-37.2-13.3-55.7-19.9
	c-5.6-2-5.6-2-2.8-7.5c3-5.7,6.3-11.3,8.9-17.3c1.5-3.4,3.8-5,7.2-6c58.9-17.3,117.7-34.7,176.5-52.2
	c96.6-28.7,193.4-57.1,289.7-86.7c1.4-0.4,2.7-1.1,4.1-1.6c2-2.6,4.7-3.1,7.5-2.3c7.7,2.1,15.3,4.5,23,6.9c1.4,0.4,3.2,0.8,3.3,2.6
	c0.1,1.5-1.4,2.2-2.6,2.8c-3.5,1.7-6.1,4.6-8.7,7.4c-2.5,2.6-5.2,3.6-8.5,1.9c-9-4.6-17.6-3.1-27-0.3
	c-58.3,17.6-116.7,34.8-175.1,52.3c-56,16.8-111.9,33.6-167.8,50.4c-30.3,9.1-60.5,18.5-90.9,27.2c-2,0.6-5.3,0.5-5.4,2.7
	c-0.1,2.7,3.3,2.8,5.3,3.6c18.3,6.6,36.7,13,55,19.5c43,15.3,85.9,30.6,128.9,45.9c27.1,9.6,54.2,19.3,81.4,28.9
	c25.6,9,51.2,18,76.7,27.3c5.7,2.3,12,2.3,17.7-0.2c67.1-26.8,134.3-53.5,201.5-79.9c54-21.3,107.9-43.1,161.8-64.7
	C1136.1,541,1139.8,537.7,1144.7,539.2z"/>
<path class="st19" d="M1144.7,539.2c-30.2,12-60.3,24.1-90.5,36.2c-96.6,38.4-193.3,76.7-289.9,115c-2.6,1.1-5.4,1.1-8,0
	c-90-32-180-64-270-95.9c-26.3-9.3-52.6-18.5-78.8-27.8c-2.5-0.9-6.6-1-6.5-4.4c0.1-3.2,4-2.8,6.4-3.5
	c130.7-39.2,261.5-78.4,392.2-117.5c15.1-4.5,30.4-8.4,45.2-13.7c8.4-3.2,17.7-2.9,25.8,1c2.7,1.2,4.5,1,6.5-1.2
	c3.5-3.9,6.8-8.1,12.3-9.9c-8.5-2.5-17.1-4.9-25.6-7.7c-3-1-5.1,1.1-7.7,0.9c0.6-1.5,0-2.5-1.2-3.4c0.7-2,2.5-2.2,4.2-2.4
	c2-0.1,4,0,6,0.2c11.9,3.6,23.9,7,36.1,9.8c7.2,1.6,14.5,1.6,21.8,2.4c20.8,2.1,41.7,3.8,62.7,4.5c4.7,0.2,9.3,0.6,12-4.8
	c1-2,3.7-2,5.8-2.4c8.9-1.3,17.9-1.6,26.8-2.4c5.1-0.4,9-1.6,11.2-6.5c3.4-2.8,7.7-2.5,11.7-3.4c0.5-0.2,1-0.3,1.6-0.3
	c2.6-0.3,5.2,0.1,7.7-0.7c1-0.2,2-0.4,3.1-0.4c2,0.1,4-0.1,6-0.6c1-0.2,2-0.4,3-0.4c2,0.1,4-0.1,6-0.6c1-0.2,2-0.4,3.1-0.4
	c2.1,0.1,4.2-0.1,6.2-0.7c1.1-0.2,2.2-0.4,3.4-0.5c15.1-1.3,30.1-3,45.2-4.6c2.8-0.3,5.6-1,8.1,1.1c0,1.2-0.1,2.4-0.1,3.6
	c-1.3,1.9-3.5,1.8-5.4,2c-21.6,2.8-43.3,4.5-65,6.8c-8.6,0.9-17.2,1.8-25.8,2.9c-3.9,0.5-4.7,2.2-3.5,5.7c7.1,20.3,9.2,41.5,10,62.8
	c0.3,9-0.6,18.2-1.6,27.3c-0.8,6.9-0.6,6.9,6.3,7.1c20.4,0.7,40.9-1,61.3-1.1c5.8,0,11.4,2.3,17.3,0.7c0.8,0.2,1.6,0.3,2.3,0.3
	c3.5-0.6,4.8,0.7,3.9,4.2c-0.3,0.5-0.7,1-1.2,1.3c-3.2,1-6.5,0.3-9.8,0.7c-5.1,0-10.3,0-15.4,0c-1.5,0-2.9-0.2-4.4-0.4
	c-0.4-0.1-0.7-0.1-1.1,0c9.7,2.6,19.1,6.2,28.6,9.2c1.4,0.4,2.7,1.4,3.4,2.7C1146,533.2,1148.5,536.9,1144.7,539.2z"/>
<path class="st12" d="M268.6,550.3c5.5,1.9,6.5,5.8,6,11.3c-0.8,8.9,1.6,17.5,4.6,25.8c0.6,1.7,1.3,3.4,1.8,5.2
	c2.1,7,0.6,10.8-5.8,14c-6.7,3.3-11.6,8.1-13.7,15.5c-1.1,3.8-2.8,7.4-4.6,12.1c-4-11.5-7.7-22.1-11.4-32.8
	c-11.2-32.4-22.3-64.9-33.9-97.2c-12.6-35.4-34.4-62.5-67.3-80.7c-10.7-5.9-21-12.4-31.6-18.8c12.9-5.3,136.7-26.4,163-27.8
	c1.1,4-1.1,5.1-4.6,5.3c-8.6,0.5-17.3,1.3-25.9,1.9c-4.6,0.3-6.4,3-6.2,7.3c2.3,36,4.5,72,6.9,108.1c0.1,1,0.3,2,0.6,2.9
	c1.4,4.2,3.8,8,4.8,12.4c0.7,2.9,2.5,5.5,4.9,7.3c2.1,1.7,3.4,3.7,2,6.4c-3.3,7-1,12.4,4.7,17C265.1,546.8,267.4,547.9,268.6,550.3z
	"/>
<path class="st12" d="M300.7,450.4c5.6-0.5,8.8,2.6,10.9,7.2c4.3,9.2,5,19.2,6,29.1c1.2,12.5,5.7,23.8,12.7,34.1
	c0.7,1,1.4,1.8,2.3,2.6c0.6,0.8,1.7,0.9,2.4,0.3c0.1-0.1,0.1-0.1,0.2-0.2c0.7-0.6,0.9-1.6,0.3-2.3c-0.1-0.1-0.2-0.2-0.3-0.3
	c-4.8-4.1-1.2-4.6,2.2-5.6c3.5-1,6.9-2.4,10.3-3.8c1.3-0.5,3-1.5,1.9-3.4c-0.9-1.6-2.3-0.5-3.5-0.2s-2.3,1.6-3.9,0.6l23.3-34.8
	c6.9,13.1,13.1,26,16.3,40.1c0.6,2.9,0.5,6-0.1,8.9c-0.6,2.7-0.5,5.6,0.3,8.2c1.8,5.8-0.5,11.1-2.8,16.3
	c-6.8,15.1-15.3,29.4-22.8,44.2c-4.5,8.8-9.1,17.6-12,27.6c-17-14.4-34.8-25.3-58.6-17.3c1.2-8.9-3.1-16.6-5.1-24.7
	c-2.8-11.1-1.6-22.1,0.4-33.1c-0.5-5.7,2.1-10.7,3.9-15.8c4-10.7,7-21.4,6.7-33c-0.1-4.9,1.5-9.8,0.4-14.8
	c0.6-5.5-0.9-11.1,0.7-16.5c2-1,4.8,0.4,6.5-1.8s4.3-3.4,5.1-6C305.1,453.3,300.3,453.3,300.7,450.4z"/>
<path class="st2" d="M353.5,751.8c-2-4.4-0.3-9.2-1-13.7c-0.2-1.2,1.3-3.4-1.3-3.3c-1.5,0-2.7,1.2-2.6,2.7c0,0.3,0.1,0.6,0.2,0.9
	c1,3.1-3.3,5.7-0.8,8.8c0.1,0.1-0.4,0.9-0.8,1.1c-0.5,0.2-1.1,0.1-1.3-0.4c-0.1-0.1-0.1-0.3-0.1-0.4c-0.3-2.8-0.9-5.6-0.6-8.3
	c0.4-3.4-2-6.8-5.1-5.7c-2.1,0.8-2.6-0.3-4-1c-2.6-1.3-5.5-5.1-8.8-0.5c-1.5,2-2.6-0.2-3.3-1.3c-3-4.7-6.9-1.3-10.3-0.9
	c-1.3,0.2-1,2.1-0.2,3.4c0.9,1.5,1.6,3.3,2.5,4.8c2.2,4.2,1.8,4.9-3.2,5c3.7,4,7,8.4,9.8,13c2.1,3.3,4.4,6.6,6.8,9.6
	c1.6,2-1.2,3.4-1.6,5.2c-2.2-0.5-2.4-2.6-3.1-4.2c-4.3-8.8-9.4-17-16.6-24.4c-0.3,2.8,3.1,3.9,1.6,6.4c-2.4,1.6-2-1.1-2.7-1.9
	c-1.3-1.5-2.2-1.5-3.3,0.1c-16.9-33.4-31.4-68-43.5-103.4c-0.4-1.2-1.1-2.8-0.7-3.8c2.7-7.6,5.6-15.2,8.6-22.8
	c0.6-1,1.4-1.9,2.4-2.5c16.5-11.5,33.7-15.1,52.3-5.1c10.3,5.6,19.3,13.2,26.4,22.4c5.1,6.2,7.7,14,7.2,22
	c-1.1,29.2-1.5,58.5-2.2,87.8C354.3,744.8,353.8,748.3,353.5,751.8z"/>
<path class="st12" d="M1074.8,401.2l-2.6,0.2c-2,0.9-4.3-0.2-6.4,0.8l-2.6,0.2c-2.7,1.1-5.7-0.4-8.4,0.9l-0.3,0.3l-0.4-0.2
	c-3.8,0.9-8.2-1.3-11.3,2.7c-1.8,6.9-6.9,7.5-12.9,7.8c-9.1,0.4-18.2,1.6-27.3,2.3c-2.8,0.2-5.1,1.1-5.2,4.2s-2,2.8-4,2.8
	c-19.7,0.1-39.2-1.5-58.8-3.2c-8.6-0.8-17.2-1.5-25.8-2.4c-10.2-1.1-20-4.1-29.8-6.9c-4.7-1.3-9.3-2.9-13.9-4.3
	c-2-0.7-4.2-0.7-6.2,0c-1.4-0.3-2.9,0.1-3.9,1.1l-93.8,28c-1,0.5-2.1,0.9-2.1-0.9c27.5-11,54.9-22.1,82.5-32.9
	c3.6-1.4,5.1-3.1,5-7.1c-0.3-13.3,0-26.5-0.2-39.8c0-2.4,0.6-3.3,3-3.1c1.8,0.1,3.6,0,5.5-0.1l65,2.8c1,0,2,0.2,3,0.3
	c-0.2,2.6-2.3,2-3.8,2.1c-3.7,0.3-7.3,0.2-11-0.2c1.8,0.2,3.5,0.9,4.9,1.9c1,0.7,2.1,2.4,1.3,2.8c-2.5,1.5-4.3,3.9-5.2,6.7
	c-3.3-1.4-2.3,3.6-4.1,3.4c1.3,0,2.6-1.7,4.3-2.6c1.5-0.8,3.2-1.8,4.5-0.2c1.5,1.9,0.1,3.4-1.5,4.5c-0.7,0.5-1.3,1-1.6,1.3
	c3.8-2.7,8.5-2.1,12.9-1c3.8,1,7.1,2.2,11,0.3c3-1.4,6.2,0.2,9.3,0.4c6.1,0.4,12.2,1,17.9,3.7c0.7,0.5,1.6,0.5,2.4,0.1
	c4-2.8,7.3-0.6,11.1,1s7.7,4.3,12.2,1.6c1.3-0.8,3-0.3,4.4,0.1c6.8,1.9,13.8,1.6,20.8,1.6c3.5,0,6.5,1,8.8,3.8
	c0.4,0.5-0.2,0.1,0.3,0.4c6.6,3.4,14,9.8,20.6,5.8c6.8-4.1,11.7-1.2,17.5-0.6c0.6,0.2,1.2,0.2,1.8,0.1c5-1.9,10-2.9,15.2-0.5
	c0.9,0.4,1.9-1.1,3.1-1.2c2.2-0.2,5.2-2.2,5.5,2.2c0,0.4,0,0.8,0.3,0.7c7.7-3.2,5,3.8,6.5,6.6l-2.5,0.2c-2.1,0.9-4.4-0.2-6.5,0.8
	l-2.5,0.2C1079.2,401.3,1076.9,400.3,1074.8,401.2z"/>
<path class="st12" d="M319.6,373.4c1.4,1.2,3.1,2,4.9,2.3c17.7,8.3,35.3,16.7,53,24.8c4.4,2,5.4,3.6,3.2,8.4
	c-15.9,33.1-31.4,66.5-47.1,99.7c-0.6,1.3-0.8,3.1-2.7,3.1c-1.7-0.1-2.4-1.5-3.2-2.9c-5.4-9.6-5.9-20.3-7-30.8
	c-0.7-7.4-2.4-14.7-5.3-21.7c-3.3-7.8-8.4-11.1-15.2-10.2c-6,0.8-10.3,5.9-11.5,13.8c-1.3,7.7-1.3,15.6,0,23.3
	c0.8,1.5,0.4,3.2,0.4,4.9c0.1,5.1-0.8,5.9-5.2,3.7s-9.6-3.7-13.3-7.4c-3.9-1.7-4-4-2.2-7.7c15.5-33.1,30.9-66.3,46.2-99.6
	C315.7,374.8,316.6,372.7,319.6,373.4z"/>
<path class="st2" d="M602.3,669.9c-3.3,1.6-7.2,1.1-10-1.3c-2.4-1.8-4.7-1.6-7.4-1.7c3.3,2.8,3.6,8.8,9.8,8.3
	c1.9-0.2,1.1,2.2,0.2,2.3c-4.4,0.6-3.2,4.1-3.8,6.7c-2.2,1.4-4.2,0.3-6.1-0.5c-6.3-2.4-12.9-4.2-19.1-6.8c-5.2-2.2-10-3-15.1-0.3
	c-2-0.5-5.2-0.2-2.7-3.8c0.2-0.3,0.1-0.4-2.1-2.1c-7.3-4-15.4-6.1-23.2-9.1c-10.2-4-20.6-7.5-30.8-11.4c-4.7-1.8-8.9-2-13.2,1
	c-2,1.5-4.4,2.5-6.9,2.7c-2.2-0.7-5.4,2.2-6.4-0.1c-1.2-2.9,3.4-2.7,4.6-4.7c0.3-0.4,0.6-0.7,1-1.1l0,0c1.3-0.2,2.7-0.3,3-2.1
	c0.7-2.4-0.4-3.6-2.6-4.5c-18.5-6.8-37-13.6-55.5-20.5c-2.6-1-4.5,0.1-6.5,1.2l-48.9,25.8c-0.1-9.6-6.1-15.8-11.2-22.3
	c-1.7-1.8-2.2-4.4-1.2-6.7c3.7-11.5,9.7-21.8,15.1-32.4c1.5-3,3.2-2,5.2-1.3c21.2,7.7,42.4,15.3,63.6,23L600,668.9
	C600.9,669.1,601.6,669.5,602.3,669.9z"/>
<path class="st20" d="M467.8,644.5c-13.5,7.3-26,14.1-38.5,20.9c-14.4,7.9-28.9,15.6-43.1,23.7c-2.5,1.7-5.6,1.9-8.3,0.5
	c-4.9-2.1-9.8-4-14.8-5.8c-2.4-0.9-3.3-2.1-3.1-4.8c0.4-7.6,0.6-15.3,0.6-22.9c0-2.5,0.7-3.8,3-5c15.9-8.2,31.7-16.6,47.6-25
	c1.8-1,3.4-1.5,5.6-0.7C433.4,631.8,450.2,638,467.8,644.5z"/>
<path class="st21" d="M457.6,479.6c-14.8,6.5-28.7,12.5-42.6,18.7c-1.7,0.8-3.2,0.3-4.8-0.1c-9.7-2.7-19.5-5.5-29.2-8.2
	c-2.9-0.8-5.1-2-6-5.2c-0.4-1.8-1.1-3.5-2.3-4.9c-7.5-8-2.1-14.2,2.7-20.5c0.6-1.2,2-1.7,3.3-1.1
	C404.6,465.2,430.7,472.3,457.6,479.6z"/>
<path class="st3" d="M247.8,457.3c-2.2-21.8-2.9-43.8-4.4-65.6c-0.2-2.4,0.6-3.8,3.2-4c9.1-0.5,18.2-1.1,27.9-1.7
	c-2.3,12.8-4.5,25-6.8,37.3c-3,16-5.2,32.1-9,47.9c-1.8,0.3-2.6-0.8-2.3-2.3c0.8-3.4-0.4-6.8-0.2-8.9c0.3,2.4,0.4,4.7,0.4,7.1
	c-0.1,3.2-1.8,3.7-4.6,2s-4.2-3.7-3.7-7C248.4,460.6,248.6,458.8,247.8,457.3z"/>
<path class="st3" d="M262.6,476.1c2.8-16.2,5.6-32.3,8.5-48.5c2.8-15.5,5.8-31,8.6-46.5c1.4-7.6,1.4-7.6,8.9-6
	c5.4,1.1,10.7,2.4,16.1,3c4,0.5,4,1.7,2.5,4.9c-11.8,25-23.4,50.1-35,75.2c-2.9,6.3-5.8,12.6-8.8,18.9
	C262.7,477.3,262.1,477.2,262.6,476.1z"/>
<path class="st22" d="M270.7,484.3l18,8.1v-9.2c2.2,1.9-0.4,5.3,3,7.8v-10.3c2,13.1,1.8,26.1-2.5,38.8c-2.8,8.3-5.7,16.5-8.6,24.8
	c-0.9-1.3-2.3-1.1-3.5-1.3c-0.7-1.1-0.8-2.6-0.2-3.8c1.9-4.4-0.4-6-4.2-6.9c-2.2-0.6-4.4-1.4-6.5-2.3c-3.2-1.2-4.6,0.4-5.2,3.3
	c-0.6,3.4,1.4,5.5,3.4,7.8c1.8,1.9,4.7,2.7,5.3,5.6c-0.4,1.2-0.8,2.4-1.2,3.6c-4.3-1.8-8-4.8-10.7-8.6c-3.1-4.3-3.6-9-0.7-13.5
	c1.6-2.5,1-3.5-1-5c-3.7-2.5-6.2-6.6-6.6-11.1c-0.4-3.3-4.2-5.9-2.9-10c5.7,3.3,1.7-2.5,3.1-3.3c0.5-0.1,1.1,0.1,1.4,0.6
	c2.1,6.5,2.3,6.9,9,6.1c8.2-0.9,16.5-0.5,25.7-2.5c-8.2-1.8-15.4-2.8-22.5-4.3c-2.3-0.5-5.2-0.3-5.9-3.6c3.7-1.5-0.7-5.3,2.1-7.1
	c1.8,2.4,4.5,4,7.5,4.2c5.1,0.6,10.2,1.5,15.2,2.8c0.3,0.1,0.5,0.2,0.8,0.3c0.6,0.2-0.3,0,0.4,0.2c0.3,0.1,0.3-0.1-0.1-0.1
	c-4-1.3-8-2.9-11.7-4.9c-1.3-0.7-3.2-1.1-3.1-3.3L270.7,484.3z"/>
<path class="st23" d="M360.5,462.1c6.2-13.3,12.4-26.7,18.6-40.1c0.3-0.7,1.1-1.9,1.3-1.8c3.9,1.5,7,4.4,10,7.1
	c1.8,1.7-0.6,3.3-1.5,4.6c-8.5,12.4-17.1,24.8-25.6,37.1C361.4,467.6,361.1,466.9,360.5,462.1z"/>
<path class="st15" d="M257.5,495.3c6.4,3.5,13.7,3,20.5,4.8c2.5,0.7,5.2,0.8,7.8,1.3c1.2,0.2,2.9,0,2.8,2s-1.7,1.6-2.9,1.7
	c-9.3,0.6-18.5,1.4-27.8,1.9c-7.4,0.4-7.4,0.3-7.4-7.3c-1-3.8,0.4-7.7-0.8-11.4v-1c1.7-3.5,0.7-7.1,0.5-10.6c0.1-0.7-1,0-0.4-0.1
	c0,0,0,0,0,0.2c0.3,2.6,1.9,5.3-0.3,7.8c-1.1-9-1.7-18.1-1.8-27.2c0.9,0.8,1.3,2.1,0.9,3.2c-1.9,4.8,2.7,6.2,4.8,8.6
	c1.4,1.6,2.1-0.5,2.1-1.8c0.1-3.7,0-7.4,0.3-11.2c1.3,3.8,1.7,7.9,1.3,11.9c-0.1,1.6,0.1,2.5,1.4,3.2c0.3,1.4,0,2.9-0.9,4.1
	c-1,2.2-2.4,4.3-1.2,6.9c0.1,1.4,0.2,2.8-0.8,4.1c-0.3,0.2-0.6,0.3-0.9,0.3c-0.9-0.1-1.7,0-1.9,1c0,0.2,1.3-1,1.8-0.1
	c1,1.8-0.2,3.9,0.8,5.7L257.5,495.3z"/>
<path class="st24" d="M394.1,891.5c-24,4.8-48.3,2.7-72.5,3.1c0.6-0.6,1.1-1.3,1.5-2c2.9-7.2,8-8.2,15.3-7.1c13.9,2,28,2.9,42,4.3
	c0.8,0.1,1.6,0.4,2.4,0.6c-0.5,0.6-1.3,0.9-2,0.5c1.9,0.4,3.8,0.3,5.7-0.3C389.1,890.6,391.6,890.3,394.1,891.5z"/>
<path class="st25" d="M471.5,647.9c0,3.5-4,3.1-5.4,5.2c1.9,1.5,3.9-2.8,5.6,0.2c-0.2,2-1.8,2.7-3.2,3.4
	c-16.3,8.8-32.4,17.9-48.7,26.7c-0.8,0.5-1.8,0.8-2.8,0.8c-2-0.9-3.5-2.4-4.4-4.4C431.9,668.7,451.4,657.9,471.5,647.9z"/>
<path class="st11" d="M269.9,546.7c-3-2.3-6.4-4.1-8.7-7.3c-1.8-2.3-2.2-5.3-1.1-8c1.2-2.9,2.9-4.7,6.3-2.7c1.2,0.6,2.4,1.1,3.7,1.5
	c3.1,1.1,7.4,1.4,9,3.5c1.7,2.4-1.7,6-1.9,9.3c-0.2,0.4-0.4,0.8-0.5,1.3C275.6,550.4,275.2,550.5,269.9,546.7z"/>
<path class="st17" d="M412.5,679.9c1.8,0.6,3.3,2,4,3.8c-0.3,2-2,2.5-3.3,3.3c-6.5,4-13.5,7.4-20.7,9.9c-2.5,0.3-3.6-1.7-5-3.2
	l2-1.1c1.8,0.2,3.4-0.8,4.2-2.4C399.8,686.4,406.1,682.9,412.5,679.9z"/>
<path class="st25" d="M268.7,487.3c5.3,3.3,11.1,5.6,16.8,8.1c0.1,1.9-1.1,1-2,1c-6.9-1.1-13.9-2.4-20.8-3.2c-3.5-0.5-3-2.7-3-5
	c0.6-2,1.2-4,1.8-6.1c0.4-0.4,0.7-0.4,1,0.1C263.5,484.9,265.9,486.8,268.7,487.3z"/>
<path class="st26" d="M300.7,450.4c6.4,4.8,6.1,4.5,0.8,11c-2.7,3.3-5,5.1-9,2.8C292.8,455.7,294.9,452.2,300.7,450.4z"/>
<path class="st27" d="M360.5,462.1c2.9,1.6,0.8,5.1,2.8,7.1l-17.4,26.3l-1.3-0.7C349.9,483.9,355.2,473,360.5,462.1z"/>
<path class="st28" d="M255.6,493.2c-1.7-1.3-0.2-3.5-1.4-5c-1.1,0.9,0.1,2.7-1.7,3.6c-1.2-1.6-1.2-3.7-0.1-5.4
	c0.9-1.7,2.3-0.6,3.5-0.1C255.8,488.6,255.7,490.9,255.6,493.2z"/>
<path class="st3" d="M249.6,484.5v-9.2c1.2,4,4,8,0.2,11.9L249.6,484.5z"/>
<path class="st29" d="M304.5,373.9c2.4-1.2,4.6-2.2,7-1c0.1,0.5,0,0.9-0.2,1.3C308.9,376.4,306.8,373.3,304.5,373.9z"/>
<path class="st3" d="M256.6,482.2c-0.6,0-1.4,1.2-1.7-0.5c-0.3-2.5,1.2-4.5,2-6.6c0-0.1,0.3-0.1,0.5,0s0.2,0.2,0.4,0.3
	C257.9,477.7,257.5,480,256.6,482.2z"/>
<path class="st30" d="M388.6,449.2c-2.1,1.6-3.4-1.4-5.3-1c0.6-1.6,1.7-2.9,3.2-3.9l-0.1-0.1C387.8,445.7,388.9,447.2,388.6,449.2z"
	/>
<path class="st31" d="M393.6,690.2c0.2,3.6-1.4,4-4.2,2.4L393.6,690.2z"/>
<path class="st28" d="M249.8,488.2c1.8,3.7,0.7,7.6,0.8,11.4l-0.7-0.7C249.8,495.4,249.8,491.8,249.8,488.2z"/>
<path class="st32" d="M743,441.2c0.3-0.6,0.6-1.2,0.9-1.7l4.2-1.2C747.5,441.1,745.1,440.8,743,441.2z"/>
<path class="st33" d="M262.5,482.2l-1-0.1c0.1-2.1-0.1-4.2,1.2-6l0.9,1.1C263.2,478.9,262.9,480.5,262.5,482.2z"/>
<path class="st25" d="M474.4,645.9c1.3,4-0.8,3-3,2.1L474.4,645.9z"/>
<path class="st34" d="M759.2,434.4l2.1,0.9c-1,1-2.3,1-3.7,1.1c-0.9,0.3-1.5,0.1-1.4-1L759.2,434.4z"/>
<path class="st30" d="M381.5,451.1c0.7,0.9,0.7,2.2,0.1,3.1C379.3,453.6,379.3,453.3,381.5,451.1z"/>
<path class="st35" d="M756.2,435.5l1.4,1c-1.3,1.2-2.9,1-4.5,0.8C753.5,435.7,755.2,436.1,756.2,435.5z"/>
<path class="st2" d="M864.8,846.5c4.8,1.8,9.5,3.5,14.3,5.4c0.7,0.3,1,1.5,2,0.9c1.4-0.9,0.4-1.3-0.5-2s-0.2-1.8,0.9-2.1
	c4.8-1.3,9.8-1.3,14.7-1.6c1.4-0.1,1.9,1.1,2.6,2c0.5,0.7,1.5,1.6,1.9,0.8c3.3-5.8,10.6-0.8,14.8-5.5c1.5-1.7,6.8,0.8,10.4,0.3
	c0.6-0.1,1.7,0.7,1.8,0.5c4.4-5,7.2,0,10.5,1.7c2.6,1.3,4.8,2.7,4.2,6.5c1.7-2.3,3.6-4,3.5-7.7c1.3,1.9,1.9,3.4,3,4.1
	c1.3,0.9,3.4,2.1,4.2-0.6c1.3-4.2,5.5-5.6,9-2.5c1.8,1.6,3,2.5,3.7-0.4c0.7-2.7,2.9-3,4.6-2.7c2.2,0.4,0.5,3.1,1.8,4.7
	s-1.1,2.1-2.5,2.6c-1,0.4-2,0.9-2.9,1.5c6.9,3.4,13.4,2.5,19.8,2c2-0.2,1-2.8,1.3-4.3c0.2-1.4,0.3-2.9,2.1-2.8s1.8,1.7,1.9,3
	c0.1,2.2-0.6,4.3-2,6c-1.1,1.4-1.5,3.5,0.2,3.8c3.8,0.7,6.8,4.4,11.1,3.1c1.1-0.5,2.3,0,2.8,1c0,0,0,0.1,0.1,0.1
	c0.4,0.8,0.8,1.6,0.2,2.3c-1.4,1.6-1.8-0.5-2.6-0.8c-1.9-0.6-3,0.4-2.5,2.3c0.6,1.7,0.7,3.6,0.3,5.3c-0.9,3.4-3.1,4.6-5.8,2.4
	c-3.5-2.8-7.8-2.9-11.6-3.5s-5.6,4.1-7.9,7c-0.5,0.7-0.5,1.8-0.8,3.2c-4.4-5.5-10-0.3-14.7-2.5c-0.7-0.3-1.5,1.1-1.7,2.2
	c-0.3,1.1,0.4,2.2,1.5,2.4c0.1,0,0.2,0,0.3,0c2.7,0.5,4.6,2.3,7.3,4.1c-4.5,2.3-8.9,1.6-12.9,1.8c-8,0.4-16.2-1.2-23.8,0.4
	c-9.6,2-19,1.2-28.5,1.7c-1.8-0.1-3.6,0.6-4.9,2H704.2c-2.6-3.4-6.7-2.6-10-2.8c-6.8-0.4-13.7,0.6-20.5,0.4
	c-5.5-0.3-11-0.9-16.5-1.9c-1.5-0.3-3-1.4-1.6-3.6c1.5-2.5,0.1-4-2.3-3.9c-2.7,0.1-4.5-1.1-4.6-3.3c-0.3-4.5-3.5-7.9-4-12.4
	c-0.3-2.8-3-6.2,0.7-7.2s8.1-3.2,11.8-0.9c6,3.6,10.8-0.1,16-1.6c1.1-0.3,2-2,3.5-1c4.2,2.8,9.4,1.1,13.8,3c1.5,0.7,3.6-0.2,4.5-1.4
	c2.6-3.2,7-4.5,8.7-8.6c0.6-1.6,1.8-1.5,3.1-0.2c2.5,2.6,4.3,1.3,5.5-1.4c1.5,1.1,1.9,2.7,2.2,4.3c0.8,4.2,3.5,5,7.3,4.7
	c18.5-1.1,37-2.6,55.5-3.7c9.6-0.6,19.2-1.5,28.8-1.9c3.9-0.2,4.9-2.1,4-5.5c-0.7-2.7-1.6-5.4-2.1-8.2c-0.4-1.9-1.2-3.9,0.3-5.7
	c2.5,1.2,2.4,3.8,3,5.9c0.8,2.5,1.1,5.2,2,7.7s-0.3,6,2.9,7.2c2.7,1.1,4.7-2.2,8-1.6c1.9,0.4-1.1-2-0.4-3.7c4.2,0.4,8.6,0.8,12.5-2
	c0.9-0.5,2-0.4,2.8,0.3c2.8,2.1,4,0.1,5.3-1.9c4.4,4.3,9.5,3,14.6,2C860.8,845.2,863,844.8,864.8,846.5z"/>
<path class="st2" d="M190.6,894.5c-9.5-9.8-18.1-20.3-25.8-31.5c-1.1-1.6-2.1-3.3-3.1-5c1.6-2.3,1-4.3-0.5-6.4s-2.6-4-4.1-6.2
	c7.7,2,14.8,4.2,22.2,0.4c1.2-0.6,2.9-2.6,4.3,0.3c0.4,0.9,1.9-0.3,2.4-1c2.7-3.6,8.3-2.9,10.5-7.7c1.4-3,11-0.5,12.3,2.9
	c0.3,0.8,1,2,1.4,1.7c3.5-3.2,8,1.2,11.5-1.7c0.5-0.3,1.2-0.5,1.8-0.4c2.5,5.6,8.2,0.8,11.6,3.6c1.1,0.9,3.1,1.6,4.3-0.5
	c0.1-0.1,0.2-0.3,0.3-0.4c3.1,2.4,5.8,1.8,7.9-1.3c0.6,0.3,1.1,0.7,1.6,1.1c3,3.7,6.5,4.3,9.6,0.7c1.6-1.9,4-3,6.4-3.1
	c2.3-0.3,5.3-0.1,4.7,3.8c-0.3,2.1,1.2,3.7,2.6,3.3c3.6-1.1,4,1.1,5.2,3.5c1.5,2.8,3.2,6.2,7.7,4.2c0.6-0.3,2.2,0.1,2.2,0.3
	c1,6.2,9.4,7.7,9.2,14.7c0,1.2,1.7,2.8,2.8,2.4c4.1-1.4,7.9,1.6,11.8,0.4c1.5-0.4,2.9,0.1,4.4,0.4c3.6,0.8,5.4,1.9,1.2,4.6
	c-1.5,1-1.6,2.3-1.5,3.9c0.6,4.7,0.8,9.3-5,11.3c-0.5,0.2-0.8,1-1.2,1.6h-3c-6.4-3-6.6-3.8-1.8-9.1c0.8-0.9,1.6-1.7,2.4-2.6
	c1-1.3,0.6-2.3-0.9-2.5c-3-0.6-5.9-1.9-9.2-0.4c-3.6,1.7-7.3,3.3-11.4,3.1c-2-0.1-2,1.2-2.1,2.6c-0.2,2.9-2.1,4.2-4.6,5.3
	c-6.6,3-13.7,2.4-20.6,2.6c-11.3,0.3-22.6,0-33.9,0.1c-2.3,0-4.6-0.2-6.8,1L190.6,894.5z"/>
<path class="st3" d="M1092.8,399.3c-2-1.1-2-3.3-2.5-5.2c-0.2-0.8-0.2-1.7-1.3-1.7s-2,0.2-1.8,1.7c0.1,1.3-0.8,1.4-1.6,1
	c-0.5-0.3-1-0.8-1.1-1.4c-0.3-1.2,2.1-3.6-0.2-3.5c-1.9,0.1-5.7-0.6-6.2,3.2c0,0.2-0.6,0.3-0.8,0.4c-1.9-5-6.3-2.4-9.3-2.5
	c-1.4,0-5.4-1.7-5.8,2.5c-0.3,0.1-0.6,0.1-0.9,0c-4.8-4.3-10.8-2.2-16.4-3.2c-0.6,1.5,2.3,3,0.2,4.2c-1.7,1-2.1-1-3-1.7
	c-0.6-0.6-1.6-0.7-2.3-0.1c-4.2,2.9-7.4,1.5-10-2.4c-0.2-0.3-0.3-0.7-0.6-0.8c-9.6-2.8-18.2-9.7-29.2-6.7c-1.4,0.4-3.2-0.5-4.8-0.9
	c-3.2-0.8-6.5-1.9-9.4,0.8c-0.7,0.6-1.5,1.1-2.2,0.4c-3.2-3.2-8.2-1.8-11.5-5c-1.6-1.5-4.6-2.3-6.5,0.6c-0.7,1-2,1.7-3,0.9
	c-7.3-5.6-16.3-3.5-24.3-5.5c-1.1-0.3-2.8-0.3-3.4,0.3c-3,3.4-6.6,2-9,0.4c-3.5-2.3-7.2,0.1-10.6-1.5c-1.1-0.5-3.2,0.8-3.9,2.5
	c-0.5,1-0.6,2.6-2.3,1.3c-1.3-1-0.5-2.1,0.4-3c0.6-0.5,1.2-1.1,1.7-1.8c0.8-1.2,3.8-1.6,2.4-3.6s-2.7,0.4-4.1,1.2
	c-1.3,0.8-2.6,1.4-4.1,1.7c-2,0.3-3.9-0.1-4.2-2.9c4.7,1.5,4.7,1.5,3.5-4.1c1.3-0.6,1.7,0.5,2.3,1.2s1.5,1.5,2.5,0.6
	c0.7-0.7,0.4-1.5,0-2.3c-0.5-1.1-2.7-1.7-1.5-3.2s2.3,0.1,3.4,0.6c0.8,0.4,1.7,0.6,2.2-0.3c0.7-1.1,0.1-1.9-0.9-2.4
	c-1.6-0.8-3-2.1-5.1-1.6c-1.2,0.3-3,1.5-3.2-0.6c-0.2-2.3,2.1-1.6,3.4-1.6c4.2-0.1,8.3,0,12.5,0c1,0.1,2-0.2,2.7-0.9
	c5.1-0.1,10.2-0.3,15.3,0.8c-4,1.2-8,0.5-12,0.6c11.6-0.3,23.1,1,34.7,0.6c4.1-0.1,8.3-0.3,12.3,0.8c-2.8,1.4-5.7,0.2-7.7,0.6
	c3.6-0.1,8,0.5,12.4-0.4c3.8-0.1,7.6-0.3,11.3,0.8c-2.5,1.2-5,0.6-7.5,0.6c3.7-0.1,7.4,0.6,11.1-0.3c3.8-0.1,7.6-0.3,11.3,0.8
	c-1.8,1.1-3.7,0.7-5.6,0.5c3.1-0.2,6.2,0.6,9.3-0.3c3.5-0.1,6.9-0.3,10.3,0.8c-2.1,1.2-4.3,0.5-6.5,0.6c3-0.2,6.1,0.6,9.2-0.4
	c3.4-0.1,6.9-0.3,10.2,0.8c-1.1,0.7-2.4,0.9-3.6,0.6c1.4-0.2,3.9,0.6,6.4-0.4c3.1-0.1,6.3-0.3,9.3,0.8c-1,0.8-2.3,1-3.5,0.6
	c1.6-0.2,4.4,0.5,7.2-0.4c13.4,0.3,26.8,2,40.1,3.2c19.9,1.9,39.8,4.3,59.7,6.5l0.1,22.2c-15.5,1.5-31,3-46.5,4.4
	C1097.7,399.1,1095.2,399.1,1092.8,399.3z"/>
<path class="st12" d="M1146.7,647c0,9.3,0,18.6,0,27.9c-7.4,5.3-14.5,8.9-24.5,4.7c-28.2-11.9-56.8-22.7-85.2-34c-1.6-0.7-4-1-4-3.1
	s2.3-2.7,3.9-3.4c12.3-5.6,24.5-11.2,36.8-16.6c3-1.4,6.5-1.4,9.6-0.1c19.1,7.2,38.3,14.4,57.4,21.5
	C1142.8,644.5,1145.1,645.2,1146.7,647z"/>
<path class="st36" d="M1146.7,647c-13.6-4.2-26.7-9.7-40.1-14.5c-8.6-3.1-17.1-6.3-25.6-9.5c-1.7-0.6-3.2-1.2-5.2-0.2
	c-14.1,6.5-28.3,12.8-43.3,19.6l42.4,16.8c17.4,6.9,34.8,13.7,52.2,20.8c3,1.4,6.5,1.3,9.3-0.5c3.2-1.8,6.5-4,10.3-4.5v4
	c-4.2,2-8.2,5.4-12.5,5.9c-6.8,0.7-11.1,5.3-16.7,7.8c-13.4,5.8-26.4,12.4-39.5,18.8c-2.2,1.2-4.8,1.2-7,0.2
	c-32.2-14-64.5-27.9-96.8-41.8c-1.6-0.7-3.9-1.1-4-3.3s2.2-2.7,3.8-3.4c13.6-6,27.1-12.4,41-18c19.8-7.9,39-17.1,58.4-25.8
	c2.7-1.2,5.1-1.7,8.1-0.5c21.7,8.2,43.5,16.3,65.2,24.4L1146.7,647z"/>
<path class="st12" d="M130.9,890.6c0.1-10,1.9-19.8,2.9-29.7c0.2-2.1,1.1-2.3,2.9-1.9c7,1.4,14,2.7,21,3.8c1.6,0.3,3,1.3,3.8,2.8
	c6.6,9.9,14.1,19.3,22.2,28c-1.8,1.1-3.8,1-5.8,1c-13.5,0-27.1-0.1-40.6,0.1C134,894.7,131.9,893.9,130.9,890.6z"/>
<path class="st12" d="M1146.6,593.8v38.3c-1.9,1.1-3.6,0-5.2-0.7c-13-5.3-26.1-10.1-39-15.3c-1.5-0.6-3.6-0.8-3.6-2.9
	c0-1.9,1.8-2.7,3.3-3.3c12.5-5.5,24.7-11.6,37.3-16.8C1141.9,592.2,1144.5,590.8,1146.6,593.8z"/>
<path class="st12" d="M217.8,894.5c1.7-2,4-2,6.4-2c11.1,0,22.3,0.3,33.4-0.1c7.1-0.3,14.4,0.1,21.3-2.8c2.6-1.1,4.3-2.1,3.3-5.4
	c-0.9-2.8-0.5-4,3.1-2.8c4.3,1.5,8.2-1.5,12-3.1c1.7-0.7,11.7,0.4,12.8,1.8c0.7,0.7,0.6,1.9-0.1,2.5l-0.1,0.1c-1,0.9-2.1,1.6-3,2.6
	c-4.6,4.8-4.6,4.9-0.1,9.2H217.8z"/>
<path class="st37" d="M1146.6,593.8c-1.7-0.2-3.2-1.4-5.2-0.4c-14,6.5-28.2,12.9-43,19.7l48.3,19c0,1.5,0,3.1,0,4.7
	c-16.9-6.7-33.8-13.3-50.7-20.1c-1.7-0.7-4.3-0.8-4.2-3.5c0-2.3,2.2-2.6,3.8-3.3c14.6-6.7,29.2-13.3,43.8-20.1
	c2.7-1.3,5-1.5,7.4,0.2C1146.7,591.3,1146.7,592.5,1146.6,593.8z"/>
<path class="st38" d="M1048.9,893.6c32.6-2.2,65.1-5.6,97.6-8.7c1.2,4.3-1.3,4.6-4.7,4.9c-29.8,3.3-59.6,5.6-89.5,4.6
	C1051.2,894.4,1049.7,895.4,1048.9,893.6z"/>
<path class="st39" d="M1145.7,517.1c0.2-0.2,0.5-0.4,0.8-0.3l0.2,13.4l-32.9-11.1c0.8-3.1,3.6-0.4,5-1.7l16.9-0.1
	C1139,518,1142.5,518,1145.7,517.1z"/>
<path class="st3" d="M34.9,763.8c1.9-1,3.2-0.1,4.5,1.1c-0.7,1.2-2.1-0.4-2.5,1L34.9,763.8z"/>
<path class="st21" d="M688.2,352.6l-10.3-3.7c17.5-6.9,34.4-13.6,51.3-20.3c3-1.2,6-2.6,9-3.9l27.3-10.7c1.8-0.7,3.5-1.3,5.7-0.7
	c21,5.9,42.1,11.6,63.2,17.5c1,0.4,1.9,0.8,2.8,1.3c-18.7,7.9-37,15.6-55.3,23.2c-11,4.6-22.1,9-33,13.7c-2.2,1-4.8,1.1-7.1,0.2
	C723.9,363.6,706.1,358.1,688.2,352.6z"/>
<path class="st23" d="M674.6,404.8c17.1,5.4,34.5,9.9,51.1,16.3c13.1,5,24.5,4.3,37.4-1.4c24.4-10.7,49.5-19.8,74.4-29.5
	c1.5-0.6,3-1.1,4.6-1.7c1.4,7.5,1.4,7.5-5.3,10.2c-29.7,11.9-59.3,23.8-89,35.8c-2,0.8-4.2,0.8-6.2,0c-20-6.4-40.1-12.7-60.2-19
	C673.8,413,673.8,413.1,674.6,404.8z"/>
<path class="st23" d="M807.1,397.2c-20.3,8.1-40.6,16.2-60.9,24.3c-1.2,0.5-2.6,0.4-3.8-0.1c-21.7-6.8-43.3-13.6-65-20.2
	c-6-1.8-1.7-6.4-4-10.1l51,15.5c1.9,0.6,4,0.8,5.7,1.7c10.7,5.3,20.7,3.3,31.2-1.4c13.3-5.9,26.8-11.2,40.6-15.8
	C807.1,392.5,808.3,393.9,807.1,397.2z"/>
<path class="st23" d="M763.1,401.2c-5.5,2.3-11,4.5-16.5,6.8c-1.4,0.6-2.5,0.2-3.8-0.2c-21.9-6.6-43.8-13.2-65.7-19.8
	c-5.5-1.7-1.8-6-3-9.4c19.5,5.8,38.7,11.1,57.5,17.4c9.2,3.1,17.8,4.1,26.6-0.5C763.2,396.5,764.4,397.9,763.1,401.2z"/>
<path class="st40" d="M773.1,371.2c-8.4,3.4-16.8,6.8-25.1,10.2c-1.6,0.6-3,1.2-4.7,0.7c-22.7-6.9-45.4-13.7-68.1-20.5
	c-0.7-1.4-0.5-2.8,0.1-4.7c4.6,3.3,9,0,13.5,0.3c16.9,5.2,33.8,10.4,50.7,15.8c3.9,1.4,8.2,1.3,11.9-0.5c6.1-2.8,12.5-5,18.7-7.5
	c0.1,0.1,0.3,0.1,0.4,0.2c1.6,1.4,1,2.5-0.5,3.4C771.7,368.6,773.2,368.9,773.1,371.2z"/>
<path class="st23" d="M734.1,391.6c-19.2-5.6-38.4-11.2-57.6-16.9c-4.5-1.3-2.3-5.1-2-7.5s2.7-0.5,4-0.1c17,5,33.9,10.2,50.8,15.2
	c2,0.6,3.5,2.4,5.8,2.1C737.3,386.9,736.9,389.5,734.1,391.6z"/>
<path class="st41" d="M785.2,358.6l45.2-19.1l11.8-5c1.2,8.9,1.2,8.9-6.6,12l-43.5,16.9C789.5,362.3,787.1,360.7,785.2,358.6z"/>
<path class="st23" d="M809,375.2c9.6-3.9,19.2-7.8,28.8-11.5c1.3-0.5,3.8-2.8,4.4-0.4s2.3,6.4-2,8.1c-7,2.7-14.1,5.3-21.2,8
	c-1.9,0.2-3.8,0.6-5.6,1.3c-0.8,0.2-1.7,0.4-2.2-0.4s0-1.5,0.8-2c0.4-0.2,0.8-0.5,1.2,0.1c0-0.9-0.6-0.5-1-0.4
	C810.2,378.2,808,378.6,809,375.2z"/>
<path class="st20" d="M796.1,388.3c-8.5,3.8-17.1,7.1-25.9,10c-1.2,0.5-2.9-0.2-2.8-0.9c0.3-1.9-0.3-1.4-1.6-1.5
	c-3.1-0.3-1-2.1-0.6-3.4c7.8-3.4,15.8-6.5,23.9-9.2C792.1,384,795.2,384.7,796.1,388.3z"/>
<path class="st40" d="M786.1,379.3c-7.8,3.3-15.6,6.7-23.8,9.2c-2.1-0.5-6.3-3.5-7.2-5c7.5-3.4,15.1-6.5,22.9-9.1
	c2.6-0.1,4.7,1.6,7.4,1.5C788.4,375.8,787,377.9,786.1,379.3z"/>
<path class="st42" d="M755.2,383.5l7.2,5c-5.3,2.2-10.3,5-15.8,6.3c-4.2,1-8.4-1.6-12.5-3.1c1.7-2.2,0.8-4.8,1.1-7.2
	C742,387.2,748.7,387.1,755.2,383.5z"/>
<path class="st43" d="M786.1,379.3c-0.8-0.7,1.3-4.2-2.3-2.3c-3,1.7-3.8-1.8-5.7-2.6c7.2-3.3,14.5-6.3,22-8.9c3.6,0.4,4.9,2.8,5.2,6
	C799.1,374.5,792.7,377.1,786.1,379.3z"/>
<path class="st44" d="M805.3,371.5c-2.2-1.6-2.5-4.8-5.2-6c5.7-2.8,11.7-5.2,17.8-7.1c5.3,0.1,7.5,1.4,8.2,5
	C819.3,366.5,812.4,369.2,805.3,371.5z"/>
<path class="st45" d="M796.1,388.3c-1.8-2.5-5.4-2.3-7.1-5l20-8.1c0.4,3.9,3.7,1,5.3,2.2c-0.1,1.6-2.6,0.7-2.5,2.5
	c2.4,0.4,4.7-2.4,7.3-0.5C811.6,382.9,804,385.8,796.1,388.3z"/>
<path class="st46" d="M826.1,363.4c-1.9-3-5.4-3.5-8.2-5l23.8-9.9c1.9,8.1,1.9,8.2-5.5,11.1C832.9,360.9,829.5,362.1,826.1,363.4z"
	/>
<path class="st47" d="M807.1,397.2c-0.2-3.3-2.7-4.6-5.1-5.9c6.5-3.1,13.2-5.7,20.1-7.9c1.3,1.1,5.6-0.2,3.2,3.9c0,0,0.2,0,0.3-0.1
	c1.6-0.8,2.8-0.6,3.6,1.2C822,391.7,814.6,394.7,807.1,397.2z"/>
<path class="st7" d="M829.2,388.4c-3.6,0-5-3-7.1-5l19.7-8.1c2.1,7,1.8,7.7-4.6,10.3C834.5,386.7,832.1,388.1,829.2,388.4z"/>
<path class="st48" d="M785.2,358.6l7,4.8c-6.2,3-12.5,5.6-19,7.8c-2.6-1.3-3.2-3.5-3.1-6.1L785.2,358.6z"/>
<path class="st49" d="M688.7,357.2c-4.2,1.7-8.3,5-13.3,1.1c-0.1,1.1-0.2,2.2-0.3,3.3c-1.6-2.9-1.6-6.4,0.1-9.3
	c3.2,1.5,6.5,2.5,9.9,3.1L688.7,357.2z"/>
<path class="st50" d="M765.2,392.5c-0.3,5.5,3.8,0.3,5.1,2.4c-0.6,0.9-4.4,2.2-0.1,3.5c-2.2,1.4-4.6,2.3-7.1,2.9
	c0.1-3.5-2.8-4.4-5-5.9C760.3,394.1,762.7,393.1,765.2,392.5z"/>
<path class="st17" d="M131.7,182.9c-1.4,0.7-2.6,1.7-4.4,0.6C128.8,182.1,130.4,183,131.7,182.9z"/>
<path class="st17" d="M133.6,148.7c0.4,0.6,1,1,0.9,1.2c-0.3,0.5-0.7,0.9-1.1,1.3c-0.3-0.3-0.9-0.7-0.9-0.9
	C132.8,149.7,133.1,149.2,133.6,148.7z"/>
<path class="st12" d="M960.9,356.5c-3.8,2-7.8,1-11.7,0.8c-7.7-0.3-15.4-1.3-23.2-2h12.2C945.8,355.3,953.4,355.3,960.9,356.5z"/>
<path class="st12" d="M977.9,357.5c-4.6,1.9-9.3,0.5-13.9-0.3h9.3L977.9,357.5z"/>
<path class="st12" d="M992.9,358.5c-3.9,1.9-7.9,0.6-11.9-0.2h8.3L992.9,358.5z"/>
<path class="st12" d="M1020.8,360.5c-3.2,2-6.6,0.4-10,0.1l7.3-0.3L1020.8,360.5z"/>
<path class="st12" d="M1007.9,359.5c-3.2,1.8-6.6,0.7-10,0.1l6.3-0.4L1007.9,359.5z"/>
<path class="st12" d="M1046.8,362.5c-2.9,1.6-5.9,0.8-9,0.1l5.3-0.4L1046.8,362.5z"/>
<path class="st12" d="M1033.8,361.5c-2.6,1.9-5.3,0.4-8,0.1l5.2-0.3L1033.8,361.5z"/>
<path class="st51" d="M309.8,748.5c-1.1-1.6-2.2-3.3-3.4-4.8c-0.7-0.9-1.2-1.8-0.4-2.7c1-1.1,2.1-0.7,3.1,0.1c1,0.9,1.9,1.9,2.7,2.9
	c6.9,8,11.9,17.1,16.1,26.7c0,0.3,0.1,0.7,0.1,1c0.5,1.8,2.1,4.2-0.4,5.1c-2.8,1.1-2.8-2.1-3.4-3.7
	C320.6,764.2,316.2,755.8,309.8,748.5z"/>
<path class="st3" d="M156.2,540.8c-0.5,1.2-1.7,2.1-3,2.2c-0.9,0-1.9-0.5-1.7-1.4c0.3-1.5,1.8-1.8,3.1-2.1
	C155.5,539.2,156.1,539.8,156.2,540.8z"/>
<path class="st3" d="M162.1,531.3c1.1,0.2,1.7,0.6,1.5,1.6c-0.3,1.3-1.4,1.7-2.6,1.8c-0.9,0.1-1.1-0.7-1-1.3
	C160.1,532.3,161,531.4,162.1,531.3z"/>
<path class="st3" d="M175.2,571c-0.9-0.1-1.7-0.5-1.8-1.3c0.1-1,0.8-1.9,1.8-2.1c1.3-0.5,0.9,0.8,1.1,1.4
	C176.7,570.1,176.6,570.9,175.2,571z"/>
<path class="st3" d="M183.5,569.2c-0.2,0.8-0.7,1.5-1.6,1.4c-1.1-0.1-1-1.1-0.9-1.9s0.4-1.3,1.2-1.2
	C182.9,567.6,183.5,568.3,183.5,569.2z"/>
<path class="st3" d="M163.8,523.2c0,0.8-0.1,1.6-0.3,2.3c-0.2,0.8-0.9,1.4-1.8,1.2l0,0c-0.6-0.3-1-0.8-1.1-1.4
	c-0.3-1.2,0.9-1,1.5-1.3L163.8,523.2L163.8,523.2z"/>
<path class="st3" d="M161.4,542.9c-0.7,0-1.3-0.3-1.4-1.1c-0.2-0.7,0.2-1.3,0.9-1.5c0.2,0,0.3-0.1,0.5,0c0.7,0,1.2,0.5,1.2,1.2v0.1
	C162.6,542.3,162.1,542.9,161.4,542.9L161.4,542.9z"/>
<path class="st3" d="M209.1,563.4c-2-0.8-3.5-0.8-3.8-2.4c0-0.2,0.4-0.6,0.6-0.6C208,560,207.9,562,209.1,563.4z"/>
<path class="st2" d="M352.7,765.9c-2-1.9-0.8-4,0-6.1V765.9z"/>
<path class="st3" d="M187.4,557.5c-0.3,0.1-0.8,0.3-1.1,0.2c-0.6-0.2-1.2-0.7-0.8-1.4c0.4-0.5,1.1-0.6,1.6-0.2
	C187.5,556.4,187.7,557,187.4,557.5L187.4,557.5z"/>
<path class="st2" d="M320.7,747.9c0.4,0.6,0.8,0.9,0.8,1.3s-0.4,0.6-0.6,0.9c-0.3-0.3-0.7-0.6-0.8-1S320.3,748.4,320.7,747.9z"/>
<path class="st3" d="M85.9,737.2c2.3,2.9,3.6,6.3,4.9,9.6c-1.8,1.7-0.1,2.9,0.6,4.3c1.3,2.7,2.5,5.5,3.8,8.2
	c-1.6,0.7-1.8-0.4-2.4-1.2c-2.7-3.8-4.1-8.4-8.1-11.5S81.2,741.5,85.9,737.2z"/>
<path class="st52" d="M156.4,858.2c-7.4-1.3-13.4-2.6-19.5-3.4c-3.2-0.4-2.1-2.5-1.9-4c0.6-7.1,1.4-14.2,2.2-22.1
	C143.5,838.4,149.6,847.7,156.4,858.2z"/>
<path class="st53" d="M67,169c1.3-2.6,2.6-5.1,3.9-7.7c0.8-1.7,1.7-3.2,4-2.4c0.6,2.7-1.3,4.6-2.3,6.9c-2.4,5.8-5,11.4-7.5,17.2
	c-0.5,1-0.7,2.4-2.2,2c-1.9-0.5-1.3-2.1-0.9-3.3C63.6,177.5,65.4,173.2,67,169z"/>
<path class="st54" d="M62.6,195.5c-0.7,1.2,0.3,3.8-1.9,3.8s-1.9-2.2-1.8-3.9c0.1-1.5,0.3-3.4,2-3.5
	C62.9,191.9,62.9,193.8,62.6,195.5z"/>
<path class="st3" d="M40,228.6c2.1-3,4.9-5.6,8-7.5C45.8,224.1,43.9,227.5,40,228.6L40,228.6z"/>
<path class="st55" d="M977.1,737.9c2.7-0.5,3.9,0.8,5.2,1.8c25,19,50,38,75,57.1c1.3,1,3.1,1.8,2.9,3.7s-2.4,2.1-3.9,2.6
	c-22.6,7.8-45.2,15.4-67.7,23.3c-3.5,1.2-5.6,0-8-2c-22-18.2-44-36.5-66.1-54.7c-2.7-2.2-5.5-4.3-8.1-6.6c-3.3-2.9-3.1-4.3,1.2-5.6
	c12.1-3.6,24.2-7.2,36.3-10.6c10.4-2.9,20.8-5.7,31.2-8.5C976,738.2,976.9,737.9,977.1,737.9z"/>
<path class="st1" d="M808,831.7c1.3,5.3,2.6,10.6,4,15.9c0.9,3.4,0,4.8-3.7,5c-29.6,1.8-59.1,3.8-88.7,5.7c-5.4,0.3-6.3-0.8-7.4-8.7
	c-0.1-0.7-0.1-1.3-0.2-2c-3.4-17.9-6.9-35.8-10.3-53.7c-1.1-5.7-2.2-11.4-3.4-17.1c-0.7-3.3,0.2-4.9,3.9-5.1
	c27.2-1.5,54.5-3.2,81.7-5c4.6-0.3,6.2,1.3,7.4,5.6C796.7,792.2,802.4,811.9,808,831.7z"/>
<path class="st13" d="M864.8,846.5c-3.7,0.4-7.6,0.3-11.1,1.3c-4.8,1.5-7.7,0.2-9.6-4.2c-1.2-3.2-2.8-6.3-4.9-9
	c-2.3-3-5.1-5.8-5.3-9.9c-9.1-17.1-18.1-34.3-27.2-51.4c-3-5.8-2.9-6.3,3.5-7.1c25.9-3.2,51.8-6.2,77.7-9.4c3-0.4,4.9,0.5,6.5,3.2
	c14.1,22.9,28.3,45.7,42.4,68.6c3.7,6,3.3,6.5-3.4,7.7c-2.3,0.4-4.7-0.1-6.8,1.2c-0.5,0.8-1.1,0.6-1.7,0.2c-1.8-0.1-3.6-0.2-5.2,0.8
	c-0.5,0.7-1.1,0.6-1.8,0.2c-1.8-0.1-3.6-0.2-5.2,0.8c-2.8,1.7-5.8,1.2-8.8,1.2c-1.8-0.3-3.6,0-5.2,0.8c-0.4,0.6-1.2,0.7-1.8,0.3
	c0,0-0.1,0-0.1-0.1l-11.3,1.7c-2.7,1.2-5.7,1.6-8.7,1.2c-1.8-0.1-3.6-0.2-5.3,0.8c-0.5,0.8-1.1,0.6-1.7,0.2
	C868.2,845.6,866.4,845.5,864.8,846.5z"/>
<path class="st56" d="M550.3,675.8c4.7-3.6,9.5-3,14.8-0.9c8.6,3.4,17.5,6.1,26.2,9.2c8.7,3.2,17.4,6.4,26,9.6
	c1.6,0.6,3.5,0.9,3.8,2.8s-1.6,2.7-3,3.5c-27.3,17.3-54.7,34.5-82,51.8c-1.7,1.1-3.2,2-5.5,1.1c-21-8.1-42-16.1-63.1-24.1
	c-1.6-3.6,1-5.1,3.4-6.6c13.7-8.3,27.7-16.3,41.4-24.7c7.1-4.3,14.2-8.5,21.2-12.9C539.3,682.2,544,677.5,550.3,675.8z"/>
<path class="st56" d="M392.5,696.9c1.9-2.9,5.4-3,8.1-4.4c5.4-2.8,10.6-5.9,15.9-8.8l55.1-30.3c0.3-0.1,0.6-0.2,0.9-0.3
	c8.8-7.4,17.6-5.8,27.5-1.6c14,6,28.5,10.6,42.8,15.8c1.7,0.6,3.5,1.1,4.7,2.7c1.1,3.3-1.5,4.3-3.5,5.5c-4,2.4-8.2,4.6-12.3,7.2
	c-19.1,10.7-37.9,22-56.8,33.1c-3.4,2-6.6,4.5-10.7,5c-5.8,4.3-11.2,2.9-17.4,0.3c-16.1-6.8-32.6-12.8-48.9-19.2
	C395.5,700.9,392.8,700.2,392.5,696.9z"/>
<path class="st57" d="M1090.9,862.6c-4.4-11.8-11.8-19.8-25.3-23.9c13.2-4.2,21.2-11.9,25.2-25.2c4.3,12.7,11.6,20.7,24.9,24.9
	C1103.3,843.2,1094.7,850.3,1090.9,862.6z"/>
<path class="st26" d="M464.3,720.7c22-13.4,44.2-26.7,66.8-39c3.1-0.4,4.2,0.9,3.3,3.8c-21.4,12.8-42.8,25.6-64.3,38.4
	c-1.8,1.1-3.2,2.4-2.6,4.8C465.1,726.6,465.5,723.4,464.3,720.7z"/>
<path class="st2" d="M833.9,824.7c2.2,3.1,3.9,6.4,5.3,9.9C835.6,832.3,832,829.9,833.9,824.7z"/>
<path class="st2" d="M904,840.7c2.8-0.9,5.8-1.3,8.8-1.2l3.1,0.3C911.2,841.4,907.8,842.7,904,840.7z"/>
<path class="st2" d="M877,844.7c2.8-0.9,5.7-1.4,8.7-1.2l1.3,0.5C883.6,844.4,880.5,847.6,877,844.7z"/>
<path class="st2" d="M940.2,845c-0.8,0.3-1.7-0.2-2-1c-0.1-0.2-0.1-0.4-0.1-0.5c-0.1-1.3,0.4-2.3,1.8-2.4c1.2-0.1,2.3,0.8,2.4,2
	C942.5,844.4,940.9,844.4,940.2,845z"/>
<path class="st2" d="M897,841.8l1.8-0.2c1,0.3,2.2-0.3,3.3,0.7C900.3,842.8,898.6,843.1,897,841.8z"/>
<path class="st2" d="M925,837.7l1.7-0.2l3.4,0.4C927.5,838.8,926.2,839,925,837.7z"/>
<path class="st2" d="M918,838.7l1.8-0.2l2.9,0.4C920.6,839.9,919.2,839.9,918,838.7z"/>
<path class="st2" d="M870,845.7l1.7-0.2l3.4,0.4C872.6,846.8,871.3,847,870,845.7z"/>
<path class="st13" d="M388.6,449.2c-1.8-1.2-2.9-2.7-2.1-5c12.9-4.1,25.6-9,37.9-14.5c9.1-3.9,17.3-4.3,26.7-1.4
	c25.5,7.8,51.2,14.7,76.8,21.9c1.7,0.5,4.1,0.4,4.3,2.6c0.3,2.6-2.3,2.9-4,3.6c-14,6-28.1,11.8-42,18c-3.3,1.5-7,1.7-10.5,0.6
	c-28.2-8.5-56.5-16.9-84.8-25.2C390.3,449.5,389.5,449.4,388.6,449.2z"/>
<path class="st13" d="M543,451.6c-2.4-0.6-4.7-1.2-6.9-1.8c-21.2-6.2-42.2-12.6-63.5-18.5c-6.4-1.8-12.7-4.1-19.1-5.6
	c-1.6-0.4-3.6-0.5-3.8-2.6c-0.3-2.4,2-2.9,3.6-3.5c14.3-5.7,28.7-11.3,43-17c2.1-0.9,4.5-1,6.7-0.4c28.9,8,57.9,15.9,86.8,23.8
	c1.5,0.4,3.5,0.4,3.6,2.7s-1.8,2.5-3.3,3.2c-14.5,6.2-29,12.3-43.5,18.5C545.5,450.8,544.2,451.2,543,451.6z"/>
<path class="st12" d="M504.4,596.1c-16.6-5.7-33.2-11.5-49.8-17.2c-13.3-4.6-26.6-9.3-39.9-14c-1.5-0.5-3.3-0.7-4.5-2.2
	c25.5-7.7,51-15.4,76.5-23.1c108.7-32.5,217.3-65.1,326-97.6c11.8-3.5,23.7-6.5,35.2-10.7c8-2.9,14.8-1.2,22.4,2.6
	c-6,5.7-11.6,11.6-17.8,16.6c-8.8,7.1-11.8,15.8-8.6,26.5c0.8,2.6-0.3,3.5-2.6,4.2c-3.7,1.1-7.3,2.4-10.8,3.6
	c-1.1,0.4-2.2,0.8-2.4,2.2c-0.2,1.6,0.8,2.4,2.1,3c3.1,1.6,6.2,3.2,9.3,4.8c0.8,0.5,2.2,0.6,2.2,1.8c0,1.4-1.4,1.5-2.5,1.8
	c-16.3,5.6-32.6,11.2-48.9,16.8c-22.3,7.6-45.7,10.8-68.3,17c-2.7,0.7-6.8,0-7.6,3.5c-0.8,3.1,2.8,4.6,4.7,6.5c2.9,3.2,6.2,6,9.3,9
	c5.4,3,9.9,7.5,12.8,12.9c-0.4,2-1.2,3.8-3.4,4.3c-0.6,0.1-0.4-0.2-0.5,0.5c-0.3,4.9-2.5,7.1-7.7,8.3c-3.5-4-4.8-9-6.9-13.7
	c-3.3-7.4-3.2-7.7-11-7c-16.4,1.4-32.8,2.8-49.1,4.5c-3.3,0.4-6.6,0.3-9.9,0.8c-6.5,1-6.9,1.6-4.8,7.6c4.8,14,10,27.8,15,41.7
	c2.1,5.8,4.4,11.5,6.5,17.3c1.4,3.9,3.9,5.5,8,5c17.3-2,34.7-3.5,52-5.4c5.3-0.6,10.6-0.8,15.9-1.5c4.2-0.5,4.7-1.2,3-5.1
	c-3.3-7.8-6.7-15.5-10.2-23.3c-1-2.3-2.2-4.5-2.3-7c2.7-2.4,0.8-4.7-0.2-7c-2.1-4.7-1.8-5.1,3.1-4.6c0.8,0,1.7-0.1,2.4-0.4
	c3.5-0.9,4,1.1,2.7,3.5s-0.8,4,1,5.3c-0.7-1.3-2.8-2.4-1.1-4.3c1.5-1.7,2.7-0.2,4.1,0.7c-1.7-1.4-2.8-2.9-1.2-4.6
	c2.4-2.4,4.2,0.5,6.3,1c0.5-1.3-1.9-3.1,0.6-4.2c0.8-0.1,1.7,0.1,2.3,0.7c4.8,4.9,10.5,8.9,15.2,13.9c0.8,0.9,1.3,1.9,1.5,3
	c1.5,2.8,3.7,2.5,6.4,1.9c21.3-5.2,42.6-10.2,63.8-15.5c1.7-0.4,4.4,0,4.8-2.7c0.3-2.2-1.8-3-3.1-4.2c-0.9-0.9-1.9-1.8-2.8-2.7
	c-1.4-3.4,0.3-5.5,3.2-6.6c1.8-0.7,3.3-2.1,5.2-2.5c0.5,0.1,0.9,0.3,1.4,0.5c8.7,8.1,17.5,8,28.2,3c13.8-6.6,28.6-11.1,43-16.6
	c1.6-0.6,3.9-0.7,4.2-3c0.3-2.6-2-3.1-3.6-4.1c-3.8-2.3-7.7-4.5-11.5-6.7c-1.1-1.9-3-2.5-5-2.9l0,0c-1.1-1.1-1.1-3,0-4.1
	c0.4-0.3,0.9-0.4,1.3-0.4c1.2,1.3,2.9,1.9,4.6,1.8c6.3,3.6,12.2,1.9,18.3-0.9c8.6-3.9,17.4-7.3,26.1-10.8c2.1-0.9,4.3-1.5,6.6-1.7
	c3.7-1.4,7.4-2.7,11.1-4.2c1.2-0.5,2.6-1,2.7-2.6c0.1-1.8-1.2-2.6-2.6-3.3c-3.5-1.8-7.1-3.5-11.1-5.5c9-3.3,16.4-8.4,23.9-13.2
	c4-2.5,9.3-1.3,11.8,2.7c0.6,1,1,2,1.2,3.1c0,0.3,0.1,0.7,0.1,1c2.1,11.1,2.9,11.8,14.3,12c10.6,0.2,21.3,0.4,31.9,0.4
	c2.5,0,3.5,0.4,3.4,3.2c-0.2,6.4,1.4,8.1,8.3,8.2c10.8,0.2,21.6,0.1,32.4-0.1c4-0.1,7.9,0.5,11.7,1.8c14,4.7,28,9.2,42.2,13.9
	c-0.8,2-2.8,2-4.4,2.7c-66.3,26.6-132.6,53.1-199,79.6c-56,22.3-112.1,44.5-168.3,66.5c-1.7,0.7-3.4,1.1-5.2,1.7
	c-5.2,1-10.3-0.5-15.5-0.1c-9.1-3-18.2-6-27.2-9.2C658.2,650.7,591.1,626.9,524,603c-3.1-1.1-6.4-1.5-9.1-3.5c-1.6-1.8-1-3.6,0-5.4
	c0.9-1.1,2.5-1.5,3.8-1c1.5,0.9,1.8,2,0.8,3.5c3.2-0.6,0.2-3.3,1.5-4.6c3.9-3.5,9-4.2,13.6-5.9c11.7-4.3,23.5-8.3,35.2-12.5
	c2.3-0.8,4.7-1.7,7.3-1.5c6.2,2.1,8,0.9,8.5-5.6c0.1-1.3,0.4-2.2,1.8-2.5c5.2,2,9.9,0.3,14.9-1.5c18.2-6.5,36.3-13.1,54.5-19.6
	c0.6-0.2,1.3-0.4,1.9-0.7c1.8-1,5-0.9,5.2-3.2s-3-2.6-4.8-3.7c-12-6.9-24.5-12.7-36.8-19c-2.7-1.4-5.4-2.3-8.6-1.3
	c-23.8,8-47.5,16.2-71.2,24.8c-2.5,1.8-5.2,3.4-8.1,4.7c-4.1-0.8-7.8,0.2-11.7,1.6c-14.5,5.3-29.3,9.9-44,14.8
	c-4.3,1.4-8.5,2.8-12.8,4.3c-1.6,0.6-4.1,0.6-4.1,2.9c0,2,2.3,2.1,3.7,2.9c11.4,5.8,23.1,11,34.8,16.3c2.1,1,4.3,1.8,5.8,3.7
	C505.9,593.2,507.4,595.3,504.4,596.1z"/>
<path class="st21" d="M895.8,521c-3.5,1.5-6.8,3.6-9.8,6c-2.4,4-6.4,5.7-10.6,6.8s-7.7-2.8-7.4-7.7c0.1-1.8,0.8-3.6,2.1-4.9
	c3.8-8.7,10.5-14.8,18.5-19.6s14.8-10.7,19.8-18.6c3.9-6.2,3.7-9.2-0.8-14.9c-9.2-11.5-10.7-11.3-22.1-2.4
	c-11.1,8.7-19.9,18.4-22.6,32.9c-1.5,7.9-5.6,15.2-10.3,21.9c-2,2.9-4.3,5.5-8,6.4c-3.8,0.9-5.6-0.7-4.7-4.3
	c4-15.1,6.5-30.5,9.1-45.9c1-5.4,3.3-10.5,6.9-14.6c8.1-9.7,15.7-19.8,22.6-30.4c5.4-8.3,12.8-11.7,22.4-10.9
	c14.9,1.3,29.8,2.3,44.8,3.7c16.1,1.5,32.2,2.3,48.3,2.3c3.6,0,4.7,0.9,5.2,4.5c1.9,14.3,2.8,28.8,2.9,43.3c0,3.1-0.4,4.8-4.1,4.8
	c-4.9,0.1-9.5,1.8-13.4,4.8c-14.1,10.3-30.1,15.8-47.1,19c-9.6,1.8-18.9,4.7-27.4,9.9C906,517.2,901.1,519.5,895.8,521z"/>
<path class="st12" d="M731.2,549l-11.9-10.4l0.9-1.7c6.2-1.5,12.3-3.2,18.4-4.6c12.4-3,24.8-5.8,37.2-8.8c2.6-0.6,4.5-0.6,6.8,1.4
	c13.7,12.3,27.5,24.4,41.3,36.7c1.1,1.1,2.2,2.3,3.2,3.6c-0.7,4,1.8,7.4,2.4,11.2c0.2,0.9,1.1,1.6,0.6,2.7
	c-17.4,4.3-34.8,8.6-52.2,12.9c-1.3,0.3-3,0.8-4.1-0.8c-4.7-3.4-9.1-7.2-13.1-11.3c-8.5-8.6-17.1-17.1-25.6-25.6
	C733.5,552.6,731.8,551.2,731.2,549z"/>
<path class="st3" d="M1005.8,477.2c0.4-18.3-1-36.6-4.4-54.5c-0.4-2.2,0.2-2.6,2-2.7c12.1-1,24.2-2,36.3-3.1
	c2.8-0.3,2.8,1.6,3.3,3.4c5.9,21.2,8.6,43.1,8.2,65c-0.1,4.6-0.4,9.3-0.5,14c-0.1,2.6-1.1,3.8-3.9,3.8c-12.3,0.1-24.6-0.1-36.9-0.7
	c-3.3-0.1-4.2-1.5-4-4.7C1006,490.8,1005.8,484,1005.8,477.2z"/>
<path class="st3" d="M800.1,516.3l40.2-14c-0.7,6.6-2.6,12-3.9,17.6c-0.8,3.6-2.1,7.4,1.7,10c4,2.8,8,1.4,11.6-1
	c4.6-3,7.3-7.6,10.1-12.2c0.7-1.2,0.5-4.7,3.8-2.7c2.2,1.3,5.3,1.9,3.4,5.6c-0.1,0.5-0.2,1-0.2,1.5c1,2.5,0.4,5.2,0.6,7.8
	c0.6,5.3,3.9,7.5,9,5.8c1.9-0.6,3.6-1.7,5.4-2.4c4.1-1.7,6.4-0.6,8.4,3.8c-1.4,1.9-3.6,2.3-5.6,3c-10.5,3.5-21.1,7-31.6,10.6
	c-1.8,0.6-3.9,0.9-5.3,2.5c-0.2,0.9-0.8,1.7-1.7,2c-15.7-9.5-31.3-19.1-47-28.6c-0.7-0.5-1.3-1-1.8-1.7c-0.5-2.2-0.9-4.4,0-6.6
	l0.9-0.3C798.9,517.3,799.7,517,800.1,516.3z"/>
<path class="st41" d="M913.3,515.3c12.9-5.7,26.7-8.6,40.3-12c3.5-0.9,6,0.1,8.8,1.6c2.4,1.3,4.9,2.4,7.9,3.9l-9.4,4.3
	c-3.8,3.5-8.9,4.4-13.4,6.5c-7,3.1-14.2,5.7-21.2,8.8c-4.5,2-8.6,2.1-12.8-0.5c-1.1-0.7-2.4-1.2-3.5-1.8c-2.4-1.4-6.4-2.2-5.9-5.3
	c0.5-3.4,4.4-4.5,7.7-5.3C912.3,515.5,912.8,515.4,913.3,515.3z"/>
<path class="st58" d="M889.1,529.2c1.8-0.5,3.2,0.6,4.6,1.3c8.5,4.7,16.9,9.4,26.1,14.5c-8,3.2-15.3,6.1-22.7,8.9
	c-7.9,3-16,5.5-23.6,9.2c-6.7,3.3-12.2,2.8-17.4-2.3c-0.1-1.5,1.1-2,2.1-2.7c11.1-4.3,22.6-7.7,33.9-11.6c2.3-0.8,4.8-1.5,7.1-2.4
	c1.3-0.5,3.4-0.5,3.5-2.3s-2-1.9-3.2-2.7c-2.1-1.3-4.2-2.7-6.2-4.2C891.8,533.1,887.5,533.3,889.1,529.2z"/>
<path class="st58" d="M849.5,561.9c-0.9,1-0.1,3.2-3.1,3c-3.4-0.2-5,2.8-5.3,6.1c-16.7-14.7-33.3-29.4-50-44.1
	c-0.2-0.1-0.1-0.6-0.1-1.8C810.7,537.6,830.6,549,849.5,561.9z"/>
<path class="st14" d="M885.8,471c-0.6,6.7-0.8,12.5-4.4,17.5c-1.3,1.8-0.3,3.4,1,4.9c3.1,3.5,3.4,6.5-1.4,8.9
	c-1.3,0.7-2.5,1.6-3.5,2.8c-2.7,3.6-4.5,3-6.5-0.8c-3.9-7.3-1.7-19.7,4.7-24.9C879,476.7,882.1,474.1,885.8,471z"/>
<path class="st51" d="M913.3,515.3l-9.9,5.8c5.4,2.8,10.3,5.4,15.3,8c1.8,0.9,3.2-0.2,4.7-0.8c12.5-5.1,24.8-10.7,37.6-15.1
	c-0.1,1.3,0.8,2.5,2,3c-13.8,5.7-27.6,11.6-41.5,17.1c-3.8,1.5-6.7-2.3-10.2-3.2c-1.2-0.3-2.6-0.3-3.3-1.7c-0.1-0.3-0.5-0.4-0.7-0.3
	c-3.7-0.5-7.2-1.9-10.2-4.1c2.6-2.3-0.3-2.2-1.2-3c4.4-3.1,9.2-5.8,14.2-7.8L913.3,515.3z"/>
<path class="st59" d="M900.8,468c-1.3,2.2-2,5-4.3,6.5c-3.7,2.4-3.2,4.9-0.3,7.5c0.4,0.3,0.6,0.8,1,1.1c3.3,3.1,3,5.9-0.9,8.3
	c-1,0.6-1.8,1.5-2.8,2.1c-1.5,0.8-3.1,3.8-4.7,1.8s-4.7-4.2-2.4-8.1c2.7-4.7,3-10.1,2.6-15.5c-0.3-4.4,2.6-6.2,5.4-8.2
	C896,462.4,901,466,900.8,468z"/>
<path class="st60" d="M731.2,549c14.4,13.8,28.8,27.6,42.6,42.1l-1.8,3.2L753.4,577c-5.7-3-9.8-7.6-13.2-13L728,551.2L731.2,549z"/>
<path class="st51" d="M889.1,529.2c-0.5,3.8,3.5,3,4.9,5c-1.2,1.2-2.2,2.7-4.2,1.9c-2.3-2.8-4.4-4.4-8.3-2s-8.2,5.1-12.4,1.4
	c-4.4-3.9-3.9-9.1-2.3-14.3l3.2,0.1c0,2.6-1.3,5.1-0.5,7.8c1,3.3,2.8,5.3,6.5,3.4c3.3-1.7,6.6-3.5,9.9-5.3
	C885.5,529.9,886.7,530.4,889.1,529.2z"/>
<path class="st61" d="M830.1,579c-0.7-2.4-5.5-3.3-2.5-7.1c0.2-0.2-0.6-1.5-1.2-1.9c-3.1-2.1-1.4-3.5,0.6-4.8
	c5,2.9,8.7,7.3,13.5,11.3C836.7,577.7,833.5,578.8,830.1,579z"/>
<path class="st62" d="M846.2,469.7c0.3-12,9.6-16,15.6-22.3C857.7,455,851,460.9,846.2,469.7z"/>
<path class="st63" d="M897,524c4.1-0.4,7.1,2.1,10.2,4c-1.7,1-1.1,2.7-1.3,4.1c-3-1.2-6.1-2.2-8.9-3.7
	C894.6,527.3,893.7,525.5,897,524z"/>
<path class="st64" d="M514.4,595.1c0,1.6,0,3.1,0,4.7l-10.1-3.8c1.8-0.9-0.2-2.9,1.1-3.9C509.1,591.2,511.8,593,514.4,595.1z"/>
<path class="st65" d="M752,683.9c5.2-2.8,10.3-0.5,15.5,0.1C762.3,688.1,757.2,687,752,683.9z"/>
<path class="st66" d="M834.7,487.5c3.4-0.4,5.7-3.4,8.6-1.4c0.6,0.4,0.1,4.3-0.6,4.5C839.7,491.6,837.6,489.2,834.7,487.5z"/>
<path class="st67" d="M899.8,475.9c2.2,1.9,4.2,3.5,4.9,5.9c0.2,0.8-1.2,3.1-2.3,2.4c-2.2-1.3-3.6-3.4-4-5.9
	C898.3,477.6,899.2,476.8,899.8,475.9z"/>
<path class="st68" d="M858,559.2l-1.9,1.6c-3.6-1.8-7-4.1-10.1-6.7l1-1.8C851.6,553.1,855.5,555.1,858,559.2z"/>
<path class="st69" d="M797.1,517.3c1.8,2.2,1.2,4.4,0,6.6c-2.4-1-4.6-2.5-6.5-4.3C792.6,518.4,794.8,517.7,797.1,517.3z"/>
<path class="st70" d="M870.1,512.5c-2.2-1-4.1-1.8-5.9-2.7c-1.2-0.6-0.8-1.6-0.3-2.5c0.4-0.8,0.8-1.7,1.8-1
	C867.5,507.8,870.6,508.4,870.1,512.5z"/>
<path class="st3" d="M1042.8,406.1c2.6-5.8,7.3-2.6,11.3-2.7C1050.4,404.8,1046.3,404.2,1042.8,406.1z"/>
<path class="st71" d="M1118.8,517.3c-1.4,1.4-3.9-0.4-5,1.7c-1.4,0.2-2.3-0.5-3.4-1.7C1113.2,516.9,1116,516.9,1118.8,517.3z"/>
<path class="st4" d="M1145.7,517.1c-3.3,1.8-6.6,1.5-10,0.2L1145.7,517.1z"/>
<path class="st63" d="M905.9,532.2c2.8-1,4.4,0,5,2.9C909.1,534.5,907.4,533.5,905.9,532.2z"/>
<path class="st3" d="M1054.8,403.4c2.6-2,5.6-0.7,8.4-0.9C1060.5,403.6,1057.6,403.4,1054.8,403.4z"/>
<path class="st72" d="M905.7,472.4c0.1,0.9-0.3,1.4-1,1.3c-0.6-0.2-1.1-0.6-1.4-1.1c-0.3-0.4-0.2-1,0.2-1.3c0.1-0.1,0.3-0.2,0.5-0.2
	C905.1,470.9,905.1,472.1,905.7,472.4z"/>
<path class="st3" d="M1065.8,402.2c2-1.6,4.2-0.6,6.4-0.8C1070.2,402.5,1068,402.3,1065.8,402.2z"/>
<path class="st73" d="M859,406.3c1.8-1.5,4.4-1.5,6.2,0H859z"/>
<path class="st69" d="M800.1,516.3c0.2,0.7,0.4,1.3,0.5,2c-1.2,0.5-1.9-0.3-2.6-1.2C798.5,516.3,799.3,516,800.1,516.3z"/>
<path class="st3" d="M1074.8,401.2c2-1.6,4.3-0.6,6.5-0.8C1079.2,401.5,1077,401.3,1074.8,401.2z"/>
<path class="st3" d="M1083.8,400.2c2-1.6,4.3-0.6,6.5-0.8C1088.2,400.5,1086,400.3,1083.8,400.2z"/>
<path class="st3" d="M1059.2,400.7l4.8-3.7C1064.7,401.2,1064.3,401.5,1059.2,400.7z"/>
<path class="st3" d="M1074.5,395.9c-0.3,0.4-0.8,0.7-1.2,1c-0.2,0.1-0.7-0.4-1-0.6c0.4-0.4,0.8-0.8,1.2-1.2
	C1073.9,394.9,1074.3,395,1074.5,395.9z"/>
<path class="st3" d="M1067.5,393.3c0.4-0.2,0.8-0.6,1.2-0.6c0.3,0,0.6,0.2,0.7,0.5c0,0.2,0,0.4-0.2,0.5c-0.2,0.3-0.8,0.4-1.3,0.4
	C1067.8,394.2,1067.7,393.7,1067.5,393.3z"/>
<path class="st63" d="M534.3,685.6c-0.1-1.9-1.5-3.4-3.3-3.8c4.3-2.5,8.5-5.1,12.8-7.6c1.7-1,3.6-1.8,3.7-4.3
	c-0.3,1.4,5.2,1.4,0.8,4c-1.1,0.7,1.3,1.3,2,2C545.2,679.5,539.9,682.8,534.3,685.6z"/>
<path class="st7" d="M268.5,510.4c6.1-0.5,10.6,3.9,16.1,5.4c0.7,0.2,1.2,0.9,1,1.6c0,0.1-0.1,0.3-0.2,0.4
	c-1.2,3.4-2.5,6.8-3.7,10.3c-0.5,1.6-1.5,1.5-2.7,1.1c-6.9-2.6-14.2-4.5-20.4-8.9c-1.2-0.9-2.3-1.9-3.2-3.1
	c-1.1-1.4-2.4-3.1-1.5-4.9s3-1,4.5-1.1C261.9,510.7,265.2,510.6,268.5,510.4z"/>
<path class="st74" d="M281.5,509.1c2.5,0.5,4.6-0.9,6,1c0.3,0.3-0.2,1.7-0.4,1.7C285.4,511.7,283.4,511.6,281.5,509.1z"/>
<path class="st75" d="M283.5,496.4l2-1c0.7,0.3,2.1,0.8,1.8,1.2C286.2,497.9,284.7,497.3,283.5,496.4z"/>
<path class="st12" d="M673.8,888.5c-4.5-0.3-8.8-3-13.5-1.3c-0.6,0.1-1.2-0.2-1.3-0.8c0-0.1,0-0.2,0-0.3c0-0.5,0.5-1.5,0.9-1.5
	c5.2-0.5,9.7-4.7,15.4-2.2c1.6,0.7,3.3,1.2,2.7,3.3C677.4,887.5,675.7,888.7,673.8,888.5z"/>
<path class="st12" d="M176.8,854.9c-1,0.1-1-0.7-1-1.3c0-0.9,0.3-1.7,1.3-1.7c0.7-0.1,1.3,0.3,1.4,1c0,0.2,0,0.4,0,0.5
	C178.5,854.3,177.7,854.6,176.8,854.9z"/>
<path class="st12" d="M932.3,366.2c0.2-3.3,1.9-4.5,4.1-5.5c2.8-1.3,3.7,3.6,6.5,1.7c0,1-0.1,2-0.3,2.9c-0.4,0.9-1.4,1.3-2.3,1
	c-0.1,0-0.1-0.1-0.2-0.1C936,364.5,935.5,364.5,932.3,366.2z"/>
<path class="st12" d="M944.8,359.6c1.2,0.1,2,1.1,2,2.3c0.1,0.7-0.4,1.3-1.1,1.4c-0.2,0-0.3,0-0.5,0c-0.9-0.2-2.5,0-2.2-1.8
	C943.1,360.4,943.4,359.5,944.8,359.6z"/>
<path class="st12" d="M954.8,364.2c-1.9-0.3-3.2-0.3-4-1.5c-0.1-0.2,0.6-1.3,1.1-1.4C953.8,360.7,954.3,362.1,954.8,364.2z"/>
<path class="st12" d="M1121.5,685.4l-45.8,22.2c-1.3,0.7-2.5,0.2-3.8-0.4c-31.3-13.6-62.7-27.1-94-40.7c0.2-1.4,1.5-1.4,2.5-1.8
	L1021,647c1.8-0.8,3.5-1.3,5.6-0.5c31,12.6,62,25.1,93,37.6C1120.3,684.5,1120.9,684.9,1121.5,685.4z"/>
<path class="st2" d="M293.4,887.8c0.2,0.6-0.2,1.3-0.8,1.4c0,0,0,0-0.1,0c-0.6,0.2-1.3-0.1-1.6-0.7c-0.1-0.2-0.1-0.4-0.1-0.5
	c-0.1-0.6,0.4-1.2,1-1.3h0.1C292.7,886.7,293.3,887.1,293.4,887.8L293.4,887.8z"/>
<path class="st12" d="M910.3,760.9c22.6-6.3,44.3-12.4,65.9-18.6c1.2-0.4,2.6-0.2,3.6,0.7c24.5,18.7,49.1,37.4,74,56.4
	c-15,5.1-29.5,10.1-44,15.1c-7.2,2.5-14.4,4.9-21.6,7.5c-1.8,0.6-3,0.7-4.5-0.5C959.5,801.5,935.3,781.6,910.3,760.9z"/>
<path class="st12" d="M782.9,770.9c3.1-1,4,1.1,4.8,4c6.3,23.2,12.8,46.3,19.3,69.4c0.9,3.3,0.2,4.1-3.3,4.3
	c-27.6,1.7-55.1,3.5-82.6,5.5c-2.8,0.2-3.4-0.7-3.9-3c-4.6-23.6-9.3-47.2-13.9-70.8c-0.4-1.9-2-4.4,2.4-4.7
	C731.3,774.2,756.8,772.5,782.9,770.9z"/>
<path class="st12" d="M933.6,832l-31.5,4.6c-15.1,2.2-30.3,4.3-45.3,6.8c-5.1,0.8-8.1,0.2-10.8-5.1c-11.6-22.5-23.8-44.8-36.2-67.7
	c7.6-0.9,14.8-1.9,22-2.7c18.2-2.2,36.3-4.3,54.5-6.5c2.4-0.3,3.9-0.3,5.3,2.1c13.8,22.5,27.7,44.9,41.7,67.3
	C933.5,831.1,933.6,831.6,933.6,832z"/>
<path class="st12" d="M614.6,697.1c-9.5,6-18.5,11.6-27.4,17.3c-17.2,10.9-34.5,21.9-51.7,32.8c-1.7,1.1-3.1,1.8-5.4,0.9
	c-17.8-6.9-35.7-13.5-53.5-20.2c-0.6-0.2-1.1-0.5-2.5-1.1c5.9-3.5,11.2-6.6,16.5-9.8c21.4-12.8,42.8-25.6,64.1-38.3
	c1.3-0.8,2.4-2,4.5-1.2C577.4,684,595.7,690.4,614.6,697.1z"/>
<path class="st20" d="M399.9,697.9l43.5-23.8c13.1-7.2,26.2-14.4,39.2-21.6c1.8-1,3.3-1.6,5.5-0.8c16.6,6.3,33.3,12.3,49.9,18.4
	c0.7,0.4,1.4,0.8,2.1,1.2c-9.3,5.3-18.3,10.4-27.2,15.7c-17.6,10.3-35.2,20.5-52.8,31c-2.3,1.6-5.3,1.8-7.8,0.6
	C435.2,711.7,418.1,705,399.9,697.9z"/>
<path class="st12" d="M523.6,453.8c-13.6,5.8-26.9,11.4-40.2,17.1c-1.5,0.7-3.2,0.7-4.8,0.2c-27.4-8-54.7-16.1-82.1-24.1
	c-0.4-0.1-0.7-0.6-1.4-1.2c14-5.5,27.6-10.8,41.3-16.2c1.1-0.4,2.3-0.4,3.4,0l82.3,23.2C522.6,453.2,523.1,453.5,523.6,453.8z"/>
<path class="st12" d="M457.9,422.3c14.5-5.7,27.9-10.9,41.2-16c1.1-0.3,2.3-0.3,3.4,0.1c27.2,7.3,54.3,14.7,81.5,22.2
	c-0.4,2-2,2-3.1,2.5c-10.9,4.8-22,9.3-32.9,14.2c-3.1,1.5-6.7,1.7-9.9,0.6C511.8,438.1,485.5,430.4,457.9,422.3z"/>
<path class="st36" d="M736.1,590.3c4.5,10.5,9,21,13.5,31.5c2.2,5,1.8,5.7-3.5,6.2c-22.7,2.2-45.3,4.5-68,6.8
	c-8,0.8-8.1,0.9-10.8-6.5c-7.4-20.2-14.8-40.5-22.1-60.7c-2.1-5.7-1.8-6.1,4.2-6.7c22-2,44-4,66.1-6.1c3.2-0.3,4.8,0.5,6,3.6
	c2.5,6.4,5.6,12.5,8.5,18.8C733.9,580.7,735,585.5,736.1,590.3z"/>
<path class="st56" d="M514.4,595.1c-3.4,0.1-5.9-2.3-9-3c-14-6.7-28-13.3-42.1-19.9c-1.9-0.9-4.7-1.3-4.5-3.9s3-2.6,5-3.3
	c20.8-7.1,41.7-14,62.4-21.3c3-1,5.4-0.3,8.1,0.4c7.9,1,14.3,5.9,21.4,8.9c7.9,3.3,15.6,7.2,23.5,10.7c2.4,1.1,5.4,2.2,4.7,5.5
	s-3.5,4.1-6.6,3.7c-17.7,6.1-35.3,12.1-53,18.2c-1.3,0.6-2.7,1.2-3.9,2c-0.5,0.7-1.3,0.9-2.1,0.7
	C516.9,593.9,515.5,593.9,514.4,595.1z"/>
<path class="st76" d="M540.6,539.2c24-8.3,47.9-16.6,71.8-25c3-1.1,6.2-0.8,8.9,0.8c13.8,7.2,27.7,14.2,41.6,21.3
	c1.4,0.7,3.5,1.2,3.2,3.3c-0.2,1.7-1.9,2-3.3,2.5c-22.3,8-44.6,15.9-66.8,24.2c-3.8,1.4-6.3-0.8-9.4-1.4c-1.6-0.4-3.2-0.4-4.8-1.2
	c-12.5-6.4-25.3-11.8-37.7-18.4C541.8,544.1,538.6,543,540.6,539.2z"/>
<path class="st77" d="M736.1,590.3c-2-4.4-4-8.8-6.1-13.2c4.9-3.2,6.1-9.3,10.2-13.2l13.2,13c-2.2,2.6,3,3.9,1,6.7
	c-1.8-1.1-3.6-2.1-5.3-3.2c-0.9-0.6-1.7-1.3-2.5-0.1s-0.3,2.2,0.9,2.8c0.7,0.4,1.5,0.8,2.2,1.2c0.6,0.4,1.1,0.9,0.7,1.6
	c-0.3,0.7-1.2,1-1.9,0.6c-0.1,0-0.2-0.1-0.3-0.2c-0.7-0.5-1.2-1.1-1.9-1.7S745,583,744,584c-1.3,1.2-0.2,2.1,0.6,2.9
	c1,1.1,2,2.1,3.2,3.4c-2.2-0.1-5.3-1.7-6.3-3.4c-1.5-2.6,2.1-4.2,1.4-7.1c-2.4-0.4-5.5,4.4-7.7-1c-0.3,4,2.1,6.6,3.1,9.6
	C739.4,591.9,736.2,589.1,736.1,590.3z"/>
<path class="st64" d="M540.6,539.2c-1.1,3.2,1.4,3.9,3.5,4.9c13.6,6.6,27.3,13.2,41,19.8c0.6,0.3,1.1,0.7,1.6,1
	c-0.7,2.5,0.5,5.2-1.4,7.6c-2.7,3.4-5.2,2.6-7.8,0.3c1.7-1.8,6-1,5.7-4.4c-0.3-3-3.9-3.2-6.2-4.3c-14.2-6.7-28.3-13.3-42.5-20
	C535.8,541.7,539,541.5,540.6,539.2z"/>
<path class="st64" d="M518.3,593.8c0.5-0.6,1.3-0.9,2.1-0.7c0.7,1,2.3,2.5,2.1,2.8c-1.1,1.8-3,2.2-5.4,2.1
	C518,596.5,519.7,595.5,518.3,593.8z"/>
<path class="st63" d="M908,528.3c1.2,0.2,2.4,0.8,3.2,1.7C909.4,530.8,907.6,531.5,908,528.3z"/>
<path class="st78" d="M858,559.2l-11-6.8c0.1-3.2,3-2.9,4.9-3.6c12.6-4.4,25.2-8.5,37.9-12.8c1.4-0.7,2.3-2.4,4.2-1.9l9.2,5.7
	c1,0.6,2.4,1,2.4,2.2c-0.1,1.6-1.7,1.8-2.9,2.2c-13.8,4.6-27.5,9.2-41.3,13.8C860.2,558.4,859.1,558.8,858,559.2z"/>
<path class="st79" d="M987.4,787.5c-3.5-0.4-5.9-0.5-8.2-0.9c-4.3-1-7.1-5.3-6.1-9.6c0.1-0.6,0.3-1.1,0.5-1.6c0.9-2,2.5-2.2,4.1-2
	c3.6,0.5,7.2,1.1,10.8,1.9c3.3,0.8,6.2,2.4,5.3,6.5C992.9,785.7,990.2,787.6,987.4,787.5z"/>
<path class="st5" d="M869.9,808.8c-1.4-0.3-2.9-0.6-4.3-1.1c-3.3-1.3-6.7-2.6-5-7.4c2.4-6.7,5.2-8.6,10.2-6.5c2.9,1.2,5.7,2.5,8.5,4
	c1.7,0.9,3.6,2.1,3.3,4.5c-0.3,2.2-1.8,4.1-4,4.6C875.7,807.8,872.8,808.2,869.9,808.8z"/>
<path class="st12" d="M660.3,564.2c17.7-1.7,35.4-3.3,53.1-5.1c2.7-0.3,4.1,0.5,5.2,3.1c8.5,19.3,17,38.5,25.7,57.6
	c1.3,3,1.5,4-2.5,4.4c-21.7,1.9-43.3,4.3-65,6.4c-1.8,0.2-3.7,1-4.8-1.9c-6.4-17.4-13.2-34.6-18.9-52.3
	C656,572.7,657.5,568.1,660.3,564.2z"/>
<path class="st80" d="M660.3,564.2c1,2.1,1.9,4.1-1.6,4.5c-0.7,0.1-1.6,0.3-1.3,0.9c3.1,5.2-3.3,4.3-4.3,6.8
	c-1.8-3.6-3.2-7.3-4.2-11.2C652.8,564.8,656.5,563.9,660.3,564.2z"/>
<path class="st52" d="M465.5,568.7c21.2-7.2,41.5-13.9,61.7-20.8c2.4-0.8,4.2-0.2,6.1,0.7c12.2,5.9,24.8,10.7,36.4,17.6
	c1.4,0.8,3.5,0.1,4.3,2.7c-8.9,3.3-17.9,6.6-26.9,9.8c-10.3,3.7-20.5,7.4-30.8,11.1c-1.5,0.5-2.9,1.1-4.7,0.3
	C496.6,583.1,481.6,576.2,465.5,568.7z"/>
<path class="st21" d="M659.2,539l-44,16c-2.3,0.8-4.9,1.3-7,2.5c-10.3,5.7-19.8,4.9-30-1.3c-9.4-5.7-19.8-9.8-30.5-15
	c11.9-4.2,23.1-8.2,34.3-12.1c10-3.5,20.1-6.8,30.1-10.4c2.7-1.2,5.8-1,8.4,0.4C632.9,525.7,645.5,532,659.2,539z"/>
<path class="st81" d="M896.5,541.9c-11.8,4-23.3,7.8-34.7,11.7c-2.4,0.8-4.5,1.3-6.4-0.8C861,548.4,892.7,539.6,896.5,541.9z"/>
<rect x="-47" y="-9.3" class="st0" width="93.6" height="60.3"/>
</svg>
