<svg id="Ebene_1" data-name="Ebene 1" xmlns="http://www.w3.org/2000/svg" viewBox="0 0 560.05 749.43"><path d="M287.49,618c-10.75,2.81-9.57-9.92-17.15-10.85-2.83,2.37-.93,6-1.52,8.94a2.66,2.66,0,0,1-2.62,2.42c-2,.22-3.25-.67-3.26-2.66-.05-7.66,0-15.33.07-23a2.34,2.34,0,0,1,2.06-2.56,2.08,2.08,0,0,1,.35,0c4.65,0,9.4-.43,13.94.34,5.54.94,8.79,7.48,5.05,11.38-4.76,4.95-1.72,7.76.6,11.44C285.7,614.52,286.26,615.71,287.49,618Z" style="fill:#1a171a"/><path d="M297,604.88c0,3.81.08,7.63,0,11.44,0,1.53-1.25,2.18-2.71,2.23s-2.89-.64-2.91-2.06c-.14-8-.35-16,.06-24,.18-3.44,3.43-2.81,5.34-1.63,1.58,1,2.47,3,3.65,4.64,2.25,3.06,3.41,7,8,10.54V593a2.54,2.54,0,0,1,2.25-2.78c2.1-.22,3,1.17,3.05,3,.11,7,.11,14,.13,21,0,1.64.08,3.45-2,4a4.28,4.28,0,0,1-5.2-1.75l-8-12.1Z" style="fill:#1b1314"/><path d="M170.1,606.54c-3.9,2.28-3.82,5.66-3.84,9a2.82,2.82,0,0,1-2.61,3,3.54,3.54,0,0,1-.56,0c-2,0-2.77-1.47-2.77-3.37V594.24c0-2,.29-4.14,3.14-4,2.07.13,2.63,1.63,2.82,3.41.2,1.93-.34,4,1,5.83,6-1.71,7.44-12,16.44-8.74-1.5,4.56-6.17,6.67-8.42,10.76l9.33,15.33c-6.07,1.89-6.06,1.88-8.58-1.72C174.15,612.47,173.43,609.06,170.1,606.54Z" style="fill:#1c191f"/><path d="M354.75,604.15c0-14.87,0-14.87,15.18-14a29.83,29.83,0,0,1,3,.15c1.47.24,2.43,1.22,2.11,2.69a2.18,2.18,0,0,1-2.19,1.64c-3,0-6,.12-9,.23a2.85,2.85,0,0,0-3.07,2.61,3.53,3.53,0,0,0,0,.46c-.06,1.92.8,3.19,2.79,3.34,3,.22,6,.23,8.93.49a1.94,1.94,0,0,1,1.85,1.87,1.9,1.9,0,0,1-1.73,2,54.78,54.78,0,0,1-8,.29c-3-.11-4,1.14-4,4.1s1,4.22,4,4.11,6,0,9,.14a2,2,0,0,1,2,1.81c.29,1.69-.84,2.32-2.27,2.49-1,.12-2,.11-3,.16C354.75,619.52,354.75,619.52,354.75,604.15Z" style="fill:#18161b"/><path d="M236.79,601.76c.36-13.83-3-11.36,14-11.64a35.56,35.56,0,0,1,4,.13c1.47.14,2.49,1,2.29,2.53a2,2,0,0,1-2,1.75c-2.66.1-5.31.18-8,.21-2.11,0-4.05.29-4.23,3-.22,3.38,2.08,3.65,4.58,3.62a5.57,5.57,0,0,1,1,0c2.72.46,7.69-1.17,7.59,2-.13,4.72-5.22,2.08-8.12,2.48-2.69.37-5.18-.14-5.23,4,0,3.8,1.74,4.44,4.86,4.29,2.66-.12,5.32.08,8,.08a2.11,2.11,0,0,1,2.12,1.7,2,2,0,0,1-2.06,2.61c-5.31.11-10.63.12-16,.07-2,0-2.77-1.42-2.78-3.29C236.78,611.32,236.79,607.33,236.79,601.76Z" style="fill:#18161b"/><path d="M317.1,618c-.73-3.68,1.2-6.26,3.39-8.9,3.36-4.06,6.49-8.32,10-12.81-2.94-2.45-6-1-8.72-1.52-1.37-.26-2.63-.6-2.6-2.28s1.21-2.19,2.64-2.19h16.93c2,1.78,1.55,3.69.3,5.65l-.12.18a15.4,15.4,0,0,0-1.56,1.94l-.26.4a2.13,2.13,0,0,0-1.35,1.62,1.62,1.62,0,0,0-1.08,1.51,3.06,3.06,0,0,1-1.77,2.29l-.07.09a9.54,9.54,0,0,1-1.7,2l-.15.21a8.09,8.09,0,0,0-1.58,1.91l-.29.44a1.81,1.81,0,0,0-1.3,1.54,1.56,1.56,0,0,0-1.07,1.51,1.69,1.69,0,0,0,.36,2.25l11.87.35c1.94,3.69-.24,4.94-3.31,4.79C329.43,618.61,323.16,620.24,317.1,618Z" style="fill:#1b171b"/><path d="M212.72,604.61c0-3-.13-6,.05-9,.13-2.07-1-5.25,2.63-5.32,4.16-.08,3.22,3.42,3.29,5.88a122.55,122.55,0,0,1,0,13c-.3,4.11,1.48,5,5.21,5.08,2.89.09,8.23-2.22,8.21,2.21,0,4.17-5.36,2.2-8.28,2.21-13.1.08-10.84,1.35-11.07-11.06C212.71,606.61,212.72,605.61,212.72,604.61Z" style="fill:#271d1b"/><path d="M380.89,604.17v-10.9c0-1.81.74-3.17,2.87-3.11a2.82,2.82,0,0,1,3,2.62,2.36,2.36,0,0,1,0,.46c.08,4.63,0,9.25.12,13.88.11,6.62.14,6.51,7,7,2.33.17,6.33-1.49,6.5,2.12.19,4-3.93,2.35-6.17,2.45C380.82,619.31,380.82,619.23,380.89,604.17Z" style="fill:#201f27"/><path d="M343.32,604.23c0-3.93-.09-7.88.06-11.81.05-1.43,1.26-2.14,2.72-2.2s2.72.63,2.75,2.09c.14,7.87.15,15.75.14,23.63,0,2.1-1.45,2.78-3.3,2.55-1.34-.17-2.49-.77-2.49-2.44V604.23Z" style="fill:#060507"/><path d="M194.36,604.21c0,4,.18,7.95-.09,11.89-.11,1.77-1.65,2.71-3.57,2.47a2.52,2.52,0,0,1-2.42-2.59c0-7.6-.06-15.2,0-22.8a2.77,2.77,0,0,1,2.5-3h.5a2.93,2.93,0,0,1,3,2.85,1.82,1.82,0,0,1,0,.33c.08,3.64,0,7.27,0,10.9Z" style="fill:#2d3241"/><path d="M317.1,618c6.22,1.25,12.51.44,18.77.58,3.08.07,4.18-1.42,3.06-4.37,3.43,2.09,2.53,5.33-.29,5.51C331.48,620.08,323.91,622.6,317.1,618Z" style="fill:#e8e5e4"/><path d="M205.43,607.45a5.18,5.18,0,0,1,2.11.25,1.87,1.87,0,0,1,1.42,2.16,2,2,0,0,1-1.78,1.87,48.28,48.28,0,0,1-5.77.1,2,2,0,0,1-2.3-2.36c.12-1.56,1.41-1.87,2.69-2C202.43,607.4,203.11,607.45,205.43,607.45Z" style="fill:#0e0b0d"/><path d="M339,595.88l-.3-5.65C342,592,341.72,593.84,339,595.88Z" style="fill:#e8e5e4"/><path d="M327.06,613.77c-.56-.12-1.47-.08-1.6-.39-.5-1.09.42-1.5,1.24-1.86Z" style="fill:#e8e5e4"/><path d="M332.86,603.82a2.18,2.18,0,0,1,1.77-2.29A2.21,2.21,0,0,1,332.86,603.82Z" style="fill:#e8e5e4"/><path d="M335.71,600a1.41,1.41,0,0,1,1.19-1.6l.16,0a1.4,1.4,0,0,1-1.18,1.6Z" style="fill:#e8e5e4"/><path d="M337.32,598a1.63,1.63,0,0,1,1.29-1.91l.27,0a1.71,1.71,0,0,1-1.47,1.93Z" style="fill:#e8e5e4"/><path d="M331.09,606a1.74,1.74,0,0,1,1.46-2l.24,0A1.9,1.9,0,0,1,331.09,606Z" style="fill:#e8e5e4"/><path d="M329.36,608a1.61,1.61,0,0,1,1.29-1.88,1.36,1.36,0,0,1,.29,0,1.71,1.71,0,0,1-1.51,1.9Z" style="fill:#e8e5e4"/><path d="M327.77,610a1.37,1.37,0,0,1,1.19-1.53h.12A1.31,1.31,0,0,1,328,610Z" style="fill:#e8e5e4"/><path d="M274.2,602.12c-3.86.31-5.6-.29-5.49-3.61.11-3.88,2.47-4.12,5.36-3.94s5.54.88,5.17,4.5C278.85,603,275.43,601.8,274.2,602.12Z" style="fill:#e7e6e5"/><path d="M3.27,16.12C8.27,4.12,17.27,0,30.12,0Q280,.35,529.93,0c12.81,0,21.89,4.09,26.84,16.13,3.16,5.23,3.19,11,3.17,16.87q.15,218.39.06,436.76c0,84,.18,167.91-.16,251.85-1.49,17.45-7.92,24.45-24.92,27.15-95.59,1.14-191.18.43-286.77.47-74.27,0-148.55.66-222.81-.44C8.27,746.16,1.89,739.3.23,721.84q-.46-336.9,0-673.77c0-5,0-10-.1-15C.07,27.22.11,21.38,3.27,16.12Z" style="fill:#010102"/><path d="M546.37,372.78V718.72a51.11,51.11,0,0,1-.06,7c-.75,5.57-4.22,9-9.84,9.67a54.5,54.5,0,0,1-7,0H30.56c-2,0-4,.17-6,0-6.75-.58-10.29-4-10.91-10.68-.22-2.31,0-4.66,0-7V27.86a62.87,62.87,0,0,1,0-7c.68-6.1,4.21-9.52,10.39-10.18a54.59,54.59,0,0,1,6,0H530c2-.1,4-.1,6,0,6.19.66,9.7,4.08,10.41,10.16a50,50,0,0,1,0,6Q546.38,199.82,546.37,372.78Z" style="fill:#fff"/><path d="M238.37,256.07c-18.24,0-32.09-13.75-32.22-32s13.65-32.33,31.78-32.55a32.15,32.15,0,0,1,32.89,31.4c0,.41,0,.81,0,1.22C270.65,242.2,256.56,256.06,238.37,256.07Z" style="fill:#010102"/><path d="M157.83,256.07a32.28,32.28,0,0,1,0-64.55c18.56-.1,32.83,14.29,32.55,32.84C190.1,242.56,176.16,256.13,157.83,256.07Z" style="fill:#020102"/><path d="M157.64,336.52a32.35,32.35,0,0,1,.52-64.7l.84,0c18,1,31.75,14.76,31.38,33a31.91,31.91,0,0,1-32.12,31.69Z" style="fill:#020102"/><path d="M350.84,256.07c-18.49,0-31.46-13.45-32.19-32-.64-16,12.74-32.57,31.7-32.63,18.57-.05,32.79,14,32.71,32.63C383,242.34,369.15,256.06,350.84,256.07Z" style="fill:#010101"/><path d="M447.12,384.54a15.9,15.9,0,0,1-15.59,16.11A16.11,16.11,0,0,1,415,385c0-.21,0-.41,0-.62a16.48,16.48,0,0,1,15.72-16.21,16.14,16.14,0,0,1,16.4,15.9A4.17,4.17,0,0,1,447.12,384.54Z" style="fill:#080608"/><path d="M367,384.33a16.23,16.23,0,0,1-16.13,16.32h-.19a15.87,15.87,0,0,1-15.9-15.6,16.3,16.3,0,0,1,15.63-16.91h.06A16.54,16.54,0,0,1,367,384.33Z" style="fill:#080608"/><path d="M447.11,223.72A15.78,15.78,0,0,1,431.86,240c-.28,0-.55,0-.83,0a16.21,16.21,0,0,1-.3-32.42A15.88,15.88,0,0,1,447.11,223Q447.13,223.36,447.11,223.72Z" style="fill:#070506"/><path d="M367,304.48a16.14,16.14,0,0,1-16.48,15.81l-.52,0a16.14,16.14,0,1,1,17-16.15C367,304.24,367,304.36,367,304.48Z" style="fill:#060507"/><path d="M431,320.28a16.14,16.14,0,0,1,.18-32.27c9.27,0,16.16,7.31,15.9,16.73a15.68,15.68,0,0,1-15.79,15.55Z" style="fill:#070506"/><path d="M157.91,368.13c8.67-.07,16.48,7.74,16.45,16.41a16.42,16.42,0,0,1-16.62,16.11,16.63,16.63,0,0,1-16-15.79C141.5,376.23,149.26,368.2,157.91,368.13Z" style="fill:#060608"/><path d="M238.69,320.28a16.14,16.14,0,0,1-.53-32.28c9-.1,16.74,7.48,16.62,16.39C254.68,312.81,247.25,320.14,238.69,320.28Z" style="fill:#060608"/><path d="M254.78,384.06c.29,8.69-7.34,16.5-16.22,16.59a16.2,16.2,0,0,1-16.28-15.32,16.47,16.47,0,0,1,15.5-17.19C246.43,367.81,254.5,375.41,254.78,384.06Z" style="fill:#070608"/><path d="M134.43,564.23h10.44v16.32h2.94l12.9-16.32h12.36l-16.2,20.58,16.86,21.42h-13l-12.9-16.92h-3v16.92h-10.4Z" style="fill:#1d1d1b"/><path d="M177.54,564.23H188v42H177.54Z" style="fill:#1d1d1b"/><path d="M193.74,585h26.58v8.76H193.74Z" style="fill:#1d1d1b"/><path d="M236.58,564.23v33.24h18.3v8.76H226.14v-42Z" style="fill:#1d1d1b"/><path d="M273.12,606.65A16.26,16.26,0,0,1,265,604.7a13.51,13.51,0,0,1-5.34-5.49,17.5,17.5,0,0,1-1.89-8.28,16.07,16.07,0,0,1,1.89-7.86,13.68,13.68,0,0,1,5.25-5.34,15.41,15.41,0,0,1,7.74-1.92,16.25,16.25,0,0,1,7.92,1.83,12.85,12.85,0,0,1,5.22,5.19,15.83,15.83,0,0,1,1.86,7.86q0,.66-.06,1.44t-.18,1.74H268.26a6.18,6.18,0,0,0,1.05,2.37,4.93,4.93,0,0,0,1.86,1.5,6,6,0,0,0,2.49.51,5.6,5.6,0,0,0,2.76-.66,4.86,4.86,0,0,0,1.92-1.92l8.88,2.22a13.62,13.62,0,0,1-5.43,6.51A16.16,16.16,0,0,1,273.12,606.65Zm3.78-18.54a4.59,4.59,0,0,0-.63-2.22,4.14,4.14,0,0,0-1.47-1.5,3.5,3.5,0,0,0-2-.48,4.63,4.63,0,0,0-2.07.6,5,5,0,0,0-1.56,1.47,4.66,4.66,0,0,0-.75,2.13Z" style="fill:#1d1d1b"/><path d="M292.43,576.23h8.94l.66,4.08a10.54,10.54,0,0,1,2.7-2.67,9.56,9.56,0,0,1,3.57-1.44,12.77,12.77,0,0,1,4.53,0v9.36a8.79,8.79,0,0,0-6.87.84,7.12,7.12,0,0,0-2.67,2.88,10.78,10.78,0,0,0-1,5v11.94h-9.86Z" style="fill:#1d1d1b"/><path d="M316.74,576.23h8.88l.72,3.42a12,12,0,0,1,3.45-2.76,9.19,9.19,0,0,1,4.41-1.08,10.86,10.86,0,0,1,5.94,1.53,9.38,9.38,0,0,1,3.63,4.41,17.66,17.66,0,0,1,1.23,7v17.52h-9.84V590a6.12,6.12,0,0,0-1.08-3.93,3.82,3.82,0,0,0-3.18-1.35,3.9,3.9,0,0,0-3.24,1.35,6.3,6.3,0,0,0-1.08,4v16.26h-9.84Z" style="fill:#1d1d1b"/><path d="M375.12,584.15l-12.9,13.32h13.14v8.76H349.62v-7.86L362.28,585h-12.6v-8.76h25.44Z" style="fill:#1d1d1b"/><path d="M386.43,574a6.17,6.17,0,0,1-4.44-1.59,5.17,5.17,0,0,1-1.68-3.87,5.23,5.23,0,0,1,1.68-3.93,7,7,0,0,1,8.85,0,5.12,5.12,0,0,1,1.71,3.93,5.06,5.06,0,0,1-1.71,3.87A6.15,6.15,0,0,1,386.43,574Zm-4.92,2.22h9.84v30h-9.84Z" style="fill:#1d1d1b"/><path d="M412.62,606.65a16.26,16.26,0,0,1-8.13-1.95,13.51,13.51,0,0,1-5.34-5.49,17.5,17.5,0,0,1-1.89-8.28,16.07,16.07,0,0,1,1.89-7.86,13.68,13.68,0,0,1,5.25-5.34,15.41,15.41,0,0,1,7.74-1.92,16.25,16.25,0,0,1,7.92,1.83,12.85,12.85,0,0,1,5.22,5.19,15.83,15.83,0,0,1,1.86,7.86q0,.66-.06,1.44t-.18,1.74H407.76a6.18,6.18,0,0,0,1.05,2.37,4.93,4.93,0,0,0,1.86,1.5,6,6,0,0,0,2.49.51,5.6,5.6,0,0,0,2.76-.66,4.86,4.86,0,0,0,1.92-1.92l8.88,2.22a13.62,13.62,0,0,1-5.43,6.51A16.16,16.16,0,0,1,412.62,606.65Zm3.78-18.54a4.59,4.59,0,0,0-.63-2.22,4.14,4.14,0,0,0-1.47-1.5,3.5,3.5,0,0,0-2-.48,4.63,4.63,0,0,0-2.07.6,5,5,0,0,0-1.56,1.47,4.66,4.66,0,0,0-.75,2.13Z" style="fill:#1d1d1b"/><path d="M431.88,563h9.84v43.2h-9.84Z" style="fill:#1d1d1b"/></svg>