<svg id="Ebene_1" data-name="Ebene 1" xmlns="http://www.w3.org/2000/svg" viewBox="0 0 532.72 724.74"><path d="M249.88,595c-.19,3.61-.32,7.23-.63,10.83a2.53,2.53,0,0,1-2.65,2.39c-1.48,0-2.68-.75-2.7-2.25-.13-8-.39-15.93,0-23.88.14-3,4.61-3.18,6.87-.08,2.91,4,5.34,8.29,9.28,14.52.22-6,.37-10,.51-14A2.48,2.48,0,0,1,263,580h0c2-.26,3.25.65,3.27,2.61.07,7.64,0,15.27,0,22.91a2.4,2.4,0,0,1-2.18,2.73c-1.58.19-3.45.14-4.49-1.39-2.73-4-5.32-8.15-8-12.24Z" style="fill:#1d1a1f"/><path d="M318.06,595.56c2.26,4.46,5.89,7.33,6.51,12.1-10.32,3.52-8.76-11.87-17.27-11.06-1.65,3-.53,6-1,8.92-.29,2-1.43,2.79-3.36,2.68a2.35,2.35,0,0,1-2.45-2.24v-.24c-.09-7.66-.08-15.31-.09-23,0-2.08,1.3-2.94,3.16-3,3-.09,6-.13,9-.05,4,.11,8.14,0,10.08,4.68C324.79,589.4,322.24,592.61,318.06,595.56Z" style="fill:#1b1617"/><path d="M352,608.29c-8.3-.18-13.92-6.52-13.49-15.21.42-8.38,5.9-13.58,14.12-13.4,8.44.18,14,6.39,13.56,15C365.72,602.87,359.85,608.48,352,608.29Z" style="fill:#211c1f"/><path d="M177.87,608.29c-4.16.08-7.89-.92-10.53-4.43-1.12-1.5-1.29-3,.35-4.3,1.14-.9,2.68-1.21,3.57-.1,2.22,2.75,4.59,4.8,8.39,3.68,1.26-.37,2.52-1,2.78-2.49s-.79-2.39-2.09-2.88c-2.79-1-5.64-1.89-8.38-3-3.4-1.42-5.42-4.18-5-7.8.48-4,3.12-6.47,7.26-7,4.37-.55,8.73-.73,11.94,3,1,1.13,2.5,2.65,1.14,4.31a3.09,3.09,0,0,1-4.37.34l-.09-.08c-1.54-1.16-2.45-3.16-4.79-3.2-2.11,0-4.28.13-4.81,2.47-.41,1.85,1.38,2.75,2.91,3.33s3.19.9,4.74,1.48c6.7,2.52,8.54,4.88,7.65,9.71C187.79,605.63,183.79,608.2,177.87,608.29Z" style="fill:#221d20"/><path d="M296.87,605.93a2.22,2.22,0,0,1-1.92,2.2c-1.62.31-3.79.38-4.28-1.43-1.7-6.26-6.66-3.93-10.58-4.38s-3.35,3.43-5.14,5a3.49,3.49,0,0,1-3.67.68c-1.54-.61-1.38-2.13-1-3.35,2.61-7.46,5.14-15,8.07-22.31,1.22-3,7.94-4.07,9.12-1.36C291.06,589.14,293.79,597.6,296.87,605.93Z" style="fill:#1c171a"/><path d="M199.67,603.71c4.15,0,7.7-.05,11.24,0,1.33,0,2.89.47,3,1.94.19,2.21-1.68,2.56-3.36,2.58-5,.08-10,.2-15,0-4.63-.18-6.08-2.48-3.55-6.3,3.65-5.51,8-10.59,12.37-16.37-3-2.41-6.43-.62-9.31-1.48a3.33,3.33,0,0,1-2.12-1.67c-.41-1.54.73-2.48,2.18-2.53,5-.15,10-.36,14.94-.15,4.13.17,4.05,2.88,2.27,5.51-2.23,3.29-4.93,6.25-7.29,9.46C203.22,597.29,200.41,599.34,199.67,603.71Z" style="fill:#201b1d"/><path d="M237.3,593.59c-2.8,2.57-6.29,1.31-9.48,1.45-3,.13-4.08,1.5-4.13,4.31s1.14,4.32,4.08,4.31c2.67,0,5.34,0,8,.1,1.33,0,2.67.38,2.82,2s-1,2.26-2.39,2.45a4.81,4.81,0,0,0-1,.07c-17,2.08-17.68,1.61-17.48-15.68.16-14.75-2.85-12.69,13.25-12.92a43.91,43.91,0,0,1,5,.2c1.44.16,2.46.94,2.17,2.56a2,2,0,0,1-2,1.7c-3.32.13-6.64.09-10,.27a2.32,2.32,0,0,0-2.32,2.3,2.17,2.17,0,0,0,0,.26c0,1.83.33,3.32,2.53,3.39,2.66.08,5.32.06,8,.13A2.73,2.73,0,0,1,237.3,593.59Z" style="fill:#18181f"/><path d="M328.58,593.53c0-3.66-.1-7.33,0-11,.08-2,1.49-2.73,3.4-2.6a2.37,2.37,0,0,1,2.33,2.4,1.49,1.49,0,0,1,0,.21q.06,11.48,0,23a2.3,2.3,0,0,1-2,2.6,1.51,1.51,0,0,1-.3,0c-1.93.12-3.29-.6-3.35-2.63-.1-4,0-8,0-12Z" style="fill:#060507"/><path d="M311.22,584.18c2.55.08,5.68-.34,5.67,3.45,0,4.15-3.35,4-6.29,4.22-2.74.18-4.12-.88-4.34-3.8C306,584,308.51,584.11,311.22,584.18Z" style="fill:#e5e4e7"/><path d="M359.85,594.29c-.21,5.59-3.92,9.78-8.23,9.31-4.11-.44-7.25-5.35-6.85-10.69s3.39-8.71,7.76-8.6C357.17,584.43,360.08,588.39,359.85,594.29Z" style="fill:#f4f3f3"/><path d="M283.62,586.46c4.35,11.4,4.35,11.4-4.29,10.61C279.94,593.23,280.26,589.4,283.62,586.46Z" style="fill:#d4d0d0"/><path d="M528.35-9.77a44.47,44.47,0,0,1,11.47,8.33,15.9,15.9,0,0,1,5,8c1,18,.53,36,.53,54q0,323.91-.11,647.83c0,2.67,0,5.33-.12,8-.28,5.33-2.65,9.74-6.11,13.67a17.55,17.55,0,0,1-2.31,2.25,16,16,0,0,1-2.69,1.84,23.68,23.68,0,0,1-6.27,2.52,21.27,21.27,0,0,1-3.65.43q-257.52.63-515,0a20.48,20.48,0,0,1-7.85-1.82A15.54,15.54,0,0,1-1.21,734a14.61,14.61,0,0,1-2-1.6l-.9-.87c-.6-.55-1.17-1.15-1.74-1.75-.29-.29-.56-.6-.86-.9a18.24,18.24,0,0,1-1.66-1.94,17.38,17.38,0,0,1-1.44-2.33,21.69,21.69,0,0,1-2.13-5.67,26,26,0,0,1-.38-3.52c-.85-13.68-.4-27.34-.41-41q-.16-307.92,0-615.85c0-17.31-.49-34.64.76-51.94A16.07,16.07,0,0,1-7-1.45,44.59,44.59,0,0,1,4.49-9.78c3.18-1.48,6.57-.79,9.85-.79q252.12-.06,504.24,0C521.79-10.56,525.17-11.25,528.35-9.77Z" style="fill:#4b4697"/><path d="M.07,362.65v-343c0-2.67-.11-5.34,0-8C.5,3.48,3.57.47,11.86.05c2.32-.12,4.66,0,7,0h495c17.66,0,18.86,1.17,18.86,18.58V709.57c-.1,12.68-2.48,15.11-15.31,15.11h-499c-2.67,0-5.35.16-8-.07C4,724,.75,720.92.15,714.61c-.28-3-.09-6-.09-9Z" style="fill:#fff"/><path d="M268.6,418.11c-69-.14-123.72-55.6-124.08-124.78-.35-67,55-125,125.44-124.66,68,.31,124.3,56,124.16,125C394,362.94,338.3,418.29,268.6,418.11Z" style="fill:#4b4696"/><path d="M286.35,195.11c38.09,5.25,71.67,37.27,79.48,72.38-1.69,3-4.65,1.93-7.14,2-5.51.22-8.21,2.58-9.07,8.37-1.78,12.1-12.95,17-23.24,10.7a53.59,53.59,0,0,0-6.88-4,8.58,8.58,0,0,0-10.09,2c-2.85,3-3,6.56-.69,10,4.33,6.53,7.33,14.54,17.71,13.57,4.4-.41,6.35,3,6.69,7.15.39,4.74.15,9.26-3.31,13.12-5.88,6.55-10.21,13.89-10.87,23a10.31,10.31,0,0,1-3.68,6.88c-6.66,6.18-11.73,13.61-16.47,21.27-3.43,5.55-8,9.17-14.71,8.22s-10.3-5.37-12.35-11.62-2.18-12.41-2.24-18.74c0-2.67.1-5.34-.12-8-.65-7.56-2.33-9.11-9.91-9.49-5.3-.27-10.59.35-15.9-.9-12.32-2.91-19.91-10.39-21.94-22.85-2.32-14.17.45-26.5,13.4-34.94,3.34-2.18,6.32-4.89,9.49-7.32,9.69-7.45,20.44-8.46,31-3,7.22,3.72,13.61,4.21,20.86,1.08,5.18-2.24,10.66-3.79,16-5.67a7.06,7.06,0,0,0,5.07-7.69c-.27-3.67-2.44-6.61-6.14-6.87a27.94,27.94,0,0,1-17.81-7.42c-2.26-2.08-5.69-1.46-8.69-1.46-12.33,0-24.65.08-37,0-7.19-.07-9.45-1.68-10.41-6.73-1-5.53,1-8.9,7.73-10.71,5.44-1.44,9.91-3.53,12.55-8.75,2-4,5.62-5.45,9.94-5.4h4c12.49-.25,13.06-.82,14-13.73A44.88,44.88,0,0,1,286.35,195.11Z" style="fill:#fff"/><path d="M172.4,565.46a5.52,5.52,0,0,0,1.23,2.79,5.12,5.12,0,0,0,2.28,1.5,9,9,0,0,0,3,.45,7,7,0,0,0,4.35-1.17,3.64,3.64,0,0,0,1.53-3,3.18,3.18,0,0,0-.93-2.4,7.74,7.74,0,0,0-2.58-1.53q-1.65-.63-3.81-1.29-2.4-.66-4.86-1.53a21.61,21.61,0,0,1-4.56-2.22,9.67,9.67,0,0,1-4.56-8.91,11.07,11.07,0,0,1,2-6.72,12.65,12.65,0,0,1,5.52-4.17,21.23,21.23,0,0,1,8-1.41,20.57,20.57,0,0,1,7.26,1.2,12.58,12.58,0,0,1,8.16,9.24l-9.6,1.68a4,4,0,0,0-1.08-2.16,5.05,5.05,0,0,0-2-1.23,7.51,7.51,0,0,0-2.31-.39,7,7,0,0,0-2.64.48,4.87,4.87,0,0,0-2,1.38,3.24,3.24,0,0,0-.75,2.1,2.87,2.87,0,0,0,.87,2.16,7.87,7.87,0,0,0,2.37,1.5q1.5.66,3.3,1.26,2.46.78,5,1.68a23.33,23.33,0,0,1,4.8,2.31,11.26,11.26,0,0,1,3.57,3.6,10.25,10.25,0,0,1,1.35,5.49,11.77,11.77,0,0,1-1.74,6.36,12,12,0,0,1-5.22,4.5,20.08,20.08,0,0,1-8.82,1.68,23.37,23.37,0,0,1-8.07-1.29,14.23,14.23,0,0,1-5.85-3.81,12.62,12.62,0,0,1-3-6.18Z" style="fill:#4b4696"/><path d="M224.84,556.16l-12.9,13.32h13.14v8.81H199.34v-7.86L212,557.05H199.4v-8.76h25.44Z" style="fill:#4b4696"/><path d="M244.16,578.66a16.26,16.26,0,0,1-8.13-1.95,13.44,13.44,0,0,1-5.34-5.49,17.47,17.47,0,0,1-1.89-8.28,16.07,16.07,0,0,1,1.89-7.86,13.75,13.75,0,0,1,5.25-5.34,15.41,15.41,0,0,1,7.74-1.92,16.36,16.36,0,0,1,7.92,1.83,12.91,12.91,0,0,1,5.22,5.19,15.85,15.85,0,0,1,1.86,7.86q0,.66-.06,1.44t-.18,1.74H239.3a5.94,5.94,0,0,0,1,2.37,4.84,4.84,0,0,0,1.86,1.5,5.82,5.82,0,0,0,2.49.51,5.54,5.54,0,0,0,2.76-.66,4.79,4.79,0,0,0,1.92-1.92l8.88,2.22a13.62,13.62,0,0,1-5.43,6.51A16,16,0,0,1,244.16,578.66Zm3.78-18.54a4.7,4.7,0,0,0-.63-2.22,4.22,4.22,0,0,0-1.47-1.5,3.58,3.58,0,0,0-2-.48,4.56,4.56,0,0,0-2.07.6,4.87,4.87,0,0,0-1.56,1.47,4.66,4.66,0,0,0-.75,2.13Z" style="fill:#4b4696"/><path d="M263.42,548.29h8.88l.72,3.42a12.14,12.14,0,0,1,3.45-2.76,9.31,9.31,0,0,1,4.41-1.08,10.86,10.86,0,0,1,5.94,1.53,9.48,9.48,0,0,1,3.63,4.41,17.66,17.66,0,0,1,1.23,7v17.48h-9.84V562a6.12,6.12,0,0,0-1.08-3.93,3.82,3.82,0,0,0-3.18-1.35,3.93,3.93,0,0,0-3.24,1.35,6.33,6.33,0,0,0-1.08,4v16.25h-9.84Z" style="fill:#4b4696"/><path d="M314.42,578.29l-.66-3.72a16.37,16.37,0,0,1-3.33,3,8.12,8.12,0,0,1-4.59,1.14,11.49,11.49,0,0,1-4.83-1,8.29,8.29,0,0,1-3.51-2.91,8.07,8.07,0,0,1-1.32-4.68,7.88,7.88,0,0,1,2.64-6.12c1.76-1.6,4.53-2.62,8.34-3.06l6.6-.72v-1.74a2.49,2.49,0,0,0-.84-1.71,3.46,3.46,0,0,0-2.58-.87,4.46,4.46,0,0,0-2.7.84,4.13,4.13,0,0,0-1.56,2.34l-8.34-3a11.2,11.2,0,0,1,4.68-6.15,15.31,15.31,0,0,1,8.28-2.07q6.3,0,9.6,3.12a11.28,11.28,0,0,1,3.3,8.58v18.73Zm-.66-12.54-4.68.54a3.56,3.56,0,0,0-2.1.9,2.39,2.39,0,0,0-.72,1.74,2,2,0,0,0,.87,1.68,3.83,3.83,0,0,0,2.43.66,4.1,4.1,0,0,0,2.19-.57,3.91,3.91,0,0,0,1.47-1.65,6,6,0,0,0,.54-2.7Z" style="fill:#4b4696"/><path d="M329.24,548.29h8.94l.66,4.08a10.23,10.23,0,0,1,2.7-2.67,9.84,9.84,0,0,1,3.57-1.44,12.77,12.77,0,0,1,4.53,0v9.36a8.82,8.82,0,0,0-3.39-.3,8.46,8.46,0,0,0-3.48,1.14,7.06,7.06,0,0,0-2.67,2.88,10.53,10.53,0,0,0-1,5v11.95h-9.84Z" style="fill:#4b4696"/><path d="M359.71,546a6.17,6.17,0,0,1-4.44-1.59,5.13,5.13,0,0,1-1.68-3.87,5.19,5.19,0,0,1,1.68-3.93,7,7,0,0,1,8.85,0,5.13,5.13,0,0,1,1.71,3.93,5.06,5.06,0,0,1-1.71,3.87A6.17,6.17,0,0,1,359.71,546Zm-4.92,2.27h9.84v30h-9.84Z" style="fill:#4b4696"/><path d="M386,578.66a16.55,16.55,0,0,1-7.92-1.86,13.69,13.69,0,0,1-5.49-5.34,16.25,16.25,0,0,1-2-8.22,15.94,15.94,0,0,1,2-8.19,14.11,14.11,0,0,1,5.55-5.34,16.63,16.63,0,0,1,8-1.89,16.81,16.81,0,0,1,8,1.89,14.06,14.06,0,0,1,5.58,5.34,17.41,17.41,0,0,1,0,16.41,13.88,13.88,0,0,1-5.64,5.34A16.92,16.92,0,0,1,386,578.66Zm0-8.94a4.66,4.66,0,0,0,2.49-.72,5.08,5.08,0,0,0,1.89-2.16,9.36,9.36,0,0,0,0-7.2,5.32,5.32,0,0,0-1.86-2.16,4.51,4.51,0,0,0-4.89,0,5,5,0,0,0-1.77,2.16,8.72,8.72,0,0,0-.66,3.6,9,9,0,0,0,.63,3.6,4.79,4.79,0,0,0,1.74,2.16,4.3,4.3,0,0,0,2.43.72Z" style="fill:#4b4696"/></svg>