<svg id="Ebene_1" data-name="Ebene 1" xmlns="http://www.w3.org/2000/svg" viewBox="0 0 534.52 725.67"><path d="M328,594.61v-11c0-1.82.54-3.39,2.69-3.28,1.92.1,2.86,1.44,2.87,3.34v21c0,1.68-.17,3.5-2.19,3.93a4.43,4.43,0,0,1-5.16-2c-1.9-3.12-3.88-6.19-5.86-9.27-.7-1.08-1.49-2.1-3.43-4.8-.25,5.7-.41,9.72-.63,13.74a2.32,2.32,0,0,1-2.21,2.41h-.31c-1.48,0-2.86-.7-2.89-2.09-.16-8-.31-16,0-23.94.09-2.56,4.25-3.4,6.35-1.31,1.37,1.37,2.21,3.28,3.29,4.95l5.82,8.93Z" style="fill:#262023"/><path d="M232.7,597c-2,2.82-.66,6-1.26,8.82-.4,1.9-1.4,2.89-3.38,2.72a2.41,2.41,0,0,1-2.34-2.48.76.76,0,0,1,0-.15c-.08-7.63-.09-15.26-.07-22.9,0-2.08,1.44-2.83,3.26-2.84,4,0,8-.31,11.93.18,7.32.9,10.29,7.26,5.42,12.73-2.59,2.91-2.69,4.17-.61,6.93,1.75,2.33,3.7,4.71,4.15,8C239.33,611.89,241,596.52,232.7,597Z" style="fill:#19181e"/><path d="M292.24,580.15c8.63,0,14.18,5.76,14,14.59-.19,8.25-5.74,13.94-13.7,14-8.23.09-14.22-6.22-14-14.76S284.08,580.18,292.24,580.15Z" style="fill:#211d1f"/><path d="M199.22,594.1c.35-16-2.81-13.81,14.43-14a23.11,23.11,0,0,1,3,0c1.6.18,3.59.17,3.34,2.55s-2.22,2-3.79,2.09c-2.66.1-5.33,0-8,.11-2.08.07-2.72,1.36-2.6,3.29.09,1.53.81,2.49,2.33,2.57,3,.16,6,.16,9,.28A2.21,2.21,0,0,1,219,592.8c.44,1.73-.78,2.45-2.13,2.59a56.46,56.46,0,0,1-7,.22c-2.87-.06-4.29,1.14-4.36,4.08s1.07,4.38,4,4.38c2.66,0,5.32,0,8,.13,1.33.06,2.67.44,2.78,2.08s-1,2.3-2.42,2.43c-1,.08-2,.12-3,.11C196.15,608.46,199.64,611.44,199.22,594.1Z" style="fill:#2d2828"/><path d="M363.87,607.55c-2.2,1.56-4.2,1.73-5.87.29-7.94-6.83-8.84-6.94-15.64-.44a3.84,3.84,0,0,1-4.47,1c-2.17-1-1-2.71-.43-4.19,2.32-6.57,4.73-13.12,7-19.72,1-2.86,2.52-4.4,5.73-4.43s4.92,1.33,5.88,4.23c1.25,3.78,2.69,7.49,4,11.27C361.34,599.59,362.6,603.63,363.87,607.55Z" style="fill:#231d20"/><path d="M264.18,608.8a11.31,11.31,0,0,1-8.85-2.9c-1.44-1.34-4.16-3.2-1.36-5.69,1.78-1.57,3.49-1.19,5,.86a6.17,6.17,0,0,0,7,2.62,3.81,3.81,0,0,0,3-2.43c.38-1.5-.65-2.44-2-2.94-2.79-1.05-5.64-1.93-8.38-3.09-3.89-1.66-5.45-4.75-4.63-8.87.75-3.81,3.52-5.5,7.1-6,4-.53,8.05-.62,11.28,2.45,1.43,1.37,3,3.07,1.25,5.07a2.87,2.87,0,0,1-4,.25,2,2,0,0,1-.35-.37c-1.66-1.77-3.25-3.32-5.89-3-1.35.19-2.59.53-3.07,2A2.63,2.63,0,0,0,261.8,590a56.06,56.06,0,0,0,5.65,1.92c6.41,2.4,8.83,5.36,8,9.6S270.45,608.62,264.18,608.8Z" style="fill:#262225"/><path d="M172.8,594.25v-2c0-12.79,1.54-14,14.12-12,4.49.72,7.26,2.86,7.65,7.58.42,5-1.77,8.11-6.74,9.38a8.87,8.87,0,0,1-2.94.33c-5-.51-6.39,2-6,6.53.21,2.33.08,5-3.37,4.62-2.62-.26-2.67-2.51-2.7-4.5-.06-3.3,0-6.61,0-9.91Z" style="fill:#2b2220"/><path d="M236.46,584.64c2.62.14,5.78-.15,5.67,3.74-.09,3.64-3.19,3.61-5.83,3.9-3.39.36-4.9-1.15-4.84-4.54C231.52,584,234.25,584.84,236.46,584.64Z" style="fill:#ede8e6"/><path d="M300,594.32c0,5.49-3.6,9.9-7.87,9.72s-7.47-4.78-7.25-10.28,3-8.88,7.32-9C296.89,584.64,300,588.5,300,594.32Z" style="fill:#f5f4f4"/><path d="M354.32,597.39c-8.75.72-8.75.72-5.17-9.74C353.52,589.8,352.06,594.26,354.32,597.39Z" style="fill:#e0e0e4"/><path d="M188.32,588.86c-.42,3.56-2.84,4-5.68,4.11-3,.07-3.83-1.52-3.86-4.29,0-3,1.35-4,4.17-4S188.12,585.53,188.32,588.86Z" style="fill:#eaebed"/><path d="M-9.81,10.86c1-3.16,1.52-6.6,3.11-9.43C-3.08-5,2.41-9.09,10.13-9.38c3-.11,6-.07,9-.07H518.47c16.22.07,21.45,4.17,25.93,20.31,3.06,8.64,3.13,17.65,3.13,26.63V696.16c0,14,.57,28.37-12.81,37.94a21.84,21.84,0,0,1-4.32,2.49c-4.87,1.51-9.9,1-14.87,1H19.36c-5,0-10,.43-14.89-1-9.84-5.16-15.66-12.94-16.67-24.31-.56-6.32-.71-12.63-.71-18.95V40.41C-12.94,30.52-13.17,20.5-9.81,10.86Z" style="fill:#fcc145"/><path d="M.58,361.82V19.94c0-2.34-.1-4.67,0-7C1,4.5,4.58.94,12.89.56c2-.08,4,0,6,0H515.7c2.33,0,4.67-.14,7,0,7.09.5,10.67,4.15,11.25,11.4.16,2,0,4,0,6V707.72a52.13,52.13,0,0,1-.2,8c-.85,5.4-4.59,8.77-10.12,9.33-2.31.23-4.67.06-7,.06H17.86a65.36,65.36,0,0,1-7-.07c-5.52-.57-9.27-3.94-10.07-9.36a61.46,61.46,0,0,1-.21-9Q.56,534.27.58,361.82Z" style="fill:#fff;stroke:#013333;stroke-miterlimit:10"/><path d="M274,422.62c-18.11-.33-35.75-3.18-52.7-9.8a55.44,55.44,0,0,1-17.11-10.07c-6-5.32-9.78-11.93-10-20-.77-34.84,10.3-64.94,37.07-88,26.56-22.92,61.18-22.43,87.24,1,25.65,23.08,36.63,52.52,35.88,86.62-.2,8.84-4.47,15.79-11.22,21.42-9.52,7.94-21,11.51-32.62,14.43A139.86,139.86,0,0,1,274,422.62Z" style="fill:#fcc044"/><path d="M274.22,261.47c-26,0-47.9-21.68-48-47.48s22.52-48.92,48.2-48.85,48.26,23,48.05,49C322.21,239.91,300.22,261.5,274.22,261.47Z" style="fill:#fcc044"/><path d="M187.64,550.38a14,14,0,0,1-.93,5,13,13,0,0,1-2.82,4.44,13.48,13.48,0,0,1-4.83,3.15,18.81,18.81,0,0,1-7,1.17h-8.88v14.61h-10.4v-42H172.1a17.87,17.87,0,0,1,8.67,1.89,12.61,12.61,0,0,1,5.16,5A14,14,0,0,1,187.64,550.38Zm-16.2,5a7.29,7.29,0,0,0,3.09-.57,4,4,0,0,0,1.86-1.71,5.62,5.62,0,0,0,.63-2.7,4.74,4.74,0,0,0-1.38-3.6,5.87,5.87,0,0,0-4.2-1.32h-8.22v9.9Z" style="fill:#fcc145"/><path d="M204.38,579.12a16.21,16.21,0,0,1-8.13-2,13.38,13.38,0,0,1-5.34-5.49A17.24,17.24,0,0,1,189,563.4a16,16,0,0,1,1.89-7.86,13.61,13.61,0,0,1,5.25-5.34,15.36,15.36,0,0,1,7.74-1.92,16.3,16.3,0,0,1,7.92,1.83A13,13,0,0,1,217,555.3a16.07,16.07,0,0,1,1.86,7.86q0,.66-.06,1.44t-.18,1.74H199.52a6,6,0,0,0,1,2.37,4.69,4.69,0,0,0,1.86,1.5,5.76,5.76,0,0,0,2.49.51,5.65,5.65,0,0,0,2.76-.66,4.86,4.86,0,0,0,1.92-1.92l8.88,2.22a13.73,13.73,0,0,1-5.43,6.51A16,16,0,0,1,204.38,579.12Zm3.78-18.54a4.82,4.82,0,0,0-.63-2.22,4.31,4.31,0,0,0-1.47-1.5,3.6,3.6,0,0,0-2-.48,4.56,4.56,0,0,0-2.07.6,4.77,4.77,0,0,0-1.56,1.47,4.44,4.44,0,0,0-.75,2.13Z" style="fill:#fcc145"/><path d="M223.64,548.75h8.94l.66,4.08a10.39,10.39,0,0,1,2.7-2.67,9.77,9.77,0,0,1,3.57-1.44,12.77,12.77,0,0,1,4.53,0v9.36a8.79,8.79,0,0,0-6.87.84,7,7,0,0,0-2.67,2.88,10.53,10.53,0,0,0-1,5v12h-9.84Z" style="fill:#fcc145"/><path d="M255.86,568.75a3.68,3.68,0,0,0,.72,1.47,2.9,2.9,0,0,0,1.26.87,5,5,0,0,0,1.8.3,4.59,4.59,0,0,0,2.43-.54,1.59,1.59,0,0,0,.87-1.38,1.47,1.47,0,0,0-.69-1.29,6.42,6.42,0,0,0-1.77-.75q-1.08-.3-2.28-.54-1.5-.3-3.36-.78a15.26,15.26,0,0,1-3.57-1.41,7.94,7.94,0,0,1-2.82-2.55,7.12,7.12,0,0,1-1.11-4.14,8.73,8.73,0,0,1,1.44-5,9.91,9.91,0,0,1,4.23-3.48,16.35,16.35,0,0,1,6.87-1.29,13.72,13.72,0,0,1,7.92,2,10.51,10.51,0,0,1,4.08,5.64l-8.52,1.92a1.94,1.94,0,0,0-.66-1.1,3.54,3.54,0,0,0-1.23-.57A5.86,5.86,0,0,0,260,556a3.33,3.33,0,0,0-2,.51,1.47,1.47,0,0,0-.66,1.17,1.1,1.1,0,0,0,.36.87,2.38,2.38,0,0,0,1,.51,12.51,12.51,0,0,0,1.5.33q.87.15,1.83.39c1.2.28,2.43.62,3.69,1a15.42,15.42,0,0,1,3.54,1.59,8,8,0,0,1,2.67,2.7,8.81,8.81,0,0,1,1.08,4.38,8.5,8.5,0,0,1-1.5,4.89,10.18,10.18,0,0,1-4.41,3.48,17.75,17.75,0,0,1-7.23,1.29,16.35,16.35,0,0,1-8.73-2.13,9.2,9.2,0,0,1-4.29-6.33Z" style="fill:#fcc145"/><path d="M291.92,579.12a16.5,16.5,0,0,1-7.92-1.86,13.63,13.63,0,0,1-5.49-5.34,16,16,0,0,1-2-8.22,15.74,15.74,0,0,1,2-8.19,14.11,14.11,0,0,1,5.55-5.34,17.88,17.88,0,0,1,16,0,14.19,14.19,0,0,1,5.58,5.34,17.41,17.41,0,0,1,0,16.41,13.94,13.94,0,0,1-5.64,5.34A17,17,0,0,1,291.92,579.12Zm0-8.94a4.68,4.68,0,0,0,2.49-.72,5.14,5.14,0,0,0,1.89-2.16,9.36,9.36,0,0,0,0-7.2,5.26,5.26,0,0,0-1.86-2.16,4.56,4.56,0,0,0-2.4-.72,4.47,4.47,0,0,0-2.49.72,5,5,0,0,0-1.77,2.16,8.56,8.56,0,0,0-.66,3.6,8.86,8.86,0,0,0,.63,3.6,4.73,4.73,0,0,0,1.74,2.16,4.27,4.27,0,0,0,2.43.72Z" style="fill:#fcc145"/><path d="M312.38,548.75h8.88l.72,3.42a12.14,12.14,0,0,1,3.45-2.76,9.25,9.25,0,0,1,4.41-1.08,10.88,10.88,0,0,1,5.94,1.53,9.5,9.5,0,0,1,3.63,4.41,17.66,17.66,0,0,1,1.23,7v17.48H330.8V562.43a6.24,6.24,0,0,0-1.08-3.93,4.49,4.49,0,0,0-6.42,0,6.33,6.33,0,0,0-1.08,4v16.25h-9.84Z" style="fill:#fcc145"/><path d="M363.38,578.75l-.66-3.72a16.67,16.67,0,0,1-3.33,3,8.14,8.14,0,0,1-4.59,1.14,11.46,11.46,0,0,1-4.83-1,8.23,8.23,0,0,1-3.51-2.91,8.07,8.07,0,0,1-1.32-4.68,7.85,7.85,0,0,1,2.64-6.12q2.63-2.4,8.34-3.06l6.6-.72v-1.74a2.57,2.57,0,0,0-.84-1.71,3.49,3.49,0,0,0-2.58-.87,4.42,4.42,0,0,0-2.7.84,4.15,4.15,0,0,0-1.57,2.34l-8.33-3a11.2,11.2,0,0,1,4.68-6.15,15.29,15.29,0,0,1,8.28-2.07q6.3,0,9.6,3.12a11.26,11.26,0,0,1,3.3,8.58v18.73Zm-.66-12.54-4.69.54a3.51,3.51,0,0,0-2.09.9,2.39,2.39,0,0,0-.72,1.74,2,2,0,0,0,.87,1.68,3.88,3.88,0,0,0,2.43.66,4.1,4.1,0,0,0,2.19-.57,4,4,0,0,0,1.47-1.65,6.27,6.27,0,0,0,.54-2.7Z" style="fill:#fcc145"/></svg>