<svg id="Ebene_1" data-name="Ebene 1" xmlns="http://www.w3.org/2000/svg" viewBox="0 0 558.42 752.37"><path d="M371.94,606.85V618.8a2.46,2.46,0,0,1-2.23,2.67h-.07a2.69,2.69,0,0,1-3.34-2.7c-.13-7.63-.08-15.26,0-22.89a2.5,2.5,0,0,1,2.3-2.69h0c1.71-.19,3.34,0,4.37,1.63,2.83,4.41,5.64,8.83,9.69,15.19.25-6,.37-10.07.61-14.09.07-1.36.55-2.56,2.25-2.7,2-.16,3.34.59,3.38,2.57.12,7.63.25,15.27,0,22.89-.08,2.75-3.62,4.05-5.94,2.23-1.49-1.18-2.45-3-3.63-4.6C377.29,613.57,376.33,609.94,371.94,606.85Z" style="fill:#272121"/><path d="M194.29,620.38c-4.28,2.3-6.65,1.06-8.53-1.78-1.29-1.94-2.5-3.93-3.87-5.79-1.2-1.62-2.68-3.2-4.92-2.33-2,.76-1.32,2.78-1.42,4.34-.09,1.33,0,2.66-.09,4a2.52,2.52,0,0,1-2.28,2.69c-2,.25-3.48-.69-3.51-2.56-.14-7.64,0-15.28,0-22.92a2.47,2.47,0,0,1,2.23-2.69H172c5.27-.2,10.68-1.19,15.77.7s7.21,7.61,3.45,11.23c-4.49,4.32-2.5,6.93.16,10.37A52.29,52.29,0,0,1,194.29,620.38Z" style="fill:#221b1c"/><path d="M361.69,607.61c0,8.62-5,13.91-13.24,14.08-8.69.18-14.06-5.33-14-14.34.08-8.53,5.25-14.1,13.22-14.26C356.15,592.94,361.72,598.71,361.69,607.61Z" style="fill:#1e1a1d"/><path d="M272.05,606.21c.23-15.6-1.84-12.84,13.2-13.17a3.35,3.35,0,0,1,1,0c2.27.61,6.38-1.57,6.41,2.3s-4,1.94-6.35,2.37a25.45,25.45,0,0,1-4,.08c-2.25,0-4,.81-3.82,3.4s2.08,2.85,4.23,3.08c3.11.34,8.74-1.48,8.74,1.84,0,5.09-5.63,2.31-8.79,2.75-2.6.36-4.29.62-4.41,3.85-.13,3.72,1.69,4.19,4.81,4.42,3.35.25,9.55-1.7,9.47,1.81-.12,5.42-6.27,2.55-9.62,2.65C271.16,622,272,622.87,272,611.18Z" style="fill:#2d2827"/><path d="M198.13,606.71c.21-16.17-2.07-13.33,13.67-13.66a41.71,41.71,0,0,1,5,.17,2.18,2.18,0,0,1,0,4.35,24.35,24.35,0,0,0-4,.24c-2.9.6-7.79-2-8.11,2.93-.36,5.4,4.71,2.89,7.55,3.48,1.28.27,2.65.13,3.94.4a2.08,2.08,0,0,1,0,4.1,62.84,62.84,0,0,1-8,.24c-3.09-.09-3.88,1.41-3.92,4.27,0,3.23,1.58,3.89,4.3,3.83a87.18,87.18,0,0,1,9,.25,2,2,0,0,1,1.6,2.16,1.94,1.94,0,0,1-1.75,2q-8,.28-16,.21c-2.46,0-3.36-1.72-3.37-4C198.12,614,198.13,610.37,198.13,606.71Z" style="fill:#2d2827"/><path d="M297.27,594c6.91-3.15,7.87,3.21,10.91,6.06,3.92-1.52,4.1-9.23,10.63-6.42.13.56.56,1.38.34,1.62-8,8.76-6,17,2.12,24.8-8.47,4.66-8.57-4.36-12.86-6.31-3.84,2-4.1,10.51-11.37,7.08,0-.56-.12-1,0-1.2,2.37-4.3,6.6-8.55,6.67-12.87S299.61,598.31,297.27,594Z" style="fill:#1d191c"/><path d="M234.74,593c1.65,0,3.31,0,5,0s3.53.3,3.34,2.56-2.14,2.09-3.73,2.18c-2,.11-4,0-6,.2-2.51.32-2.92,2.26-2.85,4.39s1.56,2.59,3.34,2.61a13.35,13.35,0,0,1,2,0c2.06.32,5.4-1.11,5.49,2.3s-3.25,2.55-5.27,2.43c-4.42-.28-6,1.68-5.64,5.86a13.68,13.68,0,0,1-.09,3c-.22,1.83-1.18,3-3.14,3.07s-3-1.38-3-3.13c-.1-7.28-.07-14.57,0-21.86,0-2.27,1.16-3.67,3.64-3.63C230.1,593.07,232.42,593,234.74,593Z" style="fill:#373232"/><path d="M248.15,607.46c0-4-.09-8,0-11.93a2.55,2.55,0,0,1,2.59-2.46c1.91-.15,3.42.62,3.5,2.58.21,5.3.27,10.61.21,15.92,0,3.36.31,5.65,4.74,5.53,3-.08,8.45-1.91,8.45,2,0,4.76-5.6,2.66-8.73,2.72-11.54.22-11.08,1.21-11-10.35v-4Z" style="fill:#423f40"/><path d="M330.62,607.42v9.91c0,2.22-.64,4.11-3,4.29s-3.3-1.61-3.29-3.88c0-6.94,0-13.89.05-20.83,0-2.11.63-4,3.35-3.79,2,.18,2.79,1.6,2.83,3.39.08,3.64,0,7.27,0,10.91Z" style="fill:#2d3241"/><path d="M180.12,605.21c-2.23-.1-4.77.39-4.85-3.25s1.75-4.64,5-4.52,6.62.49,6.23,4.56C186.14,605.3,183,605.5,180.12,605.21Z" style="fill:#dad7d7"/><path d="M355.34,607.41c0,6.18-2.77,9.78-7.43,9.65s-7.19-3.81-7.05-10c.13-5.52,2.76-9,7-9.18C352.48,597.62,355.35,601.28,355.34,607.41Z" style="fill:#f9f9f9"/><path d="M535.13,2.88C544.18,4.2,550.6,9.22,555,17c2.91,5.82,3.38,12.06,3.38,18.44V719.93c0,21-6.62,29.18-25.06,31.85q-254,1.19-508,0C8.25,749.53.65,741.24.07,724.19c-.11-3.33-.06-6.66-.06-10V39.46C0,31.8-.28,24.12,3.38,17,7.81,9.2,14.23,4.18,23.29,2.86,32.29.05,41.71.12,50.94.11q228.32-.22,456.63,0C516.7.14,526.1.07,535.13,2.88Z" style="fill:#818282"/><path d="M272.72,305.34v90c0,6.06-.4,12.06-2.79,17.64-5.38,12.55-14.68,20.55-28.46,22.2-14.77,1.77-27.36-2.92-35.18-15.89-3.53-5.86-7-8-13.81-8.2-18-.56-31.94-15.82-32.44-35.31-.14-5.38-1.55-8.13-6.1-11-22.55-14-24.43-48.75-3.74-64.14,4.1-3.05,4.66-5.79,3.39-10.81-4.91-19.33,1.49-34.84,18.34-45.33,3.71-2.31,4.4-4.41,4.28-8.68-.45-16.36,10.38-29.61,26.56-32.51,4.55-.82,6.69-2.65,8.79-6.54,7.87-14.59,22.11-21,36.77-17.23,14.28,3.7,24.19,16.72,24.29,32.84C272.86,243.36,272.72,274.35,272.72,305.34Z" style="fill:#fff"/><path d="M288.73,305.17c0-31,.12-61.94-.07-92.91-.07-10.71,3.33-19.6,11.63-26.39,15.57-12.73,38.19-8.65,48,9.2,2.86,5.18,5.91,7.47,11.73,8.62,14.37,2.86,25,16.22,24.78,31-.09,5.54,1.71,8.09,6.14,10.93,15,9.6,21.08,26,16.58,43.41-1.24,4.82-1.56,7.85,3.23,11.72,20.6,16.59,19.06,48.64-2.93,63.45-5,3.38-6.81,6.64-7,12.61a34.75,34.75,0,0,1-34.48,34.31c-5.53.13-8.09,2-10.72,6.6-9.15,15.95-25.21,20.47-41.25,16.53-15.09-3.72-25.52-17.8-25.63-34.17C288.58,368.45,288.74,336.81,288.73,305.17Z" style="fill:#fff"/><path d="M167.59,561.24a17.84,17.84,0,0,1,8.67,1.89,12.61,12.61,0,0,1,5.16,5,14.08,14.08,0,0,1,.78,11.76,13,13,0,0,1-2.82,4.44,13.39,13.39,0,0,1-4.83,3.15,18.77,18.77,0,0,1-7,1.17h-8.88v14.58H148.23v-42Zm4.92,13.68a4.74,4.74,0,0,0-1.38-3.6,5.86,5.86,0,0,0-4.2-1.32h-8.22v9.9h8.22a7.44,7.44,0,0,0,3.09-.57,4,4,0,0,0,1.86-1.71,5.46,5.46,0,0,0,.63-2.68Zm.36,10.14,11,18.18H172.35l-10.44-18.18Z" style="fill:#fff"/><path d="M202.75,603.66a16.26,16.26,0,0,1-8.13-1.95,13.44,13.44,0,0,1-5.34-5.49,17.38,17.38,0,0,1-1.89-8.28,16,16,0,0,1,1.89-7.86,13.61,13.61,0,0,1,5.25-5.34,15.41,15.41,0,0,1,7.74-1.92,16.27,16.27,0,0,1,7.92,1.83,12.91,12.91,0,0,1,5.22,5.19,16,16,0,0,1,1.86,7.86q0,.66-.06,1.44t-.18,1.74H197.89a6.07,6.07,0,0,0,1,2.37,4.93,4.93,0,0,0,1.86,1.5,5.91,5.91,0,0,0,2.49.51,5.65,5.65,0,0,0,2.76-.66,4.92,4.92,0,0,0,1.92-1.92l8.88,2.22a13.62,13.62,0,0,1-5.43,6.51A16.19,16.19,0,0,1,202.75,603.66Zm3.78-18.54a4.7,4.7,0,0,0-.63-2.22,4.14,4.14,0,0,0-1.47-1.5,3.5,3.5,0,0,0-2-.48,4.56,4.56,0,0,0-2.07.6A4.77,4.77,0,0,0,198.8,583a4.66,4.66,0,0,0-.75,2.13Z" style="fill:#fff"/><path d="M223.69,571.5a13.1,13.1,0,0,1,1.77-7.29,9.05,9.05,0,0,1,5-3.69,18.15,18.15,0,0,1,7.65-.48v8.82a4.23,4.23,0,0,0-3.39.57,3.64,3.64,0,0,0-1.17,3v.78h4.74V582h-4.74v21.24h-9.84V582h-3.36v-8.76h3.36Z" style="fill:#fff"/><path d="M242.05,560h9.84v43.2h-9.84Z" style="fill:#fff"/><path d="M272,603.66a16.26,16.26,0,0,1-8.13-1.95,13.44,13.44,0,0,1-5.34-5.49,17.38,17.38,0,0,1-1.89-8.28,16,16,0,0,1,1.89-7.86,13.61,13.61,0,0,1,5.25-5.34,15.41,15.41,0,0,1,7.74-1.92,16.27,16.27,0,0,1,7.92,1.83,12.91,12.91,0,0,1,5.22,5.19,16,16,0,0,1,1.86,7.86q0,.66-.06,1.44t-.18,1.74H267.13a5.89,5.89,0,0,0,1.05,2.37,4.93,4.93,0,0,0,1.86,1.5,5.94,5.94,0,0,0,2.49.51,5.65,5.65,0,0,0,2.76-.66,4.92,4.92,0,0,0,1.92-1.92l8.84,2.26a13.62,13.62,0,0,1-5.43,6.51A16.12,16.12,0,0,1,272,603.66Zm3.78-18.54a4.7,4.7,0,0,0-.63-2.22,4.14,4.14,0,0,0-1.47-1.5,3.5,3.5,0,0,0-2-.48,4.56,4.56,0,0,0-2.07.6A4.77,4.77,0,0,0,268,583a4.66,4.66,0,0,0-.75,2.13Z" style="fill:#fff"/><path d="M288.25,573.24h11.64l5.22,8.16,5.16-8.16h11.64l-10.68,14.88,10.68,15.12H310.27l-5.16-8.16-5.22,8.16H288.25l10.68-15.12Z" style="fill:#fff"/><path d="M332.23,571a6.15,6.15,0,0,1-4.44-1.59,5.13,5.13,0,0,1-1.68-3.87,5.19,5.19,0,0,1,1.68-3.93,7,7,0,0,1,8.85,0,5.12,5.12,0,0,1,1.71,3.93,5.06,5.06,0,0,1-1.71,3.87A6.17,6.17,0,0,1,332.23,571Zm-4.92,2.22h9.84v30h-9.84Z" style="fill:#fff"/><path d="M358.51,603.66a16.55,16.55,0,0,1-7.92-1.86,13.69,13.69,0,0,1-5.49-5.34,16.25,16.25,0,0,1-2-8.22,15.84,15.84,0,0,1,2-8.19,14.11,14.11,0,0,1,5.55-5.34,16.44,16.44,0,0,1,8-1.89,16.63,16.63,0,0,1,8,1.89,14,14,0,0,1,5.58,5.34,17.41,17.41,0,0,1,0,16.41,13.88,13.88,0,0,1-5.64,5.34A17,17,0,0,1,358.51,603.66Zm0-8.94A4.66,4.66,0,0,0,361,594a5.2,5.2,0,0,0,1.89-2.16,9.36,9.36,0,0,0,0-7.2,5.2,5.2,0,0,0-1.86-2.16,4.36,4.36,0,0,0-2.4-.72,4.49,4.49,0,0,0-2.49.72,4.92,4.92,0,0,0-1.77,2.16,8.72,8.72,0,0,0-.66,3.6,9,9,0,0,0,.63,3.6,4.73,4.73,0,0,0,1.74,2.16,4.46,4.46,0,0,0,2.43.72Z" style="fill:#fff"/><path d="M379,573.24h8.88l.72,3.42a11.8,11.8,0,0,1,3.48-2.72,9.17,9.17,0,0,1,4.41-1.08,10.86,10.86,0,0,1,5.94,1.53A9.44,9.44,0,0,1,406,578.8a17.66,17.66,0,0,1,1.23,7v17.52h-9.84V586.94a6.12,6.12,0,0,0-1.08-3.93,3.82,3.82,0,0,0-3.18-1.35,3.9,3.9,0,0,0-3.24,1.35,6.3,6.3,0,0,0-1.08,4v16.26H379Z" style="fill:#fff"/></svg>