<svg id="Ebene_1" data-name="Ebene 1" xmlns="http://www.w3.org/2000/svg" viewBox="0 0 560.5 748.44"><path d="M9.67,741c-3.15-.77-4.39-2.89-4.27-6A9.91,9.91,0,0,1,9.67,741Z" style="fill:#f6f6f6"/><path d="M5.48,735.14c-2.62-1.35-2.13-3.8-2.12-6.07C5.06,730.76,5.35,732.94,5.48,735.14Z" style="fill:#f6f6f6"/><path d="M13.26,743.22c-1.73-.08-3.25-.48-3.83-2.4A4.51,4.51,0,0,1,13.26,743.22Z" style="fill:#f6f6f6"/><path d="M547.27,743.2l-2,2.15c-.63.84-1.26.84-1.9,0l-.14-.23A5.22,5.22,0,0,1,547.27,743.2Z" style="fill:#f2f3f3"/><path d="M253.51,605c-.13-8.76,5.46-14.5,14-14.43s13.88,5.9,13.7,14.73c-.09,4.24-4.24,8.37-.23,12.83.53.59-1.26,2.84-2.49,2.11-4.09-2.43-8.37-.75-12.53-1.13C258.49,618.37,253.63,612.78,253.51,605Z" style="fill:#211d1f"/><path d="M421.84,604.3c-2.19,4.57-1,8.21-1.52,11.59-.29,1.78-.93,3.21-3.05,3.1s-2.64-1.73-2.66-3.44c-.07-7-.06-13.94-.06-20.91,0-1.71.23-3.4,2.25-3.84a4.41,4.41,0,0,1,5.06,2.15,56.92,56.92,0,0,0,9.5,12.28V595c0-2.07,0-4.11,2.77-4.3s3.12,1.75,3.12,3.87v19.92c0,1.84.51,4.16-2.47,4.52a4.88,4.88,0,0,1-5.06-2.37C427.25,612.88,424.85,609.06,421.84,604.3Z" style="fill:#1e1a1f"/><path d="M243.77,604.53c0-3.88-.13-7.77.07-11.64.07-1.42,1.5-2.13,2.87-2.18a2.32,2.32,0,0,1,2.56,2c0,.11,0,.22,0,.33.08,7.61.17,15.23,0,22.84a3.37,3.37,0,0,1-5.54,2.53,20.94,20.94,0,0,1-3.55-4.72c-1.92-3-3.74-6-6.26-10-1.92,5-.73,8.92-1.34,12.63a2.8,2.8,0,0,1-2.92,2.67,3,3,0,0,1-.51-.07c-1.7-.16-2-1.47-2-2.81-.06-7.28-.06-14.56-.08-21.84,0-1.77.39-3.34,2.47-3.59a4.11,4.11,0,0,1,4.3,1.79c2.65,4.11,5.28,8.23,7.93,12.34Z" style="fill:#201b1e"/><path d="M122.53,604.24a8.89,8.89,0,0,1,0-3c1.39-3.62-4-10,4.43-10.78,11.73-1.12,17,1.55,18.6,9.88,1.08,5.7,1,11.43-3.61,15.73-5,4.59-11.26,2.94-17.12,2.82-2,0-2.28-2.08-2.3-3.75-.06-3.64,0-7.29,0-10.94Z" style="fill:#1c1a1f"/><path d="M388.17,605c0-15.62,0-15.63,15.9-14.52a18,18,0,0,1,3.86.64c.45.13.86.89,1,1.44a1.78,1.78,0,0,1-1.19,2.23l-.15,0c-3.3.3-6.63.3-9.95.39-1.86,0-3.13.66-3.15,2.82,0,2,.81,3.09,2.85,3.15,3,.09,6,.06,9,.33a2,2,0,0,1,1.7,2.12,1.93,1.93,0,0,1-1.74,2,52.77,52.77,0,0,1-7,.34c-3.24-.09-5,1-4.87,4.58.12,3.06,1.81,4,4.53,3.91a9.15,9.15,0,0,1,3,0c2.45.81,7.31-2.07,7,2.6-.28,3.83-4.93,1.92-7.57,2C388.17,619.45,388.17,619.34,388.17,605Z" style="fill:#2d2828"/><path d="M175.39,617.33a1.94,1.94,0,0,1-2,1.71c-1.7.12-3.52,0-4-2-1.15-4.46-4.57-4-7.88-3.95-3,0-5.9-.33-6.83,3.88-.46,2.09-2.88,2.77-4.83,1.53-1.8-1.14-.69-3-.2-4.46,2.27-6.53,4.87-13,7-19.54,1-3.08,2.77-4.17,5.8-4,2.49.11,4.28.67,5.19,3.47,2.35,7.21,5,14.31,7.54,21.47A8.55,8.55,0,0,1,175.39,617.33Z" style="fill:#1c171a"/><path d="M313.79,604.79c.46-16-3.58-14.15,15.16-14.3a15.83,15.83,0,0,1,3,.13c1.21.24,2.71.24,2.84,2s-1.21,2.23-2.53,2.33c-2.31.17-4.65,0-7,.19-2.11.15-5-.86-5.26,2.78s2.56,3.15,4.77,3.27c2,.11,4,0,6,.11,1.35.06,2.63.35,2.76,2.12s-1.12,2.23-2.46,2.32c-2.32.15-4.65.19-7,.15-3-.06-4.14,1.48-4.14,4.3s1.25,4.26,4.19,4.24,6,.14,9,.22a2,2,0,0,1,2,1.78c.21,1.54-.82,2.39-2.29,2.53a35.57,35.57,0,0,1-4,.14C310.94,618.86,314.17,621.52,313.79,604.79Z" style="fill:#281f1d"/><path d="M308.59,602.23c0,2,.15,4,0,6-.69,7.76-4.06,11-11.35,10.95s-10.89-3.28-11.47-10.91c-.35-4.63-.11-9.31-.1-14,0-2.37,1.15-3.74,3.61-3.55,2.19.18,2.42,1.89,2.43,3.6,0,4.66,0,9.32.07,14,.06,3.51,1.87,5.79,5.4,5.89,3.7.12,5.26-2.31,5.29-5.8,0-4.66,0-9.32.06-14,0-1.73.24-3.42,2.41-3.66,2.5-.28,3.61,1.15,3.67,3.48C308.65,596.91,308.6,599.57,308.59,602.23Z" style="fill:#2b2629"/><path d="M210.56,619.14c-2,0-4-.08-6,0-3.08.14-4-1.5-4-4.29V594.91c0-2.06.14-4.2,2.86-4.25,5.3-.08,10.62,0,15.92.16a1.84,1.84,0,0,1,1.73,2v0a1.91,1.91,0,0,1-1.69,2c-3,.25-6,.25-9,.27-2.19,0-3.93.35-3.78,3.2.1,2.07,1.26,2.53,3.07,3,3.48.87,9.69-2.51,9.91,2.59.16,3.72-6.09,1.5-9.44,2-3.17.44-3.64,2.26-3.56,4.83.07,2.35,1.12,3.7,3.58,3.75a13.67,13.67,0,0,1,3,.07c2.8.69,8.1-1.94,7.84,2.56-.24,4.07-5.52,1.32-8.47,2A8.11,8.11,0,0,1,210.56,619.14Z" style="fill:#18181f"/><path d="M340.17,604.39c0-3.63-.11-7.26.05-10.89a2.89,2.89,0,0,1,2.76-3,2.81,2.81,0,0,1,.41,0,3,3,0,0,1,3.11,2.89v.21c.16,4.94.28,9.9.1,14.84-.15,4.06,1,6.36,5.54,5.91a21.48,21.48,0,0,1,4.94.07c1.52.21,3.49.32,3.18,2.71-.21,1.6-1.56,1.89-2.88,2.07h-1C340.29,621,340.05,620.76,340.17,604.39Z" style="fill:#423e3f"/><path d="M364.17,604.37c0-3.63-.13-7.27.05-10.89a2.87,2.87,0,0,1,2.74-3,2.26,2.26,0,0,1,.45,0,3,3,0,0,1,3.1,2.9v.21c.16,4.95.28,9.91.09,14.85-.16,4.08,1.08,6.33,5.56,5.89a21.48,21.48,0,0,1,4.94.07c1.53.21,3.49.34,3.16,2.73-.22,1.58-1.57,1.88-2.9,2h-1C364.26,621,364.05,620.78,364.17,604.37Z" style="fill:#423e3f"/><path d="M187,590.47c1.65,0,3.3-.07,4.94,0,1.87.1,4.62-.62,5.09,1.67.77,3.76-2.59,2.88-4.63,3-2.84.13-3,2-3,4.05V615c0,2-.06,4.17-2.95,4-2.69-.12-2.94-2.16-3-4.2,0-4.62-.19-9.25,0-13.86.17-3.8-.4-6.48-5.14-6-1.29.14-2.67-.4-2.7-2.08-.05-2.39,1.9-2.34,3.44-2.43,2.63-.14,5.28,0,7.92,0Z" style="fill:#2a2020"/><path d="M275,604.73c-.06,2,0,4.83-1.68,5.41-2.88,1-6.06,2.65-8.42,3-4,.61-4.79-4.55-5-8.2-.32-5.85,2.76-9.77,7.34-9.82S275,598.92,275,604.73Z" style="fill:#f2f1f2"/><path d="M128.54,604.14c0-1.31-.07-2.63,0-3.93.27-4.78,3.54-6.67,7.7-4.43,3.94,2.12,3.51,6,3.45,9.52-.06,3.16.31,6.65-3.56,8.4-4.57,2.08-7.27.53-7.59-4.65C128.45,607.46,128.54,605.81,128.54,604.14Z" style="fill:#f9f8f7"/><path d="M162.68,597.43c.92,2.51,1.89,4.85,2.62,7.27.37,1.22.73,2.95-.77,3.51a8.2,8.2,0,0,1-4.75.33c-2.25-.6-1.42-2.51-1-4.06C159.5,602,159.77,599.24,162.68,597.43Z" style="fill:#d4d0d0"/><path d="M3.42,17.25a28.52,28.52,0,0,1,13.88-16c3.42-2,7.17-1,10.75-1Q280.27.16,532.5.25c3.58,0,7.33-1,10.76,1a28.54,28.54,0,0,1,13.87,16c3.34,5.37,3.37,11.41,3.37,17.41v681c0,11-1.41,21.38-11.17,28.54a29.87,29.87,0,0,1-7.37,3.16c-8.61,1.11-17.28,1.08-25.93,1.08H45.12c-7.67,0-15.33-.29-23-.61a18.13,18.13,0,0,1-6.4-1.77,22.86,22.86,0,0,1-2.59-1.37c-1.2-.67-2.38-1.41-3.53-2.19a9.67,9.67,0,0,1-1.94-1.84c-1.09-1.43-2.12-2.91-3.12-4.43a15.92,15.92,0,0,1-1.31-2.61c-.75-2-1.54-3.92-2.1-6a17.94,17.94,0,0,1-.56-3.57C-.55,688.73.33,653.42.31,618.11Q.12,347.27.21,76.42c0-16.65-.34-33.3.31-49.95C1.05,23.28,1.4,20,3.42,17.25Z" style="fill:#55b791"/><path d="M286.53,336.9H182.67c-2.33,0-4.67.12-7,0-10.22-.71-16.48-5.84-17.2-15.91a249,249,0,0,1-.1-32.89c.58-9.57,5.52-14.2,15-15.86a57.87,57.87,0,0,1,9.93-.56H391c3.65,0,7.29-.13,10.91.83,8.55,2.26,13.15,7.46,13.35,16.23q.35,15.48,0,31c-.21,9.57-6.48,16.16-16,17.14a79,79,0,0,1-8,.1Z" style="fill:#fff"/><path d="M287.36,191.52H393.21c3.31,0,6.63-.3,9.91.73,7.34,2.32,12,7.56,12.15,15.24q.45,16.47,0,32.95c-.23,8.13-5,13.54-13.15,15.28a48.29,48.29,0,0,1-9.9.79q-104.85.06-209.71,0h-4c-14.2-.48-20.07-6.11-20.52-20.08-.25-8-.21-16,0-24,.37-15.33,6.11-20.93,21.51-21Q233.43,191.45,287.36,191.52Z" style="fill:#fff"/><path d="M286.31,416.92h-107c-15.5,0-21-5.35-21.33-21-.19-8.33-.21-16.67,0-25,.39-13.4,8.69-18.32,18.87-18.28,73.33.27,146.65.11,220,.17,12.72,0,18.3,5.63,18.49,18.18.13,9,.11,18,0,27-.15,12.87-6,18.86-19.06,18.9C359.64,417,323,416.92,286.31,416.92Z" style="fill:#fff"/><path d="M343,315.79c-6.69,0-11.51-4.58-11.72-11-.23-6.74,5-12,11.9-11.91a11.48,11.48,0,1,1,.47,22.95H343Z" style="fill:#fdfefe"/><path d="M387.06,305.22c-.51,6.52-6.16,11.09-13,10.53a11.36,11.36,0,0,1-10.72-12c0-.28,0-.57.08-.86.77-6.45,6.62-10.8,13.46-10A11.5,11.5,0,0,1,387.06,305.22Z" style="fill:#fdfefe"/><path d="M387.08,223.6a11.89,11.89,0,0,1-23.71,1.27A12.23,12.23,0,0,1,374.55,212C380.69,211.62,386.84,217.3,387.08,223.6Z" style="fill:#fdfefe"/><path d="M343.17,235.56a11.45,11.45,0,0,1-11.86-11c0-.25,0-.51,0-.76.12-6.43,6-12,12.23-11.75,5.86.26,11.39,5.85,11.49,11.62a11.71,11.71,0,0,1-11.52,11.9Z" style="fill:#fdfefe"/><path d="M363.34,384.74a11.89,11.89,0,0,1,23.77-.56,12.37,12.37,0,0,1-11.63,12.59C369.23,397.06,363.41,391.29,363.34,384.74Z" style="fill:#fcfdfd"/><path d="M343,372.94a11.84,11.84,0,0,1,12,11.68v.25c0,6.23-6.11,12.09-12.37,11.93-5.91-.15-11.14-5.55-11.38-11.76A11.61,11.61,0,0,1,342.36,373Z" style="fill:#fcfdfd"/><path d="M123.71,547.07a24.6,24.6,0,0,1,11.73,2.64,18.94,18.94,0,0,1,7.73,7.43,23.33,23.33,0,0,1,0,21.9,19.21,19.21,0,0,1-7.68,7.41,24.39,24.39,0,0,1-11.73,2.67H106.6v-42Zm-.66,33.24q5.7,0,8.94-3.3t3.24-8.94q0-5.7-3.24-9t-8.94-3.27H117v24.48Z" style="fill:#fff"/><path d="M167.62,589.07l-.66-3.72a16.67,16.67,0,0,1-3.33,3,8.2,8.2,0,0,1-4.59,1.14,11.49,11.49,0,0,1-4.83-1,8.29,8.29,0,0,1-3.51-2.91,8.09,8.09,0,0,1-1.32-4.68,7.86,7.86,0,0,1,2.65-6.12q2.63-2.4,8.33-3.06L167,571v-1.74a2.55,2.55,0,0,0-.84-1.71,3.44,3.44,0,0,0-2.58-.87,4.42,4.42,0,0,0-2.7.84,4.24,4.24,0,0,0-1.56,2.34l-8.34-3a11.2,11.2,0,0,1,4.68-6.15,15.31,15.31,0,0,1,8.28-2.07c4.21,0,7.4,1,9.6,3.12a11.26,11.26,0,0,1,3.3,8.58v18.72ZM167,576.53l-4.68.54a3.47,3.47,0,0,0-2.09.9,2.33,2.33,0,0,0-.73,1.74,2,2,0,0,0,.87,1.68,4,4,0,0,0,2.44.66,4.07,4.07,0,0,0,2.18-.57,3.91,3.91,0,0,0,1.47-1.65,6,6,0,0,0,.54-2.7Z" style="fill:#fff"/><path d="M185,559.07v-8.4h10v8.4h5.7v8.76H195v9.36a2.89,2.89,0,0,0,.9,2.4,3.56,3.56,0,0,0,2.22.75,10.67,10.67,0,0,0,2.64-.27v8.64a24.1,24.1,0,0,1-6.23.36,11.49,11.49,0,0,1-5-1.53,8.63,8.63,0,0,1-3.33-3.84,15.31,15.31,0,0,1-1.19-6.51v-9.36h-4.27v-8.76Z" style="fill:#fff"/><path d="M219.34,589.49a16.25,16.25,0,0,1-8.13-2,13.44,13.44,0,0,1-5.34-5.49,17.26,17.26,0,0,1-1.89-8.28,16.07,16.07,0,0,1,1.89-7.86,13.68,13.68,0,0,1,5.25-5.34,15.41,15.41,0,0,1,7.74-1.92,16.27,16.27,0,0,1,7.92,1.83,12.91,12.91,0,0,1,5.22,5.19,16,16,0,0,1,1.86,7.86q0,.66-.06,1.44t-.18,1.74H214.48a5.89,5.89,0,0,0,1.05,2.37,4.78,4.78,0,0,0,1.86,1.5,5.91,5.91,0,0,0,2.49.51,5.65,5.65,0,0,0,2.76-.66,4.92,4.92,0,0,0,1.92-1.92l8.88,2.22a13.67,13.67,0,0,1-5.43,6.51A16.11,16.11,0,0,1,219.34,589.49ZM223.12,571a4.7,4.7,0,0,0-.63-2.22,4.23,4.23,0,0,0-1.47-1.5,3.5,3.5,0,0,0-2-.48,4.56,4.56,0,0,0-2.07.6,4.67,4.67,0,0,0-1.56,1.47,4.55,4.55,0,0,0-.75,2.13Z" style="fill:#fff"/><path d="M238.6,559.07h8.88l.72,3.42a12,12,0,0,1,3.45-2.76,9.28,9.28,0,0,1,4.41-1.08,10.86,10.86,0,0,1,5.94,1.53,9.5,9.5,0,0,1,3.63,4.41,17.66,17.66,0,0,1,1.23,7v17.52H257V572.79a6.24,6.24,0,0,0-1.08-3.93,3.84,3.84,0,0,0-3.18-1.35,3.89,3.89,0,0,0-3.24,1.35,6.3,6.3,0,0,0-1.08,4v16.26H238.6Z" style="fill:#fff"/><path d="M293.56,584.39a11.46,11.46,0,0,1-3.63,3.57,10.3,10.3,0,0,1-5.67,1.53,12.17,12.17,0,0,1-6.69-1.86,12.72,12.72,0,0,1-4.59-5.34,18.79,18.79,0,0,1-1.68-8.22,18.52,18.52,0,0,1,1.68-8.19,12.79,12.79,0,0,1,4.62-5.34,12,12,0,0,1,6.66-1.89,10.17,10.17,0,0,1,4.92,1.23,8.75,8.75,0,0,1,3.36,3l.54-3.78H302v42h-9.79V584.42Zm-11.64-10.32a7.12,7.12,0,0,0,1.38,4.56,4.71,4.71,0,0,0,6.21,1,5.4,5.4,0,0,0,1.89-2.16,8.41,8.41,0,0,0,0-6.81,5.25,5.25,0,0,0-1.89-2.1,4.68,4.68,0,0,0-2.49-.72,4.55,4.55,0,0,0-3.69,1.71A6.87,6.87,0,0,0,281.92,574.07Z" style="fill:#fff"/><path d="M335.92,589.07H327l-.72-3.48a11.63,11.63,0,0,1-3.42,2.82,8.91,8.91,0,0,1-4.38,1.08,10.5,10.5,0,0,1-5.73-1.53,10.14,10.14,0,0,1-3.78-4.44,16.52,16.52,0,0,1-1.35-7V559.06h9.84v16.32a6.24,6.24,0,0,0,1.08,3.93,3.9,3.9,0,0,0,3.24,1.35,3.86,3.86,0,0,0,3.21-1.41,6.32,6.32,0,0,0,1.11-4v-16.2h9.84Z" style="fill:#fff"/><path d="M356,589.49a16.25,16.25,0,0,1-8.13-2,13.44,13.44,0,0,1-5.34-5.49,17.26,17.26,0,0,1-1.89-8.28,16.07,16.07,0,0,1,1.89-7.86,13.68,13.68,0,0,1,5.25-5.34,15.41,15.41,0,0,1,7.74-1.92,16.27,16.27,0,0,1,7.92,1.83,12.91,12.91,0,0,1,5.22,5.19,16,16,0,0,1,1.86,7.86q0,.66-.06,1.44t-.18,1.74H351.17a5.89,5.89,0,0,0,1.05,2.37,4.78,4.78,0,0,0,1.86,1.5,5.91,5.91,0,0,0,2.49.51,5.65,5.65,0,0,0,2.76-.66,4.92,4.92,0,0,0,1.92-1.92l8.88,2.22a13.67,13.67,0,0,1-5.43,6.51A16.17,16.17,0,0,1,356,589.49ZM359.8,571a4.7,4.7,0,0,0-.63-2.22,4.23,4.23,0,0,0-1.47-1.5,3.5,3.5,0,0,0-2-.48,4.56,4.56,0,0,0-2.07.6,4.67,4.67,0,0,0-1.56,1.47,4.55,4.55,0,0,0-.75,2.13Z" style="fill:#fff"/><path d="M375.28,545.87h9.89v43.2h-9.84Z" style="fill:#fff"/><path d="M391.06,545.87h9.84v43.2h-9.84Z" style="fill:#fff"/><path d="M421,589.49a16.25,16.25,0,0,1-8.13-2,13.44,13.44,0,0,1-5.34-5.49,17.26,17.26,0,0,1-1.89-8.28,16.07,16.07,0,0,1,1.89-7.86,13.68,13.68,0,0,1,5.25-5.34,15.41,15.41,0,0,1,7.74-1.92,16.27,16.27,0,0,1,7.92,1.83,12.91,12.91,0,0,1,5.22,5.19,16,16,0,0,1,1.86,7.86q0,.66-.06,1.44t-.18,1.74H416.17a5.89,5.89,0,0,0,1.05,2.37,4.78,4.78,0,0,0,1.86,1.5,5.91,5.91,0,0,0,2.49.51,5.65,5.65,0,0,0,2.76-.66,4.92,4.92,0,0,0,1.92-1.92l8.88,2.22a13.67,13.67,0,0,1-5.43,6.51A16.13,16.13,0,0,1,421,589.49ZM424.78,571a4.7,4.7,0,0,0-.63-2.22,4.23,4.23,0,0,0-1.47-1.5,3.5,3.5,0,0,0-2-.48,4.56,4.56,0,0,0-2.07.6,4.67,4.67,0,0,0-1.56,1.47,4.55,4.55,0,0,0-.75,2.13Z" style="fill:#fff"/><path d="M440.26,559.07h8.91l.72,3.42a12,12,0,0,1,3.45-2.76,9.28,9.28,0,0,1,4.41-1.08,10.86,10.86,0,0,1,5.94,1.53,9.5,9.5,0,0,1,3.63,4.41,17.66,17.66,0,0,1,1.23,7v17.52h-9.84V572.79a6.24,6.24,0,0,0-1.08-3.93,3.84,3.84,0,0,0-3.18-1.35,3.89,3.89,0,0,0-3.24,1.35,6.3,6.3,0,0,0-1.08,4v16.26h-9.84Z" style="fill:#fff"/></svg>