<svg id="Ebene_1" data-name="Ebene 1" xmlns="http://www.w3.org/2000/svg" viewBox="0 0 560.46 747.17"><path d="M17.22,748.28v-4.12c5.33.13,10.66.38,16,.38h494c5.33,0,10.65-.25,16-.39-.83,1.1-1.89,2.09-3.28,2-12-1-23.73,2.24-35.71,2.23q-223.82-.17-447.63.08c-9.71,0-19-2.88-28.73-2.21C24.17,746.48,20.51,746.29,17.22,748.28Z" style="fill:#f3f3f2"/><path d="M340.93,604.06v-11c0-1.82.55-3.39,2.69-3.27,1.93.1,2.87,1.43,2.87,3.33v21c0,1.68-.18,3.5-2.19,3.93a4.41,4.41,0,0,1-5.16-2c-1.91-3.13-3.88-6.2-5.86-9.28-.7-1.08-1.5-2.1-3.43-4.8-.26,5.7-.41,9.72-.63,13.74a2.32,2.32,0,0,1-2.22,2.42,1.51,1.51,0,0,1-.3,0c-1.49,0-2.87-.71-2.9-2.1-.16-8-.3-16,0-23.94.09-2.56,4.25-3.4,6.35-1.31,1.37,1.37,2.21,3.28,3.29,5q2.9,4.47,5.81,8.93Z" style="fill:#262023"/><path d="M245.64,606.49c-2,2.83-.66,6-1.27,8.82C244,617.22,243,618.2,241,618a2.4,2.4,0,0,1-2.34-2.47c0-.06,0-.11,0-.17-.08-7.63-.09-15.26-.08-22.89,0-2.09,1.45-2.83,3.26-2.84a93.28,93.28,0,0,1,11.94.17c7.32.91,10.29,7.27,5.41,12.74-2.59,2.9-2.68,4.17-.61,6.92,1.76,2.33,3.71,4.71,4.16,8C252.25,621.34,253.92,606,245.64,606.49Z" style="fill:#19181e"/><path d="M305.16,589.6c8.64,0,14.18,5.76,14,14.59-.18,8.25-5.73,13.94-13.69,14-8.23.09-14.23-6.23-14-14.76S297,589.63,305.16,589.6Z" style="fill:#211d1f"/><path d="M212.11,603.56c.34-16-2.82-13.81,14.42-14a25,25,0,0,1,3,0c1.59.18,3.59.18,3.34,2.55s-2.22,2-3.8,2.09c-2.66.1-5.32,0-8,.11-2.08.07-2.72,1.37-2.61,3.29.1,1.53.82,2.5,2.34,2.58,3,.15,6,.16,9,.27a2.19,2.19,0,0,1,2.06,1.76c.44,1.73-.77,2.45-2.12,2.59a54.52,54.52,0,0,1-7,.22c-2.87-.06-4.28,1.15-4.35,4.08s1.07,4.38,4,4.39c2.66,0,5.32,0,8,.12,1.33.06,2.66.44,2.78,2.09s-1,2.3-2.43,2.42a27.35,27.35,0,0,1-3,.11C209.11,617.92,212.57,620.9,212.11,603.56Z" style="fill:#2d2828"/><path d="M376.8,617c-2.2,1.55-4.21,1.72-5.87.29-7.94-6.84-8.85-6.95-15.65-.45a3.83,3.83,0,0,1-4.46,1c-2.18-1-1-2.71-.44-4.19,2.33-6.57,4.73-13.11,7-19.72,1-2.86,2.52-4.4,5.73-4.43s4.91,1.34,5.87,4.23c1.25,3.78,2.69,7.5,4,11.27C374.27,609,375.53,613.09,376.8,617Z" style="fill:#231d20"/><path d="M277.11,618.22a11.24,11.24,0,0,1-8.85-2.9c-1.45-1.34-4.16-3.19-1.36-5.68,1.78-1.58,3.49-1.2,5,.85a6.17,6.17,0,0,0,7,2.62,3.73,3.73,0,0,0,2.94-2.43c.39-1.5-.65-2.44-2-2.94-2.79-1-5.65-1.93-8.38-3.09-3.89-1.66-5.45-4.75-4.64-8.87.76-3.81,3.52-5.49,7.11-6,4-.53,8.05-.62,11.27,2.45,1.44,1.37,3,3.07,1.26,5.08a2.88,2.88,0,0,1-4.08.23,2.73,2.73,0,0,1-.33-.35c-1.66-1.78-3.24-3.33-5.89-3-1.34.19-2.58.53-3.07,2a2.65,2.65,0,0,0,1.58,3.25,53.61,53.61,0,0,0,5.65,1.91c6.4,2.4,8.83,5.36,8,9.61S283.38,618.07,277.11,618.22Z" style="fill:#262225"/><path d="M185.72,603.7v-2c0-12.78,1.55-14,14.13-12,4.49.71,7.25,2.85,7.65,7.57.41,5-1.77,8.11-6.75,9.38a8.12,8.12,0,0,1-2.94.33c-5-.51-6.39,2-6,6.53.21,2.33.08,5-3.37,4.62-2.62-.26-2.68-2.51-2.71-4.5V603.7Z" style="fill:#2b2220"/><path d="M249.39,594.1c2.61.13,5.78-.16,5.67,3.73-.1,3.64-3.19,3.61-5.84,3.9-3.38.37-4.89-1.14-4.84-4.54C244.44,593.46,247.18,594.29,249.39,594.1Z" style="fill:#ede8e6"/><path d="M312.93,603.78c0,5.49-3.59,9.89-7.86,9.71s-7.47-4.78-7.25-10.28,3-8.87,7.31-9C309.82,594.1,313,598,312.93,603.78Z" style="fill:#f5f4f4"/><path d="M367.25,606.84c-8.76.73-8.76.73-5.17-9.74C366.45,599.22,365,603.71,367.25,606.84Z" style="fill:#e0e0e4"/><path d="M201.25,598.31c-.42,3.56-2.84,4.05-5.68,4.11-3,.08-3.84-1.52-3.86-4.29,0-3,1.35-4,4.16-4S201,595,201.25,598.31Z" style="fill:#eaebed"/><path d="M3.11,20.32c1-3.17,1.53-6.6,3.12-9.44C9.85,4.43,15.34.36,23.06.08c3-.11,6-.08,9-.08H531.41c16.21.07,21.45,4.18,25.93,20.32,3,8.63,3.12,17.64,3.12,26.62V705.61c0,14,.56,28.37-12.82,37.95a22,22,0,0,1-4.31,2.49c-4.87,1.5-9.9,1.05-14.87,1.05H32.29c-5,0-10,.43-14.89-1C7.56,740.94,1.73,733.17.72,721.79c-.56-6.32-.71-12.63-.71-19V49.87C0,40-.24,30,3.11,20.32Z" style="fill:#fcc145"/><path d="M286.91,432.07c-18.1-.33-35.74-3.18-52.69-9.79a56,56,0,0,1-17.11-10.13c-6-5.32-9.78-11.93-10-20-.78-34.83,10.3-64.94,37.06-88,26.56-22.92,61.19-22.42,87.25,1,25.69,23.07,36.69,52.51,35.91,86.61-.19,8.84-4.46,15.79-11.21,21.42-9.52,7.94-21,11.51-32.62,14.43A139.4,139.4,0,0,1,286.91,432.07Z" style="fill:#fff"/><path d="M287.11,270.92c-26,0-47.91-21.68-48-47.48s22.51-48.92,48.2-48.85,48.26,23,48,49C335.11,249.36,313.11,271,287.11,270.92Z" style="fill:#fff"/><path d="M200.56,559.83a14,14,0,0,1-.93,5,13,13,0,0,1-2.82,4.44,13.26,13.26,0,0,1-4.83,3.15,18.77,18.77,0,0,1-7,1.17h-8.87v14.58H165.7v-42H185a18.1,18.1,0,0,1,8.67,1.89,12.61,12.61,0,0,1,5.16,5A13.84,13.84,0,0,1,200.56,559.83Zm-16.2,5a7.29,7.29,0,0,0,3.09-.57,4,4,0,0,0,1.86-1.71,5.51,5.51,0,0,0,.63-2.7,4.74,4.74,0,0,0-1.38-3.6,5.92,5.92,0,0,0-4.2-1.32h-8.25v9.9Z" style="fill:#fff"/><path d="M217.3,588.57a16.15,16.15,0,0,1-8.13-2,13.44,13.44,0,0,1-5.34-5.49,17.24,17.24,0,0,1-1.89-8.28,16.07,16.07,0,0,1,1.89-7.86,13.75,13.75,0,0,1,5.25-5.34,15.41,15.41,0,0,1,7.74-1.92,16.5,16.5,0,0,1,7.92,1.83A12.91,12.91,0,0,1,230,564.7a16.07,16.07,0,0,1,1.86,7.86q0,.66-.06,1.44t-.18,1.74H212.44a5.94,5.94,0,0,0,1,2.37,4.76,4.76,0,0,0,1.86,1.5,5.76,5.76,0,0,0,2.49.51,5.54,5.54,0,0,0,2.76-.66,4.86,4.86,0,0,0,1.92-1.92l8.88,2.22a13.67,13.67,0,0,1-5.43,6.51A16.05,16.05,0,0,1,217.3,588.57ZM221.08,570a4.7,4.7,0,0,0-.63-2.22,4.31,4.31,0,0,0-1.47-1.5,3.58,3.58,0,0,0-2-.48,4.56,4.56,0,0,0-2.07.6,4.87,4.87,0,0,0-1.56,1.47,4.55,4.55,0,0,0-.75,2.13Z" style="fill:#fff"/><path d="M236.56,558.15h8.94l.66,4.08a10.54,10.54,0,0,1,2.7-2.67,9.84,9.84,0,0,1,3.57-1.44,12.77,12.77,0,0,1,4.53,0v9.36a8.83,8.83,0,0,0-6.87.84,7.06,7.06,0,0,0-2.67,2.88,10.53,10.53,0,0,0-1,5v11.94h-9.84Z" style="fill:#fff"/><path d="M268.78,578.22a3.68,3.68,0,0,0,.72,1.47,2.9,2.9,0,0,0,1.26.87,5,5,0,0,0,1.8.3,4.57,4.57,0,0,0,2.43-.54,1.57,1.57,0,0,0,.87-1.38,1.45,1.45,0,0,0-.69-1.29,6.73,6.73,0,0,0-1.77-.75q-1.08-.3-2.28-.54-1.5-.3-3.36-.78a15.43,15.43,0,0,1-3.57-1.41,7.94,7.94,0,0,1-2.82-2.55,7.19,7.19,0,0,1-1.11-4.14,8.88,8.88,0,0,1,1.44-5,9.91,9.91,0,0,1,4.23-3.48,16.35,16.35,0,0,1,6.87-1.29,13.7,13.7,0,0,1,7.92,2,10.54,10.54,0,0,1,4.08,5.64l-8.52,1.92a1.92,1.92,0,0,0-.69-1.11,3.54,3.54,0,0,0-1.23-.57,6.31,6.31,0,0,0-1.44-.18,3.44,3.44,0,0,0-2,.51,1.47,1.47,0,0,0-.66,1.17,1.13,1.13,0,0,0,.36.87,2.38,2.38,0,0,0,1,.51,12.51,12.51,0,0,0,1.5.33q.87.15,1.83.39c1.2.28,2.43.62,3.69,1a15.42,15.42,0,0,1,3.54,1.59,8.11,8.11,0,0,1,2.67,2.7,8.7,8.7,0,0,1,1.08,4.38,8.43,8.43,0,0,1-1.5,4.89,10.12,10.12,0,0,1-4.41,3.48,17.72,17.72,0,0,1-7.23,1.29,16.35,16.35,0,0,1-8.73-2.13,9.21,9.21,0,0,1-4.29-6.33Z" style="fill:#fff"/><path d="M304.84,588.57a16.53,16.53,0,0,1-7.92-1.86,13.69,13.69,0,0,1-5.49-5.34,16.15,16.15,0,0,1-2-8.22,15.74,15.74,0,0,1,2-8.19,14.11,14.11,0,0,1,5.55-5.34,16.61,16.61,0,0,1,8-1.89,16.87,16.87,0,0,1,8,1.89,14.12,14.12,0,0,1,5.58,5.34,17.41,17.41,0,0,1,0,16.41,13.94,13.94,0,0,1-5.64,5.34A16.92,16.92,0,0,1,304.84,588.57Zm0-8.94a4.68,4.68,0,0,0,2.49-.72,5.08,5.08,0,0,0,1.89-2.16,9.36,9.36,0,0,0,0-7.2,5.32,5.32,0,0,0-1.86-2.16,4.51,4.51,0,0,0-4.89,0,5,5,0,0,0-1.77,2.16,8.72,8.72,0,0,0-.66,3.6,9,9,0,0,0,.63,3.6,4.73,4.73,0,0,0,1.74,2.16A4.3,4.3,0,0,0,304.84,579.63Z" style="fill:#fff"/><path d="M325.3,558.15h8.88l.72,3.42a12.14,12.14,0,0,1,3.45-2.76,9.28,9.28,0,0,1,4.41-1.08,10.86,10.86,0,0,1,5.94,1.53,9.6,9.6,0,0,1,3.63,4.41,17.66,17.66,0,0,1,1.23,7v17.52h-9.84V571.87a6.18,6.18,0,0,0-1.08-3.93,3.84,3.84,0,0,0-3.18-1.35,3.93,3.93,0,0,0-3.24,1.35,6.33,6.33,0,0,0-1.08,4V588.2H325.3Z" style="fill:#fff"/><path d="M376.3,588.15l-.66-3.72a16.37,16.37,0,0,1-3.33,3,8,8,0,0,1-4.59,1.14,11.49,11.49,0,0,1-4.83-1,8.29,8.29,0,0,1-3.51-2.91,8.07,8.07,0,0,1-1.32-4.68,7.88,7.88,0,0,1,2.64-6.12q2.64-2.4,8.34-3.06l6.6-.72v-1.74a2.55,2.55,0,0,0-.84-1.71,3.48,3.48,0,0,0-2.58-.87,4.42,4.42,0,0,0-2.7.84,4.27,4.27,0,0,0-1.56,2.34l-8.34-3a11.2,11.2,0,0,1,4.68-6.15,15.31,15.31,0,0,1,8.28-2.07q6.3,0,9.6,3.12a11.26,11.26,0,0,1,3.3,8.58v18.72Zm-.66-12.54-4.68.54a3.56,3.56,0,0,0-2.1.9,2.39,2.39,0,0,0-.72,1.74,2,2,0,0,0,.87,1.68,3.89,3.89,0,0,0,2.43.66,4,4,0,0,0,2.19-.57,3.91,3.91,0,0,0,1.47-1.65,6,6,0,0,0,.54-2.7Z" style="fill:#fff"/></svg>