<svg id="Ebene_1" data-name="Ebene 1" xmlns="http://www.w3.org/2000/svg" viewBox="0 0 558.25 747.92"><path d="M15.63,744.85c-2,.18-3.82-.07-4.45-2.43C12.85,742.83,14.54,743.32,15.63,744.85Z" style="fill:#f3eeed"/><path d="M5.63,736.88c-2.35-.64-2.58-2.43-2.42-4.44C4.73,733.53,5.22,735.18,5.63,736.88Z" style="fill:#f4f1f0"/><path d="M205.12,609c-.29,2.63-.44,5.29-.91,7.88-.26,1.43-1.58,2-3,2-1.61-.06-2.27-1.18-2.29-2.6-.07-7-.08-14-.12-21,0-2.38-.12-4.77,3.29-4.89,2.75-.09,5.5-.19,6.45,3.17,1.07,3.83,2,7.7,3.13,12,4.12-2.58,3.63-7,4.55-10.42,1.15-4.29,3.45-5.19,7.18-4.75,4,.46,3.23,3.52,3.26,6,.06,6,0,12,0,18,0,2-.13,4.23-2.81,4.43-2.87.2-2.94-2.07-3-4.06-.07-3.65,0-7.31,0-11.89-2.92,4-3.44,7.83-4.32,11.55-.53,2.25-1.13,4.71-4.32,4.47-2.56-.2-3-2.11-3.42-4.16a52.74,52.74,0,0,0-1.89-5.65c-.85-1.31-1.52-2.64-.13-4C205.08,606,206.49,608,205.12,609Z" style="fill:#1e1a1f"/><path d="M342.24,605.43c0,3.61.11,7.23,0,10.83-.08,2-1.51,2.76-3.42,2.57-1.72-.18-2-1.54-2-2.85-.06-7.28-.06-14.56-.08-21.84,0-1.78.41-3.33,2.51-3.56a4.16,4.16,0,0,1,4.28,1.83c2.65,4.1,5.28,8.21,8.61,13.4,2-4.59.94-8.44,1.26-12.07.17-2,1.28-3.08,3.08-3.11,2.09,0,2.61,1.57,2.61,3.37v20.86c0,1.53.32,3.44-1.9,4A4.41,4.41,0,0,1,352,617l-7.85-12.21Z" style="fill:#201b1e"/><path d="M304.91,599.12c2.52-3.44,4.56-7.25,9.39-8.29,7.43-1.59,14.13,1.25,16.67,7.45,3,7.28.3,15.79-6,19.1-6.66,3.5-13.43,1.77-18.32-4.75a28.39,28.39,0,0,1-1.94-3.49C302,605.75,302.13,602.41,304.91,599.12Z" style="fill:#201a1c"/><path d="M278.91,619c-4.17,0-7.91-.95-10.42-4.66-.75-1.11-1.54-2.37-.35-3.51s2.92-2.29,4.34-.73c2.09,2.29,4.11,4.51,7.51,4,1.61-.26,3.27-1,3.57-2.93.26-1.67-1.12-2.27-2.31-2.74-2.77-1.09-5.66-1.91-8.38-3.1-3.46-1.51-4.92-4.38-4.43-8.08s2.95-5.71,6.57-6.51c5.66-1.26,11.27.39,13.37,4.18.67,1.2,1,2.64-.43,3.5a4.13,4.13,0,0,1-2.78.35c-2.53-.58-3.32-4.25-6.64-3.71-1.71.28-3.41.4-3.78,2.43a2.79,2.79,0,0,0,2,3.06c1.83.77,3.81,1.19,5.67,1.9,6.52,2.48,8.65,5.29,7.52,9.8C288.85,616.5,284.77,619,278.91,619Z" style="fill:#262225"/><path d="M252.59,590.39c3.07.13,6.41.35,8.82,3.19,1.08,1.27,2.21,2.73,1,4.39a2.83,2.83,0,0,1-3.94.67,3.08,3.08,0,0,1-.43-.38c-2-1.86-3.78-3.83-6.81-3a4.17,4.17,0,0,0-2.26,1.6,2.24,2.24,0,0,0,.73,3.09,2.44,2.44,0,0,0,.43.21c2.72,1.2,5.62,2,8.43,3,3.51,1.24,5.61,3.77,5.53,7.46-.07,4.19-2.83,6.55-6.6,7.83-5.27,1.79-11.56.36-14.63-3.49-.94-1.19-2.4-2.68-.54-4.28,1.33-1.14,3.08-1.92,4.38-.34,2.28,2.77,4.66,4.82,8.49,3.37a3.11,3.11,0,0,0,2.37-2.82c.1-1.33-.87-1.78-1.73-2.11-2.15-.84-4.42-1.37-6.58-2.23-5.44-2.18-7.59-5.28-6.82-9.59S246.54,590.51,252.59,590.39Z" style="fill:#262225"/><path d="M236.91,604.63c0,4,.07,8,0,11.92a2.26,2.26,0,0,1-2.15,2.35,2.17,2.17,0,0,1-.36,0c-1.47,0-2.86-.63-2.89-2.06-.17-7.94-.19-15.89-.11-23.83,0-1.41,1.28-2.25,2.72-2.34,2.09-.12,2.91,1.12,2.92,3v10.93Z" style="fill:#010101"/><path d="M295.29,617.38c-.15-7.6-.28-15.19-.43-22.79-.06-2.82.85-4.51,4.07-3.53,4,7.31,2.71,15,1.7,22.7C300.26,616.55,298.77,618.7,295.29,617.38Z" style="fill:#010101"/><path d="M304.91,599.12l-.18,10c-3.56,2.33.27,7.83-4.18,9.78-.67-9.28-1.4-18.56.39-27.8C304.22,592.82,301.71,597.38,304.91,599.12Z" style="fill:#f0f4f3"/><path d="M300.94,591.12l-.39,27.8c-1.8-.37-4.35,1.83-5.26-1.55,3.32-.61,3.73-3,3.69-5.83-.07-6.83,0-13.65-.05-20.48Z" style="fill:#333b51"/><path d="M205.12,609a6.47,6.47,0,0,1-.27-1.9,8.12,8.12,0,0,1,.8-2.59c1.59.23,1.09,1.72,1.33,2.74a6.88,6.88,0,0,1-.12,1.92A12.81,12.81,0,0,0,205.12,609Z" style="fill:#e8e3d2"/><path d="M325.71,604.47c0,5.9-3.1,10-7.5,9.87s-7.38-4.27-7.23-10.16c.13-5.53,2.75-8.91,7.06-9.13C322.85,594.81,325.7,598.29,325.71,604.47Z" style="fill:#f7f6f8"/><path d="M21,747.84a25.11,25.11,0,0,1-3.58-.37,20.51,20.51,0,0,1-6.2-2.64,29.75,29.75,0,0,1-7.81-7.77,21.79,21.79,0,0,1-2.7-6.2,20.72,20.72,0,0,1-.48-3.68Q-.14,378.94.09,30.74a48.44,48.44,0,0,1,2.74-15.6A27.49,27.49,0,0,1,17,1C20.13-.57,23.52.18,26.8.18Q279,.12,531.11.18c3.28,0,6.67-.75,9.83.84A27.64,27.64,0,0,1,555.1,15.14c2.58,6.27,3.15,12.81,3.15,19.54q-.09,340.7,0,681.38c0,13.71-1.24,26.31-17,31.3a41.53,41.53,0,0,1-8,.55" style="fill:#e52525"/><path d="M306,304.53c2.32-4.39,1.48-7.78,1.49-11q.13-36,0-72c0-4,0-8,1.22-11.86,2.89-9.24,11-15,20.37-14.3a20,20,0,0,1,18.37,16.87,61.48,61.48,0,0,1,.36,9q0,36.48.07,72.95c0,3.08-1.11,6.52,1.62,9.73,2.86-1.67,2.19-4.13,2.2-6.18.07-12-.24-24,.16-36,.37-11.28,5.87-18.37,15.2-20.94,11-3,22,3.42,24.36,14.53a50,50,0,0,1,.7,9.93c.06,19.66-.15,39.31.09,59,.19,14.74-1.11,29.18-5,43.49-4,14.77-7,29.78-10.65,44.66-3.29,13.55-11.72,20.39-25.67,20.44-32,.13-64,0-95.94.07-9,0-16.13-3.45-21.4-10.69q-30.87-42.42-61.63-84.88c-6.11-8.49-6.43-16.93-1.42-24.17s12.33-9.64,21-8.35c5.31.79,9.14,3.71,12.2,7.91,4.52,6.17,9,12.33,13.85,18.86,2.6-2.29,1.6-5.07,1.6-7.42q.12-52.47,0-104.94c0-8.5,2.06-15.82,9.84-20.47a20.06,20.06,0,0,1,27.52,6.89,20.28,20.28,0,0,1,2.69,7.77,69.35,69.35,0,0,1,.28,9q0,36,.07,71.95c0,3.06-1.21,6.52,2,9.93,2.73-2.84,1.74-5.92,1.74-8.54.09-31,0-62,.07-92.94a60.78,60.78,0,0,1,.43-10c1.72-10.21,10.59-17.67,20.17-17.29,10.88.44,18.54,7.79,19.57,19,.27,3,.14,6,.14,9q0,45.47.06,90.94C303.74,297.45,302.58,300.91,306,304.53Z" style="fill:#fff"/><path d="M200.65,589H190.21V547h12.36l11.52,28.5L225.61,547H238v42H227.53V564.91L218.35,589h-8.5l-9.18-24.06Z" style="fill:#fff"/><path d="M250.39,556.75a6.23,6.23,0,0,1-4.44-1.59,5.1,5.1,0,0,1-1.68-3.87,5.15,5.15,0,0,1,1.68-3.93,7,7,0,0,1,8.85,0,5.3,5.3,0,0,1,0,7.8A6.27,6.27,0,0,1,250.39,556.75ZM245.47,559h9.84v30h-9.84Z" style="fill:#fff"/><path d="M270.31,579a3.61,3.61,0,0,0,.72,1.47,3,3,0,0,0,1.26.87,5,5,0,0,0,1.8.3,4.68,4.68,0,0,0,2.43-.54,1.62,1.62,0,0,0,.87-1.38,1.45,1.45,0,0,0-.69-1.29,6.42,6.42,0,0,0-1.77-.75q-1.08-.3-2.28-.54-1.5-.3-3.36-.78a15.53,15.53,0,0,1-3.57-1.41,7.94,7.94,0,0,1-2.82-2.55,7.15,7.15,0,0,1-1.12-4.14,8.86,8.86,0,0,1,1.44-4.95,9.83,9.83,0,0,1,4.23-3.48,16.38,16.38,0,0,1,6.87-1.29,13.6,13.6,0,0,1,7.92,2,10.4,10.4,0,0,1,4.08,5.64l-8.52,1.92a1.87,1.87,0,0,0-.69-1.11,3.23,3.23,0,0,0-1.23-.57,5.78,5.78,0,0,0-1.43-.18,3.27,3.27,0,0,0-2,.51,1.43,1.43,0,0,0-.66,1.17,1.08,1.08,0,0,0,.36.87,2.44,2.44,0,0,0,1,.51q.74.2,1.5.33t1.83.39c1.2.28,2.43.61,3.69,1a14.61,14.61,0,0,1,3.54,1.59,8.11,8.11,0,0,1,2.67,2.7,8.91,8.91,0,0,1,1.08,4.38,8.55,8.55,0,0,1-1.5,4.89,10.31,10.31,0,0,1-4.41,3.48,18.09,18.09,0,0,1-7.23,1.29,16.33,16.33,0,0,1-8.73-2.13,9.2,9.2,0,0,1-4.29-6.33Z" style="fill:#fff"/><path d="M300,579a3.61,3.61,0,0,0,.72,1.47,3,3,0,0,0,1.26.87,5,5,0,0,0,1.8.3,4.68,4.68,0,0,0,2.43-.54,1.62,1.62,0,0,0,.87-1.38,1.47,1.47,0,0,0-.69-1.29,6.42,6.42,0,0,0-1.77-.75q-1.08-.3-2.28-.54-1.5-.3-3.36-.78a15.53,15.53,0,0,1-3.57-1.41,8.06,8.06,0,0,1-2.83-2.55,7.22,7.22,0,0,1-1.11-4.14,8.86,8.86,0,0,1,1.44-4.95,9.83,9.83,0,0,1,4.23-3.48,16.38,16.38,0,0,1,6.87-1.29,13.6,13.6,0,0,1,7.92,2,10.45,10.45,0,0,1,4.08,5.64l-8.52,1.92a1.87,1.87,0,0,0-.69-1.11,3.23,3.23,0,0,0-1.23-.57,5.78,5.78,0,0,0-1.43-.18,3.27,3.27,0,0,0-2,.51,1.43,1.43,0,0,0-.66,1.17,1.08,1.08,0,0,0,.36.87,2.44,2.44,0,0,0,1,.51q.73.2,1.5.33t1.83.39c1.2.28,2.43.61,3.69,1a14.61,14.61,0,0,1,3.54,1.59,8.11,8.11,0,0,1,2.67,2.7,8.91,8.91,0,0,1,1.08,4.38,8.55,8.55,0,0,1-1.5,4.89,10.31,10.31,0,0,1-4.41,3.48,18.09,18.09,0,0,1-7.23,1.29,16.33,16.33,0,0,1-8.73-2.13,9.2,9.2,0,0,1-4.29-6.33Z" style="fill:#fff"/><path d="M328,556.75a6.23,6.23,0,0,1-4.44-1.59,5.1,5.1,0,0,1-1.68-3.87,5.15,5.15,0,0,1,1.68-3.93,7,7,0,0,1,8.85,0,5.3,5.3,0,0,1,0,7.8A6.27,6.27,0,0,1,328,556.75ZM323.05,559h9.8v30H323Z" style="fill:#fff"/><path d="M354.25,589.39a16.5,16.5,0,0,1-7.92-1.86,13.63,13.63,0,0,1-5.49-5.34,16.07,16.07,0,0,1-2-8.22,15.74,15.74,0,0,1,2-8.19,14,14,0,0,1,5.55-5.34,16.39,16.39,0,0,1,7.95-1.89,16.63,16.63,0,0,1,8,1.89,14,14,0,0,1,5.58,5.34,17.46,17.46,0,0,1,0,16.41,14,14,0,0,1-5.64,5.34A17.25,17.25,0,0,1,354.25,589.39Zm0-8.94a4.68,4.68,0,0,0,2.49-.72,5.17,5.17,0,0,0,1.88-2.16,9.36,9.36,0,0,0,0-7.2,5.13,5.13,0,0,0-1.86-2.16,4.34,4.34,0,0,0-2.4-.72,4.51,4.51,0,0,0-2.49.72,4.92,4.92,0,0,0-1.77,2.16,8.68,8.68,0,0,0-.65,3.6,9.05,9.05,0,0,0,.62,3.6,4.85,4.85,0,0,0,1.74,2.16A4.49,4.49,0,0,0,354.25,580.45Z" style="fill:#fff"/><path d="M374.71,559h8.88l.72,3.42a11.71,11.71,0,0,1,3.45-2.76,9,9,0,0,1,4.41-1.08,10.85,10.85,0,0,1,5.93,1.53,9.38,9.38,0,0,1,3.63,4.41,17.63,17.63,0,0,1,1.23,7V589h-9.84V572.69a6.1,6.1,0,0,0-1.08-3.93,3.82,3.82,0,0,0-3.18-1.35,3.9,3.9,0,0,0-3.24,1.35,6.3,6.3,0,0,0-1.08,4V589H374.7Z" style="fill:#fff"/></svg>