<svg id="Ebene_1" data-name="Ebene 1" xmlns="http://www.w3.org/2000/svg" viewBox="0 0 532.74 724.74"><path d="M192.54,598.33c-.28,2.63-.43,5.28-.91,7.88-.26,1.43-1.58,2-3,2-1.61-.05-2.27-1.17-2.29-2.59-.07-7-.08-14-.12-21,0-2.38-.12-4.77,3.3-4.89,2.75-.1,5.49-.19,6.44,3.17,1.08,3.83,2,7.69,3.14,12,4.12-2.58,3.63-7,4.54-10.42,1.16-4.29,3.45-5.19,7.18-4.76,4,.46,3.24,3.52,3.27,6.06v18c0,2-.12,4.23-2.8,4.42-2.86.21-2.95-2.06-3-4-.08-3.66,0-7.31,0-11.89-2.94,4-3.45,7.83-4.33,11.55-.53,2.24-1.13,4.71-4.32,4.47-2.56-.2-3-2.11-3.41-4.17a52.62,52.62,0,0,0-1.9-5.64c-.85-1.32-1.52-2.64-.13-4C192.5,595.33,193.91,597.38,192.54,598.33Z" style="fill:#1e1a1f"/><path d="M329.66,594.74c0,3.61.12,7.23,0,10.83-.08,2-1.51,2.76-3.41,2.56-1.72-.17-2-1.53-2-2.84-.08-7.28-.07-14.56-.1-21.84,0-1.78.42-3.33,2.51-3.56a4.14,4.14,0,0,1,4.29,1.82l8.62,13.41c1.94-4.59.94-8.44,1.25-12.07.16-2,1.28-3.08,3.08-3.11,2.09,0,2.61,1.56,2.61,3.37v20.85c0,1.54.33,3.44-1.89,4a4.44,4.44,0,0,1-5.17-1.89l-7.85-12.21Z" style="fill:#201b1e"/><path d="M292.33,588.43c2.52-3.45,4.57-7.25,9.39-8.29,7.43-1.59,14.13,1.24,16.67,7.45,3,7.27.3,15.79-6,19.09-6.66,3.5-13.43,1.78-18.31-4.75a29.72,29.72,0,0,1-1.95-3.48C289.42,595.06,289.56,591.72,292.33,588.43Z" style="fill:#201a1c"/><path d="M266.34,608.38c-4.17,0-7.92-1-10.43-4.67-.75-1.1-1.53-2.36-.35-3.51s2.92-2.28,4.34-.73c2.11,2.29,4.12,4.51,7.52,4,1.61-.26,3.26-1,3.56-2.93.27-1.68-1.12-2.27-2.31-2.74-2.77-1.1-5.64-1.91-8.37-3.1-3.46-1.52-4.91-4.39-4.43-8.09s3-5.7,6.58-6.51c5.65-1.25,11.26.4,13.36,4.19.67,1.2,1,2.64-.42,3.49a4.12,4.12,0,0,1-2.78.36c-2.53-.58-3.33-4.25-6.64-3.71-1.72.27-3.41.4-3.79,2.43a2.81,2.81,0,0,0,2,3.06c1.83.77,3.8,1.19,5.66,1.9,6.52,2.48,8.65,5.29,7.52,9.79C276.26,605.8,272.19,608.33,266.34,608.38Z" style="fill:#262225"/><path d="M240,579.7c3.07.12,6.41.35,8.82,3.18,1.08,1.28,2.22,2.74,1,4.39a2.83,2.83,0,0,1-3.94.67,3.81,3.81,0,0,1-.43-.37c-2-1.86-3.78-3.84-6.81-3a4.27,4.27,0,0,0-2.26,1.61,2.27,2.27,0,0,0,.76,3.1,3.11,3.11,0,0,0,.41.2c2.72,1.2,5.62,2,8.43,3,3.51,1.24,5.6,3.76,5.54,7.46-.08,4.19-2.84,6.55-6.6,7.83-5.28,1.79-11.56.35-14.64-3.49-.94-1.19-2.4-2.68-.54-4.29,1.32-1.13,3.07-1.92,4.38-.33,2.28,2.77,4.66,4.81,8.48,3.37a3.12,3.12,0,0,0,2.39-2.82c.08-1.33-.89-1.78-1.74-2.11-2.15-.85-4.43-1.38-6.58-2.24-5.44-2.17-7.59-5.28-6.81-9.58S234,579.82,240,579.7Z" style="fill:#262225"/><path d="M224.33,593.94c0,4,.07,7.94,0,11.91a2.26,2.26,0,0,1-2.17,2.36h-.34c-1.48,0-2.87-.63-2.9-2.06q-.24-11.91-.11-23.83c0-1.41,1.28-2.25,2.72-2.34,2.09-.13,2.92,1.12,2.92,3V593.9Z" style="fill:#010101"/><path d="M282.71,606.69q-.21-11.4-.43-22.79c-.06-2.83.85-4.51,4.08-3.53,4,7.3,2.71,15,1.69,22.7C287.68,605.85,286.2,608,282.71,606.69Z" style="fill:#010101"/><path d="M292.33,588.43l-.18,10c-3.56,2.33.27,7.82-4.18,9.77-.65-9.27-1.38-18.55.39-27.8C291.64,582.13,289.13,586.69,292.33,588.43Z" style="fill:#f0f4f3"/><path d="M288.36,580.42l-.39,27.8c-1.8-.37-4.35,1.84-5.26-1.54,3.34-.62,3.73-3,3.7-5.83-.08-6.83,0-13.66,0-20.48Z" style="fill:#333b51"/><path d="M192.54,598.33a6.52,6.52,0,0,1-.26-1.91,8,8,0,0,1,.8-2.58c1.58.23,1.09,1.72,1.32,2.74a6.2,6.2,0,0,1-.12,1.92Z" style="fill:#e8e3d2"/><path d="M313.14,593.78c0,5.9-3.1,10-7.51,9.86s-7.37-4.26-7.23-10.15c.13-5.53,2.76-8.92,7.07-9.13C310.29,584.12,313.12,587.6,313.14,593.78Z" style="fill:#f7f6f8"/><path d="M8.44,737.15a27,27,0,0,1-3.58-.37,21,21,0,0,1-6.2-2.64,30.36,30.36,0,0,1-7.81-7.77,22.37,22.37,0,0,1-2.7-6.2,23,23,0,0,1-.48-3.68q-.36-348.24-.16-696.44A49,49,0,0,1-9.75,4.45,27.47,27.47,0,0,1,4.4-9.67c3.16-1.6,6.55-.85,9.82-.85q252.17-.06,504.32,0c3.27,0,6.66-.75,9.82.85A27.55,27.55,0,0,1,542.53,4.45c2.58,6.27,3.14,12.8,3.14,19.54q-.07,340.7,0,681.38c0,13.71-1.23,26.3-16.95,31.3a42,42,0,0,1-8,.55" style="fill:#e52525"/><path d="M.06,361.58V17.69a76.23,76.23,0,0,1,.1-8C.78,3.91,4,.79,9.8.16a62.91,62.91,0,0,1,7-.08H515.65c2.33,0,4.68-.17,7,0,6.35.61,9.48,3.81,10,10.22.2,2.32,0,4.67,0,7V707.08c0,2,.11,4,0,6-.4,8.23-3.43,11.2-11.73,11.6-1.65.08-3.33,0-5,0H17.13c-2.34,0-4.69.17-7,0C3.79,724,.65,720.82.13,714.4c-.2-2.31,0-4.66,0-7Z" style="fill:#fff"/><path d="M293.38,293.84c2.32-4.4,1.47-7.78,1.49-11q.12-36,0-72c0-4,0-8,1.22-11.87,2.89-9.24,11-15,20.37-14.29a20,20,0,0,1,18.38,16.87,62.85,62.85,0,0,1,.37,9q0,36.48.07,73c0,3.08-1.12,6.52,1.62,9.73,2.85-1.68,2.18-4.13,2.19-6.18.08-12-.23-24,.16-36,.37-11.27,5.87-18.37,15.2-20.94a19.28,19.28,0,0,1,24,13c.15.51.28,1,.39,1.55a49.25,49.25,0,0,1,.71,9.93c.06,19.65-.16,39.31.09,59,.18,14.74-1.12,29.18-5,43.49-4,14.77-7,29.78-10.65,44.65-3.29,13.56-11.72,20.39-25.67,20.45-32,.13-64,0-95.93.07-9,0-16.13-3.45-21.4-10.7-20.57-28.27-41.2-56.51-61.63-84.87-6.12-8.49-6.43-16.93-1.43-24.18s12.34-9.63,21-8.34c5.31.79,9.13,3.71,12.2,7.9,4.51,6.18,9.05,12.33,13.84,18.86,2.6-2.28,1.6-5.07,1.61-7.41q.09-52.47,0-104.94c0-8.5,2.06-15.82,9.85-20.48a20.07,20.07,0,0,1,30.21,14.67,71.11,71.11,0,0,1,.27,9q0,36,.07,71.95c0,3.06-1.21,6.52,2,9.93,2.74-2.85,1.74-5.92,1.75-8.54.08-31,0-62,.07-92.95a59,59,0,0,1,.42-9.95c1.72-10.21,10.6-17.67,20.17-17.29,10.88.44,18.55,7.79,19.57,19,.27,3,.15,6,.15,9q0,45.48.06,91C291.17,286.76,290,290.22,293.38,293.84Z" style="fill:#e52325"/><path d="M188.08,578.33H177.64v-42H190l11.52,28.5,11.52-28.5h12.36v42H215V554.27l-9.18,24.06h-8.52l-9.18-24.06Z" style="fill:#e52325"/><path d="M237.79,546.06a6.26,6.26,0,0,1-4.44-1.59,5.37,5.37,0,0,1,0-7.8,7,7,0,0,1,8.85,0,5.3,5.3,0,0,1,0,7.8A6.24,6.24,0,0,1,237.79,546.06Zm-4.92,2.22h9.92v30H233Z" style="fill:#e52325"/><path d="M257.79,568.33a4,4,0,0,0,.72,1.47,3.14,3.14,0,0,0,1.26.87,5,5,0,0,0,1.8.3,4.64,4.64,0,0,0,2.43-.54,1.58,1.58,0,0,0,.87-1.38,1.43,1.43,0,0,0-.69-1.29,5.9,5.9,0,0,0-1.77-.75q-1.08-.3-2.28-.54-1.5-.3-3.36-.78a16.38,16.38,0,0,1-3.57-1.41,8.21,8.21,0,0,1-2.82-2.55,7.22,7.22,0,0,1-1.11-4.14,8.86,8.86,0,0,1,1.44-5,9.83,9.83,0,0,1,4.23-3.48,16.22,16.22,0,0,1,6.87-1.29,13.6,13.6,0,0,1,7.92,2,10.45,10.45,0,0,1,4.08,5.64l-8.52,1.92a1.84,1.84,0,0,0-.69-1.11,3.08,3.08,0,0,0-1.23-.57,5.8,5.8,0,0,0-1.44-.18,3.3,3.3,0,0,0-2,.51,1.48,1.48,0,0,0-.66,1.17,1.16,1.16,0,0,0,.36.87,2.57,2.57,0,0,0,1,.51q.75.2,1.5.33c.58.1,1.2.23,1.83.39,1.2.28,2.44.61,3.69,1a14.27,14.27,0,0,1,3.54,1.59,7.84,7.84,0,0,1,2.67,2.7,8.7,8.7,0,0,1,1.08,4.38,8.4,8.4,0,0,1-1.5,4.89,10.22,10.22,0,0,1-4.4,3.48,18.09,18.09,0,0,1-7.23,1.29,16.42,16.42,0,0,1-8.73-2.13,9.2,9.2,0,0,1-4.29-6.33Z" style="fill:#e52325"/><path d="M287.44,568.33a4,4,0,0,0,.72,1.47,3.14,3.14,0,0,0,1.26.87,5,5,0,0,0,1.8.3,4.64,4.64,0,0,0,2.43-.54,1.58,1.58,0,0,0,.87-1.38,1.43,1.43,0,0,0-.69-1.29,5.9,5.9,0,0,0-1.77-.75q-1.08-.3-2.28-.54-1.5-.3-3.36-.78a16.38,16.38,0,0,1-3.57-1.41,8.21,8.21,0,0,1-2.82-2.55,7.22,7.22,0,0,1-1.11-4.14,8.86,8.86,0,0,1,1.44-5,9.83,9.83,0,0,1,4.23-3.48,16.22,16.22,0,0,1,6.87-1.29,13.6,13.6,0,0,1,7.92,2,10.45,10.45,0,0,1,4.08,5.64l-8.52,1.92a1.84,1.84,0,0,0-.69-1.11,3.08,3.08,0,0,0-1.23-.57,5.8,5.8,0,0,0-1.44-.18,3.3,3.3,0,0,0-2,.51,1.48,1.48,0,0,0-.66,1.17,1.16,1.16,0,0,0,.36.87,2.57,2.57,0,0,0,1,.51q.75.2,1.5.33t1.83.39c1.21.28,2.43.61,3.69,1a14.27,14.27,0,0,1,3.54,1.59,7.84,7.84,0,0,1,2.67,2.7,8.7,8.7,0,0,1,1.08,4.38,8.4,8.4,0,0,1-1.5,4.89,10.19,10.19,0,0,1-4.41,3.48,18,18,0,0,1-7.23,1.29,16.47,16.47,0,0,1-8.73-2.13,9.26,9.26,0,0,1-4.29-6.33Z" style="fill:#e52325"/><path d="M315.4,546.06a6.26,6.26,0,0,1-4.44-1.59,5.39,5.39,0,0,1,0-7.8,7,7,0,0,1,8.86,0,5.3,5.3,0,0,1,0,7.8A6.28,6.28,0,0,1,315.4,546.06Zm-4.92,2.22h9.85v30h-9.85Z" style="fill:#e52325"/><path d="M341.68,578.7a16.55,16.55,0,0,1-7.92-1.86,13.82,13.82,0,0,1-5.49-5.34,16.3,16.3,0,0,1-2-8.22,15.89,15.89,0,0,1,2-8.19,14,14,0,0,1,5.55-5.34,16.41,16.41,0,0,1,8-1.89,16.58,16.58,0,0,1,8,1.89,13.92,13.92,0,0,1,5.58,5.34,17.41,17.41,0,0,1,0,16.41,14,14,0,0,1-5.63,5.34A17.19,17.19,0,0,1,341.68,578.7Zm0-8.94a4.63,4.63,0,0,0,2.49-.72,5.13,5.13,0,0,0,1.89-2.16,9.36,9.36,0,0,0,0-7.2,5.13,5.13,0,0,0-1.86-2.16,4.34,4.34,0,0,0-2.4-.72,4.51,4.51,0,0,0-2.49.72,4.92,4.92,0,0,0-1.77,2.16,8.85,8.85,0,0,0-.66,3.6,9.24,9.24,0,0,0,.63,3.6,4.85,4.85,0,0,0,1.74,2.16,4.48,4.48,0,0,0,2.43.72Z" style="fill:#e52325"/><path d="M362.14,548.33H371l.71,3.42a11.85,11.85,0,0,1,3.46-2.76,9.08,9.08,0,0,1,4.41-1.08,10.64,10.64,0,0,1,5.93,1.53,9.38,9.38,0,0,1,3.63,4.41,17.43,17.43,0,0,1,1.24,7v17.48h-9.84V562a6.22,6.22,0,0,0-1.08-3.93,4.49,4.49,0,0,0-6.35-.08l-.07.08a6.3,6.3,0,0,0-1.08,4v16.25h-9.84Z" style="fill:#e52325"/></svg>