<svg id="Ebene_1" data-name="Ebene 1" xmlns="http://www.w3.org/2000/svg" viewBox="0 0 560.16 752.3"><path d="M165.54,606.85v11.39c0,1.84-.61,3.25-2.73,3.26-1.46,0-2.85-.87-2.88-2.18-.15-7.94-.35-15.91,0-23.83.16-3.09,4.53-3.49,6.79-.41,3.06,4.19,5.63,8.73,10.31,12.86V595.75a2.24,2.24,0,0,1,2.32-2.56c1.48,0,2.87.68,2.9,2,.18,8,.34,15.91.06,23.84-.09,2.61-4.16,3.57-6.29,1.54-1.39-1.33-2.12-3.33-3.35-4.88C170.59,613,169.85,609.15,165.54,606.85Z" style="fill:#262023"/><path d="M263.06,620.83c-10.95,3.52-9.35-11-17.47-10.5-1.89,2.43-1,5.19-1.15,7.76-.13,1.93-.9,3.17-2.84,3.33a2.63,2.63,0,0,1-3.13-2.88q-.09-10.95,0-21.89c0-2.34,1.18-3.64,3.67-3.58,4,.08,8-.33,11.92.25,6.33,1,10,7.36,6,11.51-4.63,4.8-2.65,7.49.31,11.17A35.61,35.61,0,0,1,263.06,620.83Z" style="fill:#1b191e"/><path d="M395.06,608.06v10.77c0,2.15-1.49,2.75-3.33,2.67a2.39,2.39,0,0,1-2.46-2.32V619c-.07-7.66,0-15.31,0-23,0-1.41.5-2.59,2.11-2.8s3.39-.09,4.44,1.5c2.89,4.4,5.72,8.84,9.13,14.13,2.13-5,.67-9.3,1.47-13.33a2.53,2.53,0,0,1,2.7-2.28,2.29,2.29,0,0,1,2.48,2.08,2.41,2.41,0,0,1,0,.38c.11,7.66.35,15.32,0,23-.14,3.37-4.18,4.27-6.55,1.3-3.07-3.83-5.51-8.15-8.21-12.26Z" style="fill:#211a1b"/><path d="M357.06,602.92c1.48-2.19,2.62-4.74,4.5-6.49,5.51-5.14,14.78-4.39,19.68,1.28s4.3,16.06-1.24,20.86-15,4.14-19.75-1.45c-1.45-1.73-2.23-4-3.32-6.07C354.9,608.32,355.06,605.61,357.06,602.92Z" style="fill:#252023"/><path d="M301.21,603c7.07-2.69,8.51-12.64,17.29-9.31a9.69,9.69,0,0,1-.61,1.89c-2,3.35-7.26,5.15-6.73,9.19.47,3.62,3.71,6.84,5.6,10.31.93,1.7,2.64,3.07,2.31,5.77-3.28,1.5-6,1.13-7.93-2.52a41.08,41.08,0,0,0-2.94-5.16c-.88-1.21-1.1-3.52-3.25-3.15s-3.11,2.19-3.61,4.2c-.08.32,0,.66-.1,1-.48,2.54,1.43,6.9-3.72,6.14-3.86-.57-2.2-4.22-2.29-6.55-.22-5.62-.12-11.25,0-16.88,0-2.21-.44-4.92,3.22-4.76,2.88.13,2.78,2.23,2.81,4.22C301.23,599,301.21,600.66,301.21,603Z" style="fill:#201b1c"/><path d="M267.17,621.56c-1.93-.14-2.82-1.21-2.1-3.23,2.64-7.49,5.39-14.93,8-22.43.81-2.35,2.49-2.81,4.61-2.83,2.41,0,4.59,0,5.57,2.93,2.23,6.57,4.62,13.1,6.92,19.65.63,1.78,2.27,4,.24,5.36s-4.31.74-5.54-1.94c-2.53-5.52-7.33-3-11.34-3-1.4,0-2.12,1.43-2.49,2.77C270.51,620.77,269.06,621.4,267.17,621.56Z" style="fill:#1c171a"/><path d="M212.25,605.19c.38-14.58-3.22-11.81,15.11-12.11a15.78,15.78,0,0,1,4,.25,2.06,2.06,0,0,1-.17,4.06c-3,.22-6,.25-9,.34-2.3.06-3.89,1-3.72,3.52.12,1.87,1.41,2.53,3.22,3.06,3.36,1,9.55-2.61,9.56,2.79,0,3.64-6.21,1.22-9.58,1.75-2.49.4-3.34,1.45-3.38,3.83,0,2.65.42,4.51,3.69,4.4a81.88,81.88,0,0,1,9,.19,2.83,2.83,0,0,1,2.05,1.61,1.95,1.95,0,0,1-2,2.59c-5.31.12-10.62.11-15.93,0-2.06,0-2.77-1.49-2.79-3.35C212.23,614.51,212.25,610.86,212.25,605.19Z" style="fill:#17181d"/><path d="M208.93,594.5c.12,2.33-1,3.08-2.37,3-5.55-.48-5.52,3.08-5.43,7,.11,4.63,0,9.26,0,13.89,0,1.9-.79,3.21-2.84,3.15s-2.92-1.23-2.93-3.18c0-4.63-.13-9.26,0-13.88.1-3.91.1-7.45-5.44-7a2.08,2.08,0,0,1-2.43-1.66,2,2,0,0,1,0-.65c.1-1.81,1.54-1.94,2.81-2,5.29-.07,10.58,0,15.87,0C207.43,593.2,208.7,593.48,208.93,594.5Z" style="fill:#040302"/><path d="M334.32,593.11a12.54,12.54,0,0,1,3,0c2.56.65,6.83-1.88,7.33,2.31.35,3-3.54,1.69-5.54,2.33-2.48.78-2.25,2.93-2.27,4.85v14.89c0,2.27-.79,3.92-3.33,3.82-2.22-.09-2.35-1.88-2.37-3.54,0-4-.06-8,0-11.92,0-4.31.93-9.14-6-8.48a1.87,1.87,0,0,1-2-1.73h0c-.19-1.54.85-2.41,2.34-2.44,3-.08,5.95,0,8.93,0Z" style="fill:#030201"/><path d="M148.68,606.71V595.84a2.4,2.4,0,0,1,2.11-2.66h.14c1.89-.18,3.48.58,3.52,2.46q.26,11.85.05,23.72c0,1.31-1.48,2.23-2.87,2.25a2.73,2.73,0,0,1-3-3V606.73Z" style="fill:#2b2c3e"/><path d="M349.11,620.92c-2.21-.51-1.88-2.3-1.89-3.85,0-6.55.15-13.11-.09-19.65-.17-4.52,2.44-4.61,5.66-4.26,3,9.23,2.16,18.52.39,27.81l-2,.07c-1.86-8.12-.74-16.26-.75-23.11C348.78,604.64,351.77,613,349.11,620.92Z" style="fill:#1b222f"/><path d="M353.18,621q-.19-13.9-.4-27.81c4.08,2.47,1.71,6.54,2.46,9.83a8.35,8.35,0,0,1,0,8C354.61,614.35,356.58,618.23,353.18,621Z" style="fill:#d3daf0"/><path d="M349.11,620.92V597.28c2.78,7.85,1.75,15.84,2,23.76Z" style="fill:#060507"/><path d="M355.23,611v-8a12.26,12.26,0,0,0,1.82-.09Q357,607,356.92,611C356.36,611,355.79,611,355.23,611Z" style="fill:#fff1df"/><path d="M247.16,605.26c-1.21.09-3-.55-2.83-3.85.2-2.95,1.68-4.07,4.51-3.87,3,.22,6.6.21,6.14,4.5C254.6,605.65,251.22,605,247.16,605.26Z" style="fill:#ece8e6"/><path d="M378.15,607.67c-.1,6-3.18,9.69-7.85,9.37-4.42-.3-7.33-4.55-7-10.29.27-5.26,3.29-8.9,7.43-9C375.22,597.75,378.25,601.77,378.15,607.67Z" style="fill:#f5f5f7"/><path d="M282,610.24a10.36,10.36,0,0,1-7.66.32c.4-3.59.91-7.12,4.08-10.57C279.68,603.61,280.78,606.78,282,610.24Z" style="fill:#e4e2e1"/><path d="M535.15,2.92c10.7.72,17.27,7,21.68,16.16,3.3,5.19,3.24,11,3.26,16.85q.13,225.39,0,450.76c0,79.29.18,158.58-.17,237.86-1.75,17.44-9.54,25.3-27,27.22-155.84,1-311.67.24-467.5.43-12.65,0-25.31-.05-38-.41C10,750,2.17,742.25.24,724.79Q-.24,387.89.24,51c0-5,0-10-.1-15,0-5.85,0-11.71,3.27-16.93,4.41-9.16,11-15.44,21.68-16.16C33.37-.22,42.09.13,50.67.12q229.4-.24,458.79,0C518.06.13,526.86-.22,535.15,2.92Z" style="fill:#e49bc4"/><path d="M407.49,307.12c3.14,67.71-58.31,125-124.54,124.77-65.38-.22-124.19-56.83-124.37-124.73C158.39,239.52,218,181.8,284,182.27,351.06,182.76,410.47,240.43,407.49,307.12Z" style="fill:#e49ac3"/><path d="M375.36,307.29c2.5,48.53-42.78,92.91-92.54,92.32C234.74,399,191,357.72,191,307c-.08-49.18,42.82-92.57,93.23-92.35C333.28,214.82,377.8,258,375.36,307.29Z" style="fill:#fff"/><path d="M347.33,308c2.27,31.6-28.86,63.79-64.32,63.59-30.1-.17-64.55-25.76-63.93-65.33.55-35.43,28.78-62.91,64.66-63.46C318.67,242.26,349.88,274.08,347.33,308Z" style="fill:#e49bc3"/><path d="M315.29,307.29c1.59,15.77-16.22,32.58-31.54,31.95-17.74-.74-32.6-14.87-32.48-32.35.12-17.16,14.78-31.46,31.89-31.9C301.21,274.54,317,292.14,315.29,307.29Z" style="fill:#fff"/><path d="M131.17,567.18h10.44v42H131.17Z" style="fill:#fff"/><path d="M147.91,579.18h8.88l.72,3.42a12,12,0,0,1,3.45-2.76,9.28,9.28,0,0,1,4.41-1.08,10.78,10.78,0,0,1,5.94,1.54,9.37,9.37,0,0,1,3.63,4.4,17.66,17.66,0,0,1,1.23,7v17.52h-9.84V592.9a6.24,6.24,0,0,0-1.08-3.93,3.84,3.84,0,0,0-3.18-1.35,3.89,3.89,0,0,0-3.24,1.35,6.3,6.3,0,0,0-1.08,4v16.26h-9.84Z" style="fill:#fff"/><path d="M184.39,579.18v-8.4h10v8.4h5.7v8.74h-5.7v9.36a2.89,2.89,0,0,0,.9,2.4,3.56,3.56,0,0,0,2.22.75,10.67,10.67,0,0,0,2.64-.27v8.64a24.18,24.18,0,0,1-6.24.36,11.19,11.19,0,0,1-5-1.53,8.52,8.52,0,0,1-3.33-3.84,15.32,15.32,0,0,1-1.2-6.51v-9.36h-4.26v-8.76Z" style="fill:#fff"/><path d="M218.71,609.6a16.15,16.15,0,0,1-8.13-2,13.32,13.32,0,0,1-5.34-5.49,17.26,17.26,0,0,1-1.89-8.28,16,16,0,0,1,1.89-7.86,13.75,13.75,0,0,1,5.25-5.34,15.41,15.41,0,0,1,7.74-1.92,16.52,16.52,0,0,1,7.92,1.83,13,13,0,0,1,5.22,5.19,16,16,0,0,1,1.86,7.86q0,.66-.06,1.44a14.92,14.92,0,0,1-.18,1.74H213.85a5.89,5.89,0,0,0,1.05,2.37,4.69,4.69,0,0,0,1.86,1.5,6.22,6.22,0,0,0,5.25-.14,5.06,5.06,0,0,0,1.92-1.92l8.88,2.21a13.62,13.62,0,0,1-5.43,6.51A16.11,16.11,0,0,1,218.71,609.6Zm3.78-18.54a4.7,4.7,0,0,0-.63-2.22,4.31,4.31,0,0,0-1.47-1.5,3.5,3.5,0,0,0-2-.48,4.45,4.45,0,0,0-2.07.61,4.64,4.64,0,0,0-1.56,1.46,4.51,4.51,0,0,0-.75,2.13Z" style="fill:#fff"/><path d="M238,579.18h8.94l.66,4.08a10.54,10.54,0,0,1,2.7-2.67,9.43,9.43,0,0,1,3.57-1.44,12.77,12.77,0,0,1,4.53,0v9.37a8.74,8.74,0,0,0-6.87.83,7,7,0,0,0-2.67,2.88,10.65,10.65,0,0,0-1,5v11.94H238Z" style="fill:#fff"/><path d="M279.43,609.18l-.66-3.71a17,17,0,0,1-3.33,3,8.21,8.21,0,0,1-4.59,1.13,11.49,11.49,0,0,1-4.83-1,8.36,8.36,0,0,1-3.51-2.91,8.63,8.63,0,0,1,1.32-10.8c1.76-1.6,4.54-2.61,8.34-3.06l6.6-.71v-1.75a2.55,2.55,0,0,0-.84-1.71,3.44,3.44,0,0,0-2.58-.87,4.42,4.42,0,0,0-2.7.84,4.24,4.24,0,0,0-1.56,2.34l-8.34-3a11.2,11.2,0,0,1,4.68-6.15,15.31,15.31,0,0,1,8.28-2.07q6.3,0,9.6,3.12a11.28,11.28,0,0,1,3.3,8.59v18.71Zm-.66-12.54-4.68.54a3.5,3.5,0,0,0-2.1.9,2.35,2.35,0,0,0-.72,1.74,2,2,0,0,0,.87,1.68,3.88,3.88,0,0,0,2.43.66,4.1,4.1,0,0,0,2.19-.57,3.91,3.91,0,0,0,1.47-1.65,6,6,0,0,0,.54-2.7Z" style="fill:#fff"/><path d="M294.25,566h10V589.8h1.26l8.28-10.62h12.78l-12.4,14.74,12.48,15.3H313.87L305.41,598h-1.2v11.21h-10Z" style="fill:#fff"/><path d="M332.77,579.18v-8.4h10v8.4h5.7v8.74h-5.7v9.36a2.89,2.89,0,0,0,.9,2.4,3.56,3.56,0,0,0,2.22.75,10.67,10.67,0,0,0,2.64-.27v8.64a24.18,24.18,0,0,1-6.24.36,11.19,11.19,0,0,1-5-1.53,8.52,8.52,0,0,1-3.33-3.84,15.32,15.32,0,0,1-1.2-6.51v-9.36H328.5v-8.76Z" style="fill:#fff"/><path d="M359.06,577a6.26,6.26,0,0,1-4.44-1.59,5.38,5.38,0,0,1-.2-7.61l.2-.2a7,7,0,0,1,8.85,0,5.31,5.31,0,0,1,.31,7.5l-.31.31A6.27,6.27,0,0,1,359.06,577Zm-4.92,2.21H364v30h-9.84Z" style="fill:#fff"/><path d="M385.33,609.6a16.53,16.53,0,0,1-7.92-1.86,13.63,13.63,0,0,1-5.49-5.34,17.83,17.83,0,0,1,0-16.41,14.11,14.11,0,0,1,5.55-5.34,16.41,16.41,0,0,1,7.95-1.89,16.63,16.63,0,0,1,8,1.89A14.19,14.19,0,0,1,399,586a17.41,17.41,0,0,1,0,16.41,13.94,13.94,0,0,1-5.64,5.34A17,17,0,0,1,385.33,609.6Zm0-8.94a4.68,4.68,0,0,0,2.49-.72,5.08,5.08,0,0,0,1.89-2.16,9.36,9.36,0,0,0,0-7.2,5.26,5.26,0,0,0-1.86-2.16,4.36,4.36,0,0,0-2.4-.72,4.49,4.49,0,0,0-2.49.72,5,5,0,0,0-1.77,2.16,8.72,8.72,0,0,0-.66,3.6,9.06,9.06,0,0,0,.63,3.6,4.73,4.73,0,0,0,1.74,2.16A4.46,4.46,0,0,0,385.33,600.66Z" style="fill:#fff"/><path d="M405.79,579.18h8.88l.72,3.42a12,12,0,0,1,3.45-2.76,9.28,9.28,0,0,1,4.41-1.08,10.78,10.78,0,0,1,5.94,1.54,9.37,9.37,0,0,1,3.63,4.4,17.66,17.66,0,0,1,1.23,7v17.52h-9.84V592.9a6.24,6.24,0,0,0-1.08-3.93,3.84,3.84,0,0,0-3.18-1.35,3.89,3.89,0,0,0-3.24,1.35,6.3,6.3,0,0,0-1.08,4v16.26h-9.84Z" style="fill:#fff"/></svg>