<svg id="Ebene_1" data-name="Ebene 1" xmlns="http://www.w3.org/2000/svg" viewBox="0 0 558.1 749.29"><path d="M19.15,745.91c-2.26,0-4.69.49-6.06-2.11C15.31,743.91,17.57,743.91,19.15,745.91Z" style="fill:#f4f4f5"/><path d="M5.1,736c-1.67-.85-2-2.37-2-4.06A4.88,4.88,0,0,1,5.1,736Z" style="fill:#f4f4f5"/><path d="M13.21,743.91,11,742.09Z" style="fill:#f4f4f5"/><path d="M158.94,604.49V592.57a2.22,2.22,0,0,1,2-2.4,2,2,0,0,1,.42,0c1.49,0,2.76.82,2.78,2.22.13,8,.35,15.91-.07,23.84-.16,3-4.48,3.41-6.93.51-1.69-2-2.84-4.45-4.29-6.67a16.85,16.85,0,0,0-5.53-5.67v10c0,2.05-.09,4.24-2.9,4.07-2.54-.15-3-2.13-3-4.29V594.29c0-1.65.08-3.5,2.07-4a4.36,4.36,0,0,1,5.17,1.87c2.76,4.37,5.55,8.71,8.33,13.06Z" style="fill:#262023"/><path d="M238,606.91c2.41,3.35,5,6.38,6.39,10.13-5.76,1.49-5.78,1.5-8.46-2-2-2.59-3-6-6.26-7.5a5.63,5.63,0,0,0-2-.15c-2.45,2.43-.88,5.6-1.37,8.39a2.93,2.93,0,0,1-3.12,2.71l-.31,0a2.47,2.47,0,0,1-2.46-2.49.25.25,0,0,1,0-.08q-.08-11.45,0-22.88a2.47,2.47,0,0,1,2.27-2.74c5.26-.07,10.67-1.15,15.75.81a7.54,7.54,0,0,1,4.37,9.71,8.81,8.81,0,0,1-.48,1C241.34,603.71,239.48,605.21,238,606.91Z" style="fill:#1b191e"/><path d="M377,605.26v9c0,2.07-.06,4.11-2.84,4.25s-3.13-1.78-3.12-3.92c0-6.66-.06-13.32,0-20,0-1.49-.6-3.52,1.59-4.18,2-.63,4-.41,5.26,1.59,1.78,2.8,3.47,5.66,5.28,8.45a9.74,9.74,0,0,0,4.93,4.17V593.07a2.64,2.64,0,0,1,2.24-2.84c2-.27,3.09,1,3.12,2.88.1,7,.12,14,.11,21,0,1.59.28,3.47-1.8,4.16s-4,.36-5.25-1.56c-2.69-4-5.31-8.09-8-12.13Z" style="fill:#211a1b"/><path d="M353.22,618.67c-8.27.12-13.72-5.09-14.07-13.46-.36-8.69,5.33-15.05,13.55-15.15s14.29,6.19,14.17,14.65S361.37,618.55,353.22,618.67Z" style="fill:#211c1f"/><path d="M299.57,592.2c-7.32,9.19-7.23,9.13-1.09,19.74,1.07,1.84,4.75,4.22,1.15,6.4-2.29,1.38-5.13,0-6.53-2.84a31,31,0,0,0-2.43-4.32c-1.08-1.51-1.37-4.31-3.66-4.11-2.52.21-3.7,2.42-3.87,5a21.45,21.45,0,0,0,0,3c.07,2.46-1.06,3.73-3.54,3.48-2.11-.2-2.49-1.78-2.49-3.54V594.13c0-2,.2-4,3.08-3.93s3,2,3,4.11v5.3c5.17-.59,6.17-6,10-7.66C295.29,590.73,297.48,590.44,299.57,592.2Z" style="fill:#201a1b"/><path d="M273.31,616a2.14,2.14,0,0,1-1.47,2.38c-1.62.45-3.9.42-4.43-1.17-1.53-4.57-4.9-4.58-8.73-4.62-3.55,0-5.27,1.56-6.61,4.65-.62,1.43-2.77,1.79-4.4.89s-1-2.29-.56-3.48c2.55-7.17,5-14.38,7.83-21.44,1.52-3.77,8-4.77,9.49-1.41C267.82,599.71,270.4,607.91,273.31,616Z" style="fill:#1c171a"/><path d="M194.07,604.38c.42-16.82-3-14,15-14.31a16.27,16.27,0,0,1,4,.22,2,2,0,0,1,1.81,2,1.89,1.89,0,0,1-1.63,2.05c-3.3.29-6.63.22-9.94.48a2.88,2.88,0,0,0-2.95,2.81,3.4,3.4,0,0,0,0,.45,3,3,0,0,0,2.85,3.14h.24a6.73,6.73,0,0,1,1,.07c3.11.8,9-2,8.76,2.61-.17,3.91-6.11,1.59-9.44,1.93s-3.56,2.1-3.56,4.67,1,3.63,3.49,3.56a13.09,13.09,0,0,1,4,.08c2.47.72,7.11-2.15,7,2.53,0,3.33-4.27,1.89-6.63,2C194.08,619.1,194.07,619,194.07,604.38Z" style="fill:#17181d"/><path d="M316.74,590.11a46.33,46.33,0,0,1,5,0c1.78.2,4.5-.85,4.85,1.88.38,3-2.42,2.52-4.19,2.55-3.29.05-3.66,2.14-3.68,4.64l-.06,15.88c0,1.94-1,3.19-2.87,3.32-2.08.14-2.77-1.32-2.78-3.18,0-4.64-.17-9.27,0-13.9.16-4.11-.28-7.32-5.62-6.88a2,2,0,0,1-2.38-1.53,2,2,0,0,1,0-.8c.15-1.77,1.54-1.91,2.84-1.94,3-.06,6,0,8.93,0Z" style="fill:#030201"/><path d="M180.36,590.1a12.54,12.54,0,0,1,3,0c2.55.67,6.82-1.94,7.34,2.3.39,3.17-3.53,1.66-5.47,2.36-2.46.88-2.12,3-2.14,4.92v13.89c0,2.22.52,5-3.14,4.79-2.72-.19-2.68-2.38-2.69-4.38V602.07c0-4,.85-8.47-5.7-7.72-1.34.15-2.41-.78-2.14-2.53.2-1.3,1.23-1.55,2.1-1.59,3-.12,6,0,8.92,0Z" style="fill:#040302"/><path d="M416.26,605.59v8c-.06,2.29.11,5-3.12,5.18s-3.62-2.24-3.63-4.71V595.18c0-2.29-.16-5,3.14-5.14,4.17-.18,3.46,3.18,3.58,5.65C416.38,599,416.26,602.28,416.26,605.59Z" style="fill:#56514f"/><path d="M130.56,603.71c0-3.63-.06-7.25,0-10.87a2.41,2.41,0,0,1,2.11-2.68h.14c1.89-.17,3.48.59,3.52,2.46q.27,11.85,0,23.72c0,1.32-1.48,2.23-2.86,2.27a2.74,2.74,0,0,1-3-2.45,2.53,2.53,0,0,1,0-.55V603.73Z" style="fill:#2b2c3e"/><path d="M335,604.91c0,3.66.06,7.32,0,11a2.34,2.34,0,0,1-2.15,2.52h-.24c-1.91.09-3.3-.72-3.32-2.71q-.1-11.47,0-23c0-2,1.54-2.67,3.44-2.52,1.69.14,2.19,1.31,2.21,2.69.06,4,0,8,0,12Z" style="fill:#060507"/><path d="M421.12,604V593c0-2,1.1-3,3.15-2.81a2.4,2.4,0,0,1,2.5,2.31.76.76,0,0,1,0,.15q.14,11.48.08,23c0,2-1.29,2.9-3.23,2.79-2.16-.13-2.57-1.67-2.58-3.43V604Z" style="fill:#010101"/><path d="M299.57,592.2l-6.51-.31c1.59-3.11,4.35-1.92,6.7-1.59C300.65,590.42,300.65,591.64,299.57,592.2Z" style="fill:#413b40"/><path d="M231.65,602.13c-3.19.08-5.48.17-5.45-3.37s2.09-4.49,5.16-4.22c2.71.24,5.73.46,5.53,4.15S233.48,602,231.65,602.13Z" style="fill:#ece8e6"/><path d="M360.54,604.47c0,5.88-3.2,9.76-7.82,9.59s-7.54-4.4-7.32-10.12c.2-5.15,3.32-9,7.36-9.19C357.14,594.59,360.58,598.91,360.54,604.47Z" style="fill:#f3f2f2"/><path d="M263.6,607.39c-3.17,1.07-5.3,1.1-7.63-.21.58-2.13,1.06-4.32,1.79-6.44a18.81,18.81,0,0,1,1.83-3.28c2.32,1.13,1.76,3.37,2.61,4.91C262.94,603.73,263.09,605.42,263.6,607.39Z" style="fill:#e4e2e1"/><path d="M3.15,14C9.31,3.36,18.56,0,30.71,0Q279,.36,527.38,0c12.14,0,21.41,3.34,27.55,14,2.36,5.26,3,10.78,3,16.51q.35,344.92,0,689.84a60.16,60.16,0,0,1-.43,9c-4.08,13-13.29,19-26.63,19.41-125.47,1-250.94.24-376.4.46-40.6.06-81.2.25-121.78-.38-3.32-.1-6.68-.1-10-.53a17.33,17.33,0,0,1-2.87-.66c-1.72-.59-3.43-1.27-5.17-1.88a12.44,12.44,0,0,1-2.35-1.14A16.85,16.85,0,0,1,10.24,743l-1-.9C7.65,740.56,6,739,4.57,737.27a15.86,15.86,0,0,1-1.66-2.49A21.32,21.32,0,0,1,1,730.27a16.9,16.9,0,0,1-.58-3.6C-.29,639.43.13,552.2.12,465c0-143.83-.23-287.65.1-431.47C.21,26.82.25,20.21,3.15,14Z" style="fill:#63bae9"/><path d="M343,320h26c5.82,0,10.27,2.09,12.71,7.78,2.54,5.92,0,10.3-4,14.31-2.81,2.83-5.72,5.58-8.61,8.34-6.37,6.08-6.4,6.1.11,12.63l36,36c12.79,12.84,12.79,12.84-.31,25.84L402.82,427C394.75,434.92,393,435,385,427c-13.47-13.37-26.82-26.86-40.28-40.23-5.92-5.88-6-5.83-11.64-.2-3.06,3.06-6.17,6.09-9,9.35-3.78,4.33-8.44,5.09-13.6,3.65s-7.65-5-8-10.22c-.24-3.31-.84-6.6-.87-9.9q-.15-19.49,0-39a44.25,44.25,0,0,1,.79-8.9c1.74-8.19,5.42-11.35,13.74-11.54C325.05,319.85,334.05,320,343,320Z" style="fill:#fff"/><path d="M230.35,320c8.32,0,16.67.49,24.94-.15a14.07,14.07,0,0,1,15.21,12.8c0,.3,0,.59.05.89q.4,26.94-.09,53.89c-.1,5.53-2.49,10.42-8.59,12.14-5.66,1.59-10.44.32-14.31-4.31-2.14-2.55-4.64-4.77-6.85-7.26-6.76-7.58-6.76-7.63-14.22-.19q-18.37,18.31-36.71,36.7c-1.65,1.64-3.2,3.4-5,4.89-4.72,3.94-8.5,3.89-13.25-.28-2.74-2.42-5.24-5.12-7.79-7.74-8.13-8.33-8.22-10.75-.2-18.87,12.4-12.54,24.92-25,37.39-37.43,1.88-1.88,3.69-3.84,5.65-5.64,2.59-2.38,2.23-4.49-.24-6.67-4-3.51-8.05-7-11.84-10.68s-6.35-7.53-4.06-13.27c2.41-6,6.48-8.92,12.94-8.84C212.38,320.08,221.37,320,230.35,320Z" style="fill:#fff"/><path d="M342.08,288.07c-8.65,0-17.3.15-26,0-8.37-.18-12-3.27-13.79-11.45a32.74,32.74,0,0,1-.79-6.9c-.07-14.63-.11-29.27,0-43.91a32.79,32.79,0,0,1,1.44-8.9c2.54-8.79,11.43-11.91,18.86-6.47,4.56,3.34,8.11,7.82,11.8,12.12,4,4.72,5,4.79,9.53.28,13.74-13.54,27.31-27.27,41-40.88,8.63-8.59,11-8.56,19.63-.06,1.9,1.87,3.81,3.72,5.64,5.65,7.22,7.62,7.28,10,0,17.34-12.88,13-25.86,25.89-38.8,38.84-1.64,1.64-3.22,3.37-4.94,4.93-2.62,2.39-2.15,4.5.3,6.65,4,3.52,8,7,11.85,10.68,4,3.91,6.51,8.36,4,14.27-2.43,5.68-6.86,7.79-12.69,7.78Z" style="fill:#fff"/><path d="M233.48,227.36c4.47-3,7.1-6.45,9.91-9.73a43,43,0,0,1,7-7.08c7.67-5.61,18.14-2.31,19.26,7,2.38,19.82,1.66,39.84.33,59.72-.49,7.43-5.44,10.67-13.3,10.75-18,.19-35.94.09-53.91,0-5.37,0-9.53-1.94-11.88-7.33-2.53-5.81-.91-10.39,3.3-14.4,3.6-3.44,7.33-6.77,11.18-9.92,3.67-3,3.92-5.55.23-8.85-4.46-4-8.53-8.42-12.76-12.66-10.12-10.12-20.3-20.17-30.33-30.38-6.8-6.91-6.73-9.38.09-16.61,3-3.15,6-6.3,9.21-9.14,4.71-4.1,8.5-4.09,13.2.17,4.43,4,8.53,8.41,12.76,12.65Z" style="fill:#fff"/><path d="M113.24,564.17h10.44v42H113.24Z" style="fill:#fff"/><path d="M129.94,576.17h8.88l.72,3.42a11.71,11.71,0,0,1,3.45-2.76,9.14,9.14,0,0,1,4.41-1.08,10.9,10.9,0,0,1,5.94,1.53,9.5,9.5,0,0,1,3.63,4.41,17.84,17.84,0,0,1,1.23,7v17.52h-9.84V589.89a6.24,6.24,0,0,0-1.08-3.93,4.45,4.45,0,0,0-6.34-.05,6.18,6.18,0,0,0-1.08,4v16.26h-9.92Z" style="fill:#fff"/><path d="M166.46,576.17v-8.4h10v8.4h5.7v8.74h-5.7v9.36a2.89,2.89,0,0,0,.9,2.4,3.54,3.54,0,0,0,2.22.75,10.72,10.72,0,0,0,2.64-.27v8.64a24.21,24.21,0,0,1-6.24.36,11.28,11.28,0,0,1-5-1.53,8.63,8.63,0,0,1-3.33-3.84,15.32,15.32,0,0,1-1.2-6.51v-9.36h-4.26v-8.76Z" style="fill:#fff"/><path d="M200.78,606.59a16.12,16.12,0,0,1-8.13-2,13.38,13.38,0,0,1-5.34-5.49,17.26,17.26,0,0,1-1.89-8.28,15.85,15.85,0,0,1,1.89-7.86,13.61,13.61,0,0,1,5.25-5.34,15.36,15.36,0,0,1,7.74-1.92,16.3,16.3,0,0,1,7.92,1.83,13,13,0,0,1,5.22,5.19,16,16,0,0,1,1.86,7.86,12.22,12.22,0,0,1-.06,1.44c-.06.52-.1,1.1-.18,1.74H195.94a5.92,5.92,0,0,0,1,2.37,4.78,4.78,0,0,0,1.86,1.5,5.91,5.91,0,0,0,2.49.51,5.65,5.65,0,0,0,2.76-.66,5,5,0,0,0,1.92-1.92l8.88,2.22a13.73,13.73,0,0,1-5.43,6.51A16.21,16.21,0,0,1,200.78,606.59Zm3.78-18.54a4.82,4.82,0,0,0-.63-2.22,4.31,4.31,0,0,0-1.47-1.5,3.52,3.52,0,0,0-2-.48,4.56,4.56,0,0,0-2.07.6,4.67,4.67,0,0,0-1.56,1.47,4.44,4.44,0,0,0-.75,2.13Z" style="fill:#fff"/><path d="M220,576.17h8.9l.66,4.08a10.09,10.09,0,0,1,2.7-2.67,9.43,9.43,0,0,1,3.57-1.44,12.77,12.77,0,0,1,4.53,0v9.36a8.65,8.65,0,0,0-3.39-.3,8.42,8.42,0,0,0-3.48,1.14,6.87,6.87,0,0,0-2.67,2.88,10.41,10.41,0,0,0-1,5v11.94H220Z" style="fill:#fff"/><path d="M261.49,606.17l-.66-3.72a17.57,17.57,0,0,1-3.33,3,8.22,8.22,0,0,1-4.59,1.14,11.46,11.46,0,0,1-4.83-1,8.23,8.23,0,0,1-3.51-2.91,8.52,8.52,0,0,1,1.37-10.77q2.64-2.4,8.34-3.06l6.6-.72v-1.74a2.55,2.55,0,0,0-.84-1.71,3.45,3.45,0,0,0-2.58-.87,4.42,4.42,0,0,0-2.7.84A4.13,4.13,0,0,0,253.2,587l-8.34-3a11.2,11.2,0,0,1,4.68-6.15,15.29,15.29,0,0,1,8.28-2.07q6.3,0,9.6,3.12a11.26,11.26,0,0,1,3.3,8.58v18.72Zm-.66-12.54-4.68.54a3.5,3.5,0,0,0-2.1.9,2.39,2.39,0,0,0-.72,1.74,2,2,0,0,0,.87,1.68,3.94,3.94,0,0,0,2.43.66,4.12,4.12,0,0,0,2.19-.57,4,4,0,0,0,1.47-1.65,6.13,6.13,0,0,0,.54-2.7Z" style="fill:#fff"/><path d="M276.31,563h10v23.82h1.26l8.28-10.62h12.78l-12.36,14.7,12.48,15.3H295.94L287.48,595h-1.2v11.22h-10Z" style="fill:#fff"/><path d="M314.83,576.17v-8.4h10v8.4h5.7v8.74h-5.7v9.36a2.89,2.89,0,0,0,.9,2.4,3.54,3.54,0,0,0,2.22.75,10.72,10.72,0,0,0,2.64-.27v8.64a24.21,24.21,0,0,1-6.24.36,11.28,11.28,0,0,1-5-1.53,8.63,8.63,0,0,1-3.33-3.84,15.32,15.32,0,0,1-1.2-6.51v-9.36h-4.26v-8.76Z" style="fill:#fff"/><path d="M341.11,573.91a6.14,6.14,0,0,1-4.44-1.59,5.13,5.13,0,0,1-1.68-3.87,5.19,5.19,0,0,1,1.68-3.93,7,7,0,0,1,8.85,0,5.19,5.19,0,0,1,1.71,3.93,5.13,5.13,0,0,1-1.71,3.87A6.18,6.18,0,0,1,341.11,573.91Zm-4.92,2.22H346v30h-9.84Z" style="fill:#fff"/><path d="M367.39,606.59a16.5,16.5,0,0,1-7.92-1.86,13.63,13.63,0,0,1-5.49-5.34,16,16,0,0,1-2-8.22,15.74,15.74,0,0,1,2-8.19,14.11,14.11,0,0,1,5.55-5.34,17.88,17.88,0,0,1,16,0,14,14,0,0,1,5.58,5.34,17.41,17.41,0,0,1,0,16.41,14,14,0,0,1-5.64,5.34A17.18,17.18,0,0,1,367.39,606.59Zm0-8.94a4.68,4.68,0,0,0,2.49-.72,5.27,5.27,0,0,0,1.89-2.16,9.36,9.36,0,0,0,0-7.2,5.27,5.27,0,0,0-1.86-2.16,4.38,4.38,0,0,0-2.4-.72,4.47,4.47,0,0,0-2.49.72,4.86,4.86,0,0,0-1.77,2.16,8.56,8.56,0,0,0-.66,3.6,8.86,8.86,0,0,0,.63,3.6,4.69,4.69,0,0,0,1.72,2.14A4.33,4.33,0,0,0,367.39,597.65Z" style="fill:#fff"/><path d="M387.85,576.17h8.88l.72,3.42a11.71,11.71,0,0,1,3.45-2.76,9.14,9.14,0,0,1,4.41-1.08,10.9,10.9,0,0,1,5.94,1.53,9.5,9.5,0,0,1,3.63,4.41,17.84,17.84,0,0,1,1.23,7v17.52h-9.84V589.89a6.24,6.24,0,0,0-1.08-3.93,4.49,4.49,0,0,0-6.42,0,6.18,6.18,0,0,0-1.08,4v16.26h-9.84Z" style="fill:#fff"/><path d="M438.85,564.17h10.44v42H438.85Z" style="fill:#fff"/><path d="M455.94,564.17h10.44v42H455.94Z" style="fill:#fff"/></svg>