<svg id="Ebene_1" data-name="Ebene 1" xmlns="http://www.w3.org/2000/svg" viewBox="0 0 560.07 749.43"><path d="M287.55,618c-10.75,2.8-9.57-9.93-17.15-10.86-2.84,2.37-.94,6-1.53,9a2.66,2.66,0,0,1-2.61,2.41c-2,.22-3.25-.67-3.26-2.66-.05-7.66,0-15.32.07-23a2.32,2.32,0,0,1,2-2.56h.37c4.66,0,9.41-.43,13.94.34,5.54.94,8.8,7.48,5.06,11.38-4.76,5-1.73,7.77.59,11.45C285.76,614.53,286.32,615.71,287.55,618Z" style="fill:#1a171a"/><path d="M297,604.88c0,3.81.08,7.63,0,11.44,0,1.53-1.26,2.19-2.71,2.23s-2.89-.64-2.92-2c-.14-8-.35-16,.07-24,.17-3.44,3.43-2.81,5.34-1.64,1.57,1,2.46,3,3.64,4.64,2.26,3.06,3.41,7,8,10.55v-13a2.53,2.53,0,0,1,2.25-2.78c2.1-.23,3,1.16,3.06,3,.11,7,.11,14,.11,21,0,1.64.09,3.46-2,4a4.28,4.28,0,0,1-5.2-1.75l-8-12.09Z" style="fill:#1b1314"/><path d="M170.15,606.54c-3.89,2.28-3.81,5.66-3.83,9a2.83,2.83,0,0,1-2.61,3,2.72,2.72,0,0,1-.57,0c-2,0-2.76-1.47-2.77-3.37,0-7-.05-13.95,0-20.93,0-2,.28-4.13,3.13-4,2.07.13,2.64,1.64,2.83,3.41.2,1.94-.34,4,1,5.83,6-1.7,7.44-12,16.43-8.73-1.49,4.55-6.16,6.66-8.41,10.75,3.12,5.14,6.21,10.21,9.33,15.34-6.07,1.88-6.07,1.87-8.59-1.72C174.2,612.47,173.43,609.06,170.15,606.54Z" style="fill:#1c191f"/><path d="M354.8,604.15c0-14.87,0-14.87,15.19-14a27.38,27.38,0,0,1,3,.14c1.47.24,2.43,1.22,2.1,2.7a2.2,2.2,0,0,1-2.19,1.64c-3,0-6,.11-9,.22a2.86,2.86,0,0,0-3.06,2.64,3.23,3.23,0,0,0,0,.44c-.06,1.92.8,3.19,2.78,3.33,3,.22,6,.23,8.94.5a2,2,0,0,1,.11,3.92,57.07,57.07,0,0,1-7.95.29c-3-.12-4,1.14-4,4.1s1,4.22,4,4.1,6,.05,9,.14a2,2,0,0,1,2,1.82c.29,1.68-.84,2.31-2.27,2.48-1,.13-2,.11-3,.16C354.8,619.52,354.8,619.52,354.8,604.15Z" style="fill:#18161b"/><path d="M236.85,601.76c.36-13.82-3-11.35,14-11.64a35.64,35.64,0,0,1,4,.13c1.47.15,2.48,1,2.28,2.54a2,2,0,0,1-2,1.75c-2.66.09-5.32.17-8,.2-2.12,0-4.06.29-4.23,3-.23,3.38,2.07,3.66,4.58,3.62a8.34,8.34,0,0,1,1,0c2.72.46,7.69-1.17,7.59,2.06-.14,4.71-5.23,2.08-8.14,2.47-2.69.37-5.18-.14-5.22,4,0,3.8,1.74,4.44,4.86,4.3,2.65-.13,5.32.08,8,.08a2.08,2.08,0,0,1,2.11,1.69,2,2,0,0,1-1.29,2.52,2.13,2.13,0,0,1-.71.09c-5.32.11-10.64.12-16,.07-2,0-2.78-1.42-2.78-3.28C236.84,611.33,236.85,607.34,236.85,601.76Z" style="fill:#18161b"/><path d="M317.15,618c-.72-3.68,1.21-6.27,3.39-8.9,3.37-4.07,6.49-8.33,10-12.82-2.94-2.45-6-1-8.72-1.52-1.36-.26-2.62-.59-2.59-2.28s1.21-2.18,2.64-2.19H338.8c2,1.78,1.55,3.69.3,5.65l-.12.18a16.24,16.24,0,0,0-1.57,1.94l-.26.4a2.16,2.16,0,0,0-1.35,1.62,1.63,1.63,0,0,0-1.08,1.51,3,3,0,0,1-1.76,2.29l-.08.1a9.8,9.8,0,0,1-1.69,2l-.16.21a8.1,8.1,0,0,0-1.58,1.92l-.28.44a1.79,1.79,0,0,0-1.31,1.53,1.54,1.54,0,0,0-1.06,1.51,1.65,1.65,0,0,0,.36,2.25l11.86.35c2,3.7-.23,4.94-3.3,4.79C329.5,618.61,323.21,620.25,317.15,618Z" style="fill:#1b171b"/><path d="M212.78,604.61c0-3-.13-6,.05-9,.12-2.07-1-5.25,2.63-5.32,4.16-.08,3.22,3.42,3.29,5.88a122.55,122.55,0,0,1,0,13c-.3,4.12,1.47,5,5.21,5.08,2.89.09,8.22-2.22,8.21,2.22,0,4.17-5.36,2.19-8.28,2.21-13.1.07-10.84,1.34-11.08-11.06C212.76,606.61,212.78,605.61,212.78,604.61Z" style="fill:#271d1b"/><path d="M381,604.18v-10.9c0-1.82.74-3.18,2.87-3.12a2.83,2.83,0,0,1,3,2.62,2.46,2.46,0,0,1,0,.47c.08,4.62,0,9.25.12,13.87.1,6.63.13,6.51,7,7,2.33.18,6.33-1.48,6.5,2.13.19,4-3.93,2.34-6.18,2.44C380.88,619.31,380.88,619.23,381,604.18Z" style="fill:#201f27"/><path d="M343.38,604.24c0-3.94-.1-7.88.05-11.81.06-1.44,1.26-2.15,2.73-2.2s2.72.62,2.75,2.08c.14,7.87.15,15.75.13,23.63,0,2.11-1.44,2.78-3.29,2.55-1.35-.17-2.49-.77-2.49-2.43V604.24Z" style="fill:#060507"/><path d="M194.41,604.22c0,4,.18,7.94-.08,11.89-.12,1.76-1.66,2.7-3.57,2.46a2.5,2.5,0,0,1-2.42-2.58h0q-.09-11.4,0-22.8a2.76,2.76,0,0,1,2.44-3.05,3.11,3.11,0,0,1,.61,0,2.92,2.92,0,0,1,3,2.83c0,.12,0,.23,0,.35.09,3.63,0,7.26,0,10.9Z" style="fill:#2d3241"/><path d="M317.15,618c6.23,1.24,12.52.43,18.78.57,3.08.07,4.17-1.42,3.05-4.37,3.43,2.09,2.54,5.34-.28,5.51C331.53,620.09,324,622.6,317.15,618Z" style="fill:#e8e5e4"/><path d="M205.51,607.46a4.77,4.77,0,0,1,2.12.25,1.86,1.86,0,0,1,1.41,2.15,2,2,0,0,1-1.78,1.87,46.15,46.15,0,0,1-5.76.1,2.05,2.05,0,0,1-2.31-2.36c.12-1.56,1.42-1.87,2.7-2C202.52,607.4,203.17,607.46,205.51,607.46Z" style="fill:#0e0b0d"/><path d="M339.06,595.88l-.3-5.65C342.05,592,341.78,593.84,339.06,595.88Z" style="fill:#e8e5e4"/><path d="M327.12,613.77c-.56-.12-1.47-.08-1.61-.39-.49-1.08.43-1.49,1.25-1.86Z" style="fill:#e8e5e4"/><path d="M333,603.82a2.18,2.18,0,0,1,1.76-2.29A2.22,2.22,0,0,1,333,603.82Z" style="fill:#e8e5e4"/><path d="M335.76,600a1.42,1.42,0,0,1,1.2-1.61h.16a1.4,1.4,0,0,1-1.18,1.6Z" style="fill:#e8e5e4"/><path d="M337.37,598c-.12-1.17.49-1.74,1.57-1.94a1.72,1.72,0,0,1-1.5,1.93Z" style="fill:#e8e5e4"/><path d="M331.15,605.91a1.74,1.74,0,0,1,1.46-2l.23,0A1.9,1.9,0,0,1,331.15,605.91Z" style="fill:#e8e5e4"/><path d="M329.41,608a1.61,1.61,0,0,1,1.29-1.89,1.43,1.43,0,0,1,.29,0,1.72,1.72,0,0,1-1.5,1.91Z" style="fill:#e8e5e4"/><path d="M327.82,610a1.37,1.37,0,0,1,1.21-1.53h.1a1.32,1.32,0,0,1-1.08,1.52Z" style="fill:#e8e5e4"/><path d="M274.25,602.12c-3.85.31-5.59-.29-5.49-3.6.12-3.88,2.48-4.13,5.37-3.94s5.53.88,5.17,4.49C278.9,603,275.48,601.81,274.25,602.12Z" style="fill:#e7e6e5"/><path d="M3.33,16.12C8.33,4.12,17.33,0,30.18,0Q280.08.35,530,0c12.82,0,21.89,4.1,26.85,16.13C560,21.36,560,27.18,560,33q.15,218.37,0,436.75c0,84,.18,167.91-.16,251.85-1.49,17.45-7.92,24.45-24.92,27.16-95.6,1.14-191.19.42-286.77.46-74.28,0-148.55.66-222.81-.44C8.27,746.16,1.88,739.3.23,721.84Q-.23,385,.23,48.07c0-5,0-10-.1-15C.13,27.23.17,21.38,3.33,16.12Z" style="fill:#010102"/><path d="M238.43,256.07c-18.25,0-32.1-13.75-32.22-32s13.65-32.32,31.78-32.54a32.13,32.13,0,0,1,32.88,31.38c0,.41,0,.82,0,1.23C270.7,242.2,256.62,256.07,238.43,256.07Z" style="fill:#010102"/><path d="M157.88,256.07a32.27,32.27,0,0,1,0-64.54h0c18.56-.11,32.83,14.28,32.54,32.83C190.16,242.56,176.22,256.14,157.88,256.07Z" style="fill:#020102"/><path d="M157.7,336.52a32.35,32.35,0,0,1,.51-64.7l.85,0c18,1,31.74,14.76,31.38,33a31.9,31.9,0,0,1-32.11,31.69Z" style="fill:#020102"/><path d="M350.9,256.07c-18.5,0-31.46-13.45-32.2-32-.63-16,12.75-32.57,31.7-32.62,18.57,0,32.8,14,32.71,32.62C383,242.35,369.2,256.06,350.9,256.07Z" style="fill:#010101"/><path d="M447.17,384.54a15.89,15.89,0,0,1-15.59,16.11A16.1,16.1,0,0,1,415.06,385v-.65a16.48,16.48,0,0,1,15.72-16.21A16.14,16.14,0,0,1,447.17,384Z" style="fill:#080608"/><path d="M367.09,384.33a16.24,16.24,0,0,1-16.15,16.33h-.17a15.86,15.86,0,0,1-15.9-15.61,16.27,16.27,0,0,1,15.61-16.91h.07A16.55,16.55,0,0,1,367.09,384.33Z" style="fill:#080608"/><path d="M447.17,223.72A15.8,15.8,0,0,1,431.89,240c-.27,0-.53,0-.8,0a16.21,16.21,0,1,1-.31-32.42h0A15.88,15.88,0,0,1,447.16,223C447.17,223.25,447.17,223.48,447.17,223.72Z" style="fill:#070506"/><path d="M367.08,304.48a16.15,16.15,0,0,1-16.47,15.82l-.53,0a16.15,16.15,0,1,1,17-16.18Z" style="fill:#060507"/><path d="M431.09,320.29a16.14,16.14,0,1,1,.19-32.28h0c9.27.06,16.16,7.31,15.89,16.73a15.68,15.68,0,0,1-15.81,15.55Z" style="fill:#070506"/><path d="M158,368.13c8.66-.06,16.48,7.74,16.45,16.42a16.43,16.43,0,0,1-16.62,16.1,16.62,16.62,0,0,1-16-15.79C141.56,376.23,149.32,368.2,158,368.13Z" style="fill:#060608"/><path d="M238.74,320.28A16.14,16.14,0,1,1,237.61,288h.61a16.55,16.55,0,0,1,16.62,16.39C254.74,312.81,247.3,320.14,238.74,320.28Z" style="fill:#060608"/><path d="M254.84,384.06c.28,8.7-7.35,16.5-16.22,16.59a16.19,16.19,0,0,1-16.28-15.32,16.47,16.47,0,0,1,15.49-17.19C246.45,367.82,254.56,375.41,254.84,384.06Z" style="fill:#070608"/><path d="M246.87,238.71c-18.25,0-32.1-13.75-32.23-32s13.65-32.32,31.78-32.54a32.13,32.13,0,0,1,32.88,31.38c0,.41,0,.82,0,1.23C279.14,224.84,265.05,238.71,246.87,238.71Z" style="fill:#fff;stroke:#013333;stroke-miterlimit:10"/><path d="M166.32,238.71a32.27,32.27,0,1,1,0-64.54h0c18.56-.11,32.83,14.28,32.55,32.83C198.59,225.2,184.65,238.78,166.32,238.71Z" style="fill:#fff;stroke:#013333;stroke-miterlimit:10"/><path d="M166.13,319.16a32.35,32.35,0,0,1,.51-64.7l.85,0c18,1,31.75,14.76,31.38,33a31.89,31.89,0,0,1-32.09,31.69Z" style="fill:#fff;stroke:#013333;stroke-miterlimit:10"/><path d="M359.33,238.71c-18.49,0-31.46-13.45-32.19-32-.64-16,12.74-32.57,31.7-32.62,18.57-.05,32.79,14,32.71,32.62C391.46,225,377.64,238.7,359.33,238.71Z" style="fill:#fff;stroke:#013333;stroke-miterlimit:10"/><path d="M455.61,367.18A15.9,15.9,0,0,1,440,383.29a16.1,16.1,0,0,1-16.53-15.66V367a16.48,16.48,0,0,1,15.72-16.21,16.15,16.15,0,0,1,16.4,15.9Z" style="fill:#fff;stroke:#013333;stroke-miterlimit:10"/><path d="M375.53,367a16.24,16.24,0,0,1-16.16,16.32h-.17a15.86,15.86,0,0,1-15.89-15.6,16.27,16.27,0,0,1,15.61-16.91H359A16.55,16.55,0,0,1,375.53,367Z" style="fill:#fff;stroke:#013333;stroke-miterlimit:10"/><path d="M455.6,206.36a15.8,15.8,0,0,1-15.26,16.32c-.27,0-.55,0-.82,0a16.21,16.21,0,0,1-.3-32.42h0a15.87,15.87,0,0,1,16.37,15.37C455.6,205.88,455.6,206.12,455.6,206.36Z" style="fill:#fff;stroke:#013333;stroke-miterlimit:10"/><path d="M375.52,287.12A16.16,16.16,0,0,1,359,302.94l-.51,0a16.15,16.15,0,1,1,17-16.16Z" style="fill:#fff;stroke:#013333;stroke-miterlimit:10"/><path d="M439.53,303a16.14,16.14,0,1,1,.18-32.28c9.27.06,16.16,7.31,15.9,16.73A15.68,15.68,0,0,1,439.8,303Z" style="fill:#fff;stroke:#013333;stroke-miterlimit:10"/><path d="M166.41,350.77c8.66-.06,16.47,7.74,16.44,16.42a16.42,16.42,0,0,1-16.61,16.1,16.63,16.63,0,0,1-16-15.79C150,358.87,157.75,350.84,166.41,350.77Z" style="fill:#fff;stroke:#013333;stroke-miterlimit:10"/><path d="M247.18,303a16.14,16.14,0,1,1-1.13-32.26h.6a16.54,16.54,0,0,1,16.62,16.39C263.17,295.45,255.74,302.78,247.18,303Z" style="fill:#fff;stroke:#013333;stroke-miterlimit:10"/><path d="M263.27,366.7c.29,8.7-7.34,16.5-16.21,16.59A16.2,16.2,0,0,1,230.77,368a16.47,16.47,0,0,1,15.5-17.19C254.88,350.46,263,358.05,263.27,366.7Z" style="fill:#fff;stroke:#013333;stroke-miterlimit:10"/><path d="M130.64,550.05h10.44v16.32H144l12.9-16.32h12.36l-16.2,20.58,16.86,21.42h-13L144,575.13h-3v16.92H130.6Z" style="fill:#fff"/><path d="M173.72,550.05h10.44v42H173.72Z" style="fill:#fff"/><path d="M190,570.81h26.58v8.76H190Z" style="fill:#fff"/><path d="M232.76,550.05v33.24h18.29v8.76H222.31v-42Z" style="fill:#fff"/><path d="M269.29,592.47a16.23,16.23,0,0,1-8.13-2,13.44,13.44,0,0,1-5.34-5.49,17.26,17.26,0,0,1-1.89-8.28,16.07,16.07,0,0,1,1.89-7.86,13.61,13.61,0,0,1,5.25-5.34,15.41,15.41,0,0,1,7.74-1.92,16.27,16.27,0,0,1,7.92,1.83,12.91,12.91,0,0,1,5.22,5.19,16,16,0,0,1,1.86,7.86q0,.66-.06,1.44t-.18,1.74H264.43a5.89,5.89,0,0,0,1.05,2.37,4.78,4.78,0,0,0,1.86,1.5,5.91,5.91,0,0,0,2.49.51,5.65,5.65,0,0,0,2.76-.66,4.92,4.92,0,0,0,1.92-1.92l8.88,2.22a13.67,13.67,0,0,1-5.43,6.51A16.2,16.2,0,0,1,269.29,592.47Zm3.78-18.54a4.7,4.7,0,0,0-.63-2.22,4.23,4.23,0,0,0-1.47-1.5,3.5,3.5,0,0,0-2-.48,4.56,4.56,0,0,0-2.07.6,4.67,4.67,0,0,0-1.56,1.47,4.55,4.55,0,0,0-.75,2.13Z" style="fill:#fff"/><path d="M288.55,562.05h8.94l.66,4.08a10.39,10.39,0,0,1,2.7-2.67,9.43,9.43,0,0,1,3.57-1.44,12.77,12.77,0,0,1,4.53,0v9.36a8.79,8.79,0,0,0-6.87.84,7.06,7.06,0,0,0-2.67,2.88,10.53,10.53,0,0,0-1,5V592h-9.84Z" style="fill:#fff"/><path d="M312.91,562.05h8.88l.72,3.42a12,12,0,0,1,3.45-2.76,9.28,9.28,0,0,1,4.41-1.08,10.86,10.86,0,0,1,5.94,1.53,9.5,9.5,0,0,1,3.63,4.41,17.66,17.66,0,0,1,1.23,7v17.52h-9.84V575.77a6.24,6.24,0,0,0-1.08-3.93,3.84,3.84,0,0,0-3.18-1.35,3.89,3.89,0,0,0-3.24,1.35,6.3,6.3,0,0,0-1.08,4V592.1h-9.84Z" style="fill:#fff"/><path d="M371.29,570l-12.9,13.32h13.14v8.76H345.79v-7.86l12.66-13.38h-12.6v-8.76h25.44Z" style="fill:#fff"/><path d="M382.57,559.83a6.15,6.15,0,0,1-4.44-1.59,5.13,5.13,0,0,1-1.68-3.87,5.19,5.19,0,0,1,1.68-3.93,7,7,0,0,1,8.85,0,5.15,5.15,0,0,1,1.71,3.93,5.09,5.09,0,0,1-1.71,3.87A6.18,6.18,0,0,1,382.57,559.83Zm-4.92,2.22h9.84v30h-9.84Z" style="fill:#fff"/><path d="M408.79,592.47a16.23,16.23,0,0,1-8.13-2,13.44,13.44,0,0,1-5.34-5.49,17.26,17.26,0,0,1-1.89-8.28,16.07,16.07,0,0,1,1.89-7.86,13.61,13.61,0,0,1,5.25-5.34,15.41,15.41,0,0,1,7.74-1.92,16.27,16.27,0,0,1,7.92,1.83,12.91,12.91,0,0,1,5.22,5.19,16,16,0,0,1,1.86,7.86q0,.66-.06,1.44t-.18,1.74H404a5.89,5.89,0,0,0,1,2.37,4.78,4.78,0,0,0,1.86,1.5,5.91,5.91,0,0,0,2.49.51,5.65,5.65,0,0,0,2.76-.66,4.92,4.92,0,0,0,1.92-1.92l8.88,2.22a13.67,13.67,0,0,1-5.43,6.51A16.14,16.14,0,0,1,408.79,592.47Zm3.78-18.54a4.7,4.7,0,0,0-.63-2.22,4.23,4.23,0,0,0-1.47-1.5,3.5,3.5,0,0,0-2-.48,4.56,4.56,0,0,0-2.07.6,4.67,4.67,0,0,0-1.56,1.47,4.55,4.55,0,0,0-.75,2.13Z" style="fill:#fff"/><path d="M428.05,548.85h9.84v43.2h-9.84Z" style="fill:#fff"/></svg>