<svg id="Ebene_1" data-name="Ebene 1" xmlns="http://www.w3.org/2000/svg" viewBox="0 0 532.66 725.49"><path d="M359.1,593.56v12a2.44,2.44,0,0,1-2.23,2.65h-.07a2.69,2.69,0,0,1-3.35-2.69c-.13-7.63-.08-15.26,0-22.89a2.51,2.51,0,0,1,2.31-2.7h0c1.7-.19,3.33,0,4.36,1.64,2.83,4.4,5.64,8.83,9.69,15.18.25-6,.38-10.06.61-14.08.08-1.36.55-2.56,2.26-2.7,1.94-.17,3.34.58,3.37,2.57.12,7.63.25,15.26,0,22.89-.07,2.75-3.62,4.05-5.94,2.22-1.49-1.17-2.45-3-3.62-4.6C364.46,600.28,363.49,596.63,359.1,593.56Z" style="fill:#272121"/><path d="M181.45,607.09c-4.28,2.29-6.64,1.06-8.53-1.79-1.28-1.93-2.49-3.92-3.87-5.79-1.19-1.61-2.68-3.19-4.92-2.32-2,.76-1.31,2.77-1.42,4.34-.09,1.33,0,2.66-.09,4a2.53,2.53,0,0,1-2.28,2.7c-2,.24-3.48-.69-3.51-2.56-.13-7.64,0-15.28,0-22.92a2.46,2.46,0,0,1,2.21-2.69h.13c5.28-.2,10.68-1.19,15.77.7s7.21,7.61,3.46,11.22c-4.49,4.32-2.5,6.94.16,10.38A52.13,52.13,0,0,1,181.45,607.09Z" style="fill:#221b1c"/><path d="M348.85,594.32c0,8.62-5,13.9-13.24,14.08-8.69.18-14.06-5.33-14-14.34.09-8.53,5.26-14.1,13.22-14.26C343.31,579.63,348.89,585.42,348.85,594.32Z" style="fill:#1e1a1d"/><path d="M259.25,592.92c.23-15.61-1.83-12.84,13.21-13.17a3.35,3.35,0,0,1,1,0c2.27.61,6.38-1.57,6.41,2.31s-4,1.93-6.34,2.37a24.29,24.29,0,0,1-4,.07c-2.24,0-4,.82-3.82,3.41s2.08,2.85,4.24,3.08c3.1.33,8.73-1.49,8.73,1.84,0,5.08-5.63,2.3-8.79,2.74-2.6.37-4.29.63-4.4,3.86-.14,3.72,1.68,4.19,4.8,4.42,3.35.25,9.56-1.7,9.47,1.81-.12,5.42-6.27,2.54-9.62,2.65-11.76.36-10.87,1.27-10.89-10.41Z" style="fill:#2d2827"/><path d="M185.29,593.42c.21-16.18-2.06-13.34,13.67-13.66a43.89,43.89,0,0,1,5,.16,2.18,2.18,0,1,1,.06,4.36,24.34,24.34,0,0,0-4,.23c-2.9.6-7.79-2-8.12,2.94-.35,5.39,4.72,2.89,7.55,3.48,1.29.27,2.66.13,3.94.4a2.08,2.08,0,0,1,0,4.09,62.84,62.84,0,0,1-8,.25c-3.08-.09-3.88,1.41-3.91,4.27,0,3.22,1.58,3.88,4.3,3.83a81.91,81.91,0,0,1,9,.25,2,2,0,0,1,1.6,2.16,1.94,1.94,0,0,1-1.75,2q-8,.29-16,.21c-2.45,0-3.36-1.72-3.36-4Q185.29,598.92,185.29,593.42Z" style="fill:#2d2827"/><path d="M284.43,580.72c6.91-3.15,7.88,3.21,10.92,6.06,3.91-1.53,4.09-9.23,10.63-6.42.12.55.55,1.38.33,1.62-7.95,8.76-6,17,2.13,24.8-8.47,4.66-8.57-4.36-12.87-6.31-3.83,2-4.1,10.51-11.37,7.08,0-.56-.12-.95,0-1.2,2.38-4.3,6.6-8.55,6.67-12.87S286.78,585,284.43,580.72Z" style="fill:#1d191c"/><path d="M221.9,579.74c1.66,0,3.31-.06,5,0s3.52.3,3.33,2.56-2.13,2.09-3.73,2.18c-2,.11-4-.06-5.95.19-2.51.32-2.91,2.27-2.84,4.4s1.55,2.59,3.33,2.61a13.35,13.35,0,0,1,2,0c2.06.31,5.4-1.11,5.5,2.29s-3.26,2.56-5.28,2.43c-4.42-.28-6,1.69-5.64,5.87a14.34,14.34,0,0,1-.08,3,3.08,3.08,0,0,1-3.15,3.08,2.84,2.84,0,0,1-3-3.13c-.1-7.29-.08-14.57,0-21.86,0-2.27,1.16-3.67,3.64-3.64C217.26,579.77,219.58,579.75,221.9,579.74Z" style="fill:#373232"/><path d="M235.31,594.16c0-4-.09-7.95.05-11.93a2.54,2.54,0,0,1,2.59-2.45c1.91-.15,3.41.62,3.49,2.58.21,5.3.27,10.61.21,15.91,0,3.36.31,5.66,4.74,5.54,3-.09,8.45-1.91,8.45,2,0,4.75-5.6,2.66-8.73,2.72-11.53.21-11.07,1.21-11-10.36v-4Z" style="fill:#423f40"/><path d="M317.78,594.12V604c0,2.21-.64,4.1-3,4.28s-3.29-1.6-3.28-3.88V583.62c0-2.11.63-4,3.35-3.79,2,.18,2.79,1.6,2.83,3.39.08,3.63,0,7.27,0,10.9Z" style="fill:#2d3241"/><path d="M167.28,591.92c-2.23-.1-4.77.38-4.85-3.26s1.75-4.64,5-4.51,6.61.49,6.23,4.56C173.3,592,170.13,592.21,167.28,591.92Z" style="fill:#dad7d7"/><path d="M342.51,594.12c0,6.18-2.78,9.78-7.44,9.65s-7.19-3.82-7-10c.12-5.53,2.76-9,7-9.19C339.64,584.33,342.51,588,342.51,594.12Z" style="fill:#f9f9f9"/><path d="M522.29-10.37C531.35-9.06,537.77-4,542.2,3.79c2.91,5.82,3.38,12.05,3.38,18.43V706.68c0,21-6.62,29.17-25.06,31.85q-254,1.19-508,0C-4.6,736.27-12.2,728-12.78,710.94c-.11-3.33-.06-6.67-.06-10V26.21c0-7.66-.29-15.34,3.37-22.45C-5-4,1.38-9.08,10.44-10.39c9-2.81,18.43-2.74,27.66-2.75q228.32-.22,456.63,0C503.86-13.15,513.26-13.22,522.29-10.37Z" style="fill:#818282"/><path d="M532.57,362.63v346c0,2,.15,4,0,6-.51,6.55-4.1,10.17-10.76,10.77-2.32.21-4.67,0-7,0H17.93a64.7,64.7,0,0,1-8-.11c-6-.74-9.36-4.46-9.86-10.6-.16-2,0-4,0-6V16.87c0-2-.15-4,0-6C.58,4.32,4.18.7,10.83.09c2.32-.2,4.67,0,7,0h496.9a64.7,64.7,0,0,1,8,.11c6,.75,9.37,4.46,9.86,10.61.16,2,0,4,0,6Z" style="fill:#fff"/><path d="M259.89,292.05v90c0,6.06-.39,12.06-2.78,17.63-5.39,12.56-14.69,20.56-28.47,22.21-14.77,1.77-27.36-2.93-35.17-15.89-3.54-5.86-7-8-13.81-8.2-18-.56-32-15.83-32.45-35.31-.14-5.38-1.55-8.13-6.1-11-22.55-14-24.43-48.75-3.74-64.14,4.11-3.05,4.67-5.79,3.39-10.81-4.9-19.33,1.49-34.84,18.35-45.33,3.71-2.31,4.4-4.42,4.28-8.68-.46-16.36,10.38-29.61,26.56-32.52,4.54-.81,6.68-2.64,8.78-6.54,7.87-14.59,22.11-21,36.78-17.22,14.27,3.69,24.19,16.71,24.29,32.83C260,230.07,259.88,261.06,259.89,292.05Z" style="fill:#818181"/><path d="M275.89,291.88c0-31,.12-61.94-.07-92.92-.06-10.7,3.33-19.59,11.64-26.38a31.43,31.43,0,0,1,44.29,3.73,30.71,30.71,0,0,1,3.71,5.46c2.86,5.19,5.91,7.47,11.74,8.63,14.36,2.86,25,16.22,24.77,31-.09,5.54,1.71,8.09,6.14,10.93,15,9.59,21.08,25.95,16.59,43.41-1.25,4.82-1.57,7.85,3.22,11.71,20.61,16.6,19.07,48.64-2.93,63.46-5,3.38-6.8,6.63-7,12.6a34.77,34.77,0,0,1-34.48,34.32c-5.53.12-8.08,2-10.71,6.6-9.15,15.95-25.21,20.47-41.26,16.52-15.08-3.71-25.51-17.79-25.63-34.16C275.73,355.16,275.9,323.52,275.89,291.88Z" style="fill:#818181"/><path d="M154.73,547.94a17.84,17.84,0,0,1,8.67,1.89,12.61,12.61,0,0,1,5.16,5,14.08,14.08,0,0,1,.78,11.76,13,13,0,0,1-2.82,4.44,13.52,13.52,0,0,1-4.83,3.15,18.77,18.77,0,0,1-7,1.17h-8.88v14.58H135.37v-42Zm5,13.69a4.74,4.74,0,0,0-1.38-3.6,5.86,5.86,0,0,0-4.2-1.32h-8.22v9.9h8.22a7.26,7.26,0,0,0,3.09-.57,4,4,0,0,0,1.86-1.71A5.4,5.4,0,0,0,159.73,561.63Zm.36,10.14,11,18.18H159.57l-10.44-18.18Z" style="fill:#818181"/><path d="M189.92,590.36a16.16,16.16,0,0,1-8.14-2,13.48,13.48,0,0,1-5.34-5.48,17.54,17.54,0,0,1-1.89-8.29,16,16,0,0,1,1.89-7.86,13.75,13.75,0,0,1,5.25-5.34,15.41,15.41,0,0,1,7.74-1.92,16.27,16.27,0,0,1,7.92,1.83,13,13,0,0,1,5.22,5.19,16,16,0,0,1,1.86,7.86v1.44a15.32,15.32,0,0,1-.19,1.74H185.1a6.07,6.07,0,0,0,1,2.37,4.69,4.69,0,0,0,1.86,1.5,5.83,5.83,0,0,0,2.5.51,5.59,5.59,0,0,0,2.75-.66,4.92,4.92,0,0,0,1.92-1.92L204,581.6a13.65,13.65,0,0,1-5.42,6.51A16.18,16.18,0,0,1,189.92,590.36Zm3.77-18.54a4.7,4.7,0,0,0-.63-2.22,4.23,4.23,0,0,0-1.47-1.5,3.58,3.58,0,0,0-2-.48,4.56,4.56,0,0,0-2.07.6,4.77,4.77,0,0,0-1.56,1.47,4.66,4.66,0,0,0-.75,2.13Z" style="fill:#818181"/><path d="M210.85,558.2a13.1,13.1,0,0,1,1.77-7.29,9.1,9.1,0,0,1,5-3.69,18.31,18.31,0,0,1,7.65-.48v8.82a4.19,4.19,0,0,0-3.39.57,3.67,3.67,0,0,0-1.17,3v.78h4.74v8.76h-4.72v21.24h-9.84V568.67h-3.36v-8.76h3.36Z" style="fill:#818181"/><path d="M229.21,546.74h9.84v43.2h-9.84Z" style="fill:#818181"/><path d="M259.15,590.36a16.23,16.23,0,0,1-8.13-2,13.42,13.42,0,0,1-5.34-5.48,17.54,17.54,0,0,1-1.89-8.29,16,16,0,0,1,1.89-7.86,13.61,13.61,0,0,1,5.25-5.34,15.41,15.41,0,0,1,7.74-1.92,16.27,16.27,0,0,1,7.92,1.83,13,13,0,0,1,5.22,5.19,16,16,0,0,1,1.86,7.86,12.13,12.13,0,0,1-.06,1.44c-.06.51-.1,1.11-.18,1.74H254.29a5.89,5.89,0,0,0,1.05,2.37,4.69,4.69,0,0,0,1.86,1.5,5.76,5.76,0,0,0,2.49.51,5.54,5.54,0,0,0,2.76-.66,4.92,4.92,0,0,0,1.92-1.92l8.88,2.22a13.62,13.62,0,0,1-5.43,6.51A16.18,16.18,0,0,1,259.15,590.36Zm3.78-18.54a4.7,4.7,0,0,0-.63-2.22,4.23,4.23,0,0,0-1.47-1.5,3.58,3.58,0,0,0-2-.48,4.56,4.56,0,0,0-2.07.6,4.77,4.77,0,0,0-1.56,1.47,4.66,4.66,0,0,0-.75,2.13Z" style="fill:#818181"/><path d="M275.41,559.94h11.64l5.22,8.16,5.16-8.16h11.64l-10.68,14.88,10.68,15.12H297.43l-5.16-8.16-5.22,8.16H275.41l10.68-15.12Z" style="fill:#818181"/><path d="M319.39,557.72a6.2,6.2,0,0,1-4.44-1.59,5.13,5.13,0,0,1-1.68-3.87,5.19,5.19,0,0,1,1.68-3.93,7,7,0,0,1,8.85,0,5.12,5.12,0,0,1,1.71,3.93,5.06,5.06,0,0,1-1.71,3.87A6.27,6.27,0,0,1,319.39,557.72Zm-4.92,2.22h9.84v30h-9.84Z" style="fill:#818181"/><path d="M345.67,590.36a16.53,16.53,0,0,1-7.92-1.86,13.69,13.69,0,0,1-5.49-5.34,16.25,16.25,0,0,1-2-8.22,15.94,15.94,0,0,1,2-8.19,14.31,14.31,0,0,1,5.55-5.34,16.41,16.41,0,0,1,7.95-1.89,16.63,16.63,0,0,1,8,1.89,14.19,14.19,0,0,1,5.58,5.34,17.41,17.41,0,0,1,0,16.41,13.88,13.88,0,0,1-5.64,5.34A17,17,0,0,1,345.67,590.36Zm0-8.93a4.76,4.76,0,0,0,2.49-.73,5.2,5.2,0,0,0,1.89-2.16,9.36,9.36,0,0,0,0-7.2,5.2,5.2,0,0,0-1.86-2.16,4.36,4.36,0,0,0-2.4-.72,4.49,4.49,0,0,0-2.49.72,4.92,4.92,0,0,0-1.77,2.16,8.72,8.72,0,0,0-.66,3.6,9.06,9.06,0,0,0,.63,3.6,4.73,4.73,0,0,0,1.74,2.16A4.39,4.39,0,0,0,345.67,581.43Z" style="fill:#818181"/><path d="M366.13,559.94H375l.72,3.42a12.14,12.14,0,0,1,3.45-2.76,9.05,9.05,0,0,1,4.41-1.08,10.86,10.86,0,0,1,5.94,1.53,9.44,9.44,0,0,1,3.63,4.41,17.66,17.66,0,0,1,1.23,7V590h-9.84V573.63a6.22,6.22,0,0,0-1.08-3.93,3.83,3.83,0,0,0-3.18-1.35,3.9,3.9,0,0,0-3.24,1.35,6.3,6.3,0,0,0-1.08,4V590h-9.84Z" style="fill:#818181"/></svg>