<svg id="Ebene_1" data-name="Ebene 1" xmlns="http://www.w3.org/2000/svg" viewBox="0 0 532.56 725.72"><path d="M146.22,594.36V582.44a2.25,2.25,0,0,1,2.05-2.42,2.84,2.84,0,0,1,.41,0c1.49,0,2.76.83,2.78,2.23.13,8,.35,15.91-.07,23.83-.16,3.06-4.47,3.42-6.92.52-1.7-2-2.85-4.46-4.29-6.67a16.76,16.76,0,0,0-5.53-5.67v10c0,2.05-.09,4.24-2.91,4.07-2.53-.15-3-2.13-3-4.29v-19.9c0-1.65.07-3.49,2.06-4A4.33,4.33,0,0,1,136,582c2.76,4.36,5.55,8.71,8.33,13.06Z" style="fill:#262023"/><path d="M225.24,596.76c2.42,3.35,5,6.38,6.4,10.14-5.76,1.49-5.78,1.5-8.47-2-2-2.59-3-6-6.25-7.5a5.63,5.63,0,0,0-2-.15c-2.45,2.43-.88,5.6-1.37,8.39a2.93,2.93,0,0,1-3.12,2.71l-.3,0a2.48,2.48,0,0,1-2.44-2.54h0V582.88a2.48,2.48,0,0,1,2.26-2.75c5.27-.06,10.67-1.15,15.75.82a7.51,7.51,0,0,1,4.38,9.67,7.85,7.85,0,0,1-.49,1.06C228.58,593.58,226.69,595.07,225.24,596.76Z" style="fill:#1b191e"/><path d="M364.24,595.13v9c0,2.07,0,4.11-2.84,4.24s-3.12-1.77-3.12-3.92c0-6.66-.06-13.32,0-20,0-1.5-.6-3.52,1.59-4.19s4-.4,5.26,1.6c1.79,2.8,3.48,5.66,5.28,8.44a9.74,9.74,0,0,0,4.94,4.18V582.93a2.64,2.64,0,0,1,2.24-2.84c2.06-.27,3.09,1,3.12,2.88.11,7,.13,14,.12,21,0,1.59.27,3.47-1.81,4.15s-4,.36-5.24-1.56c-2.69-4-5.32-8.08-8-12.12Z" style="fill:#211a1b"/><path d="M340.45,608.54c-8.27.12-13.72-5.1-14.06-13.46-.36-8.69,5.32-15,13.54-15.15s14.29,6.18,14.17,14.65S348.6,608.42,340.45,608.54Z" style="fill:#211c1f"/><path d="M286.8,582.07c-7.32,9.18-7.23,9.13-1.08,19.73,1.07,1.85,4.75,4.23,1.15,6.4-2.3,1.39-5.14,0-6.54-2.83a30.42,30.42,0,0,0-2.42-4.32c-1.09-1.52-1.38-4.31-3.67-4.12-2.52.22-3.7,2.43-3.86,5a25,25,0,0,0-.06,3c.07,2.45-1.05,3.73-3.54,3.48-2.1-.2-2.48-1.78-2.48-3.54V584c0-2.06.2-4,3.09-3.93s3,2,2.94,4.11v5.3c5.17-.59,6.18-6,10-7.66C282.52,580.6,284.69,580.3,286.8,582.07Z" style="fill:#201a1b"/><path d="M260.54,605.89a2.15,2.15,0,0,1-1.47,2.39c-1.62.45-3.9.41-4.43-1.18-1.52-4.56-4.89-4.57-8.73-4.62-3.55,0-5.26,1.57-6.6,4.65-.62,1.43-2.78,1.79-4.4.9s-1-2.29-.56-3.48c2.54-7.17,5-14.39,7.82-21.44,1.52-3.77,8-4.77,9.49-1.41C255.05,589.58,257.63,597.81,260.54,605.89Z" style="fill:#1c171a"/><path d="M181.31,594.24c.42-16.81-3-14,15-14.31a16.78,16.78,0,0,1,4,.23,2,2,0,0,1,1.8,2,1.89,1.89,0,0,1-1.63,2.05c-3.3.28-6.63.22-9.93.47a2.87,2.87,0,0,0-3,2.79,1.94,1.94,0,0,0,0,.48,3,3,0,0,0,2.85,3.14h.24a6.82,6.82,0,0,1,1,.07c3.12.8,9-2,8.76,2.61-.17,3.91-6.11,1.58-9.44,1.93s-3.56,2.1-3.56,4.66,1,3.64,3.49,3.57a13.1,13.1,0,0,1,4,.07c2.48.73,7.11-2.14,7,2.54,0,3.32-4.27,1.88-6.63,2C181.31,609,181.31,608.9,181.31,594.24Z" style="fill:#17181d"/><path d="M304,580a46.33,46.33,0,0,1,5,0c1.77.19,4.5-.85,4.84,1.88.38,3-2.41,2.52-4.18,2.55-3.3,0-3.67,2.13-3.68,4.63,0,5.3,0,10.59-.06,15.88,0,2-1,3.2-2.88,3.32-2.07.15-2.77-1.31-2.77-3.18,0-4.63-.18-9.27,0-13.89.17-4.11-.28-7.32-5.62-6.89a2,2,0,0,1-2.37-1.55,1.82,1.82,0,0,1,0-.77c.15-1.77,1.54-1.91,2.84-1.94,3-.06,6,0,8.93,0Z" style="fill:#030201"/><path d="M167.6,580a11.59,11.59,0,0,1,3,0c2.55.67,6.82-1.94,7.34,2.29.39,3.17-3.52,1.67-5.46,2.37-2.46.88-2.13,3-2.15,4.92v13.89c0,2.21.53,5-3.13,4.78-2.72-.18-2.69-2.37-2.69-4.37V591.94c0-4,.84-8.48-5.71-7.73-1.34.16-2.41-.77-2.14-2.53.2-1.29,1.24-1.54,2.1-1.58,3-.12,6-.05,8.93-.05Z" style="fill:#040302"/><path d="M403.5,595.46v7.95c0,2.3.11,5-3.12,5.19s-3.61-2.24-3.62-4.71V585c0-2.28-.16-5,3.15-5.13,4.17-.18,3.45,3.17,3.57,5.65C403.61,588.83,403.5,592.15,403.5,595.46Z" style="fill:#56514f"/><path d="M117.79,593.58c0-3.63-.06-7.25,0-10.87A2.39,2.39,0,0,1,120,580c1.89-.18,3.48.59,3.53,2.46q.24,11.85,0,23.71c0,1.32-1.48,2.24-2.86,2.27a2.73,2.73,0,0,1-3-3V593.6Z" style="fill:#2b2c3e"/><path d="M322.26,594.76c0,3.66.06,7.32,0,11a2.36,2.36,0,0,1-2.19,2.52h-.21c-1.91.08-3.3-.72-3.32-2.71q-.1-11.48,0-23c0-2,1.54-2.67,3.44-2.51,1.69.14,2.19,1.31,2.21,2.69.07,4,0,8,0,12Z" style="fill:#060507"/><path d="M408.35,593.87v-11c0-2,1.09-3,3.14-2.82a2.41,2.41,0,0,1,2.5,2.33.57.57,0,0,1,0,.13q.15,11.49.08,23c0,2-1.28,2.9-3.22,2.78-2.16-.12-2.58-1.66-2.59-3.42v-11Z" style="fill:#010101"/><path d="M286.8,582.07l-6.51-.31c1.6-3.11,4.36-1.93,6.7-1.6C287.88,580.29,287.88,581.5,286.8,582.07Z" style="fill:#413b40"/><path d="M218.88,592c-3.19.09-5.47.18-5.45-3.36s2.09-4.49,5.17-4.22c2.71.24,5.73.45,5.52,4.15S220.69,591.89,218.88,592Z" style="fill:#ece8e6"/><path d="M347.78,594.34c0,5.87-3.21,9.76-7.83,9.59s-7.54-4.41-7.32-10.12c.21-5.15,3.32-9,7.37-9.19C344.37,584.45,347.81,588.76,347.78,594.34Z" style="fill:#f3f2f2"/><path d="M250.84,597.25c-3.17,1.08-5.31,1.1-7.64-.2.58-2.13,1.07-4.32,1.79-6.44a20.64,20.64,0,0,1,1.83-3.28c2.32,1.13,1.77,3.37,2.61,4.91C250.18,593.6,250.32,595.29,250.84,597.25Z" style="fill:#e4e2e1"/><path d="M-9.62,3.87c6.16-10.64,15.41-14,27.56-14q248.34.38,496.68,0c12.13,0,21.41,3.35,27.54,14,2.36,5.25,3,10.78,3,16.5q.33,344.92,0,689.85a60.16,60.16,0,0,1-.43,9c-4.07,13-13.29,19-26.63,19.42-125.47,1-250.93.24-376.4.45-40.6.07-81.2.26-121.77-.37a98.07,98.07,0,0,1-10-.54,16.36,16.36,0,0,1-2.87-.65c-1.73-.59-3.44-1.27-5.17-1.88a12.53,12.53,0,0,1-2.36-1.14,16,16,0,0,1-2.06-1.6c-.33-.29-.64-.6-1-.89-1.59-1.58-3.22-3.13-4.67-4.87a16.65,16.65,0,0,1-1.67-2.49,21.85,21.85,0,0,1-1.92-4.51,17.55,17.55,0,0,1-.58-3.6c-.7-87.25-.27-174.47-.28-261.7,0-143.82-.23-287.64.1-431.47C-12.56,16.69-12.52,10.08-9.62,3.87Z" style="fill:#63bae9"/><path d="M532.48,362.83v344c0,2.67.16,5.35-.07,8-.55,6.38-4.39,10.16-10.89,10.77-2.31.22-4.66.06-7,.06h-497c-2,0-4,.12-6,0C4.43,725.11.6,721.35.08,714.39c-.17-2.32,0-4.66,0-7v-689c0-2.34-.13-4.68,0-7C.59,4.39,4.41.64,11.5.1c2.32-.18,4.66,0,7,0h495c2.33,0,4.67-.11,7,0,7.72.47,11.51,4.2,12,11.78.14,2.32,0,4.66,0,7Z" style="fill:#fff"/><path d="M330.27,309.87h26c5.81,0,10.27,2.1,12.71,7.79,2.53,5.92,0,10.3-4,14.3-2.81,2.84-5.72,5.58-8.6,8.34-6.38,6.09-6.41,6.1.1,12.63l36,36c12.76,12.77,12.76,12.77-.34,25.85-.71.71-1.4,1.42-2.12,2.12-8.07,7.88-9.79,7.94-17.86-.07-13.47-13.37-26.82-26.85-40.28-40.23-5.92-5.87-6-5.83-11.64-.19-3.06,3.06-6.17,6.09-9,9.34-3.78,4.34-8.43,5.09-13.59,3.65s-7.65-5-8-10.21c-.23-3.31-.84-6.6-.87-9.91q-.15-19.47,0-38.95a44.25,44.25,0,0,1,.79-8.9c1.73-8.19,5.41-11.35,13.73-11.54C312.29,309.76,321.28,309.87,330.27,309.87Z" style="fill:#62bae9"/><path d="M217.58,309.87c8.32,0,16.68.49,24.95-.15a14,14,0,0,1,15.2,12.79c0,.3,0,.6,0,.9q.39,26.94-.08,53.89c-.11,5.52-2.5,10.41-8.6,12.13-5.66,1.6-10.44.33-14.31-4.3-2.13-2.55-4.64-4.78-6.85-7.26-6.76-7.58-6.76-7.63-14.22-.19Q195.35,396,177,414.37c-1.64,1.65-3.2,3.41-5,4.9-4.72,3.93-8.5,3.89-13.25-.29-2.74-2.41-5.23-5.11-7.79-7.73-8.13-8.33-8.22-10.75-.19-18.87,12.4-12.54,24.92-25,37.39-37.43,1.88-1.88,3.69-3.84,5.64-5.64,2.59-2.38,2.23-4.49-.24-6.67-4-3.52-8-7-11.84-10.68s-6.34-7.53-4.06-13.28c2.41-6,6.48-8.91,12.94-8.84C199.62,310,208.6,309.87,217.58,309.87Z" style="fill:#63bae9"/><path d="M329.31,277.94c-8.65,0-17.3.15-25.95,0-8.36-.18-12-3.28-13.78-11.45a32.11,32.11,0,0,1-.8-6.9c-.07-14.64-.1-29.28,0-43.91a32.67,32.67,0,0,1,1.32-8.84c2.55-8.79,11.43-11.91,18.86-6.46,4.56,3.34,8.11,7.82,11.8,12.12,4,4.71,5,4.79,9.54.28,13.74-13.55,27.3-27.28,41-40.88,8.63-8.59,11-8.56,19.63-.06,1.9,1.86,3.81,3.72,5.64,5.65,7.22,7.61,7.28,10,0,17.33-12.88,13-25.86,25.9-38.79,38.84-1.65,1.65-3.22,3.37-4.94,4.94-2.62,2.39-2.16,4.49.29,6.65,4,3.52,8,7,11.85,10.68,4,3.91,6.51,8.35,4,14.27-2.43,5.68-6.86,7.79-12.69,7.78Z" style="fill:#62bae9"/><path d="M220.69,217.22c4.46-3,7.1-6.44,9.9-9.73a43,43,0,0,1,7-7.07c7.67-5.61,18.14-2.32,19.26,7,2.38,19.82,1.66,39.84.33,59.72-.49,7.43-5.43,10.66-13.3,10.75-18,.19-35.94.09-53.91,0-5.36,0-9.52-1.93-11.87-7.33-2.54-5.81-.91-10.38,3.29-14.39,3.6-3.44,7.33-6.77,11.19-9.92,3.66-3,3.92-5.55.22-8.86-4.46-4-8.52-8.41-12.76-12.65-10.12-10.12-20.3-20.18-30.33-30.38-6.8-6.91-6.73-9.38.09-16.62,3-3.14,6-6.3,9.21-9.13,4.71-4.1,8.5-4.09,13.2.17,4.44,4,8.53,8.41,12.77,12.65Z" style="fill:#63bae9"/><path d="M100.47,554h10.44v42H100.47Z" style="fill:#63bae9"/><path d="M117.21,566h8.88l.72,3.42a11.71,11.71,0,0,1,3.45-2.76,9,9,0,0,1,4.41-1.08,10.9,10.9,0,0,1,5.94,1.53,9.5,9.5,0,0,1,3.63,4.41,18,18,0,0,1,1.23,7v17.52h-9.84V579.76a6.22,6.22,0,0,0-1.08-3.93,4.49,4.49,0,0,0-6.42,0,6.18,6.18,0,0,0-1.08,4v16.26h-9.84Z" style="fill:#63bae9"/><path d="M153.69,566v-8.4h10V566h5.7v8.72h-5.7v9.36a2.89,2.89,0,0,0,.9,2.4,3.54,3.54,0,0,0,2.22.75,10.72,10.72,0,0,0,2.64-.27v8.64a24.21,24.21,0,0,1-6.24.36,11.28,11.28,0,0,1-5-1.53,8.62,8.62,0,0,1-3.33-3.84,15.32,15.32,0,0,1-1.2-6.51v-9.36h-4.26V566Z" style="fill:#63bae9"/><path d="M188,596.46a16.21,16.21,0,0,1-8.13-2,13.38,13.38,0,0,1-5.34-5.49,17.29,17.29,0,0,1-1.85-8.26,15.83,15.83,0,0,1,1.89-7.86,13.48,13.48,0,0,1,5.25-5.34,15.26,15.26,0,0,1,7.74-1.92,16.3,16.3,0,0,1,7.92,1.83,13,13,0,0,1,5.22,5.19,16,16,0,0,1,1.86,7.86q0,.66-.06,1.44t-.18,1.74H183.19a5.78,5.78,0,0,0,1,2.37,4.78,4.78,0,0,0,1.86,1.5,5.91,5.91,0,0,0,2.49.51,5.65,5.65,0,0,0,2.76-.66,5,5,0,0,0,1.92-1.92l8.88,2.22a13.73,13.73,0,0,1-5.43,6.51A16.17,16.17,0,0,1,188,596.46Zm3.78-18.54a4.82,4.82,0,0,0-.63-2.22,4.31,4.31,0,0,0-1.47-1.5,3.52,3.52,0,0,0-2-.48,4.56,4.56,0,0,0-2.07.6,4.67,4.67,0,0,0-1.56,1.47,4.41,4.41,0,0,0-.75,2.13Z" style="fill:#63bae9"/><path d="M207.27,566h8.94l.66,4.08a10.23,10.23,0,0,1,2.7-2.67,9.43,9.43,0,0,1,3.57-1.44,12.77,12.77,0,0,1,4.53,0v9.36a8.78,8.78,0,0,0-6.87.84,6.87,6.87,0,0,0-2.67,2.88,10.53,10.53,0,0,0-1,5V596h-9.84Z" style="fill:#63bae9"/><path d="M248.69,596l-.66-3.72a17.57,17.57,0,0,1-3.33,3,8.24,8.24,0,0,1-4.59,1.14,11.62,11.62,0,0,1-4.83-1,8.3,8.3,0,0,1-3.51-2.91,8.63,8.63,0,0,1,1.32-10.8q2.64-2.4,8.34-3.06L248,578v-1.74a2.55,2.55,0,0,0-.84-1.71,3.45,3.45,0,0,0-2.58-.87,4.42,4.42,0,0,0-2.7.84,4.13,4.13,0,0,0-1.56,2.34l-8.34-3a11.2,11.2,0,0,1,4.68-6.15,15.29,15.29,0,0,1,8.28-2.07q6.3,0,9.6,3.12a11.26,11.26,0,0,1,3.3,8.58V596ZM248,583.5l-4.68.54a3.48,3.48,0,0,0-2.1.9,2.32,2.32,0,0,0-.72,1.74,2,2,0,0,0,.87,1.68,3.92,3.92,0,0,0,2.43.66,4.15,4.15,0,0,0,2.19-.57,4,4,0,0,0,1.47-1.65,6.13,6.13,0,0,0,.54-2.7Z" style="fill:#63bae9"/><path d="M263.55,552.84h10v23.82h1.26L283.09,566h12.78l-12.36,14.7L296,596H283.21l-8.46-11.22h-1.2V596h-10Z" style="fill:#63bae9"/><path d="M302.07,566v-8.4h10V566h5.7v8.72h-5.7v9.36a2.89,2.89,0,0,0,.9,2.4,3.54,3.54,0,0,0,2.22.75,10.72,10.72,0,0,0,2.64-.27v8.64a24.21,24.21,0,0,1-6.24.36,11.28,11.28,0,0,1-5-1.53,8.62,8.62,0,0,1-3.33-3.84,15.32,15.32,0,0,1-1.2-6.51v-9.36H297.8V566Z" style="fill:#63bae9"/><path d="M328.35,563.82a6.18,6.18,0,0,1-4.44-1.59,5.1,5.1,0,0,1-1.68-3.87,5.15,5.15,0,0,1,1.68-3.93,7,7,0,0,1,8.85,0,5.19,5.19,0,0,1,1.71,3.93,5.13,5.13,0,0,1-1.71,3.87A6.27,6.27,0,0,1,328.35,563.82ZM323.43,566h9.84v30h-9.84Z" style="fill:#63bae9"/><path d="M354.63,596.46a16.5,16.5,0,0,1-7.92-1.86,13.57,13.57,0,0,1-5.49-5.34,16,16,0,0,1-2-8.22,15.74,15.74,0,0,1,2-8.19,14,14,0,0,1,5.55-5.34,16.36,16.36,0,0,1,8-1.89,16.63,16.63,0,0,1,8,1.89,14,14,0,0,1,5.58,5.34,17.46,17.46,0,0,1,0,16.41,14,14,0,0,1-5.64,5.34A17.18,17.18,0,0,1,354.63,596.46Zm0-8.94a4.68,4.68,0,0,0,2.49-.72,5.27,5.27,0,0,0,1.89-2.16,9.36,9.36,0,0,0,0-7.2,5.27,5.27,0,0,0-1.86-2.16,4.38,4.38,0,0,0-2.4-.72,4.47,4.47,0,0,0-2.49.72,4.86,4.86,0,0,0-1.77,2.16,8.56,8.56,0,0,0-.66,3.6,8.89,8.89,0,0,0,.63,3.6,4.67,4.67,0,0,0,1.74,2.16,4.43,4.43,0,0,0,2.43.72Z" style="fill:#63bae9"/><path d="M375.09,566H384l.72,3.42a11.71,11.71,0,0,1,3.45-2.76,9,9,0,0,1,4.41-1.08,10.9,10.9,0,0,1,5.94,1.53,9.5,9.5,0,0,1,3.63,4.41,18,18,0,0,1,1.23,7v17.52h-9.84V579.76a6.22,6.22,0,0,0-1.08-3.93,4.49,4.49,0,0,0-6.42,0,6.18,6.18,0,0,0-1.08,4v16.26h-9.84Z" style="fill:#63bae9"/><path d="M426.09,554h10.44v42H426.09Z" style="fill:#63bae9"/><path d="M443.13,554h10.44v42H443.13Z" style="fill:#63bae9"/></svg>