<svg id="Ebene_1" data-name="Ebene 1" xmlns="http://www.w3.org/2000/svg" viewBox="0 0 533.57 724.82"><path d="M240,594.19c-.13-8.76,5.46-14.5,14-14.43s13.88,5.9,13.69,14.73c-.09,4.24-4.24,8.37-.23,12.83.53.59-1.26,2.84-2.48,2.11-4.1-2.43-8.38-.75-12.54-1.13C245,607.61,240.14,602,240,594.19Z" style="fill:#211d1f"/><path d="M408.35,593.54c-2.19,4.57-1,8.21-1.52,11.59-.29,1.78-.93,3.2-3.05,3.1s-2.64-1.74-2.66-3.44c-.07-7-.05-13.94-.06-20.91,0-1.72.23-3.4,2.25-3.84a4.41,4.41,0,0,1,5.07,2.15,56.88,56.88,0,0,0,9.49,12.28V584.28c0-2.07,0-4.11,2.77-4.31s3.11,1.76,3.11,3.88v19.92c0,1.83.51,4.16-2.46,4.51a4.86,4.86,0,0,1-5.07-2.36C413.76,602.12,411.36,598.3,408.35,593.54Z" style="fill:#1e1a1f"/><path d="M230.28,593.77c0-3.89-.12-7.77.07-11.64.07-1.42,1.5-2.14,2.87-2.18a2.33,2.33,0,0,1,2.57,2c0,.11,0,.21,0,.32.07,7.61.17,15.23,0,22.83a3.38,3.38,0,0,1-5.55,2.54,21.2,21.2,0,0,1-3.54-4.72c-1.93-3-3.75-6-6.27-10-1.92,5-.73,8.93-1.34,12.64a2.8,2.8,0,0,1-2.92,2.67,3,3,0,0,1-.51-.07c-1.7-.16-2-1.48-2-2.81-.06-7.28-.06-14.56-.09-21.84,0-1.78.39-3.35,2.47-3.59a4.13,4.13,0,0,1,4.3,1.78q4,6.16,7.93,12.35Z" style="fill:#201b1e"/><path d="M109,593.48a8.89,8.89,0,0,1,0-3c1.39-3.62-4-10,4.44-10.78,11.72-1.11,17,1.56,18.6,9.89,1.07,5.7,1,11.42-3.62,15.72-5,4.6-11.26,3-17.12,2.83-2,0-2.27-2.08-2.3-3.75V593.48Z" style="fill:#1c1a1f"/><path d="M374.72,594.23c0-15.63,0-15.63,15.91-14.52a18,18,0,0,1,3.85.64c.46.13.86.89,1,1.44a1.78,1.78,0,0,1-1.17,2.23l-.17,0c-3.3.3-6.63.3-9.95.39-1.86,0-3.13.66-3.15,2.82,0,2,.81,3.09,2.85,3.15,3,.09,6,.06,9,.33a2,2,0,0,1,1.69,2.12,1.92,1.92,0,0,1-1.74,2,50.26,50.26,0,0,1-6.94.35c-3.25-.09-5,1-4.88,4.58.13,3.05,1.82,4,4.53,3.91a8.89,8.89,0,0,1,3,0c2.44.81,7.3-2.08,7,2.6-.28,3.83-4.93,1.92-7.57,2C374.72,608.69,374.72,608.58,374.72,594.23Z" style="fill:#2d2828"/><path d="M161.9,606.57a1.93,1.93,0,0,1-2,1.7c-1.69.12-3.51,0-4-1.95-1.14-4.46-4.57-4-7.88-4-3,0-5.9-.33-6.82,3.88-.46,2.09-2.89,2.77-4.84,1.53s-.69-3-.2-4.46c2.27-6.54,4.88-13,7-19.54,1-3.08,2.77-4.18,5.8-4,2.49.11,4.28.67,5.19,3.47,2.34,7.21,5,14.31,7.53,21.47A8.28,8.28,0,0,1,161.9,606.57Z" style="fill:#1c171a"/><path d="M300.31,594c.45-16-3.58-14.16,15.15-14.31a15.84,15.84,0,0,1,3,.14c1.22.23,2.71.24,2.84,2s-1.21,2.23-2.52,2.33c-2.32.17-4.66,0-7,.18-2.1.16-5-.85-5.26,2.79s2.56,3.14,4.77,3.27c2,.11,4,0,6,.1,1.35.07,2.63.36,2.76,2.12s-1.12,2.24-2.46,2.33c-2.32.15-4.65.19-7,.15-3-.06-4.15,1.48-4.15,4.29s1.26,4.27,4.2,4.25,6,.13,9,.21a2,2,0,0,1,2,1.78c.21,1.55-.81,2.39-2.29,2.54a33.35,33.35,0,0,1-4,.13C297.46,608.1,300.67,610.76,300.31,594Z" style="fill:#281f1d"/><path d="M295.11,591.47c0,2,.14,4,0,6-.69,7.76-4.07,11-11.35,11s-10.89-3.28-11.47-10.91c-.36-4.63-.12-9.31-.11-14,0-2.37,1.16-3.74,3.61-3.55,2.19.17,2.42,1.88,2.43,3.6,0,4.66,0,9.32.07,14,.06,3.51,1.88,5.78,5.4,5.89,3.7.12,5.26-2.31,5.3-5.8v-14c0-1.73.24-3.42,2.41-3.66,2.5-.28,3.62,1.15,3.68,3.48C295.2,586.15,295.11,588.81,295.11,591.47Z" style="fill:#2b2629"/><path d="M197.08,608.36c-2,0-4-.08-6,0-3.08.15-4.06-1.49-4-4.29V584.14c0-2.06.14-4.21,2.86-4.25q8-.12,15.92.16a1.84,1.84,0,0,1,1.73,1.94v.06a1.92,1.92,0,0,1-1.69,2.05c-3,.25-6,.24-9,.26-2.19,0-3.93.36-3.78,3.2.11,2.07,1.26,2.54,3.07,3,3.49.87,9.69-2.52,9.92,2.59.16,3.72-6.1,1.5-9.44,2-3.18.44-3.64,2.27-3.56,4.83.07,2.36,1.12,3.71,3.57,3.75a14.32,14.32,0,0,1,3,.08c2.8.68,8.1-1.94,7.84,2.56-.23,4.07-5.51,1.31-8.47,2A8.12,8.12,0,0,1,197.08,608.36Z" style="fill:#18181f"/><path d="M326.67,593.63c0-3.63-.11-7.27.05-10.89a2.89,2.89,0,0,1,2.76-3,3,3,0,0,1,.42,0,3,3,0,0,1,3.11,2.89v.21c.15,4.94.28,9.9.09,14.84-.15,4.06,1,6.35,5.55,5.91a20.42,20.42,0,0,1,4.94.07c1.52.21,3.49.31,3.17,2.71-.2,1.59-1.55,1.89-2.88,2.07a6.84,6.84,0,0,0-1,0C326.8,610.22,326.56,610,326.67,593.63Z" style="fill:#423e3f"/><path d="M350.67,593.61c0-3.63-.13-7.27.05-10.89a2.87,2.87,0,0,1,2.74-3,2.36,2.36,0,0,1,.46,0,3,3,0,0,1,3.09,2.91v.2c.16,4.94.28,9.9.09,14.85-.15,4.08,1.08,6.33,5.57,5.89a21.48,21.48,0,0,1,4.94.07c1.52.21,3.49.34,3.16,2.72-.22,1.59-1.58,1.88-2.9,2.06a6.77,6.77,0,0,0-1,.05C350.77,610.2,350.56,610,350.67,593.61Z" style="fill:#423e3f"/><path d="M173.52,579.71c1.65,0,3.3-.08,4.95,0,1.86.1,4.62-.62,5.08,1.66.77,3.77-2.59,2.89-4.63,3-2.84.13-3,2-3,4,0,5.28,0,10.55,0,15.83,0,2,0,4.17-2.94,4-2.69-.13-3-2.16-3-4.21,0-4.62-.19-9.24,0-13.85.18-3.81-.4-6.48-5.14-6-1.28.14-2.66-.4-2.7-2.08-.05-2.39,1.91-2.35,3.45-2.43,2.63-.14,5.27,0,7.91,0Z" style="fill:#2a2020"/><path d="M261.52,594c-.06,2,0,4.83-1.68,5.41-2.88,1-6.06,2.65-8.42,3-4,.61-4.78-4.54-5-8.19-.32-5.85,2.76-9.77,7.34-9.82S261.47,588.16,261.52,594Z" style="fill:#f2f1f2"/><path d="M115.05,593.41c0-1.31-.06-2.62,0-3.93.27-4.77,3.55-6.66,7.7-4.43,3.94,2.13,3.52,6,3.45,9.53-.06,3.16.31,6.64-3.56,8.4-4.57,2.08-7.27.53-7.58-4.65C115,596.69,115.05,595.05,115.05,593.41Z" style="fill:#f9f8f7"/><path d="M149.2,586.67c.92,2.51,1.89,4.85,2.63,7.27.36,1.22.72,3-.77,3.51a8.4,8.4,0,0,1-4.76.33c-2.25-.61-1.41-2.51-1-4.07C146,591.21,146.29,588.48,149.2,586.67Z" style="fill:#d4d0d0"/><path d="M-10.06,6.49a28.44,28.44,0,0,1,13.87-16c3.42-2,7.17-1,10.75-1q252.24-.09,504.46,0c3.58,0,7.33-1,10.75,1a28.49,28.49,0,0,1,13.88,16C547,11.86,547,17.89,547,23.89v681c0,11-1.41,21.37-11.16,28.54a29.87,29.87,0,0,1-7.37,3.16c-8.61,1.11-17.28,1.08-25.94,1.08H31.64c-7.67,0-15.33-.28-23-.61a18.11,18.11,0,0,1-6.41-1.76,23.75,23.75,0,0,1-2.59-1.37c-1.2-.67-2.38-1.41-3.53-2.19a9.67,9.67,0,0,1-1.94-1.84c-1.09-1.43-2.12-2.91-3.12-4.43a17.21,17.21,0,0,1-1.31-2.61c-.74-2-1.54-3.92-2.1-6a18.82,18.82,0,0,1-.56-3.57c-1.12-35.33-.23-70.64-.26-105.94q-.18-270.84-.1-541.69c0-16.65-.33-33.31.31-50C-12.44,12.52-12.09,9.24-10.06,6.49Z" style="fill:#55b791"/><path d="M.08,361.36V20.47c0-2.66-.15-5.34,0-8C.69,4.12,4.36.55,12.62.17c2-.09,4,0,6,0Q266.56.17,514.5,0c16.39,0,19.08,4.51,19.07,19.1q-.23,343.43-.12,686.83a57.58,57.58,0,0,1-.28,9c-1,6.13-4.57,9.24-10.79,9.77-2.32.19-4.67.06-7,.06H18.54c-2.33,0-4.67.13-7,0C4.86,724.27,1.15,721,.26,714.36a67.58,67.58,0,0,1-.19-9Z" style="fill:#fff"/><path d="M273,326.13H169.2c-2.33,0-4.67.12-7,0-10.22-.7-16.48-5.84-17.21-15.9a250.83,250.83,0,0,1-.1-32.9c.58-9.56,5.52-14.19,15-15.85a58.9,58.9,0,0,1,9.93-.56H377.54c3.65,0,7.28-.13,10.9.82C397,264,401.6,269.21,401.79,278q.34,15.48,0,31c-.21,9.57-6.47,16.16-16,17.14a79,79,0,0,1-8,.1Q325.45,326.15,273,326.13Z" style="fill:#54b790"/><path d="M273.87,180.76H379.73c3.3,0,6.63-.31,9.9.73,7.34,2.31,12,7.56,12.16,15.24q.45,16.47,0,33c-.22,8.13-5,13.54-13.15,15.27a47.51,47.51,0,0,1-9.89.8q-104.86.06-209.72,0h-4c-14.19-.48-20.07-6.11-20.51-20.09-.26-8-.21-16,0-24,.37-15.33,6.11-20.94,21.52-21Q220,180.7,273.87,180.76Z" style="fill:#54b791"/><path d="M272.83,406.16h-107c-15.49,0-21-5.36-21.33-21q-.28-12.5,0-25c.38-13.39,8.69-18.32,18.86-18.28,73.33.27,146.66.11,220,.18,12.71,0,18.3,5.62,18.48,18.18.14,9,.11,18,0,27-.14,12.88-6,18.87-19.06,18.9C346.2,406.22,309.49,406.16,272.83,406.16Z" style="fill:#54b790"/><path d="M329.53,305c-6.68,0-11.51-4.58-11.72-11-.22-6.73,5-11.94,11.91-11.9a11.5,11.5,0,1,1-.19,23h0Z" style="fill:#fdfefe"/><path d="M373.58,294.46c-.52,6.52-6.17,11.09-13,10.53a11.36,11.36,0,0,1-10.72-12,8.46,8.46,0,0,1,.08-.88c.78-6.44,6.62-10.79,13.46-10A11.49,11.49,0,0,1,373.58,294.46Z" style="fill:#fdfefe"/><path d="M373.6,212.83a11.89,11.89,0,0,1-23.72,1.28,12.24,12.24,0,0,1,11.19-12.84C367.2,200.86,373.35,206.53,373.6,212.83Z" style="fill:#fdfefe"/><path d="M329.67,224.8a11.46,11.46,0,0,1-11.87-11q0-.37,0-.75c.12-6.43,6-12,12.23-11.75,5.86.25,11.4,5.85,11.5,11.62A11.72,11.72,0,0,1,330,224.8Z" style="fill:#fdfefe"/><path d="M349.85,374a11.89,11.89,0,0,1,23.77-.57A12.36,12.36,0,0,1,362,386C355.75,386.3,349.92,380.53,349.85,374Z" style="fill:#fcfdfd"/><path d="M329.51,362.18a11.84,11.84,0,0,1,12,11.66v.27c0,6.23-6.11,12.09-12.37,11.93-5.9-.15-11.13-5.55-11.37-11.76a11.59,11.59,0,0,1,11.07-12.09Z" style="fill:#fcfdfd"/><path d="M110.2,536.36A24.6,24.6,0,0,1,121.93,539a19,19,0,0,1,7.68,7.38,23.33,23.33,0,0,1,0,21.9,19.15,19.15,0,0,1-7.68,7.41,24.37,24.37,0,0,1-11.73,2.67H93v-42Zm-.66,33.24q5.7,0,8.94-3.3t3.24-8.94q0-5.7-3.24-9t-8.94-3.27h-6.06v24.48Z" style="fill:#54b791"/><path d="M154.14,578.36l-.66-3.72a17,17,0,0,1-3.33,3,8.2,8.2,0,0,1-4.59,1.14,11.49,11.49,0,0,1-4.83-1,8.29,8.29,0,0,1-3.51-2.91,8.09,8.09,0,0,1-1.32-4.68,7.88,7.88,0,0,1,2.64-6.12q2.64-2.4,8.34-3.06l6.6-.72v-1.74a2.55,2.55,0,0,0-.84-1.71,3.44,3.44,0,0,0-2.58-.87,4.42,4.42,0,0,0-2.7.84,4.24,4.24,0,0,0-1.56,2.34l-8.34-3a11.2,11.2,0,0,1,4.68-6.15,15.31,15.31,0,0,1,8.28-2.07q6.3,0,9.6,3.12a11.26,11.26,0,0,1,3.3,8.58v18.73Zm-.66-12.54-4.68.54a3.5,3.5,0,0,0-2.1.9A2.39,2.39,0,0,0,146,569a2,2,0,0,0,.87,1.68,4,4,0,0,0,2.43.66,4.1,4.1,0,0,0,2.19-.57,3.91,3.91,0,0,0,1.47-1.65,6,6,0,0,0,.54-2.7Z" style="fill:#54b791"/><path d="M171.54,548.36V540h10v8.4h5.7v8.76h-5.7v9.36a2.89,2.89,0,0,0,.9,2.4,3.59,3.59,0,0,0,2.22.75,10.67,10.67,0,0,0,2.64-.27V578a24.18,24.18,0,0,1-6.24.36,11.36,11.36,0,0,1-5-1.53,8.68,8.68,0,0,1-3.33-3.84,15.32,15.32,0,0,1-1.2-6.51v-9.36h-4.26v-8.76Z" style="fill:#54b791"/><path d="M205.86,578.73a16.23,16.23,0,0,1-8.13-2,13.44,13.44,0,0,1-5.34-5.49A17.26,17.26,0,0,1,190.5,563a16,16,0,0,1,1.89-7.86,13.61,13.61,0,0,1,5.25-5.34,15.41,15.41,0,0,1,7.74-1.92,16.27,16.27,0,0,1,7.92,1.83,12.91,12.91,0,0,1,5.22,5.19,16,16,0,0,1,1.86,7.86q0,.66-.06,1.44t-.18,1.74H201a6.07,6.07,0,0,0,1,2.37,4.93,4.93,0,0,0,1.86,1.5,5.91,5.91,0,0,0,2.49.51,5.65,5.65,0,0,0,2.76-.66,4.92,4.92,0,0,0,1.92-1.92l8.88,2.22a13.67,13.67,0,0,1-5.43,6.51A16.19,16.19,0,0,1,205.86,578.73Zm3.78-18.54A4.7,4.7,0,0,0,209,558a4.23,4.23,0,0,0-1.47-1.5,3.5,3.5,0,0,0-2-.48,4.56,4.56,0,0,0-2.07.6,4.77,4.77,0,0,0-1.56,1.47,4.66,4.66,0,0,0-.75,2.13Z" style="fill:#54b791"/><path d="M225.12,548.36H234l.72,3.42a12,12,0,0,1,3.45-2.76,9.17,9.17,0,0,1,4.41-1.08,10.86,10.86,0,0,1,5.94,1.53,9.5,9.5,0,0,1,3.63,4.41,17.66,17.66,0,0,1,1.23,7v17.48h-9.84V562a6.24,6.24,0,0,0-1.08-3.93,3.84,3.84,0,0,0-3.18-1.35,3.89,3.89,0,0,0-3.24,1.35,6.3,6.3,0,0,0-1.08,4v16.25h-9.84Z" style="fill:#54b791"/><path d="M280.08,573.63a11.46,11.46,0,0,1-3.63,3.57,10.21,10.21,0,0,1-5.67,1.53,12.17,12.17,0,0,1-6.69-1.86,12.72,12.72,0,0,1-4.59-5.34,18.79,18.79,0,0,1-1.68-8.22,18.52,18.52,0,0,1,1.68-8.19,12.79,12.79,0,0,1,4.62-5.34,12,12,0,0,1,6.66-1.89,10.17,10.17,0,0,1,4.92,1.23,8.61,8.61,0,0,1,3.36,3l.54-3.78h8.88v42h-9.84V573.66Zm-11.64-10.27a7.12,7.12,0,0,0,1.38,4.56,4.71,4.71,0,0,0,6.21,1,5.4,5.4,0,0,0,1.89-2.16,8.41,8.41,0,0,0,0-6.81,5.18,5.18,0,0,0-1.89-2.1,4.66,4.66,0,0,0-2.49-.72,4.55,4.55,0,0,0-3.69,1.71A6.87,6.87,0,0,0,268.44,563.36Z" style="fill:#54b791"/><path d="M322.44,578.36H313.5l-.72-3.48a11.63,11.63,0,0,1-3.42,2.82,8.91,8.91,0,0,1-4.38,1.08,10.5,10.5,0,0,1-5.73-1.53,10.14,10.14,0,0,1-3.78-4.44,16.68,16.68,0,0,1-1.35-7V548.36H304v16.32a6.24,6.24,0,0,0,1.08,3.93,3.9,3.9,0,0,0,3.24,1.35,3.84,3.84,0,0,0,3.21-1.41,6.32,6.32,0,0,0,1.11-4V548.36h9.84Z" style="fill:#54b791"/><path d="M342.54,578.73a16.23,16.23,0,0,1-8.13-2,13.44,13.44,0,0,1-5.34-5.49,17.26,17.26,0,0,1-1.89-8.28,16,16,0,0,1,1.89-7.86,13.61,13.61,0,0,1,5.25-5.34,15.41,15.41,0,0,1,7.74-1.92,16.27,16.27,0,0,1,7.92,1.83,12.91,12.91,0,0,1,5.22,5.19,16,16,0,0,1,1.86,7.86q0,.66-.06,1.44t-.18,1.74H337.68a5.89,5.89,0,0,0,1.05,2.37,4.93,4.93,0,0,0,1.86,1.5,5.91,5.91,0,0,0,2.49.51,5.65,5.65,0,0,0,2.76-.66,4.92,4.92,0,0,0,1.92-1.92l8.88,2.22a13.67,13.67,0,0,1-5.43,6.51A16.18,16.18,0,0,1,342.54,578.73Zm3.78-18.54a4.7,4.7,0,0,0-.63-2.22,4.23,4.23,0,0,0-1.47-1.5,3.5,3.5,0,0,0-2-.48,4.56,4.56,0,0,0-2.07.6,4.77,4.77,0,0,0-1.56,1.47,4.66,4.66,0,0,0-.75,2.13Z" style="fill:#54b791"/><path d="M361.8,535.11h9.84v43.25H361.8Z" style="fill:#54b791"/><path d="M377.57,535.11h9.84v43.25h-9.84Z" style="fill:#54b791"/><path d="M407.51,578.73a16.23,16.23,0,0,1-8.13-2,13.44,13.44,0,0,1-5.34-5.49,17.26,17.26,0,0,1-1.89-8.28,16,16,0,0,1,1.89-7.86,13.61,13.61,0,0,1,5.25-5.34,15.41,15.41,0,0,1,7.74-1.92,16.27,16.27,0,0,1,7.92,1.83,12.91,12.91,0,0,1,5.22,5.19,16,16,0,0,1,1.86,7.86q0,.66-.06,1.44t-.18,1.74H402.65a5.89,5.89,0,0,0,1.05,2.37,4.93,4.93,0,0,0,1.86,1.5,5.91,5.91,0,0,0,2.49.51,5.65,5.65,0,0,0,2.76-.66,4.92,4.92,0,0,0,1.92-1.92l8.88,2.22a13.67,13.67,0,0,1-5.43,6.51A16.18,16.18,0,0,1,407.51,578.73Zm3.78-18.54a4.7,4.7,0,0,0-.63-2.22,4.23,4.23,0,0,0-1.47-1.5,3.5,3.5,0,0,0-2-.48,4.56,4.56,0,0,0-2.07.6,4.77,4.77,0,0,0-1.56,1.47,4.66,4.66,0,0,0-.75,2.13Z" style="fill:#54b791"/><path d="M426.77,548.36h8.88l.72,3.42a12,12,0,0,1,3.45-2.76,9.17,9.17,0,0,1,4.41-1.08,10.86,10.86,0,0,1,5.94,1.53,9.5,9.5,0,0,1,3.63,4.41,17.66,17.66,0,0,1,1.23,7v17.48H445.2V562a6.18,6.18,0,0,0-1.08-3.93,3.83,3.83,0,0,0-3.18-1.35,3.9,3.9,0,0,0-3.24,1.35,6.3,6.3,0,0,0-1.08,4v16.25h-9.84Z" style="fill:#54b791"/></svg>