<svg id="Ebene_1" data-name="Ebene 1" xmlns="http://www.w3.org/2000/svg" viewBox="0 0 560.12 752.29"><path d="M165.53,606.91V618.3c0,1.84-.6,3.25-2.73,3.26-1.46,0-2.85-.87-2.88-2.18-.15-7.94-.35-15.91.06-23.84.15-3.09,4.52-3.48,6.78-.4,3.07,4.18,5.63,8.73,10.31,12.85V595.8a2.24,2.24,0,0,1,2.31-2.56c1.48,0,2.87.69,2.9,2.06.18,8,.35,15.9.06,23.84-.09,2.61-4.16,3.57-6.29,1.54-1.39-1.33-2.12-3.34-3.34-4.88C170.53,613,169.8,609.15,165.53,606.91Z" style="fill:#262023"/><path d="M263.06,620.83c-11,3.52-9.36-11-17.48-10.49-1.89,2.43-1,5.18-1.14,7.75-.14,1.94-.91,3.17-2.85,3.33a2.63,2.63,0,0,1-3.13-2.88q-.08-10.93,0-21.89c0-2.34,1.17-3.63,3.66-3.58,4,.09,8-.33,11.92.26,6.33.95,10,7.36,6,11.51-4.63,4.8-2.64,7.49.32,11.17A36.68,36.68,0,0,1,263.06,620.83Z" style="fill:#1b191e"/><path d="M395,608.07v10.77c0,2.15-1.5,2.75-3.34,2.67a2.4,2.4,0,0,1-2.46-2.34V619c-.06-7.66,0-15.32,0-23,0-1.4.51-2.58,2.12-2.79s3.38-.09,4.43,1.5c2.9,4.39,5.72,8.84,9.13,14.12,2.14-5,.67-9.29,1.47-13.32a2.53,2.53,0,0,1,2.71-2.28,2.29,2.29,0,0,1,2.48,2.08,2.41,2.41,0,0,1,0,.38c.1,7.65.34,15.32,0,23-.14,3.37-4.17,4.26-6.55,1.29-3.07-3.82-5.5-8.14-8.21-12.25Z" style="fill:#211a1b"/><path d="M357,602.91c1.48-2.19,2.62-4.74,4.5-6.5,5.51-5.14,14.77-4.39,19.68,1.29s4.3,16.06-1.24,20.86-15.06,4.14-19.75-1.46c-1.45-1.73-2.24-4-3.33-6.06C354.85,608.32,355,605.61,357,602.91Z" style="fill:#252023"/><path d="M301.17,603c7.06-2.69,8.5-12.64,17.28-9.31a8.35,8.35,0,0,1-.61,1.89c-2,3.35-7.26,5.15-6.73,9.19.47,3.62,3.71,6.84,5.61,10.31.92,1.69,2.64,3.07,2.3,5.77-3.28,1.5-6,1.13-7.93-2.52a39.22,39.22,0,0,0-2.94-5.16c-.88-1.21-1.1-3.52-3.25-3.15s-3.11,2.19-3.61,4.2c-.08.31,0,.66-.1,1-.48,2.54,1.43,6.91-3.72,6.15-3.86-.57-2.19-4.22-2.29-6.55-.22-5.62-.11-11.26,0-16.89,0-2.2-.45-4.91,3.22-4.75,2.88.13,2.77,2.23,2.8,4.22C301.19,599,301.17,600.67,301.17,603Z" style="fill:#201b1c"/><path d="M267.13,621.57c-1.94-.14-2.82-1.21-2.11-3.23,2.64-7.49,5.4-14.94,8-22.44.81-2.34,2.49-2.8,4.61-2.83,2.4,0,4.59,0,5.56,2.93,2.23,6.58,4.62,13.1,6.92,19.66.63,1.78,2.27,4,.24,5.36s-4.31.73-5.53-1.94c-2.54-5.52-7.33-3-11.35-3-1.39,0-2.11,1.42-2.49,2.77C270.46,620.77,269.05,621.41,267.13,621.57Z" style="fill:#1c171a"/><path d="M212.2,605.2c.38-14.58-3.22-11.82,15.11-12.12a15.79,15.79,0,0,1,4,.26,2.06,2.06,0,0,1-.17,4c-3,.23-6,.26-9,.34-2.3.07-3.89,1-3.72,3.53.13,1.87,1.42,2.53,3.23,3.06,3.35,1,9.55-2.61,9.56,2.79,0,3.64-6.21,1.21-9.59,1.75-2.49.4-3.34,1.45-3.38,3.82,0,2.66.42,4.52,3.69,4.41a79.48,79.48,0,0,1,9,.18,2.9,2.9,0,0,1,2.06,1.62,1.95,1.95,0,0,1-2,2.59q-8,.17-15.93,0c-2.06,0-2.77-1.5-2.78-3.35C212.18,614.52,212.2,610.91,212.2,605.2Z" style="fill:#17181d"/><path d="M208.88,594.51c.13,2.32-1,3.08-2.37,3-5.54-.48-5.52,3.08-5.43,7,.12,4.63,0,9.26,0,13.89,0,1.9-.78,3.2-2.84,3.14s-2.92-1.22-2.93-3.17c0-4.63-.13-9.26,0-13.89.09-3.9.09-7.45-5.45-6.94a2.08,2.08,0,0,1-2.43-1.66,2,2,0,0,1,0-.65c.1-1.82,1.55-1.94,2.81-2,5.29-.07,10.58-.06,15.87,0C207.39,593.21,208.65,593.48,208.88,594.51Z" style="fill:#040302"/><path d="M334.27,593.12a12.54,12.54,0,0,1,3,0c2.56.64,6.84-1.88,7.33,2.31.36,3-3.54,1.69-5.53,2.32-2.49.79-2.25,2.93-2.27,4.86-.06,5,0,9.93,0,14.89,0,2.26-.79,3.91-3.32,3.82-2.22-.09-2.36-1.88-2.37-3.54,0-4-.07-7.95,0-11.92,0-4.31.94-9.14-6-8.48a1.87,1.87,0,0,1-2-1.71v0c-.2-1.54.85-2.41,2.33-2.45,3-.07,6,0,8.93,0Z" style="fill:#030201"/><path d="M148.63,606.72c0-3.62,0-7.25,0-10.87a2.39,2.39,0,0,1,2.09-2.66h.17c1.88-.18,3.47.57,3.52,2.46q.26,11.85,0,23.71c0,1.32-1.47,2.23-2.86,2.26a2.73,2.73,0,0,1-3-2.37,2.66,2.66,0,0,1,0-.63V606.74Z" style="fill:#2b2c3e"/><path d="M349.06,620.91c-2.21-.5-1.87-2.29-1.88-3.85,0-6.55.14-13.1-.1-19.65-.17-4.51,2.45-4.6,5.66-4.25,3,9.23,2.17,18.51.39,27.81l-2,.06c-1.87-8.12-.75-16.25-.75-23.1C348.73,604.65,351.72,613,349.06,620.91Z" style="fill:#1b222f"/><path d="M353.13,621l-.39-27.81c4.08,2.46,1.7,6.54,2.45,9.83a8.35,8.35,0,0,1,0,8C354.53,614.36,356.53,618.24,353.13,621Z" style="fill:#d3daf0"/><path d="M349.06,620.91V597.28c2.78,7.85,1.75,15.84,2.05,23.75Z" style="fill:#060507"/><path d="M355.18,611v-8a12.33,12.33,0,0,0,1.82-.09c-.05,2.71-.09,5.42-.14,8.13C356.31,611,355.75,611,355.18,611Z" style="fill:#fff1df"/><path d="M247.11,605.27c-1.21.09-3-.55-2.82-3.85.19-3,1.67-4.07,4.5-3.87,3,.21,6.6.2,6.15,4.5C254.53,605.65,251.18,605,247.11,605.27Z" style="fill:#ece8e6"/><path d="M378.1,607.68c-.1,6-3.18,9.69-7.85,9.37-4.41-.3-7.32-4.56-7-10.29.27-5.26,3.29-8.91,7.44-9C375.17,597.76,378.21,601.77,378.1,607.68Z" style="fill:#f5f5f7"/><path d="M281.94,610.24a10.31,10.31,0,0,1-7.66.33c.41-3.59.92-7.12,4.09-10.57Z" style="fill:#e4e2e1"/><path d="M535.1,2.91c10.7.72,17.27,7,21.68,16.16,3.31,5.19,3.24,11,3.27,16.85q.13,225.38,0,450.76c0,79.28.17,158.57-.17,237.86-1.75,17.43-9.55,25.3-27,27.22-155.84,1-311.68.24-467.51.42-12.65,0-25.3,0-37.94-.4C10,750,2.18,742.23.24,724.78Q-.24,387.88.24,51c0-5,0-10-.1-15,0-5.84,0-11.71,3.27-16.92C7.82,9.9,14.41,3.63,25.09,2.91,33.37-.23,42.09.13,50.67.12q229.4-.24,458.8,0C518.05.14,526.82-.22,535.1,2.91Z" style="fill:#e49bc4"/><path d="M13.28,376q0-171-.15-342c0-17.36,3.69-21.06,20.52-21q246.47.35,492.93,0c17.83,0,20.52,5.07,20.51,20q-.29,343,0,685.9c0,15-2.67,20.09-20.5,20.06q-246.47-.42-492.93,0c-16.84,0-20.57-3.67-20.53-21Q13.54,547,13.28,376Z" style="fill:#fff"/><path d="M407.45,307.13c3.14,67.71-58.32,125-124.55,124.77-65.38-.22-124.19-56.83-124.37-124.73C158.34,239.52,218,181.8,283.91,182.28,351,182.76,410.43,240.44,407.45,307.13Z" style="fill:#e49ac3"/><path d="M375.31,307.3c2.51,48.53-42.77,92.91-92.54,92.32-48.08-.57-91.78-41.89-91.86-92.65-.08-49.18,42.82-92.57,93.23-92.36C333.24,214.82,377.76,258,375.31,307.3Z" style="fill:#fff"/><path d="M347.28,308c2.27,31.6-28.85,63.79-64.32,63.59-30.1-.17-64.55-25.76-63.93-65.34.55-35.42,28.78-62.91,64.66-63.45C318.63,242.26,349.83,274.09,347.28,308Z" style="fill:#e49bc3"/><path d="M315.24,307.3c1.59,15.76-16.22,32.58-31.54,31.94-17.74-.73-32.6-14.86-32.48-32.34.12-17.16,14.78-31.47,31.9-31.9C301.16,274.54,316.92,292.15,315.24,307.3Z" style="fill:#fff"/><path d="M131.12,567.19h10.41v42H131.12Z" style="fill:#e49ac3"/><path d="M147.86,579.19h8.88l.72,3.42a12,12,0,0,1,3.45-2.76,9.17,9.17,0,0,1,4.41-1.08,10.86,10.86,0,0,1,5.94,1.53,9.5,9.5,0,0,1,3.63,4.41,17.66,17.66,0,0,1,1.23,7v17.52h-9.84V592.91A6.24,6.24,0,0,0,165.2,589a3.84,3.84,0,0,0-3.18-1.35,3.89,3.89,0,0,0-3.24,1.35,6.3,6.3,0,0,0-1.08,4v16.26h-9.84Z" style="fill:#e49ac3"/><path d="M184.34,579.19v-8.4h10v8.4H200v8.72h-5.7v9.36a2.89,2.89,0,0,0,.9,2.4,3.56,3.56,0,0,0,2.22.75,10.67,10.67,0,0,0,2.64-.27v8.64a24.18,24.18,0,0,1-6.24.36,11.32,11.32,0,0,1-5-1.53,8.63,8.63,0,0,1-3.33-3.84,15.32,15.32,0,0,1-1.2-6.51v-9.36h-4.26v-8.76Z" style="fill:#e49ac3"/><path d="M218.66,609.61a16.23,16.23,0,0,1-8.13-2,13.44,13.44,0,0,1-5.34-5.49,17.26,17.26,0,0,1-1.89-8.28,16.07,16.07,0,0,1,1.89-7.86,13.61,13.61,0,0,1,5.25-5.34,15.41,15.41,0,0,1,7.74-1.92,16.27,16.27,0,0,1,7.92,1.83,12.91,12.91,0,0,1,5.22,5.19,16,16,0,0,1,1.86,7.86q0,.66-.06,1.44t-.18,1.74H213.8a5.89,5.89,0,0,0,1,2.37,4.78,4.78,0,0,0,1.86,1.5,5.91,5.91,0,0,0,2.49.51,5.65,5.65,0,0,0,2.76-.66,4.92,4.92,0,0,0,1.92-1.92l8.88,2.22a13.67,13.67,0,0,1-5.43,6.51A16.2,16.2,0,0,1,218.66,609.61Zm3.78-18.54a4.7,4.7,0,0,0-.63-2.22,4.23,4.23,0,0,0-1.47-1.5,3.5,3.5,0,0,0-2-.48,4.56,4.56,0,0,0-2.07.6,4.67,4.67,0,0,0-1.56,1.47,4.55,4.55,0,0,0-.75,2.13Z" style="fill:#e49ac3"/><path d="M237.92,579.19h8.94l.66,4.08a10.39,10.39,0,0,1,2.7-2.67,9.43,9.43,0,0,1,3.57-1.44,12.77,12.77,0,0,1,4.53,0v9.36a8.79,8.79,0,0,0-6.87.84,7,7,0,0,0-2.67,2.88,10.53,10.53,0,0,0-1,5v11.94h-9.84Z" style="fill:#e49ac3"/><path d="M279.38,609.19l-.66-3.72a17,17,0,0,1-3.33,3,8.2,8.2,0,0,1-4.59,1.14,11.49,11.49,0,0,1-4.83-1,8.29,8.29,0,0,1-3.51-2.91,8.09,8.09,0,0,1-1.32-4.68,7.88,7.88,0,0,1,2.64-6.12q2.64-2.4,8.34-3.06l6.6-.72v-1.74a2.55,2.55,0,0,0-.84-1.71,3.44,3.44,0,0,0-2.58-.87,4.42,4.42,0,0,0-2.7.84A4.24,4.24,0,0,0,271,590l-8.34-3a11.2,11.2,0,0,1,4.68-6.15,15.31,15.31,0,0,1,8.28-2.07q6.3,0,9.6,3.12a11.26,11.26,0,0,1,3.3,8.58v18.72Zm-.66-12.54-4.68.54a3.5,3.5,0,0,0-2.1.9,2.39,2.39,0,0,0-.72,1.74,2,2,0,0,0,.87,1.68,4,4,0,0,0,2.43.66,4.1,4.1,0,0,0,2.19-.57,4,4,0,0,0,1.47-1.65,6,6,0,0,0,.54-2.7Z" style="fill:#e49ac3"/><path d="M294.2,566h10v23.82h1.26l8.28-10.62h12.79l-12.41,14.72,12.48,15.3H313.82L305.36,598h-1.2v11.22h-10Z" style="fill:#e49ac3"/><path d="M332.72,579.19v-8.4h10v8.4h5.7v8.72h-5.7v9.36a2.89,2.89,0,0,0,.9,2.4,3.56,3.56,0,0,0,2.22.75,10.67,10.67,0,0,0,2.64-.27v8.64a24.18,24.18,0,0,1-6.24.36,11.32,11.32,0,0,1-5-1.53,8.63,8.63,0,0,1-3.33-3.84,15.32,15.32,0,0,1-1.2-6.51v-9.36h-4.26v-8.76Z" style="fill:#e49ac3"/><path d="M359,577a6.15,6.15,0,0,1-4.44-1.59,5.13,5.13,0,0,1-1.68-3.87,5.19,5.19,0,0,1,1.68-3.93,7,7,0,0,1,8.85,0,5.15,5.15,0,0,1,1.71,3.93,5.09,5.09,0,0,1-1.71,3.87A6.18,6.18,0,0,1,359,577Zm-4.92,2.22h9.84v30h-9.84Z" style="fill:#e49ac3"/><path d="M385.28,609.61a16.53,16.53,0,0,1-7.92-1.86,13.63,13.63,0,0,1-5.49-5.34,16,16,0,0,1-2-8.22,15.74,15.74,0,0,1,2-8.19,14.11,14.11,0,0,1,5.55-5.34,17.88,17.88,0,0,1,16,0A14,14,0,0,1,399,586a17.41,17.41,0,0,1,0,16.41,13.94,13.94,0,0,1-5.64,5.34A17.15,17.15,0,0,1,385.28,609.61Zm0-8.94a4.68,4.68,0,0,0,2.49-.72,5.2,5.2,0,0,0,1.89-2.16,9.36,9.36,0,0,0,0-7.2,5.2,5.2,0,0,0-1.86-2.16,4.36,4.36,0,0,0-2.4-.72,4.49,4.49,0,0,0-2.49.72,4.86,4.86,0,0,0-1.77,2.16,8.72,8.72,0,0,0-.66,3.6,9,9,0,0,0,.63,3.6,4.73,4.73,0,0,0,1.74,2.16,4.46,4.46,0,0,0,2.43.72Z" style="fill:#e49ac3"/><path d="M405.74,579.19h8.88l.72,3.42a12,12,0,0,1,3.45-2.76,9.17,9.17,0,0,1,4.41-1.08,10.86,10.86,0,0,1,5.94,1.53,9.5,9.5,0,0,1,3.63,4.41,17.66,17.66,0,0,1,1.23,7v17.52h-9.84V592.91a6.24,6.24,0,0,0-1.08-3.93,3.84,3.84,0,0,0-3.18-1.35,3.89,3.89,0,0,0-3.24,1.35,6.3,6.3,0,0,0-1.08,4v16.26h-9.84Z" style="fill:#e49ac3"/></svg>