<svg id="Ebene_1" data-name="Ebene 1" xmlns="http://www.w3.org/2000/svg" viewBox="0 0 558.27 748.19"><path d="M17.19,745.25v1.85c-3-.1-5.13-1.31-5.78-4.45A12.46,12.46,0,0,1,17.19,745.25Z" style="fill:#f4f3f5"/><path d="M5.65,736.92c-2.2-.7-2.4-2.44-2.25-4.36A5.87,5.87,0,0,1,5.65,736.92Z" style="fill:#f4f3f5"/><path d="M546.93,742.65a3,3,0,0,1-1.72,2.51c-1,.92-1.82.82-2.54-.31A5.84,5.84,0,0,1,546.93,742.65Z" style="fill:#f2f2f3"/><path d="M542.67,744.85l2.54.31c-.89,1.56-2.37,1.91-4,1.94v-1.85A1.2,1.2,0,0,1,542.67,744.85Z" style="fill:#f4f3f5"/><path d="M7.37,739a2.71,2.71,0,0,1-1.94-2.34A2.6,2.6,0,0,1,7.37,739Z" style="fill:#f4f3f5"/><path d="M11.62,742.86a2.71,2.71,0,0,1-2.35-1.93A2.61,2.61,0,0,1,11.62,742.86Z" style="fill:#f4f3f5"/><path d="M549.09,740.9a2.79,2.79,0,0,1-2.35,2A2.65,2.65,0,0,1,549.09,740.9Z" style="fill:#f4f3f5"/><path d="M9.37,741a3,3,0,0,1-2.1-2.1A2.72,2.72,0,0,1,9.37,741Z" style="fill:#f4f3f5"/><path d="M262.7,605.69c-.2,3.61-.32,7.23-.63,10.84a2.57,2.57,0,0,1-2.65,2.39c-1.48,0-2.68-.76-2.7-2.25-.13-8-.4-15.94,0-23.88.14-3,4.6-3.18,6.87-.08,2.9,4,5.33,8.28,9.28,14.51.22-6,.37-10,.51-14a2.46,2.46,0,0,1,2.38-2.53h.08c2-.27,3.25.64,3.27,2.61.07,7.63,0,15.27,0,22.9a2.4,2.4,0,0,1-2.18,2.73c-1.58.19-3.45.14-4.49-1.39-2.74-4-5.33-8.15-8-12.23Z" style="fill:#1d1a1f"/><path d="M330.88,606.28c2.26,4.46,5.89,7.34,6.51,12.1-10.32,3.52-8.76-11.86-17.27-11.06-1.65,3-.54,6-1,8.92-.3,2-1.43,2.8-3.37,2.69a2.39,2.39,0,0,1-2.46-2.29,1.34,1.34,0,0,1,0-.2c-.08-7.66-.08-15.31-.08-23,0-2.07,1.3-2.94,3.16-3,3-.09,6-.13,9-.05,4,.1,8.14,0,10.08,4.67C337.59,600.12,335.09,603.33,330.88,606.28Z" style="fill:#1b1617"/><path d="M364.79,619c-8.29-.18-13.91-6.52-13.48-15.21.42-8.38,5.9-13.58,14.11-13.4,8.44.18,14,6.39,13.57,15C378.54,613.59,372.67,619.2,364.79,619Z" style="fill:#211c1f"/><path d="M190.69,619c-4.17.08-7.89-.91-10.53-4.43-1.13-1.5-1.29-3,.34-4.3,1.15-.9,2.68-1.21,3.57-.1,2.21,2.75,4.59,4.8,8.38,3.69,1.28-.38,2.54-1,2.79-2.5s-.79-2.39-2.09-2.88c-2.78-1-5.63-1.89-8.37-3-3.4-1.42-5.43-4.18-5-7.79.47-4,3.12-6.48,7.26-7,4.37-.55,8.72-.73,11.93,3,1,1.14,2.51,2.66,1.14,4.31a3.09,3.09,0,0,1-4.46.26c-1.46-1.11-2.44-3.15-4.78-3.2-2.11,0-4.29.13-4.81,2.47-.42,1.85,1.37,2.75,2.91,3.33s3.19.91,4.74,1.49c6.7,2.51,8.53,4.87,7.65,9.7C200.58,616.35,196.64,618.92,190.69,619Z" style="fill:#221d20"/><path d="M309.69,616.65a2.27,2.27,0,0,1-1.92,2.21c-1.62.3-3.79.37-4.28-1.44-1.7-6.26-6.67-3.93-10.59-4.38s-3.35,3.44-5.14,5a3.45,3.45,0,0,1-3.66.68c-1.55-.6-1.38-2.12-1-3.35,2.62-7.46,5.14-15,8.07-22.31,1.21-3,7.94-4.07,9.12-1.35C303.88,599.86,306.63,608.32,309.69,616.65Z" style="fill:#1c171a"/><path d="M212.49,614.44c4.14,0,7.69-.05,11.24,0,1.33,0,2.89.47,3,1.94.19,2.21-1.67,2.56-3.35,2.59-5,.07-10,.19-15,0-4.63-.18-6.08-2.48-3.56-6.3,3.65-5.51,8-10.59,12.38-16.36-3-2.41-6.43-.63-9.32-1.49a3.43,3.43,0,0,1-2.11-1.66c-.41-1.54.73-2.49,2.17-2.53,5-.15,10-.36,14.94-.16,4.14.17,4.06,2.88,2.28,5.51-2.23,3.29-4.94,6.26-7.29,9.47C216.09,608,213.23,610,212.49,614.44Z" style="fill:#201b1d"/><path d="M250.09,604.32c-2.79,2.57-6.28,1.3-9.47,1.44-3,.13-4.08,1.5-4.13,4.31s1.13,4.33,4.07,4.31c2.66,0,5.32,0,8,.1,1.34,0,2.68.39,2.83,2s-1,2.26-2.4,2.45a4.26,4.26,0,0,0-1,.08c-17,2.07-17.69,1.6-17.49-15.69.17-14.75-2.85-12.69,13.26-12.92a44.09,44.09,0,0,1,5,.2c1.43.16,2.46.94,2.17,2.57a2.07,2.07,0,0,1-2.06,1.69c-3.32.13-6.64.09-10,.27a2.33,2.33,0,0,0-2.34,2.33,2,2,0,0,0,0,.23c0,1.83.33,3.32,2.54,3.39,2.66.08,5.31.06,8,.14A2.74,2.74,0,0,1,250.09,604.32Z" style="fill:#18181f"/><path d="M341.4,604.25c0-3.66-.1-7.32,0-11,.08-2,1.5-2.73,3.4-2.6a2.35,2.35,0,0,1,2.32,2.37c0,.08,0,.16,0,.24q.06,11.46,0,23a2.33,2.33,0,0,1-2,2.6l-.28,0c-1.93.13-3.3-.6-3.35-2.63-.11-4,0-8,0-12Z" style="fill:#060507"/><path d="M324.09,594.9c2.55.09,5.67-.34,5.67,3.45,0,4.15-3.36,4-6.3,4.23-2.73.17-4.11-.89-4.34-3.81C318.77,594.73,321.33,594.83,324.09,594.9Z" style="fill:#e5e4e7"/><path d="M372.67,605c-.22,5.59-3.92,9.78-8.23,9.31-4.11-.44-7.25-5.34-6.85-10.69s3.38-8.71,7.75-8.59C370,595.15,372.9,599.11,372.67,605Z" style="fill:#f4f3f3"/><path d="M296.43,597.18c4.36,11.4,4.36,11.4-4.29,10.61C292.76,604,293.09,600.12,296.43,597.18Z" style="fill:#d4d0d0"/><path d="M541.17,1a44.93,44.93,0,0,1,11.46,8.33,16,16,0,0,1,5,8c1,18,.53,36,.53,54q0,323.91-.11,647.83c0,2.67,0,5.34-.13,8-.28,5.33-2.64,9.75-6.1,13.67a19.4,19.4,0,0,1-5,4.1,24.27,24.27,0,0,1-6.27,2.51,23.48,23.48,0,0,1-3.64.43q-257.52.64-515,0A20.45,20.45,0,0,1,14.09,746a16.36,16.36,0,0,1-2.45-1.3,15.41,15.41,0,0,1-2-1.6c-.3-.28-.6-.58-.91-.86-.6-.56-1.16-1.16-1.73-1.76-.29-.29-.56-.6-.86-.9A17.18,17.18,0,0,1,3,735.34a20.36,20.36,0,0,1-2.13-5.67,26,26,0,0,1-.39-3.52c-.84-13.67-.4-27.34-.4-41Q-.06,377.23.12,69.3C.12,52-.38,34.66.88,17.36a16.07,16.07,0,0,1,5-8.06A44.47,44.47,0,0,1,17.35,1C20.53-.51,23.91.18,27.2.18H531.44C534.6.16,538-.53,541.17,1Z" style="fill:#4b4697"/><path d="M281.42,428.83c-69-.13-123.72-55.59-124.08-124.78-.35-67,55-125,125.43-124.66,68,.31,124.31,56,124.17,125C406.79,373.66,351.09,429,281.42,428.83Z" style="fill:#fff"/><path d="M299.16,205.83c38.1,5.25,71.68,37.28,79.49,72.39-1.69,3-4.66,1.92-7.14,2-5.51.21-8.22,2.57-9.07,8.36-1.78,12.1-12.95,17-23.25,10.7a53,53,0,0,0-6.87-4,8.55,8.55,0,0,0-10.09,2c-2.86,3-3,6.56-.69,10.05,4.33,6.53,7.32,14.54,17.71,13.57,4.39-.41,6.34,3,6.68,7.16.4,4.73.16,9.25-3.3,13.11-5.88,6.56-10.21,13.9-10.87,23a10.42,10.42,0,0,1-3.67,6.86c-6.66,6.18-11.74,13.61-16.47,21.27-3.44,5.56-8,9.17-14.72,8.22s-10.29-5.37-12.34-11.61-2.18-12.42-2.24-18.75c0-2.66.1-5.34-.13-8-.64-7.56-2.33-9.1-9.9-9.49-5.3-.27-10.59.35-15.9-.9-12.33-2.9-19.91-10.38-22-22.85-2.32-14.17.46-26.49,13.41-34.94,3.33-2.18,6.32-4.89,9.49-7.32,9.68-7.44,20.43-8.46,31-3,7.22,3.72,13.6,4.21,20.86,1.08,5.18-2.23,10.65-3.79,16-5.67a7,7,0,0,0,5.06-7.69c-.27-3.66-2.44-6.61-6.13-6.87a28,28,0,0,1-17.81-7.41c-2.26-2.09-5.7-1.47-8.69-1.47-12.33,0-24.66.09-37,0-7.19-.07-9.46-1.68-10.41-6.73-1-5.52,1-8.9,7.73-10.7,5.44-1.45,9.9-3.54,12.54-8.76,2-4,5.62-5.45,9.94-5.4h4c12.48-.25,13.06-.83,14-13.74A42.19,42.19,0,0,1,299.16,205.83Z" style="fill:#4b4697"/><path d="M185.21,576.18a5.51,5.51,0,0,0,1.23,2.79,5.18,5.18,0,0,0,2.28,1.5,9.49,9.49,0,0,0,3,.45,7,7,0,0,0,4.35-1.17,3.67,3.67,0,0,0,1.53-3,3.19,3.19,0,0,0-.93-2.4,7.52,7.52,0,0,0-2.58-1.53q-1.65-.63-3.81-1.29-2.42-.66-4.86-1.53a21.62,21.62,0,0,1-4.56-2.22,9.66,9.66,0,0,1-4.57-8.91,11,11,0,0,1,2-6.72,12.57,12.57,0,0,1,5.52-4.17,21.07,21.07,0,0,1,8-1.41,20.35,20.35,0,0,1,7.26,1.2,12.6,12.6,0,0,1,8.17,9.24l-9.6,1.68a4,4,0,0,0-1.08-2.16,5.2,5.2,0,0,0-2-1.23,7.28,7.28,0,0,0-4.95.09,4.66,4.66,0,0,0-2,1.38,3.1,3.1,0,0,0-.75,2.1,2.84,2.84,0,0,0,.87,2.16,8,8,0,0,0,2.37,1.5c1,.44,2.09.86,3.3,1.26q2.44.78,5,1.68a23.31,23.31,0,0,1,4.8,2.31,11.16,11.16,0,0,1,3.57,3.6,10.34,10.34,0,0,1,1.35,5.49,12,12,0,0,1-1.74,6.36,12.18,12.18,0,0,1-5.22,4.5,20.43,20.43,0,0,1-8.82,1.68,23.77,23.77,0,0,1-8.07-1.29,14.3,14.3,0,0,1-5.85-3.81,12.54,12.54,0,0,1-3-6.18Z" style="fill:#fff"/><path d="M237.65,566.88l-12.9,13.32h13.14V589H212.15V581.1l12.66-13.38h-12.6V559h25.44Z" style="fill:#fff"/><path d="M257,589.38a16.33,16.33,0,0,1-8.13-2,13.44,13.44,0,0,1-5.34-5.49,17.26,17.26,0,0,1-1.89-8.28,15.83,15.83,0,0,1,1.89-7.86,13.48,13.48,0,0,1,5.25-5.34,15.26,15.26,0,0,1,7.74-1.92,16.3,16.3,0,0,1,7.92,1.83,12.91,12.91,0,0,1,5.22,5.19,16,16,0,0,1,1.86,7.86q0,.66-.06,1.44c0,.52-.11,1.1-.18,1.74H252.09a5.78,5.78,0,0,0,1,2.37,4.78,4.78,0,0,0,1.86,1.5,5.91,5.91,0,0,0,2.49.51,5.65,5.65,0,0,0,2.76-.66,5,5,0,0,0,1.92-1.92l8.88,2.22a13.73,13.73,0,0,1-5.43,6.51A16.19,16.19,0,0,1,257,589.38Zm3.78-18.54a4.79,4.79,0,0,0-.63-2.22,4.31,4.31,0,0,0-1.47-1.5,3.46,3.46,0,0,0-2-.48,4.44,4.44,0,0,0-2.07.6,4.67,4.67,0,0,0-1.56,1.47,4.41,4.41,0,0,0-.75,2.13Z" style="fill:#fff"/><path d="M276.23,559h8.86l.72,3.42a11.71,11.71,0,0,1,3.45-2.76,9,9,0,0,1,4.41-1.08,10.9,10.9,0,0,1,5.94,1.53,9.5,9.5,0,0,1,3.63,4.41,18,18,0,0,1,1.23,7V589h-9.84V572.68a6.22,6.22,0,0,0-1.08-3.93,4.49,4.49,0,0,0-6.42,0,6.18,6.18,0,0,0-1.08,4V589h-9.84Z" style="fill:#fff"/><path d="M327.23,589l-.66-3.72a17.57,17.57,0,0,1-3.33,3,8.24,8.24,0,0,1-4.59,1.14,11.59,11.59,0,0,1-4.83-1,8.3,8.3,0,0,1-3.51-2.91,8.63,8.63,0,0,1,1.32-10.8q2.64-2.4,8.34-3.06l6.6-.72v-1.74a2.55,2.55,0,0,0-.84-1.71,3.41,3.41,0,0,0-2.58-.87,4.35,4.35,0,0,0-2.7.84,4.13,4.13,0,0,0-1.56,2.34l-8.34-3a11.2,11.2,0,0,1,4.68-6.15,15.29,15.29,0,0,1,8.28-2.07q6.3,0,9.6,3.12a11.26,11.26,0,0,1,3.3,8.58V589Zm-.66-12.54-4.68.54a3.48,3.48,0,0,0-2.1.9,2.28,2.28,0,0,0-.72,1.74,2,2,0,0,0,.87,1.68,3.92,3.92,0,0,0,2.43.66,4.15,4.15,0,0,0,2.19-.57,4,4,0,0,0,1.47-1.65,6.13,6.13,0,0,0,.54-2.7Z" style="fill:#fff"/><path d="M342.09,559H351l.66,4.08a10.09,10.09,0,0,1,2.7-2.67,9.45,9.45,0,0,1,3.56-1.44,12.82,12.82,0,0,1,4.54,0v9.36a8.78,8.78,0,0,0-6.87.84,7,7,0,0,0-2.68,2.88,10.75,10.75,0,0,0-1,5V589h-9.85Z" style="fill:#fff"/><path d="M372.53,556.74a6.23,6.23,0,0,1-4.44-1.59,5.1,5.1,0,0,1-1.68-3.87,5.15,5.15,0,0,1,1.68-3.93,7,7,0,0,1,8.85,0,5.3,5.3,0,0,1,0,7.8A6.27,6.27,0,0,1,372.53,556.74ZM367.61,559h9.83v30h-9.83Z" style="fill:#fff"/><path d="M398.81,589.38a16.5,16.5,0,0,1-7.92-1.86,13.63,13.63,0,0,1-5.49-5.34,16.07,16.07,0,0,1-2-8.22,15.74,15.74,0,0,1,2-8.19,14,14,0,0,1,5.55-5.34,16.39,16.39,0,0,1,7.95-1.89,16.63,16.63,0,0,1,8,1.89,14,14,0,0,1,5.58,5.34,17.46,17.46,0,0,1,0,16.41,14,14,0,0,1-5.65,5.34A17.18,17.18,0,0,1,398.81,589.38Zm0-8.94a4.68,4.68,0,0,0,2.49-.72,5.27,5.27,0,0,0,1.89-2.16,9.36,9.36,0,0,0,0-7.2,5.27,5.27,0,0,0-1.86-2.16,4.38,4.38,0,0,0-2.4-.72,4.47,4.47,0,0,0-2.49.72,4.86,4.86,0,0,0-1.77,2.16A8.53,8.53,0,0,0,394,574a8.89,8.89,0,0,0,.63,3.6,4.72,4.72,0,0,0,1.74,2.16A4.43,4.43,0,0,0,398.81,580.44Z" style="fill:#fff"/></svg>